<?xml version="1.0" encoding="utf-8" standalone="no"?>
<!DOCTYPE svg PUBLIC "-//W3C//DTD SVG 1.1//EN"
  "http://www.w3.org/Graphics/SVG/1.1/DTD/svg11.dtd">
<svg xmlns:xlink="http://www.w3.org/1999/xlink" width="460.8pt" height="345.6pt" viewBox="0 0 460.8 345.6" xmlns="http://www.w3.org/2000/svg" version="1.1">
 <metadata>
  <rdf:RDF xmlns:dc="http://purl.org/dc/elements/1.1/" xmlns:cc="http://creativecommons.org/ns#" xmlns:rdf="http://www.w3.org/1999/02/22-rdf-syntax-ns#">
   <cc:Work>
    <dc:type rdf:resource="http://purl.org/dc/dcmitype/StillImage"/>
    <dc:date>2024-12-28T10:24:37.231905</dc:date>
    <dc:format>image/svg+xml</dc:format>
    <dc:creator>
     <cc:Agent>
      <dc:title>Matplotlib v3.7.5, https://matplotlib.org/</dc:title>
     </cc:Agent>
    </dc:creator>
   </cc:Work>
  </rdf:RDF>
 </metadata>
 <defs>
  <style type="text/css">*{stroke-linejoin: round; stroke-linecap: butt}</style>
 </defs>
 <g id="figure_1">
  <g id="patch_1">
   <path d="M 0 345.6 
L 460.8 345.6 
L 460.8 0 
L 0 0 
z
" style="fill: #ffffff"/>
  </g>
  <g id="axes_1">
   <g id="LineCollection_1">
    <path d="M 82.899806 50.492418 
L 113.659241 47.033379 
" clip-path="url(#p744029e2d3)" style="fill: none; stroke: #000000"/>
    <path d="M 82.899806 50.492418 
L 125.824506 57.429049 
" clip-path="url(#p744029e2d3)" style="fill: none; stroke: #000000"/>
    <path d="M 82.899806 50.492418 
L 90.466677 64.314398 
" clip-path="url(#p744029e2d3)" style="fill: none; stroke: #000000"/>
    <path d="M 113.659241 47.033379 
L 125.824506 57.429049 
" clip-path="url(#p744029e2d3)" style="fill: none; stroke: #000000"/>
    <path d="M 113.659241 47.033379 
L 90.466677 64.314398 
" clip-path="url(#p744029e2d3)" style="fill: none; stroke: #000000"/>
    <path d="M 67.010277 81.792 
L 90.466677 64.314398 
" clip-path="url(#p744029e2d3)" style="fill: none; stroke: #000000"/>
    <path d="M 125.824506 57.429049 
L 90.466677 64.314398 
" clip-path="url(#p744029e2d3)" style="fill: none; stroke: #000000"/>
   </g>
   <g id="PathCollection_1">
    <defs>
     <path id="m2a6744397d" d="M 0 1.732051 
C 0.459345 1.732051 0.899939 1.549551 1.224745 1.224745 
C 1.549551 0.899939 1.732051 0.459345 1.732051 0 
C 1.732051 -0.459345 1.549551 -0.899939 1.224745 -1.224745 
C 0.899939 -1.549551 0.459345 -1.732051 0 -1.732051 
C -0.459345 -1.732051 -0.899939 -1.549551 -1.224745 -1.224745 
C -1.549551 -0.899939 -1.732051 -0.459345 -1.732051 0 
C -1.732051 0.459345 -1.549551 0.899939 -1.224745 1.224745 
C -0.899939 1.549551 -0.459345 1.732051 0 1.732051 
z
" style="stroke: #1f78b4"/>
    </defs>
    <g clip-path="url(#p744029e2d3)">
     <use xlink:href="#m2a6744397d" x="82.899806" y="50.492418" style="fill: #1f78b4; stroke: #1f78b4"/>
     <use xlink:href="#m2a6744397d" x="113.659241" y="47.033379" style="fill: #1f78b4; stroke: #1f78b4"/>
     <use xlink:href="#m2a6744397d" x="67.010277" y="81.792" style="fill: #1f78b4; stroke: #1f78b4"/>
     <use xlink:href="#m2a6744397d" x="125.824506" y="57.429049" style="fill: #1f78b4; stroke: #1f78b4"/>
     <use xlink:href="#m2a6744397d" x="90.466677" y="64.314398" style="fill: #1f78b4; stroke: #1f78b4"/>
    </g>
   </g>
  </g>
  <g id="axes_2">
   <g id="LineCollection_2">
    <path d="M 172.290514 81.792 
L 160.172016 47.033379 
" clip-path="url(#p42dd89f8c1)" style="fill: none; stroke: #000000"/>
    <path d="M 172.290514 81.792 
L 218.986245 58.424313 
" clip-path="url(#p42dd89f8c1)" style="fill: none; stroke: #000000"/>
    <path d="M 160.172016 47.033379 
L 218.986245 58.424313 
" clip-path="url(#p42dd89f8c1)" style="fill: none; stroke: #000000"/>
   </g>
   <g id="PathCollection_2">
    <g clip-path="url(#p42dd89f8c1)">
     <use xlink:href="#m2a6744397d" x="172.290514" y="81.792" style="fill: #1f78b4; stroke: #1f78b4"/>
     <use xlink:href="#m2a6744397d" x="160.172016" y="47.033379" style="fill: #1f78b4; stroke: #1f78b4"/>
     <use xlink:href="#m2a6744397d" x="218.986245" y="58.424313" style="fill: #1f78b4; stroke: #1f78b4"/>
    </g>
   </g>
  </g>
  <g id="axes_3">
   <g id="LineCollection_3">
    <path d="M 253.333755 60.720175 
L 261.821933 47.033379 
" clip-path="url(#pf86a17783c)" style="fill: none; stroke: #000000"/>
    <path d="M 253.333755 60.720175 
L 282.912767 61.185684 
" clip-path="url(#pf86a17783c)" style="fill: none; stroke: #000000"/>
    <path d="M 261.821933 47.033379 
L 282.912767 61.185684 
" clip-path="url(#pf86a17783c)" style="fill: none; stroke: #000000"/>
    <path d="M 293.602275 81.792 
L 282.912767 61.185684 
" clip-path="url(#pf86a17783c)" style="fill: none; stroke: #000000"/>
    <path d="M 282.912767 61.185684 
L 312.147984 52.169417 
" clip-path="url(#pf86a17783c)" style="fill: none; stroke: #000000"/>
   </g>
   <g id="PathCollection_3">
    <g clip-path="url(#pf86a17783c)">
     <use xlink:href="#m2a6744397d" x="253.333755" y="60.720175" style="fill: #1f78b4; stroke: #1f78b4"/>
     <use xlink:href="#m2a6744397d" x="261.821933" y="47.033379" style="fill: #1f78b4; stroke: #1f78b4"/>
     <use xlink:href="#m2a6744397d" x="293.602275" y="81.792" style="fill: #1f78b4; stroke: #1f78b4"/>
     <use xlink:href="#m2a6744397d" x="282.912767" y="61.185684" style="fill: #1f78b4; stroke: #1f78b4"/>
     <use xlink:href="#m2a6744397d" x="312.147984" y="52.169417" style="fill: #1f78b4; stroke: #1f78b4"/>
    </g>
   </g>
  </g>
  <g id="axes_4">
   <g id="LineCollection_4">
    <path d="M 380.64476 81.792 
L 405.309723 72.060131 
" clip-path="url(#pfb1e5916f1)" style="fill: none; stroke: #000000"/>
    <path d="M 380.64476 81.792 
L 372.05227 63.469091 
" clip-path="url(#pfb1e5916f1)" style="fill: none; stroke: #000000"/>
    <path d="M 405.309723 72.060131 
L 372.05227 63.469091 
" clip-path="url(#pfb1e5916f1)" style="fill: none; stroke: #000000"/>
    <path d="M 346.495494 47.033379 
L 372.05227 63.469091 
" clip-path="url(#pfb1e5916f1)" style="fill: none; stroke: #000000"/>
   </g>
   <g id="PathCollection_4">
    <g clip-path="url(#pfb1e5916f1)">
     <use xlink:href="#m2a6744397d" x="380.64476" y="81.792" style="fill: #1f78b4; stroke: #1f78b4"/>
     <use xlink:href="#m2a6744397d" x="405.309723" y="72.060131" style="fill: #1f78b4; stroke: #1f78b4"/>
     <use xlink:href="#m2a6744397d" x="346.495494" y="47.033379" style="fill: #1f78b4; stroke: #1f78b4"/>
     <use xlink:href="#m2a6744397d" x="372.05227" y="63.469091" style="fill: #1f78b4; stroke: #1f78b4"/>
    </g>
   </g>
  </g>
  <g id="axes_5">
   <g id="LineCollection_5">
    <path d="M 116.003352 102.091034 
L 125.824506 124.612892 
" clip-path="url(#pf3d48cf647)" style="fill: none; stroke: #000000"/>
    <path d="M 116.003352 102.091034 
L 96.654524 123.927129 
" clip-path="url(#pf3d48cf647)" style="fill: none; stroke: #000000"/>
    <path d="M 125.824506 124.612892 
L 96.654524 123.927129 
" clip-path="url(#pf3d48cf647)" style="fill: none; stroke: #000000"/>
    <path d="M 67.010277 136.849655 
L 96.654524 123.927129 
" clip-path="url(#pf3d48cf647)" style="fill: none; stroke: #000000"/>
   </g>
   <g id="PathCollection_5">
    <g clip-path="url(#pf3d48cf647)">
     <use xlink:href="#m2a6744397d" x="116.003352" y="102.091034" style="fill: #1f78b4; stroke: #1f78b4"/>
     <use xlink:href="#m2a6744397d" x="125.824506" y="124.612892" style="fill: #1f78b4; stroke: #1f78b4"/>
     <use xlink:href="#m2a6744397d" x="67.010277" y="136.849655" style="fill: #1f78b4; stroke: #1f78b4"/>
     <use xlink:href="#m2a6744397d" x="96.654524" y="123.927129" style="fill: #1f78b4; stroke: #1f78b4"/>
    </g>
   </g>
  </g>
  <g id="axes_6">
   <g id="LineCollection_6">
    <path d="M 193.152197 134.209913 
L 218.986245 127.484526 
" clip-path="url(#pf9dfbccc45)" style="fill: none; stroke: #000000"/>
    <path d="M 193.152197 134.209913 
L 194.632007 120.025895 
" clip-path="url(#pf9dfbccc45)" style="fill: none; stroke: #000000"/>
    <path d="M 193.152197 134.209913 
L 212.322258 136.849655 
" clip-path="url(#pf9dfbccc45)" style="fill: none; stroke: #000000"/>
    <path d="M 218.986245 127.484526 
L 194.632007 120.025895 
" clip-path="url(#pf9dfbccc45)" style="fill: none; stroke: #000000"/>
    <path d="M 218.986245 127.484526 
L 212.322258 136.849655 
" clip-path="url(#pf9dfbccc45)" style="fill: none; stroke: #000000"/>
    <path d="M 203.16315 102.091034 
L 194.632007 120.025895 
" clip-path="url(#pf9dfbccc45)" style="fill: none; stroke: #000000"/>
    <path d="M 160.172016 113.232699 
L 194.632007 120.025895 
" clip-path="url(#pf9dfbccc45)" style="fill: none; stroke: #000000"/>
    <path d="M 194.632007 120.025895 
L 212.322258 136.849655 
" clip-path="url(#pf9dfbccc45)" style="fill: none; stroke: #000000"/>
   </g>
   <g id="PathCollection_6">
    <g clip-path="url(#pf9dfbccc45)">
     <use xlink:href="#m2a6744397d" x="193.152197" y="134.209913" style="fill: #1f78b4; stroke: #1f78b4"/>
     <use xlink:href="#m2a6744397d" x="218.986245" y="127.484526" style="fill: #1f78b4; stroke: #1f78b4"/>
     <use xlink:href="#m2a6744397d" x="203.16315" y="102.091034" style="fill: #1f78b4; stroke: #1f78b4"/>
     <use xlink:href="#m2a6744397d" x="160.172016" y="113.232699" style="fill: #1f78b4; stroke: #1f78b4"/>
     <use xlink:href="#m2a6744397d" x="194.632007" y="120.025895" style="fill: #1f78b4; stroke: #1f78b4"/>
     <use xlink:href="#m2a6744397d" x="212.322258" y="136.849655" style="fill: #1f78b4; stroke: #1f78b4"/>
    </g>
   </g>
  </g>
  <g id="axes_7">
   <g id="LineCollection_7">
    <path d="M 312.147984 110.559561 
L 288.325327 102.091034 
" clip-path="url(#pca149a6534)" style="fill: none; stroke: #000000"/>
    <path d="M 312.147984 110.559561 
L 253.333755 107.606859 
" clip-path="url(#pca149a6534)" style="fill: none; stroke: #000000"/>
    <path d="M 312.147984 110.559561 
L 274.524498 119.369158 
" clip-path="url(#pca149a6534)" style="fill: none; stroke: #000000"/>
    <path d="M 288.325327 102.091034 
L 253.333755 107.606859 
" clip-path="url(#pca149a6534)" style="fill: none; stroke: #000000"/>
    <path d="M 288.325327 102.091034 
L 274.524498 119.369158 
" clip-path="url(#pca149a6534)" style="fill: none; stroke: #000000"/>
    <path d="M 260.560019 136.849655 
L 274.524498 119.369158 
" clip-path="url(#pca149a6534)" style="fill: none; stroke: #000000"/>
    <path d="M 253.333755 107.606859 
L 274.524498 119.369158 
" clip-path="url(#pca149a6534)" style="fill: none; stroke: #000000"/>
   </g>
   <g id="PathCollection_7">
    <g clip-path="url(#pca149a6534)">
     <use xlink:href="#m2a6744397d" x="312.147984" y="110.559561" style="fill: #1f78b4; stroke: #1f78b4"/>
     <use xlink:href="#m2a6744397d" x="288.325327" y="102.091034" style="fill: #1f78b4; stroke: #1f78b4"/>
     <use xlink:href="#m2a6744397d" x="260.560019" y="136.849655" style="fill: #1f78b4; stroke: #1f78b4"/>
     <use xlink:href="#m2a6744397d" x="253.333755" y="107.606859" style="fill: #1f78b4; stroke: #1f78b4"/>
     <use xlink:href="#m2a6744397d" x="274.524498" y="119.369158" style="fill: #1f78b4; stroke: #1f78b4"/>
    </g>
   </g>
  </g>
  <g id="axes_8">
   <g id="LineCollection_8">
    <path d="M 396.595203 136.849655 
L 405.309723 123.217594 
" clip-path="url(#pc42600520a)" style="fill: none; stroke: #000000"/>
    <path d="M 396.595203 136.849655 
L 375.741354 122.579489 
" clip-path="url(#pc42600520a)" style="fill: none; stroke: #000000"/>
    <path d="M 405.309723 123.217594 
L 375.741354 122.579489 
" clip-path="url(#pc42600520a)" style="fill: none; stroke: #000000"/>
    <path d="M 346.495494 131.439542 
L 375.741354 122.579489 
" clip-path="url(#pc42600520a)" style="fill: none; stroke: #000000"/>
    <path d="M 365.301251 102.091034 
L 375.741354 122.579489 
" clip-path="url(#pc42600520a)" style="fill: none; stroke: #000000"/>
   </g>
   <g id="PathCollection_8">
    <g clip-path="url(#pc42600520a)">
     <use xlink:href="#m2a6744397d" x="396.595203" y="136.849655" style="fill: #1f78b4; stroke: #1f78b4"/>
     <use xlink:href="#m2a6744397d" x="405.309723" y="123.217594" style="fill: #1f78b4; stroke: #1f78b4"/>
     <use xlink:href="#m2a6744397d" x="346.495494" y="131.439542" style="fill: #1f78b4; stroke: #1f78b4"/>
     <use xlink:href="#m2a6744397d" x="365.301251" y="102.091034" style="fill: #1f78b4; stroke: #1f78b4"/>
     <use xlink:href="#m2a6744397d" x="375.741354" y="122.579489" style="fill: #1f78b4; stroke: #1f78b4"/>
    </g>
   </g>
  </g>
  <g id="axes_9">
   <g id="LineCollection_9">
    <path d="M 67.010277 165.128698 
L 79.800811 157.14869 
" clip-path="url(#p1014a2a0e3)" style="fill: none; stroke: #000000"/>
    <path d="M 67.010277 165.128698 
L 94.450692 173.223085 
" clip-path="url(#p1014a2a0e3)" style="fill: none; stroke: #000000"/>
    <path d="M 79.800811 157.14869 
L 94.450692 173.223085 
" clip-path="url(#p1014a2a0e3)" style="fill: none; stroke: #000000"/>
    <path d="M 71.172168 186.67731 
L 94.450692 173.223085 
" clip-path="url(#p1014a2a0e3)" style="fill: none; stroke: #000000"/>
    <path d="M 115.930469 158.75445 
L 94.450692 173.223085 
" clip-path="url(#p1014a2a0e3)" style="fill: none; stroke: #000000"/>
    <path d="M 125.824506 177.734408 
L 94.450692 173.223085 
" clip-path="url(#p1014a2a0e3)" style="fill: none; stroke: #000000"/>
    <path d="M 103.038216 191.90731 
L 94.450692 173.223085 
" clip-path="url(#p1014a2a0e3)" style="fill: none; stroke: #000000"/>
   </g>
   <g id="PathCollection_9">
    <g clip-path="url(#p1014a2a0e3)">
     <use xlink:href="#m2a6744397d" x="67.010277" y="165.128698" style="fill: #1f78b4; stroke: #1f78b4"/>
     <use xlink:href="#m2a6744397d" x="79.800811" y="157.14869" style="fill: #1f78b4; stroke: #1f78b4"/>
     <use xlink:href="#m2a6744397d" x="71.172168" y="186.67731" style="fill: #1f78b4; stroke: #1f78b4"/>
     <use xlink:href="#m2a6744397d" x="115.930469" y="158.75445" style="fill: #1f78b4; stroke: #1f78b4"/>
     <use xlink:href="#m2a6744397d" x="125.824506" y="177.734408" style="fill: #1f78b4; stroke: #1f78b4"/>
     <use xlink:href="#m2a6744397d" x="103.038216" y="191.90731" style="fill: #1f78b4; stroke: #1f78b4"/>
     <use xlink:href="#m2a6744397d" x="94.450692" y="173.223085" style="fill: #1f78b4; stroke: #1f78b4"/>
    </g>
   </g>
  </g>
  <g id="axes_10">
   <g id="LineCollection_10">
    <path d="M 160.172016 175.937316 
L 173.007144 191.90731 
" clip-path="url(#pc038494357)" style="fill: none; stroke: #000000"/>
    <path d="M 160.172016 175.937316 
L 170.809352 157.14869 
" clip-path="url(#pc038494357)" style="fill: none; stroke: #000000"/>
    <path d="M 160.172016 175.937316 
L 189.304788 172.438137 
" clip-path="url(#pc038494357)" style="fill: none; stroke: #000000"/>
    <path d="M 173.007144 191.90731 
L 170.809352 157.14869 
" clip-path="url(#pc038494357)" style="fill: none; stroke: #000000"/>
    <path d="M 173.007144 191.90731 
L 189.304788 172.438137 
" clip-path="url(#pc038494357)" style="fill: none; stroke: #000000"/>
    <path d="M 218.986245 168.872014 
L 189.304788 172.438137 
" clip-path="url(#pc038494357)" style="fill: none; stroke: #000000"/>
    <path d="M 170.809352 157.14869 
L 189.304788 172.438137 
" clip-path="url(#pc038494357)" style="fill: none; stroke: #000000"/>
   </g>
   <g id="PathCollection_10">
    <g clip-path="url(#pc038494357)">
     <use xlink:href="#m2a6744397d" x="160.172016" y="175.937316" style="fill: #1f78b4; stroke: #1f78b4"/>
     <use xlink:href="#m2a6744397d" x="173.007144" y="191.90731" style="fill: #1f78b4; stroke: #1f78b4"/>
     <use xlink:href="#m2a6744397d" x="218.986245" y="168.872014" style="fill: #1f78b4; stroke: #1f78b4"/>
     <use xlink:href="#m2a6744397d" x="170.809352" y="157.14869" style="fill: #1f78b4; stroke: #1f78b4"/>
     <use xlink:href="#m2a6744397d" x="189.304788" y="172.438137" style="fill: #1f78b4; stroke: #1f78b4"/>
    </g>
   </g>
  </g>
  <g id="axes_11">
   <g id="LineCollection_11">
    <path d="M 275.279458 191.90731 
L 280.144467 170.584095 
" clip-path="url(#pea7505cadb)" style="fill: none; stroke: #000000"/>
    <path d="M 312.147984 162.612798 
L 280.144467 170.584095 
" clip-path="url(#pea7505cadb)" style="fill: none; stroke: #000000"/>
    <path d="M 253.333755 157.14869 
L 280.144467 170.584095 
" clip-path="url(#pea7505cadb)" style="fill: none; stroke: #000000"/>
   </g>
   <g id="PathCollection_11">
    <g clip-path="url(#pea7505cadb)">
     <use xlink:href="#m2a6744397d" x="275.279458" y="191.90731" style="fill: #1f78b4; stroke: #1f78b4"/>
     <use xlink:href="#m2a6744397d" x="312.147984" y="162.612798" style="fill: #1f78b4; stroke: #1f78b4"/>
     <use xlink:href="#m2a6744397d" x="253.333755" y="157.14869" style="fill: #1f78b4; stroke: #1f78b4"/>
     <use xlink:href="#m2a6744397d" x="280.144467" y="170.584095" style="fill: #1f78b4; stroke: #1f78b4"/>
    </g>
   </g>
  </g>
  <g id="axes_12">
   <g id="LineCollection_12">
    <path d="M 361.972271 157.14869 
L 369.559627 191.90731 
" clip-path="url(#pe71fa14c64)" style="fill: none; stroke: #000000"/>
    <path d="M 361.972271 157.14869 
L 377.452648 169.993668 
" clip-path="url(#pe71fa14c64)" style="fill: none; stroke: #000000"/>
    <path d="M 369.559627 191.90731 
L 377.452648 169.993668 
" clip-path="url(#pe71fa14c64)" style="fill: none; stroke: #000000"/>
    <path d="M 346.495494 182.187657 
L 377.452648 169.993668 
" clip-path="url(#pe71fa14c64)" style="fill: none; stroke: #000000"/>
    <path d="M 405.309723 159.124763 
L 377.452648 169.993668 
" clip-path="url(#pe71fa14c64)" style="fill: none; stroke: #000000"/>
   </g>
   <g id="PathCollection_12">
    <g clip-path="url(#pe71fa14c64)">
     <use xlink:href="#m2a6744397d" x="361.972271" y="157.14869" style="fill: #1f78b4; stroke: #1f78b4"/>
     <use xlink:href="#m2a6744397d" x="369.559627" y="191.90731" style="fill: #1f78b4; stroke: #1f78b4"/>
     <use xlink:href="#m2a6744397d" x="346.495494" y="182.187657" style="fill: #1f78b4; stroke: #1f78b4"/>
     <use xlink:href="#m2a6744397d" x="405.309723" y="159.124763" style="fill: #1f78b4; stroke: #1f78b4"/>
     <use xlink:href="#m2a6744397d" x="377.452648" y="169.993668" style="fill: #1f78b4; stroke: #1f78b4"/>
    </g>
   </g>
  </g>
  <g id="axes_13">
   <g id="LineCollection_13">
    <path d="M 87.0223 212.206345 
L 96.475304 229.573207 
" clip-path="url(#p8aee68e31b)" style="fill: none; stroke: #000000"/>
    <path d="M 125.824506 224.022504 
L 96.475304 229.573207 
" clip-path="url(#p8aee68e31b)" style="fill: none; stroke: #000000"/>
    <path d="M 67.010277 235.115744 
L 96.475304 229.573207 
" clip-path="url(#p8aee68e31b)" style="fill: none; stroke: #000000"/>
    <path d="M 105.861403 246.964966 
L 96.475304 229.573207 
" clip-path="url(#p8aee68e31b)" style="fill: none; stroke: #000000"/>
   </g>
   <g id="PathCollection_13">
    <g clip-path="url(#p8aee68e31b)">
     <use xlink:href="#m2a6744397d" x="87.0223" y="212.206345" style="fill: #1f78b4; stroke: #1f78b4"/>
     <use xlink:href="#m2a6744397d" x="125.824506" y="224.022504" style="fill: #1f78b4; stroke: #1f78b4"/>
     <use xlink:href="#m2a6744397d" x="67.010277" y="235.115744" style="fill: #1f78b4; stroke: #1f78b4"/>
     <use xlink:href="#m2a6744397d" x="105.861403" y="246.964966" style="fill: #1f78b4; stroke: #1f78b4"/>
     <use xlink:href="#m2a6744397d" x="96.475304" y="229.573207" style="fill: #1f78b4; stroke: #1f78b4"/>
    </g>
   </g>
  </g>
  <g id="axes_14">
   <g id="LineCollection_14">
    <path d="M 171.519067 246.023155 
L 189.722997 230.374395 
" clip-path="url(#pbf2f3bcf10)" style="fill: none; stroke: #000000"/>
    <path d="M 171.519067 246.023155 
L 196.913637 246.964966 
" clip-path="url(#pbf2f3bcf10)" style="fill: none; stroke: #000000"/>
    <path d="M 218.986245 239.944601 
L 189.722997 230.374395 
" clip-path="url(#pbf2f3bcf10)" style="fill: none; stroke: #000000"/>
    <path d="M 218.986245 239.944601 
L 196.913637 246.964966 
" clip-path="url(#pbf2f3bcf10)" style="fill: none; stroke: #000000"/>
    <path d="M 160.172016 218.110955 
L 189.722997 230.374395 
" clip-path="url(#pbf2f3bcf10)" style="fill: none; stroke: #000000"/>
    <path d="M 206.154285 212.206345 
L 189.722997 230.374395 
" clip-path="url(#pbf2f3bcf10)" style="fill: none; stroke: #000000"/>
    <path d="M 189.722997 230.374395 
L 196.913637 246.964966 
" clip-path="url(#pbf2f3bcf10)" style="fill: none; stroke: #000000"/>
   </g>
   <g id="PathCollection_14">
    <g clip-path="url(#pbf2f3bcf10)">
     <use xlink:href="#m2a6744397d" x="171.519067" y="246.023155" style="fill: #1f78b4; stroke: #1f78b4"/>
     <use xlink:href="#m2a6744397d" x="218.986245" y="239.944601" style="fill: #1f78b4; stroke: #1f78b4"/>
     <use xlink:href="#m2a6744397d" x="160.172016" y="218.110955" style="fill: #1f78b4; stroke: #1f78b4"/>
     <use xlink:href="#m2a6744397d" x="206.154285" y="212.206345" style="fill: #1f78b4; stroke: #1f78b4"/>
     <use xlink:href="#m2a6744397d" x="189.722997" y="230.374395" style="fill: #1f78b4; stroke: #1f78b4"/>
     <use xlink:href="#m2a6744397d" x="196.913637" y="246.964966" style="fill: #1f78b4; stroke: #1f78b4"/>
    </g>
   </g>
  </g>
  <g id="axes_15">
   <g id="LineCollection_15">
    <path d="M 253.333755 212.206345 
L 312.147984 246.964966 
" clip-path="url(#p43bba6e474)" style="fill: none; stroke: #000000"/>
   </g>
   <g id="PathCollection_15">
    <g clip-path="url(#p43bba6e474)">
     <use xlink:href="#m2a6744397d" x="253.333755" y="212.206345" style="fill: #1f78b4; stroke: #1f78b4"/>
     <use xlink:href="#m2a6744397d" x="312.147984" y="246.964966" style="fill: #1f78b4; stroke: #1f78b4"/>
    </g>
   </g>
  </g>
  <g id="axes_16">
   <g id="LineCollection_16">
    <path d="M 346.495494 220.286265 
L 365.852562 212.206345 
" clip-path="url(#p7a2dc5b8e5)" style="fill: none; stroke: #000000"/>
    <path d="M 346.495494 220.286265 
L 367.030848 231.780276 
" clip-path="url(#p7a2dc5b8e5)" style="fill: none; stroke: #000000"/>
    <path d="M 346.495494 220.286265 
L 379.82877 226.308386 
" clip-path="url(#p7a2dc5b8e5)" style="fill: none; stroke: #000000"/>
    <path d="M 365.852562 212.206345 
L 367.030848 231.780276 
" clip-path="url(#p7a2dc5b8e5)" style="fill: none; stroke: #000000"/>
    <path d="M 365.852562 212.206345 
L 379.82877 226.308386 
" clip-path="url(#p7a2dc5b8e5)" style="fill: none; stroke: #000000"/>
    <path d="M 371.401035 246.964966 
L 367.030848 231.780276 
" clip-path="url(#p7a2dc5b8e5)" style="fill: none; stroke: #000000"/>
    <path d="M 371.401035 246.964966 
L 379.82877 226.308386 
" clip-path="url(#p7a2dc5b8e5)" style="fill: none; stroke: #000000"/>
    <path d="M 405.309723 233.168463 
L 367.030848 231.780276 
" clip-path="url(#p7a2dc5b8e5)" style="fill: none; stroke: #000000"/>
    <path d="M 405.309723 233.168463 
L 379.82877 226.308386 
" clip-path="url(#p7a2dc5b8e5)" style="fill: none; stroke: #000000"/>
    <path d="M 367.030848 231.780276 
L 379.82877 226.308386 
" clip-path="url(#p7a2dc5b8e5)" style="fill: none; stroke: #000000"/>
   </g>
   <g id="PathCollection_16">
    <g clip-path="url(#p7a2dc5b8e5)">
     <use xlink:href="#m2a6744397d" x="346.495494" y="220.286265" style="fill: #1f78b4; stroke: #1f78b4"/>
     <use xlink:href="#m2a6744397d" x="365.852562" y="212.206345" style="fill: #1f78b4; stroke: #1f78b4"/>
     <use xlink:href="#m2a6744397d" x="371.401035" y="246.964966" style="fill: #1f78b4; stroke: #1f78b4"/>
     <use xlink:href="#m2a6744397d" x="405.309723" y="233.168463" style="fill: #1f78b4; stroke: #1f78b4"/>
     <use xlink:href="#m2a6744397d" x="367.030848" y="231.780276" style="fill: #1f78b4; stroke: #1f78b4"/>
     <use xlink:href="#m2a6744397d" x="379.82877" y="226.308386" style="fill: #1f78b4; stroke: #1f78b4"/>
    </g>
   </g>
  </g>
  <g id="axes_17">
   <g id="LineCollection_17">
    <path d="M 125.824506 302.022621 
L 67.010277 267.264 
" clip-path="url(#p433a2ef55f)" style="fill: none; stroke: #000000"/>
   </g>
   <g id="PathCollection_17">
    <g clip-path="url(#p433a2ef55f)">
     <use xlink:href="#m2a6744397d" x="125.824506" y="302.022621" style="fill: #1f78b4; stroke: #1f78b4"/>
     <use xlink:href="#m2a6744397d" x="67.010277" y="267.264" style="fill: #1f78b4; stroke: #1f78b4"/>
    </g>
   </g>
  </g>
  <g id="axes_18">
   <g id="LineCollection_18">
    <path d="M 218.986245 290.841099 
L 206.910293 284.61704 
" clip-path="url(#pa10a6f4a7c)" style="fill: none; stroke: #000000"/>
    <path d="M 218.986245 290.841099 
L 216.084798 272.920628 
" clip-path="url(#pa10a6f4a7c)" style="fill: none; stroke: #000000"/>
    <path d="M 218.986245 290.841099 
L 203.915722 302.022621 
" clip-path="url(#pa10a6f4a7c)" style="fill: none; stroke: #000000"/>
    <path d="M 218.986245 290.841099 
L 188.679657 284.905332 
" clip-path="url(#pa10a6f4a7c)" style="fill: none; stroke: #000000"/>
    <path d="M 206.910293 284.61704 
L 216.084798 272.920628 
" clip-path="url(#pa10a6f4a7c)" style="fill: none; stroke: #000000"/>
    <path d="M 206.910293 284.61704 
L 203.915722 302.022621 
" clip-path="url(#pa10a6f4a7c)" style="fill: none; stroke: #000000"/>
    <path d="M 206.910293 284.61704 
L 188.679657 284.905332 
" clip-path="url(#pa10a6f4a7c)" style="fill: none; stroke: #000000"/>
    <path d="M 160.172016 298.12594 
L 188.679657 284.905332 
" clip-path="url(#pa10a6f4a7c)" style="fill: none; stroke: #000000"/>
    <path d="M 216.084798 272.920628 
L 188.679657 284.905332 
" clip-path="url(#pa10a6f4a7c)" style="fill: none; stroke: #000000"/>
    <path d="M 203.915722 302.022621 
L 188.679657 284.905332 
" clip-path="url(#pa10a6f4a7c)" style="fill: none; stroke: #000000"/>
    <path d="M 164.541793 267.264 
L 188.679657 284.905332 
" clip-path="url(#pa10a6f4a7c)" style="fill: none; stroke: #000000"/>
   </g>
   <g id="PathCollection_18">
    <g clip-path="url(#pa10a6f4a7c)">
     <use xlink:href="#m2a6744397d" x="218.986245" y="290.841099" style="fill: #1f78b4; stroke: #1f78b4"/>
     <use xlink:href="#m2a6744397d" x="206.910293" y="284.61704" style="fill: #1f78b4; stroke: #1f78b4"/>
     <use xlink:href="#m2a6744397d" x="160.172016" y="298.12594" style="fill: #1f78b4; stroke: #1f78b4"/>
     <use xlink:href="#m2a6744397d" x="216.084798" y="272.920628" style="fill: #1f78b4; stroke: #1f78b4"/>
     <use xlink:href="#m2a6744397d" x="203.915722" y="302.022621" style="fill: #1f78b4; stroke: #1f78b4"/>
     <use xlink:href="#m2a6744397d" x="164.541793" y="267.264" style="fill: #1f78b4; stroke: #1f78b4"/>
     <use xlink:href="#m2a6744397d" x="188.679657" y="284.905332" style="fill: #1f78b4; stroke: #1f78b4"/>
    </g>
   </g>
  </g>
  <g id="axes_19">
   <g id="LineCollection_19">
    <path d="M 307.378936 295.617934 
L 282.798194 284.596827 
" clip-path="url(#p4eb684b138)" style="fill: none; stroke: #000000"/>
    <path d="M 287.545351 267.264 
L 282.798194 284.596827 
" clip-path="url(#p4eb684b138)" style="fill: none; stroke: #000000"/>
    <path d="M 258.213513 273.590754 
L 282.798194 284.596827 
" clip-path="url(#p4eb684b138)" style="fill: none; stroke: #000000"/>
    <path d="M 278.000079 302.022621 
L 282.798194 284.596827 
" clip-path="url(#p4eb684b138)" style="fill: none; stroke: #000000"/>
    <path d="M 312.147984 278.243261 
L 282.798194 284.596827 
" clip-path="url(#p4eb684b138)" style="fill: none; stroke: #000000"/>
    <path d="M 253.333755 291.013589 
L 282.798194 284.596827 
" clip-path="url(#p4eb684b138)" style="fill: none; stroke: #000000"/>
   </g>
   <g id="PathCollection_19">
    <g clip-path="url(#p4eb684b138)">
     <use xlink:href="#m2a6744397d" x="307.378936" y="295.617934" style="fill: #1f78b4; stroke: #1f78b4"/>
     <use xlink:href="#m2a6744397d" x="287.545351" y="267.264" style="fill: #1f78b4; stroke: #1f78b4"/>
     <use xlink:href="#m2a6744397d" x="258.213513" y="273.590754" style="fill: #1f78b4; stroke: #1f78b4"/>
     <use xlink:href="#m2a6744397d" x="278.000079" y="302.022621" style="fill: #1f78b4; stroke: #1f78b4"/>
     <use xlink:href="#m2a6744397d" x="312.147984" y="278.243261" style="fill: #1f78b4; stroke: #1f78b4"/>
     <use xlink:href="#m2a6744397d" x="253.333755" y="291.013589" style="fill: #1f78b4; stroke: #1f78b4"/>
     <use xlink:href="#m2a6744397d" x="282.798194" y="284.596827" style="fill: #1f78b4; stroke: #1f78b4"/>
    </g>
   </g>
  </g>
  <g id="axes_20">
   <g id="LineCollection_20">
    <path d="M 405.309723 302.022621 
L 378.248626 288.72479 
" clip-path="url(#p3b259e10cb)" style="fill: none; stroke: #000000"/>
    <path d="M 382.950012 267.264 
L 378.248626 288.72479 
" clip-path="url(#p3b259e10cb)" style="fill: none; stroke: #000000"/>
    <path d="M 346.495494 296.852277 
L 378.248626 288.72479 
" clip-path="url(#p3b259e10cb)" style="fill: none; stroke: #000000"/>
   </g>
   <g id="PathCollection_20">
    <g clip-path="url(#p3b259e10cb)">
     <use xlink:href="#m2a6744397d" x="405.309723" y="302.022621" style="fill: #1f78b4; stroke: #1f78b4"/>
     <use xlink:href="#m2a6744397d" x="382.950012" y="267.264" style="fill: #1f78b4; stroke: #1f78b4"/>
     <use xlink:href="#m2a6744397d" x="346.495494" y="296.852277" style="fill: #1f78b4; stroke: #1f78b4"/>
     <use xlink:href="#m2a6744397d" x="378.248626" y="288.72479" style="fill: #1f78b4; stroke: #1f78b4"/>
    </g>
   </g>
  </g>
  <g id="text_1">
   <!-- generated data -->
   <g transform="translate(183.98625 16.030125) scale(0.12 -0.12)">
    <defs>
     <path id="DejaVuSans-67" d="M 2906 1791 
Q 2906 2416 2648 2759 
Q 2391 3103 1925 3103 
Q 1463 3103 1205 2759 
Q 947 2416 947 1791 
Q 947 1169 1205 825 
Q 1463 481 1925 481 
Q 2391 481 2648 825 
Q 2906 1169 2906 1791 
z
M 3481 434 
Q 3481 -459 3084 -895 
Q 2688 -1331 1869 -1331 
Q 1566 -1331 1297 -1286 
Q 1028 -1241 775 -1147 
L 775 -588 
Q 1028 -725 1275 -790 
Q 1522 -856 1778 -856 
Q 2344 -856 2625 -561 
Q 2906 -266 2906 331 
L 2906 616 
Q 2728 306 2450 153 
Q 2172 0 1784 0 
Q 1141 0 747 490 
Q 353 981 353 1791 
Q 353 2603 747 3093 
Q 1141 3584 1784 3584 
Q 2172 3584 2450 3431 
Q 2728 3278 2906 2969 
L 2906 3500 
L 3481 3500 
L 3481 434 
z
" transform="scale(0.015625)"/>
     <path id="DejaVuSans-65" d="M 3597 1894 
L 3597 1613 
L 953 1613 
Q 991 1019 1311 708 
Q 1631 397 2203 397 
Q 2534 397 2845 478 
Q 3156 559 3463 722 
L 3463 178 
Q 3153 47 2828 -22 
Q 2503 -91 2169 -91 
Q 1331 -91 842 396 
Q 353 884 353 1716 
Q 353 2575 817 3079 
Q 1281 3584 2069 3584 
Q 2775 3584 3186 3129 
Q 3597 2675 3597 1894 
z
M 3022 2063 
Q 3016 2534 2758 2815 
Q 2500 3097 2075 3097 
Q 1594 3097 1305 2825 
Q 1016 2553 972 2059 
L 3022 2063 
z
" transform="scale(0.015625)"/>
     <path id="DejaVuSans-6e" d="M 3513 2113 
L 3513 0 
L 2938 0 
L 2938 2094 
Q 2938 2591 2744 2837 
Q 2550 3084 2163 3084 
Q 1697 3084 1428 2787 
Q 1159 2491 1159 1978 
L 1159 0 
L 581 0 
L 581 3500 
L 1159 3500 
L 1159 2956 
Q 1366 3272 1645 3428 
Q 1925 3584 2291 3584 
Q 2894 3584 3203 3211 
Q 3513 2838 3513 2113 
z
" transform="scale(0.015625)"/>
     <path id="DejaVuSans-72" d="M 2631 2963 
Q 2534 3019 2420 3045 
Q 2306 3072 2169 3072 
Q 1681 3072 1420 2755 
Q 1159 2438 1159 1844 
L 1159 0 
L 581 0 
L 581 3500 
L 1159 3500 
L 1159 2956 
Q 1341 3275 1631 3429 
Q 1922 3584 2338 3584 
Q 2397 3584 2469 3576 
Q 2541 3569 2628 3553 
L 2631 2963 
z
" transform="scale(0.015625)"/>
     <path id="DejaVuSans-61" d="M 2194 1759 
Q 1497 1759 1228 1600 
Q 959 1441 959 1056 
Q 959 750 1161 570 
Q 1363 391 1709 391 
Q 2188 391 2477 730 
Q 2766 1069 2766 1631 
L 2766 1759 
L 2194 1759 
z
M 3341 1997 
L 3341 0 
L 2766 0 
L 2766 531 
Q 2569 213 2275 61 
Q 1981 -91 1556 -91 
Q 1019 -91 701 211 
Q 384 513 384 1019 
Q 384 1609 779 1909 
Q 1175 2209 1959 2209 
L 2766 2209 
L 2766 2266 
Q 2766 2663 2505 2880 
Q 2244 3097 1772 3097 
Q 1472 3097 1187 3025 
Q 903 2953 641 2809 
L 641 3341 
Q 956 3463 1253 3523 
Q 1550 3584 1831 3584 
Q 2591 3584 2966 3190 
Q 3341 2797 3341 1997 
z
" transform="scale(0.015625)"/>
     <path id="DejaVuSans-74" d="M 1172 4494 
L 1172 3500 
L 2356 3500 
L 2356 3053 
L 1172 3053 
L 1172 1153 
Q 1172 725 1289 603 
Q 1406 481 1766 481 
L 2356 481 
L 2356 0 
L 1766 0 
Q 1100 0 847 248 
Q 594 497 594 1153 
L 594 3053 
L 172 3053 
L 172 3500 
L 594 3500 
L 594 4494 
L 1172 4494 
z
" transform="scale(0.015625)"/>
     <path id="DejaVuSans-64" d="M 2906 2969 
L 2906 4863 
L 3481 4863 
L 3481 0 
L 2906 0 
L 2906 525 
Q 2725 213 2448 61 
Q 2172 -91 1784 -91 
Q 1150 -91 751 415 
Q 353 922 353 1747 
Q 353 2572 751 3078 
Q 1150 3584 1784 3584 
Q 2172 3584 2448 3432 
Q 2725 3281 2906 2969 
z
M 947 1747 
Q 947 1113 1208 752 
Q 1469 391 1925 391 
Q 2381 391 2643 752 
Q 2906 1113 2906 1747 
Q 2906 2381 2643 2742 
Q 2381 3103 1925 3103 
Q 1469 3103 1208 2742 
Q 947 2381 947 1747 
z
" transform="scale(0.015625)"/>
     <path id="DejaVuSans-20" transform="scale(0.015625)"/>
    </defs>
    <use xlink:href="#DejaVuSans-67"/>
    <use xlink:href="#DejaVuSans-65" x="63.476562"/>
    <use xlink:href="#DejaVuSans-6e" x="125"/>
    <use xlink:href="#DejaVuSans-65" x="188.378906"/>
    <use xlink:href="#DejaVuSans-72" x="249.902344"/>
    <use xlink:href="#DejaVuSans-61" x="291.015625"/>
    <use xlink:href="#DejaVuSans-74" x="352.294922"/>
    <use xlink:href="#DejaVuSans-65" x="391.503906"/>
    <use xlink:href="#DejaVuSans-64" x="453.027344"/>
    <use xlink:href="#DejaVuSans-20" x="516.503906"/>
    <use xlink:href="#DejaVuSans-64" x="548.291016"/>
    <use xlink:href="#DejaVuSans-61" x="611.767578"/>
    <use xlink:href="#DejaVuSans-74" x="673.046875"/>
    <use xlink:href="#DejaVuSans-61" x="712.255859"/>
   </g>
  </g>
 </g>
 <defs>
  <clipPath id="p744029e2d3">
   <rect x="57.6" y="41.472" width="77.634783" height="45.881379"/>
  </clipPath>
  <clipPath id="p42dd89f8c1">
   <rect x="150.761739" y="41.472" width="77.634783" height="45.881379"/>
  </clipPath>
  <clipPath id="pf86a17783c">
   <rect x="243.923478" y="41.472" width="77.634783" height="45.881379"/>
  </clipPath>
  <clipPath id="pfb1e5916f1">
   <rect x="337.085217" y="41.472" width="77.634783" height="45.881379"/>
  </clipPath>
  <clipPath id="pf3d48cf647">
   <rect x="57.6" y="96.529655" width="77.634783" height="45.881379"/>
  </clipPath>
  <clipPath id="pf9dfbccc45">
   <rect x="150.761739" y="96.529655" width="77.634783" height="45.881379"/>
  </clipPath>
  <clipPath id="pca149a6534">
   <rect x="243.923478" y="96.529655" width="77.634783" height="45.881379"/>
  </clipPath>
  <clipPath id="pc42600520a">
   <rect x="337.085217" y="96.529655" width="77.634783" height="45.881379"/>
  </clipPath>
  <clipPath id="p1014a2a0e3">
   <rect x="57.6" y="151.58731" width="77.634783" height="45.881379"/>
  </clipPath>
  <clipPath id="pc038494357">
   <rect x="150.761739" y="151.58731" width="77.634783" height="45.881379"/>
  </clipPath>
  <clipPath id="pea7505cadb">
   <rect x="243.923478" y="151.58731" width="77.634783" height="45.881379"/>
  </clipPath>
  <clipPath id="pe71fa14c64">
   <rect x="337.085217" y="151.58731" width="77.634783" height="45.881379"/>
  </clipPath>
  <clipPath id="p8aee68e31b">
   <rect x="57.6" y="206.644966" width="77.634783" height="45.881379"/>
  </clipPath>
  <clipPath id="pbf2f3bcf10">
   <rect x="150.761739" y="206.644966" width="77.634783" height="45.881379"/>
  </clipPath>
  <clipPath id="p43bba6e474">
   <rect x="243.923478" y="206.644966" width="77.634783" height="45.881379"/>
  </clipPath>
  <clipPath id="p7a2dc5b8e5">
   <rect x="337.085217" y="206.644966" width="77.634783" height="45.881379"/>
  </clipPath>
  <clipPath id="p433a2ef55f">
   <rect x="57.6" y="261.702621" width="77.634783" height="45.881379"/>
  </clipPath>
  <clipPath id="pa10a6f4a7c">
   <rect x="150.761739" y="261.702621" width="77.634783" height="45.881379"/>
  </clipPath>
  <clipPath id="p4eb684b138">
   <rect x="243.923478" y="261.702621" width="77.634783" height="45.881379"/>
  </clipPath>
  <clipPath id="p3b259e10cb">
   <rect x="337.085217" y="261.702621" width="77.634783" height="45.881379"/>
  </clipPath>
 </defs>
</svg>
