<?xml version="1.0" encoding="utf-8" standalone="no"?>
<!DOCTYPE svg PUBLIC "-//W3C//DTD SVG 1.1//EN"
  "http://www.w3.org/Graphics/SVG/1.1/DTD/svg11.dtd">
<svg xmlns:xlink="http://www.w3.org/1999/xlink" width="460.8pt" height="345.6pt" viewBox="0 0 460.8 345.6" xmlns="http://www.w3.org/2000/svg" version="1.1">
 <metadata>
  <rdf:RDF xmlns:dc="http://purl.org/dc/elements/1.1/" xmlns:cc="http://creativecommons.org/ns#" xmlns:rdf="http://www.w3.org/1999/02/22-rdf-syntax-ns#">
   <cc:Work>
    <dc:type rdf:resource="http://purl.org/dc/dcmitype/StillImage"/>
    <dc:date>2025-01-23T14:54:23.701388</dc:date>
    <dc:format>image/svg+xml</dc:format>
    <dc:creator>
     <cc:Agent>
      <dc:title>Matplotlib v3.7.5, https://matplotlib.org/</dc:title>
     </cc:Agent>
    </dc:creator>
   </cc:Work>
  </rdf:RDF>
 </metadata>
 <defs>
  <style type="text/css">*{stroke-linejoin: round; stroke-linecap: butt}</style>
 </defs>
 <g id="figure_1">
  <g id="patch_1">
   <path d="M 0 345.6 
L 460.8 345.6 
L 460.8 0 
L 0 0 
z
" style="fill: #ffffff"/>
  </g>
  <g id="axes_1">
   <g id="LineCollection_1">
    <path d="M 76.804974 47.033379 
L 125.824506 69.148454 
" clip-path="url(#pad7b9e0222)" style="fill: none; stroke: #000000"/>
    <path d="M 76.804974 47.033379 
L 67.010277 81.792 
" clip-path="url(#pad7b9e0222)" style="fill: none; stroke: #000000"/>
    <path d="M 125.824506 69.148454 
L 67.010277 81.792 
" clip-path="url(#pad7b9e0222)" style="fill: none; stroke: #000000"/>
   </g>
   <g id="PathCollection_1">
    <defs>
     <path id="m12b996b35f" d="M 0 1.732051 
C 0.459345 1.732051 0.899939 1.549551 1.224745 1.224745 
C 1.549551 0.899939 1.732051 0.459345 1.732051 0 
C 1.732051 -0.459345 1.549551 -0.899939 1.224745 -1.224745 
C 0.899939 -1.549551 0.459345 -1.732051 0 -1.732051 
C -0.459345 -1.732051 -0.899939 -1.549551 -1.224745 -1.224745 
C -1.549551 -0.899939 -1.732051 -0.459345 -1.732051 0 
C -1.732051 0.459345 -1.549551 0.899939 -1.224745 1.224745 
C -0.899939 1.549551 -0.459345 1.732051 0 1.732051 
z
" style="stroke: #1f78b4"/>
    </defs>
    <g clip-path="url(#pad7b9e0222)">
     <use xlink:href="#m12b996b35f" x="76.804974" y="47.033379" style="fill: #1f78b4; stroke: #1f78b4"/>
     <use xlink:href="#m12b996b35f" x="125.824506" y="69.148454" style="fill: #1f78b4; stroke: #1f78b4"/>
     <use xlink:href="#m12b996b35f" x="67.010277" y="81.792" style="fill: #1f78b4; stroke: #1f78b4"/>
    </g>
   </g>
  </g>
  <g id="axes_2">
   <g id="LineCollection_2">
    <path d="M 160.172016 81.792 
L 218.986245 65.875289 
" clip-path="url(#pca8001f8ca)" style="fill: none; stroke: #000000"/>
    <path d="M 160.172016 81.792 
L 163.381746 47.033379 
" clip-path="url(#pca8001f8ca)" style="fill: none; stroke: #000000"/>
    <path d="M 218.986245 65.875289 
L 163.381746 47.033379 
" clip-path="url(#pca8001f8ca)" style="fill: none; stroke: #000000"/>
   </g>
   <g id="PathCollection_2">
    <g clip-path="url(#pca8001f8ca)">
     <use xlink:href="#m12b996b35f" x="160.172016" y="81.792" style="fill: #1f78b4; stroke: #1f78b4"/>
     <use xlink:href="#m12b996b35f" x="218.986245" y="65.875289" style="fill: #1f78b4; stroke: #1f78b4"/>
     <use xlink:href="#m12b996b35f" x="163.381746" y="47.033379" style="fill: #1f78b4; stroke: #1f78b4"/>
    </g>
   </g>
  </g>
  <g id="axes_3">
   <g id="LineCollection_3">
    <path d="M 312.147984 81.792 
L 282.695461 64.385873 
" clip-path="url(#pf2e23a60ff)" style="fill: none; stroke: #000000"/>
    <path d="M 282.695461 64.385873 
L 253.333755 47.033379 
" clip-path="url(#pf2e23a60ff)" style="fill: none; stroke: #000000"/>
   </g>
   <g id="PathCollection_3">
    <g clip-path="url(#pf2e23a60ff)">
     <use xlink:href="#m12b996b35f" x="312.147984" y="81.792" style="fill: #1f78b4; stroke: #1f78b4"/>
     <use xlink:href="#m12b996b35f" x="282.695461" y="64.385873" style="fill: #1f78b4; stroke: #1f78b4"/>
     <use xlink:href="#m12b996b35f" x="253.333755" y="47.033379" style="fill: #1f78b4; stroke: #1f78b4"/>
    </g>
   </g>
  </g>
  <g id="axes_4">
   <g id="LineCollection_4">
    <path d="M 386.359425 81.792 
L 379.394625 61.109241 
" clip-path="url(#p12eef74309)" style="fill: none; stroke: #000000"/>
    <path d="M 379.394625 61.109241 
L 346.495494 54.449132 
" clip-path="url(#p12eef74309)" style="fill: none; stroke: #000000"/>
    <path d="M 379.394625 61.109241 
L 405.309723 47.033379 
" clip-path="url(#p12eef74309)" style="fill: none; stroke: #000000"/>
   </g>
   <g id="PathCollection_4">
    <g clip-path="url(#p12eef74309)">
     <use xlink:href="#m12b996b35f" x="386.359425" y="81.792" style="fill: #1f78b4; stroke: #1f78b4"/>
     <use xlink:href="#m12b996b35f" x="379.394625" y="61.109241" style="fill: #1f78b4; stroke: #1f78b4"/>
     <use xlink:href="#m12b996b35f" x="346.495494" y="54.449132" style="fill: #1f78b4; stroke: #1f78b4"/>
     <use xlink:href="#m12b996b35f" x="405.309723" y="47.033379" style="fill: #1f78b4; stroke: #1f78b4"/>
    </g>
   </g>
  </g>
  <g id="axes_5">
   <g id="LineCollection_5">
    <path d="M 67.010277 102.091034 
L 96.376751 119.446299 
" clip-path="url(#peddf5b157f)" style="fill: none; stroke: #000000"/>
    <path d="M 96.376751 119.446299 
L 125.824506 136.849655 
" clip-path="url(#peddf5b157f)" style="fill: none; stroke: #000000"/>
   </g>
   <g id="PathCollection_5">
    <g clip-path="url(#peddf5b157f)">
     <use xlink:href="#m12b996b35f" x="67.010277" y="102.091034" style="fill: #1f78b4; stroke: #1f78b4"/>
     <use xlink:href="#m12b996b35f" x="96.376751" y="119.446299" style="fill: #1f78b4; stroke: #1f78b4"/>
     <use xlink:href="#m12b996b35f" x="125.824506" y="136.849655" style="fill: #1f78b4; stroke: #1f78b4"/>
    </g>
   </g>
  </g>
  <g id="axes_6">
   <g id="LineCollection_6">
    <path d="M 160.172016 103.693865 
L 216.190352 102.091034 
" clip-path="url(#p9fb23bcbf9)" style="fill: none; stroke: #000000"/>
    <path d="M 160.172016 103.693865 
L 162.967909 136.849655 
" clip-path="url(#p9fb23bcbf9)" style="fill: none; stroke: #000000"/>
    <path d="M 160.172016 103.693865 
L 218.986245 135.246825 
" clip-path="url(#p9fb23bcbf9)" style="fill: none; stroke: #000000"/>
    <path d="M 216.190352 102.091034 
L 162.967909 136.849655 
" clip-path="url(#p9fb23bcbf9)" style="fill: none; stroke: #000000"/>
    <path d="M 216.190352 102.091034 
L 218.986245 135.246825 
" clip-path="url(#p9fb23bcbf9)" style="fill: none; stroke: #000000"/>
    <path d="M 162.967909 136.849655 
L 218.986245 135.246825 
" clip-path="url(#p9fb23bcbf9)" style="fill: none; stroke: #000000"/>
   </g>
   <g id="PathCollection_6">
    <g clip-path="url(#p9fb23bcbf9)">
     <use xlink:href="#m12b996b35f" x="160.172016" y="103.693865" style="fill: #1f78b4; stroke: #1f78b4"/>
     <use xlink:href="#m12b996b35f" x="216.190352" y="102.091034" style="fill: #1f78b4; stroke: #1f78b4"/>
     <use xlink:href="#m12b996b35f" x="162.967909" y="136.849655" style="fill: #1f78b4; stroke: #1f78b4"/>
     <use xlink:href="#m12b996b35f" x="218.986245" y="135.246825" style="fill: #1f78b4; stroke: #1f78b4"/>
    </g>
   </g>
  </g>
  <g id="axes_7">
   <g id="LineCollection_7">
    <path d="M 267.287123 133.572477 
L 283.477193 136.849655 
" clip-path="url(#pb3df072ace)" style="fill: none; stroke: #000000"/>
    <path d="M 267.287123 133.572477 
L 283.688127 118.371163 
" clip-path="url(#pb3df072ace)" style="fill: none; stroke: #000000"/>
    <path d="M 285.980953 106.040941 
L 302.516542 117.074758 
" clip-path="url(#pb3df072ace)" style="fill: none; stroke: #000000"/>
    <path d="M 285.980953 106.040941 
L 299.496775 102.091034 
" clip-path="url(#pb3df072ace)" style="fill: none; stroke: #000000"/>
    <path d="M 285.980953 106.040941 
L 283.688127 118.371163 
" clip-path="url(#pb3df072ace)" style="fill: none; stroke: #000000"/>
    <path d="M 253.333755 114.028489 
L 283.688127 118.371163 
" clip-path="url(#pb3df072ace)" style="fill: none; stroke: #000000"/>
    <path d="M 302.516542 117.074758 
L 312.147984 110.473071 
" clip-path="url(#pb3df072ace)" style="fill: none; stroke: #000000"/>
    <path d="M 302.516542 117.074758 
L 283.688127 118.371163 
" clip-path="url(#pb3df072ace)" style="fill: none; stroke: #000000"/>
    <path d="M 283.477193 136.849655 
L 283.688127 118.371163 
" clip-path="url(#pb3df072ace)" style="fill: none; stroke: #000000"/>
    <path d="M 312.147984 110.473071 
L 299.496775 102.091034 
" clip-path="url(#pb3df072ace)" style="fill: none; stroke: #000000"/>
    <path d="M 312.147984 110.473071 
L 283.688127 118.371163 
" clip-path="url(#pb3df072ace)" style="fill: none; stroke: #000000"/>
    <path d="M 299.496775 102.091034 
L 283.688127 118.371163 
" clip-path="url(#pb3df072ace)" style="fill: none; stroke: #000000"/>
   </g>
   <g id="PathCollection_7">
    <g clip-path="url(#pb3df072ace)">
     <use xlink:href="#m12b996b35f" x="267.287123" y="133.572477" style="fill: #1f78b4; stroke: #1f78b4"/>
     <use xlink:href="#m12b996b35f" x="285.980953" y="106.040941" style="fill: #1f78b4; stroke: #1f78b4"/>
     <use xlink:href="#m12b996b35f" x="253.333755" y="114.028489" style="fill: #1f78b4; stroke: #1f78b4"/>
     <use xlink:href="#m12b996b35f" x="302.516542" y="117.074758" style="fill: #1f78b4; stroke: #1f78b4"/>
     <use xlink:href="#m12b996b35f" x="283.477193" y="136.849655" style="fill: #1f78b4; stroke: #1f78b4"/>
     <use xlink:href="#m12b996b35f" x="312.147984" y="110.473071" style="fill: #1f78b4; stroke: #1f78b4"/>
     <use xlink:href="#m12b996b35f" x="299.496775" y="102.091034" style="fill: #1f78b4; stroke: #1f78b4"/>
     <use xlink:href="#m12b996b35f" x="283.688127" y="118.371163" style="fill: #1f78b4; stroke: #1f78b4"/>
    </g>
   </g>
  </g>
  <g id="axes_8">
   <g id="LineCollection_8">
    <path d="M 346.495494 136.849655 
L 375.86057 119.410983 
" clip-path="url(#p7d36dae157)" style="fill: none; stroke: #000000"/>
    <path d="M 375.86057 119.410983 
L 405.309723 102.091034 
" clip-path="url(#p7d36dae157)" style="fill: none; stroke: #000000"/>
   </g>
   <g id="PathCollection_8">
    <g clip-path="url(#p7d36dae157)">
     <use xlink:href="#m12b996b35f" x="346.495494" y="136.849655" style="fill: #1f78b4; stroke: #1f78b4"/>
     <use xlink:href="#m12b996b35f" x="375.86057" y="119.410983" style="fill: #1f78b4; stroke: #1f78b4"/>
     <use xlink:href="#m12b996b35f" x="405.309723" y="102.091034" style="fill: #1f78b4; stroke: #1f78b4"/>
    </g>
   </g>
  </g>
  <g id="axes_9">
   <g id="LineCollection_9">
    <path d="M 96.370064 174.556262 
L 67.010277 191.90731 
" clip-path="url(#p2733d0a74e)" style="fill: none; stroke: #000000"/>
    <path d="M 96.370064 174.556262 
L 125.824506 157.14869 
" clip-path="url(#p2733d0a74e)" style="fill: none; stroke: #000000"/>
   </g>
   <g id="PathCollection_9">
    <g clip-path="url(#p2733d0a74e)">
     <use xlink:href="#m12b996b35f" x="96.370064" y="174.556262" style="fill: #1f78b4; stroke: #1f78b4"/>
     <use xlink:href="#m12b996b35f" x="67.010277" y="191.90731" style="fill: #1f78b4; stroke: #1f78b4"/>
     <use xlink:href="#m12b996b35f" x="125.824506" y="157.14869" style="fill: #1f78b4; stroke: #1f78b4"/>
    </g>
   </g>
  </g>
  <g id="axes_10">
   <g id="LineCollection_10">
    <path d="M 178.388348 157.14869 
L 200.769913 191.90731 
" clip-path="url(#p968a2524cb)" style="fill: none; stroke: #000000"/>
    <path d="M 178.388348 157.14869 
L 160.172016 181.275399 
" clip-path="url(#p968a2524cb)" style="fill: none; stroke: #000000"/>
    <path d="M 178.388348 157.14869 
L 218.986245 167.780601 
" clip-path="url(#p968a2524cb)" style="fill: none; stroke: #000000"/>
    <path d="M 200.769913 191.90731 
L 160.172016 181.275399 
" clip-path="url(#p968a2524cb)" style="fill: none; stroke: #000000"/>
    <path d="M 200.769913 191.90731 
L 218.986245 167.780601 
" clip-path="url(#p968a2524cb)" style="fill: none; stroke: #000000"/>
    <path d="M 160.172016 181.275399 
L 218.986245 167.780601 
" clip-path="url(#p968a2524cb)" style="fill: none; stroke: #000000"/>
   </g>
   <g id="PathCollection_10">
    <g clip-path="url(#p968a2524cb)">
     <use xlink:href="#m12b996b35f" x="178.388348" y="157.14869" style="fill: #1f78b4; stroke: #1f78b4"/>
     <use xlink:href="#m12b996b35f" x="200.769913" y="191.90731" style="fill: #1f78b4; stroke: #1f78b4"/>
     <use xlink:href="#m12b996b35f" x="160.172016" y="181.275399" style="fill: #1f78b4; stroke: #1f78b4"/>
     <use xlink:href="#m12b996b35f" x="218.986245" y="167.780601" style="fill: #1f78b4; stroke: #1f78b4"/>
    </g>
   </g>
  </g>
  <g id="axes_11">
   <g id="LineCollection_11">
    <path d="M 312.147984 157.14869 
L 309.787621 191.90731 
" clip-path="url(#p9cdf679b45)" style="fill: none; stroke: #000000"/>
    <path d="M 312.147984 157.14869 
L 284.94142 170.832866 
" clip-path="url(#p9cdf679b45)" style="fill: none; stroke: #000000"/>
    <path d="M 309.787621 191.90731 
L 284.94142 170.832866 
" clip-path="url(#p9cdf679b45)" style="fill: none; stroke: #000000"/>
    <path d="M 284.94142 170.832866 
L 253.333755 166.346852 
" clip-path="url(#p9cdf679b45)" style="fill: none; stroke: #000000"/>
   </g>
   <g id="PathCollection_11">
    <g clip-path="url(#p9cdf679b45)">
     <use xlink:href="#m12b996b35f" x="312.147984" y="157.14869" style="fill: #1f78b4; stroke: #1f78b4"/>
     <use xlink:href="#m12b996b35f" x="309.787621" y="191.90731" style="fill: #1f78b4; stroke: #1f78b4"/>
     <use xlink:href="#m12b996b35f" x="284.94142" y="170.832866" style="fill: #1f78b4; stroke: #1f78b4"/>
     <use xlink:href="#m12b996b35f" x="253.333755" y="166.346852" style="fill: #1f78b4; stroke: #1f78b4"/>
    </g>
   </g>
  </g>
  <g id="axes_12">
   <g id="LineCollection_12">
    <path d="M 346.495494 183.760161 
L 379.734535 177.604537 
" clip-path="url(#pf47002f397)" style="fill: none; stroke: #000000"/>
    <path d="M 387.402967 157.14869 
L 379.734535 177.604537 
" clip-path="url(#pf47002f397)" style="fill: none; stroke: #000000"/>
    <path d="M 405.309723 191.90731 
L 379.734535 177.604537 
" clip-path="url(#pf47002f397)" style="fill: none; stroke: #000000"/>
   </g>
   <g id="PathCollection_12">
    <g clip-path="url(#pf47002f397)">
     <use xlink:href="#m12b996b35f" x="346.495494" y="183.760161" style="fill: #1f78b4; stroke: #1f78b4"/>
     <use xlink:href="#m12b996b35f" x="387.402967" y="157.14869" style="fill: #1f78b4; stroke: #1f78b4"/>
     <use xlink:href="#m12b996b35f" x="405.309723" y="191.90731" style="fill: #1f78b4; stroke: #1f78b4"/>
     <use xlink:href="#m12b996b35f" x="379.734535" y="177.604537" style="fill: #1f78b4; stroke: #1f78b4"/>
    </g>
   </g>
  </g>
  <g id="axes_13">
   <g id="LineCollection_13">
    <path d="M 125.824506 227.804467 
L 86.991987 228.751671 
" clip-path="url(#p8053fa7e65)" style="fill: none; stroke: #000000"/>
    <path d="M 125.824506 227.804467 
L 105.247189 236.488619 
" clip-path="url(#p8053fa7e65)" style="fill: none; stroke: #000000"/>
    <path d="M 86.991987 228.751671 
L 105.247189 236.488619 
" clip-path="url(#p8053fa7e65)" style="fill: none; stroke: #000000"/>
    <path d="M 86.991987 228.751671 
L 71.340223 246.964966 
" clip-path="url(#p8053fa7e65)" style="fill: none; stroke: #000000"/>
    <path d="M 86.991987 228.751671 
L 67.010277 235.058526 
" clip-path="url(#p8053fa7e65)" style="fill: none; stroke: #000000"/>
    <path d="M 86.991987 228.751671 
L 73.489139 212.206345 
" clip-path="url(#p8053fa7e65)" style="fill: none; stroke: #000000"/>
    <path d="M 105.247189 236.488619 
L 67.010277 235.058526 
" clip-path="url(#p8053fa7e65)" style="fill: none; stroke: #000000"/>
   </g>
   <g id="PathCollection_13">
    <g clip-path="url(#p8053fa7e65)">
     <use xlink:href="#m12b996b35f" x="125.824506" y="227.804467" style="fill: #1f78b4; stroke: #1f78b4"/>
     <use xlink:href="#m12b996b35f" x="86.991987" y="228.751671" style="fill: #1f78b4; stroke: #1f78b4"/>
     <use xlink:href="#m12b996b35f" x="105.247189" y="236.488619" style="fill: #1f78b4; stroke: #1f78b4"/>
     <use xlink:href="#m12b996b35f" x="71.340223" y="246.964966" style="fill: #1f78b4; stroke: #1f78b4"/>
     <use xlink:href="#m12b996b35f" x="67.010277" y="235.058526" style="fill: #1f78b4; stroke: #1f78b4"/>
     <use xlink:href="#m12b996b35f" x="73.489139" y="212.206345" style="fill: #1f78b4; stroke: #1f78b4"/>
    </g>
   </g>
  </g>
  <g id="axes_14">
   <g id="LineCollection_14">
    <path d="M 188.471268 246.964966 
L 175.693773 227.864328 
" clip-path="url(#p556ddac293)" style="fill: none; stroke: #000000"/>
    <path d="M 188.471268 246.964966 
L 160.172016 242.76298 
" clip-path="url(#p556ddac293)" style="fill: none; stroke: #000000"/>
    <path d="M 188.471268 246.964966 
L 194.43197 230.828203 
" clip-path="url(#p556ddac293)" style="fill: none; stroke: #000000"/>
    <path d="M 175.693773 227.864328 
L 160.172016 242.76298 
" clip-path="url(#p556ddac293)" style="fill: none; stroke: #000000"/>
    <path d="M 175.693773 227.864328 
L 194.43197 230.828203 
" clip-path="url(#p556ddac293)" style="fill: none; stroke: #000000"/>
    <path d="M 175.693773 227.864328 
L 218.986245 219.310773 
" clip-path="url(#p556ddac293)" style="fill: none; stroke: #000000"/>
    <path d="M 175.693773 227.864328 
L 169.223693 212.206345 
" clip-path="url(#p556ddac293)" style="fill: none; stroke: #000000"/>
    <path d="M 160.172016 242.76298 
L 194.43197 230.828203 
" clip-path="url(#p556ddac293)" style="fill: none; stroke: #000000"/>
    <path d="M 194.43197 230.828203 
L 218.986245 219.310773 
" clip-path="url(#p556ddac293)" style="fill: none; stroke: #000000"/>
    <path d="M 194.43197 230.828203 
L 169.223693 212.206345 
" clip-path="url(#p556ddac293)" style="fill: none; stroke: #000000"/>
   </g>
   <g id="PathCollection_14">
    <g clip-path="url(#p556ddac293)">
     <use xlink:href="#m12b996b35f" x="188.471268" y="246.964966" style="fill: #1f78b4; stroke: #1f78b4"/>
     <use xlink:href="#m12b996b35f" x="175.693773" y="227.864328" style="fill: #1f78b4; stroke: #1f78b4"/>
     <use xlink:href="#m12b996b35f" x="160.172016" y="242.76298" style="fill: #1f78b4; stroke: #1f78b4"/>
     <use xlink:href="#m12b996b35f" x="194.43197" y="230.828203" style="fill: #1f78b4; stroke: #1f78b4"/>
     <use xlink:href="#m12b996b35f" x="218.986245" y="219.310773" style="fill: #1f78b4; stroke: #1f78b4"/>
     <use xlink:href="#m12b996b35f" x="169.223693" y="212.206345" style="fill: #1f78b4; stroke: #1f78b4"/>
    </g>
   </g>
  </g>
  <g id="axes_15">
   <g id="LineCollection_15">
    <path d="M 253.333755 246.964966 
L 312.147984 230.024786 
" clip-path="url(#p2cde1594e7)" style="fill: none; stroke: #000000"/>
    <path d="M 253.333755 246.964966 
L 254.316203 212.206345 
" clip-path="url(#p2cde1594e7)" style="fill: none; stroke: #000000"/>
    <path d="M 312.147984 230.024786 
L 254.316203 212.206345 
" clip-path="url(#p2cde1594e7)" style="fill: none; stroke: #000000"/>
   </g>
   <g id="PathCollection_15">
    <g clip-path="url(#p2cde1594e7)">
     <use xlink:href="#m12b996b35f" x="253.333755" y="246.964966" style="fill: #1f78b4; stroke: #1f78b4"/>
     <use xlink:href="#m12b996b35f" x="312.147984" y="230.024786" style="fill: #1f78b4; stroke: #1f78b4"/>
     <use xlink:href="#m12b996b35f" x="254.316203" y="212.206345" style="fill: #1f78b4; stroke: #1f78b4"/>
    </g>
   </g>
  </g>
  <g id="axes_16">
   <g id="LineCollection_16">
    <path d="M 405.309723 246.964966 
L 377.624991 231.844627 
" clip-path="url(#p5c9c183c7f)" style="fill: none; stroke: #000000"/>
    <path d="M 346.495494 226.619225 
L 377.624991 231.844627 
" clip-path="url(#p5c9c183c7f)" style="fill: none; stroke: #000000"/>
    <path d="M 346.495494 226.619225 
L 363.229538 212.206345 
" clip-path="url(#p5c9c183c7f)" style="fill: none; stroke: #000000"/>
    <path d="M 377.624991 231.844627 
L 363.229538 212.206345 
" clip-path="url(#p5c9c183c7f)" style="fill: none; stroke: #000000"/>
   </g>
   <g id="PathCollection_16">
    <g clip-path="url(#p5c9c183c7f)">
     <use xlink:href="#m12b996b35f" x="405.309723" y="246.964966" style="fill: #1f78b4; stroke: #1f78b4"/>
     <use xlink:href="#m12b996b35f" x="346.495494" y="226.619225" style="fill: #1f78b4; stroke: #1f78b4"/>
     <use xlink:href="#m12b996b35f" x="377.624991" y="231.844627" style="fill: #1f78b4; stroke: #1f78b4"/>
     <use xlink:href="#m12b996b35f" x="363.229538" y="212.206345" style="fill: #1f78b4; stroke: #1f78b4"/>
    </g>
   </g>
  </g>
  <g id="axes_17">
   <g id="LineCollection_17">
    <path d="M 125.048138 302.022621 
L 105.874175 284.593916 
" clip-path="url(#p40946b4d28)" style="fill: none; stroke: #000000"/>
    <path d="M 67.010277 284.268644 
L 105.874175 284.593916 
" clip-path="url(#p40946b4d28)" style="fill: none; stroke: #000000"/>
    <path d="M 105.874175 284.593916 
L 125.824506 267.264 
" clip-path="url(#p40946b4d28)" style="fill: none; stroke: #000000"/>
   </g>
   <g id="PathCollection_17">
    <g clip-path="url(#p40946b4d28)">
     <use xlink:href="#m12b996b35f" x="125.048138" y="302.022621" style="fill: #1f78b4; stroke: #1f78b4"/>
     <use xlink:href="#m12b996b35f" x="67.010277" y="284.268644" style="fill: #1f78b4; stroke: #1f78b4"/>
     <use xlink:href="#m12b996b35f" x="105.874175" y="284.593916" style="fill: #1f78b4; stroke: #1f78b4"/>
     <use xlink:href="#m12b996b35f" x="125.824506" y="267.264" style="fill: #1f78b4; stroke: #1f78b4"/>
    </g>
   </g>
  </g>
  <g id="axes_18">
   <g id="LineCollection_18">
    <path d="M 202.773195 267.264 
L 187.839693 284.982236 
" clip-path="url(#p546e713f96)" style="fill: none; stroke: #000000"/>
    <path d="M 187.839693 284.982236 
L 218.986245 290.537183 
" clip-path="url(#p546e713f96)" style="fill: none; stroke: #000000"/>
    <path d="M 187.839693 284.982236 
L 176.708137 302.022621 
" clip-path="url(#p546e713f96)" style="fill: none; stroke: #000000"/>
    <path d="M 187.839693 284.982236 
L 162.362142 291.529761 
" clip-path="url(#p546e713f96)" style="fill: none; stroke: #000000"/>
    <path d="M 187.839693 284.982236 
L 160.172016 277.941275 
" clip-path="url(#p546e713f96)" style="fill: none; stroke: #000000"/>
    <path d="M 176.708137 302.022621 
L 162.362142 291.529761 
" clip-path="url(#p546e713f96)" style="fill: none; stroke: #000000"/>
    <path d="M 162.362142 291.529761 
L 160.172016 277.941275 
" clip-path="url(#p546e713f96)" style="fill: none; stroke: #000000"/>
   </g>
   <g id="PathCollection_18">
    <g clip-path="url(#p546e713f96)">
     <use xlink:href="#m12b996b35f" x="202.773195" y="267.264" style="fill: #1f78b4; stroke: #1f78b4"/>
     <use xlink:href="#m12b996b35f" x="187.839693" y="284.982236" style="fill: #1f78b4; stroke: #1f78b4"/>
     <use xlink:href="#m12b996b35f" x="218.986245" y="290.537183" style="fill: #1f78b4; stroke: #1f78b4"/>
     <use xlink:href="#m12b996b35f" x="176.708137" y="302.022621" style="fill: #1f78b4; stroke: #1f78b4"/>
     <use xlink:href="#m12b996b35f" x="162.362142" y="291.529761" style="fill: #1f78b4; stroke: #1f78b4"/>
     <use xlink:href="#m12b996b35f" x="160.172016" y="277.941275" style="fill: #1f78b4; stroke: #1f78b4"/>
    </g>
   </g>
  </g>
  <g id="axes_19">
   <g id="LineCollection_19">
    <path d="M 301.046476 293.285031 
L 278.918496 283.679747 
" clip-path="url(#p94d57cf9a2)" style="fill: none; stroke: #000000"/>
    <path d="M 301.046476 293.285031 
L 312.147984 282.35945 
" clip-path="url(#p94d57cf9a2)" style="fill: none; stroke: #000000"/>
    <path d="M 301.046476 293.285031 
L 299.804263 272.347037 
" clip-path="url(#p94d57cf9a2)" style="fill: none; stroke: #000000"/>
    <path d="M 255.323057 302.022621 
L 278.918496 283.679747 
" clip-path="url(#p94d57cf9a2)" style="fill: none; stroke: #000000"/>
    <path d="M 278.918496 283.679747 
L 312.147984 282.35945 
" clip-path="url(#p94d57cf9a2)" style="fill: none; stroke: #000000"/>
    <path d="M 278.918496 283.679747 
L 253.333755 267.264 
" clip-path="url(#p94d57cf9a2)" style="fill: none; stroke: #000000"/>
    <path d="M 278.918496 283.679747 
L 299.804263 272.347037 
" clip-path="url(#p94d57cf9a2)" style="fill: none; stroke: #000000"/>
    <path d="M 312.147984 282.35945 
L 299.804263 272.347037 
" clip-path="url(#p94d57cf9a2)" style="fill: none; stroke: #000000"/>
   </g>
   <g id="PathCollection_19">
    <g clip-path="url(#p94d57cf9a2)">
     <use xlink:href="#m12b996b35f" x="301.046476" y="293.285031" style="fill: #1f78b4; stroke: #1f78b4"/>
     <use xlink:href="#m12b996b35f" x="255.323057" y="302.022621" style="fill: #1f78b4; stroke: #1f78b4"/>
     <use xlink:href="#m12b996b35f" x="278.918496" y="283.679747" style="fill: #1f78b4; stroke: #1f78b4"/>
     <use xlink:href="#m12b996b35f" x="312.147984" y="282.35945" style="fill: #1f78b4; stroke: #1f78b4"/>
     <use xlink:href="#m12b996b35f" x="253.333755" y="267.264" style="fill: #1f78b4; stroke: #1f78b4"/>
     <use xlink:href="#m12b996b35f" x="299.804263" y="272.347037" style="fill: #1f78b4; stroke: #1f78b4"/>
    </g>
   </g>
  </g>
  <g id="axes_20">
   <g id="LineCollection_20">
    <path d="M 405.309723 268.24674 
L 375.961267 281.018343 
" clip-path="url(#p01d3e896ec)" style="fill: none; stroke: #000000"/>
    <path d="M 384.463947 267.264 
L 396.711247 283.284109 
" clip-path="url(#p01d3e896ec)" style="fill: none; stroke: #000000"/>
    <path d="M 384.463947 267.264 
L 375.961267 281.018343 
" clip-path="url(#p01d3e896ec)" style="fill: none; stroke: #000000"/>
    <path d="M 365.449246 302.022621 
L 375.961267 281.018343 
" clip-path="url(#p01d3e896ec)" style="fill: none; stroke: #000000"/>
    <path d="M 346.495494 276.495896 
L 375.961267 281.018343 
" clip-path="url(#p01d3e896ec)" style="fill: none; stroke: #000000"/>
    <path d="M 396.711247 283.284109 
L 375.961267 281.018343 
" clip-path="url(#p01d3e896ec)" style="fill: none; stroke: #000000"/>
   </g>
   <g id="PathCollection_20">
    <g clip-path="url(#p01d3e896ec)">
     <use xlink:href="#m12b996b35f" x="405.309723" y="268.24674" style="fill: #1f78b4; stroke: #1f78b4"/>
     <use xlink:href="#m12b996b35f" x="384.463947" y="267.264" style="fill: #1f78b4; stroke: #1f78b4"/>
     <use xlink:href="#m12b996b35f" x="365.449246" y="302.022621" style="fill: #1f78b4; stroke: #1f78b4"/>
     <use xlink:href="#m12b996b35f" x="346.495494" y="276.495896" style="fill: #1f78b4; stroke: #1f78b4"/>
     <use xlink:href="#m12b996b35f" x="396.711247" y="283.284109" style="fill: #1f78b4; stroke: #1f78b4"/>
     <use xlink:href="#m12b996b35f" x="375.961267" y="281.018343" style="fill: #1f78b4; stroke: #1f78b4"/>
    </g>
   </g>
  </g>
  <g id="text_1">
   <!-- original graph -->
   <g transform="translate(188.502187 16.030125) scale(0.12 -0.12)">
    <defs>
     <path id="DejaVuSans-6f" d="M 1959 3097 
Q 1497 3097 1228 2736 
Q 959 2375 959 1747 
Q 959 1119 1226 758 
Q 1494 397 1959 397 
Q 2419 397 2687 759 
Q 2956 1122 2956 1747 
Q 2956 2369 2687 2733 
Q 2419 3097 1959 3097 
z
M 1959 3584 
Q 2709 3584 3137 3096 
Q 3566 2609 3566 1747 
Q 3566 888 3137 398 
Q 2709 -91 1959 -91 
Q 1206 -91 779 398 
Q 353 888 353 1747 
Q 353 2609 779 3096 
Q 1206 3584 1959 3584 
z
" transform="scale(0.015625)"/>
     <path id="DejaVuSans-72" d="M 2631 2963 
Q 2534 3019 2420 3045 
Q 2306 3072 2169 3072 
Q 1681 3072 1420 2755 
Q 1159 2438 1159 1844 
L 1159 0 
L 581 0 
L 581 3500 
L 1159 3500 
L 1159 2956 
Q 1341 3275 1631 3429 
Q 1922 3584 2338 3584 
Q 2397 3584 2469 3576 
Q 2541 3569 2628 3553 
L 2631 2963 
z
" transform="scale(0.015625)"/>
     <path id="DejaVuSans-69" d="M 603 3500 
L 1178 3500 
L 1178 0 
L 603 0 
L 603 3500 
z
M 603 4863 
L 1178 4863 
L 1178 4134 
L 603 4134 
L 603 4863 
z
" transform="scale(0.015625)"/>
     <path id="DejaVuSans-67" d="M 2906 1791 
Q 2906 2416 2648 2759 
Q 2391 3103 1925 3103 
Q 1463 3103 1205 2759 
Q 947 2416 947 1791 
Q 947 1169 1205 825 
Q 1463 481 1925 481 
Q 2391 481 2648 825 
Q 2906 1169 2906 1791 
z
M 3481 434 
Q 3481 -459 3084 -895 
Q 2688 -1331 1869 -1331 
Q 1566 -1331 1297 -1286 
Q 1028 -1241 775 -1147 
L 775 -588 
Q 1028 -725 1275 -790 
Q 1522 -856 1778 -856 
Q 2344 -856 2625 -561 
Q 2906 -266 2906 331 
L 2906 616 
Q 2728 306 2450 153 
Q 2172 0 1784 0 
Q 1141 0 747 490 
Q 353 981 353 1791 
Q 353 2603 747 3093 
Q 1141 3584 1784 3584 
Q 2172 3584 2450 3431 
Q 2728 3278 2906 2969 
L 2906 3500 
L 3481 3500 
L 3481 434 
z
" transform="scale(0.015625)"/>
     <path id="DejaVuSans-6e" d="M 3513 2113 
L 3513 0 
L 2938 0 
L 2938 2094 
Q 2938 2591 2744 2837 
Q 2550 3084 2163 3084 
Q 1697 3084 1428 2787 
Q 1159 2491 1159 1978 
L 1159 0 
L 581 0 
L 581 3500 
L 1159 3500 
L 1159 2956 
Q 1366 3272 1645 3428 
Q 1925 3584 2291 3584 
Q 2894 3584 3203 3211 
Q 3513 2838 3513 2113 
z
" transform="scale(0.015625)"/>
     <path id="DejaVuSans-61" d="M 2194 1759 
Q 1497 1759 1228 1600 
Q 959 1441 959 1056 
Q 959 750 1161 570 
Q 1363 391 1709 391 
Q 2188 391 2477 730 
Q 2766 1069 2766 1631 
L 2766 1759 
L 2194 1759 
z
M 3341 1997 
L 3341 0 
L 2766 0 
L 2766 531 
Q 2569 213 2275 61 
Q 1981 -91 1556 -91 
Q 1019 -91 701 211 
Q 384 513 384 1019 
Q 384 1609 779 1909 
Q 1175 2209 1959 2209 
L 2766 2209 
L 2766 2266 
Q 2766 2663 2505 2880 
Q 2244 3097 1772 3097 
Q 1472 3097 1187 3025 
Q 903 2953 641 2809 
L 641 3341 
Q 956 3463 1253 3523 
Q 1550 3584 1831 3584 
Q 2591 3584 2966 3190 
Q 3341 2797 3341 1997 
z
" transform="scale(0.015625)"/>
     <path id="DejaVuSans-6c" d="M 603 4863 
L 1178 4863 
L 1178 0 
L 603 0 
L 603 4863 
z
" transform="scale(0.015625)"/>
     <path id="DejaVuSans-20" transform="scale(0.015625)"/>
     <path id="DejaVuSans-70" d="M 1159 525 
L 1159 -1331 
L 581 -1331 
L 581 3500 
L 1159 3500 
L 1159 2969 
Q 1341 3281 1617 3432 
Q 1894 3584 2278 3584 
Q 2916 3584 3314 3078 
Q 3713 2572 3713 1747 
Q 3713 922 3314 415 
Q 2916 -91 2278 -91 
Q 1894 -91 1617 61 
Q 1341 213 1159 525 
z
M 3116 1747 
Q 3116 2381 2855 2742 
Q 2594 3103 2138 3103 
Q 1681 3103 1420 2742 
Q 1159 2381 1159 1747 
Q 1159 1113 1420 752 
Q 1681 391 2138 391 
Q 2594 391 2855 752 
Q 3116 1113 3116 1747 
z
" transform="scale(0.015625)"/>
     <path id="DejaVuSans-68" d="M 3513 2113 
L 3513 0 
L 2938 0 
L 2938 2094 
Q 2938 2591 2744 2837 
Q 2550 3084 2163 3084 
Q 1697 3084 1428 2787 
Q 1159 2491 1159 1978 
L 1159 0 
L 581 0 
L 581 4863 
L 1159 4863 
L 1159 2956 
Q 1366 3272 1645 3428 
Q 1925 3584 2291 3584 
Q 2894 3584 3203 3211 
Q 3513 2838 3513 2113 
z
" transform="scale(0.015625)"/>
    </defs>
    <use xlink:href="#DejaVuSans-6f"/>
    <use xlink:href="#DejaVuSans-72" x="61.181641"/>
    <use xlink:href="#DejaVuSans-69" x="102.294922"/>
    <use xlink:href="#DejaVuSans-67" x="130.078125"/>
    <use xlink:href="#DejaVuSans-69" x="193.554688"/>
    <use xlink:href="#DejaVuSans-6e" x="221.337891"/>
    <use xlink:href="#DejaVuSans-61" x="284.716797"/>
    <use xlink:href="#DejaVuSans-6c" x="345.996094"/>
    <use xlink:href="#DejaVuSans-20" x="373.779297"/>
    <use xlink:href="#DejaVuSans-67" x="405.566406"/>
    <use xlink:href="#DejaVuSans-72" x="469.042969"/>
    <use xlink:href="#DejaVuSans-61" x="510.15625"/>
    <use xlink:href="#DejaVuSans-70" x="571.435547"/>
    <use xlink:href="#DejaVuSans-68" x="634.912109"/>
   </g>
  </g>
 </g>
 <defs>
  <clipPath id="pad7b9e0222">
   <rect x="57.6" y="41.472" width="77.634783" height="45.881379"/>
  </clipPath>
  <clipPath id="pca8001f8ca">
   <rect x="150.761739" y="41.472" width="77.634783" height="45.881379"/>
  </clipPath>
  <clipPath id="pf2e23a60ff">
   <rect x="243.923478" y="41.472" width="77.634783" height="45.881379"/>
  </clipPath>
  <clipPath id="p12eef74309">
   <rect x="337.085217" y="41.472" width="77.634783" height="45.881379"/>
  </clipPath>
  <clipPath id="peddf5b157f">
   <rect x="57.6" y="96.529655" width="77.634783" height="45.881379"/>
  </clipPath>
  <clipPath id="p9fb23bcbf9">
   <rect x="150.761739" y="96.529655" width="77.634783" height="45.881379"/>
  </clipPath>
  <clipPath id="pb3df072ace">
   <rect x="243.923478" y="96.529655" width="77.634783" height="45.881379"/>
  </clipPath>
  <clipPath id="p7d36dae157">
   <rect x="337.085217" y="96.529655" width="77.634783" height="45.881379"/>
  </clipPath>
  <clipPath id="p2733d0a74e">
   <rect x="57.6" y="151.58731" width="77.634783" height="45.881379"/>
  </clipPath>
  <clipPath id="p968a2524cb">
   <rect x="150.761739" y="151.58731" width="77.634783" height="45.881379"/>
  </clipPath>
  <clipPath id="p9cdf679b45">
   <rect x="243.923478" y="151.58731" width="77.634783" height="45.881379"/>
  </clipPath>
  <clipPath id="pf47002f397">
   <rect x="337.085217" y="151.58731" width="77.634783" height="45.881379"/>
  </clipPath>
  <clipPath id="p8053fa7e65">
   <rect x="57.6" y="206.644966" width="77.634783" height="45.881379"/>
  </clipPath>
  <clipPath id="p556ddac293">
   <rect x="150.761739" y="206.644966" width="77.634783" height="45.881379"/>
  </clipPath>
  <clipPath id="p2cde1594e7">
   <rect x="243.923478" y="206.644966" width="77.634783" height="45.881379"/>
  </clipPath>
  <clipPath id="p5c9c183c7f">
   <rect x="337.085217" y="206.644966" width="77.634783" height="45.881379"/>
  </clipPath>
  <clipPath id="p40946b4d28">
   <rect x="57.6" y="261.702621" width="77.634783" height="45.881379"/>
  </clipPath>
  <clipPath id="p546e713f96">
   <rect x="150.761739" y="261.702621" width="77.634783" height="45.881379"/>
  </clipPath>
  <clipPath id="p94d57cf9a2">
   <rect x="243.923478" y="261.702621" width="77.634783" height="45.881379"/>
  </clipPath>
  <clipPath id="p01d3e896ec">
   <rect x="337.085217" y="261.702621" width="77.634783" height="45.881379"/>
  </clipPath>
 </defs>
</svg>
