<?xml version="1.0" encoding="utf-8" standalone="no"?>
<!DOCTYPE svg PUBLIC "-//W3C//DTD SVG 1.1//EN"
  "http://www.w3.org/Graphics/SVG/1.1/DTD/svg11.dtd">
<svg xmlns:xlink="http://www.w3.org/1999/xlink" width="460.8pt" height="345.6pt" viewBox="0 0 460.8 345.6" xmlns="http://www.w3.org/2000/svg" version="1.1">
 <metadata>
  <rdf:RDF xmlns:dc="http://purl.org/dc/elements/1.1/" xmlns:cc="http://creativecommons.org/ns#" xmlns:rdf="http://www.w3.org/1999/02/22-rdf-syntax-ns#">
   <cc:Work>
    <dc:type rdf:resource="http://purl.org/dc/dcmitype/StillImage"/>
    <dc:date>2024-12-23T13:42:43.808104</dc:date>
    <dc:format>image/svg+xml</dc:format>
    <dc:creator>
     <cc:Agent>
      <dc:title>Matplotlib v3.7.5, https://matplotlib.org/</dc:title>
     </cc:Agent>
    </dc:creator>
   </cc:Work>
  </rdf:RDF>
 </metadata>
 <defs>
  <style type="text/css">*{stroke-linejoin: round; stroke-linecap: butt}</style>
 </defs>
 <g id="figure_1">
  <g id="patch_1">
   <path d="M 0 345.6 
L 460.8 345.6 
L 460.8 0 
L 0 0 
z
" style="fill: #ffffff"/>
  </g>
  <g id="axes_1"/>
  <g id="axes_2">
   <g id="LineCollection_1">
    <path d="M 213.282673 75.879815 
L 165.204386 52.748972 
" clip-path="url(#p71d8e5e414)" style="fill: none; stroke: #000000"/>
    <path d="M 213.282673 75.879815 
L 195.039115 47.033379 
" clip-path="url(#p71d8e5e414)" style="fill: none; stroke: #000000"/>
    <path d="M 213.282673 75.879815 
L 218.986245 58.373552 
" clip-path="url(#p71d8e5e414)" style="fill: none; stroke: #000000"/>
    <path d="M 213.282673 75.879815 
L 183.811979 81.792 
" clip-path="url(#p71d8e5e414)" style="fill: none; stroke: #000000"/>
    <path d="M 213.282673 75.879815 
L 160.172016 70.391243 
" clip-path="url(#p71d8e5e414)" style="fill: none; stroke: #000000"/>
    <path d="M 165.204386 52.748972 
L 195.039115 47.033379 
" clip-path="url(#p71d8e5e414)" style="fill: none; stroke: #000000"/>
    <path d="M 165.204386 52.748972 
L 218.986245 58.373552 
" clip-path="url(#p71d8e5e414)" style="fill: none; stroke: #000000"/>
    <path d="M 165.204386 52.748972 
L 183.811979 81.792 
" clip-path="url(#p71d8e5e414)" style="fill: none; stroke: #000000"/>
    <path d="M 165.204386 52.748972 
L 160.172016 70.391243 
" clip-path="url(#p71d8e5e414)" style="fill: none; stroke: #000000"/>
    <path d="M 195.039115 47.033379 
L 218.986245 58.373552 
" clip-path="url(#p71d8e5e414)" style="fill: none; stroke: #000000"/>
    <path d="M 195.039115 47.033379 
L 183.811979 81.792 
" clip-path="url(#p71d8e5e414)" style="fill: none; stroke: #000000"/>
    <path d="M 195.039115 47.033379 
L 160.172016 70.391243 
" clip-path="url(#p71d8e5e414)" style="fill: none; stroke: #000000"/>
    <path d="M 218.986245 58.373552 
L 183.811979 81.792 
" clip-path="url(#p71d8e5e414)" style="fill: none; stroke: #000000"/>
    <path d="M 218.986245 58.373552 
L 160.172016 70.391243 
" clip-path="url(#p71d8e5e414)" style="fill: none; stroke: #000000"/>
    <path d="M 183.811979 81.792 
L 160.172016 70.391243 
" clip-path="url(#p71d8e5e414)" style="fill: none; stroke: #000000"/>
   </g>
   <g id="PathCollection_1">
    <defs>
     <path id="md8bc793623" d="M 0 1.732051 
C 0.459345 1.732051 0.899939 1.549551 1.224745 1.224745 
C 1.549551 0.899939 1.732051 0.459345 1.732051 0 
C 1.732051 -0.459345 1.549551 -0.899939 1.224745 -1.224745 
C 0.899939 -1.549551 0.459345 -1.732051 0 -1.732051 
C -0.459345 -1.732051 -0.899939 -1.549551 -1.224745 -1.224745 
C -1.549551 -0.899939 -1.732051 -0.459345 -1.732051 0 
C -1.732051 0.459345 -1.549551 0.899939 -1.224745 1.224745 
C -0.899939 1.549551 -0.459345 1.732051 0 1.732051 
z
" style="stroke: #1f78b4"/>
    </defs>
    <g clip-path="url(#p71d8e5e414)">
     <use xlink:href="#md8bc793623" x="213.282673" y="75.879815" style="fill: #1f78b4; stroke: #1f78b4"/>
     <use xlink:href="#md8bc793623" x="165.204386" y="52.748972" style="fill: #1f78b4; stroke: #1f78b4"/>
     <use xlink:href="#md8bc793623" x="195.039115" y="47.033379" style="fill: #1f78b4; stroke: #1f78b4"/>
     <use xlink:href="#md8bc793623" x="218.986245" y="58.373552" style="fill: #1f78b4; stroke: #1f78b4"/>
     <use xlink:href="#md8bc793623" x="183.811979" y="81.792" style="fill: #1f78b4; stroke: #1f78b4"/>
     <use xlink:href="#md8bc793623" x="160.172016" y="70.391243" style="fill: #1f78b4; stroke: #1f78b4"/>
    </g>
   </g>
  </g>
  <g id="axes_3">
   <g id="LineCollection_2">
    <path d="M 253.333755 68.441424 
L 292.514118 47.033379 
" clip-path="url(#p667165d325)" style="fill: none; stroke: #000000"/>
    <path d="M 253.333755 68.441424 
L 273.875936 81.792 
" clip-path="url(#p667165d325)" style="fill: none; stroke: #000000"/>
    <path d="M 253.333755 68.441424 
L 282.049451 63.879832 
" clip-path="url(#p667165d325)" style="fill: none; stroke: #000000"/>
    <path d="M 253.333755 68.441424 
L 262.045444 50.618581 
" clip-path="url(#p667165d325)" style="fill: none; stroke: #000000"/>
    <path d="M 253.333755 68.441424 
L 302.730419 77.635219 
" clip-path="url(#p667165d325)" style="fill: none; stroke: #000000"/>
    <path d="M 253.333755 68.441424 
L 312.147984 60.795457 
" clip-path="url(#p667165d325)" style="fill: none; stroke: #000000"/>
    <path d="M 292.514118 47.033379 
L 273.875936 81.792 
" clip-path="url(#p667165d325)" style="fill: none; stroke: #000000"/>
    <path d="M 292.514118 47.033379 
L 282.049451 63.879832 
" clip-path="url(#p667165d325)" style="fill: none; stroke: #000000"/>
    <path d="M 292.514118 47.033379 
L 262.045444 50.618581 
" clip-path="url(#p667165d325)" style="fill: none; stroke: #000000"/>
    <path d="M 292.514118 47.033379 
L 302.730419 77.635219 
" clip-path="url(#p667165d325)" style="fill: none; stroke: #000000"/>
    <path d="M 292.514118 47.033379 
L 312.147984 60.795457 
" clip-path="url(#p667165d325)" style="fill: none; stroke: #000000"/>
    <path d="M 273.875936 81.792 
L 282.049451 63.879832 
" clip-path="url(#p667165d325)" style="fill: none; stroke: #000000"/>
    <path d="M 273.875936 81.792 
L 262.045444 50.618581 
" clip-path="url(#p667165d325)" style="fill: none; stroke: #000000"/>
    <path d="M 273.875936 81.792 
L 302.730419 77.635219 
" clip-path="url(#p667165d325)" style="fill: none; stroke: #000000"/>
    <path d="M 273.875936 81.792 
L 312.147984 60.795457 
" clip-path="url(#p667165d325)" style="fill: none; stroke: #000000"/>
    <path d="M 282.049451 63.879832 
L 262.045444 50.618581 
" clip-path="url(#p667165d325)" style="fill: none; stroke: #000000"/>
    <path d="M 282.049451 63.879832 
L 302.730419 77.635219 
" clip-path="url(#p667165d325)" style="fill: none; stroke: #000000"/>
    <path d="M 282.049451 63.879832 
L 312.147984 60.795457 
" clip-path="url(#p667165d325)" style="fill: none; stroke: #000000"/>
    <path d="M 262.045444 50.618581 
L 302.730419 77.635219 
" clip-path="url(#p667165d325)" style="fill: none; stroke: #000000"/>
    <path d="M 262.045444 50.618581 
L 312.147984 60.795457 
" clip-path="url(#p667165d325)" style="fill: none; stroke: #000000"/>
    <path d="M 302.730419 77.635219 
L 312.147984 60.795457 
" clip-path="url(#p667165d325)" style="fill: none; stroke: #000000"/>
   </g>
   <g id="PathCollection_2">
    <g clip-path="url(#p667165d325)">
     <use xlink:href="#md8bc793623" x="253.333755" y="68.441424" style="fill: #1f78b4; stroke: #1f78b4"/>
     <use xlink:href="#md8bc793623" x="292.514118" y="47.033379" style="fill: #1f78b4; stroke: #1f78b4"/>
     <use xlink:href="#md8bc793623" x="273.875936" y="81.792" style="fill: #1f78b4; stroke: #1f78b4"/>
     <use xlink:href="#md8bc793623" x="282.049451" y="63.879832" style="fill: #1f78b4; stroke: #1f78b4"/>
     <use xlink:href="#md8bc793623" x="262.045444" y="50.618581" style="fill: #1f78b4; stroke: #1f78b4"/>
     <use xlink:href="#md8bc793623" x="302.730419" y="77.635219" style="fill: #1f78b4; stroke: #1f78b4"/>
     <use xlink:href="#md8bc793623" x="312.147984" y="60.795457" style="fill: #1f78b4; stroke: #1f78b4"/>
    </g>
   </g>
  </g>
  <g id="axes_4">
   <g id="LineCollection_3">
    <path d="M 375.823798 47.033379 
L 399.34359 53.917685 
" clip-path="url(#pf4d308c26d)" style="fill: none; stroke: #000000"/>
    <path d="M 375.823798 47.033379 
L 346.495494 67.558162 
" clip-path="url(#pf4d308c26d)" style="fill: none; stroke: #000000"/>
    <path d="M 375.823798 47.033379 
L 405.309723 69.798561 
" clip-path="url(#pf4d308c26d)" style="fill: none; stroke: #000000"/>
    <path d="M 375.823798 47.033379 
L 349.31836 51.813975 
" clip-path="url(#pf4d308c26d)" style="fill: none; stroke: #000000"/>
    <path d="M 375.823798 47.033379 
L 358.248959 81.792 
" clip-path="url(#pf4d308c26d)" style="fill: none; stroke: #000000"/>
    <path d="M 375.823798 47.033379 
L 385.978436 80.582607 
" clip-path="url(#pf4d308c26d)" style="fill: none; stroke: #000000"/>
    <path d="M 399.34359 53.917685 
L 346.495494 67.558162 
" clip-path="url(#pf4d308c26d)" style="fill: none; stroke: #000000"/>
    <path d="M 399.34359 53.917685 
L 405.309723 69.798561 
" clip-path="url(#pf4d308c26d)" style="fill: none; stroke: #000000"/>
    <path d="M 399.34359 53.917685 
L 349.31836 51.813975 
" clip-path="url(#pf4d308c26d)" style="fill: none; stroke: #000000"/>
    <path d="M 399.34359 53.917685 
L 358.248959 81.792 
" clip-path="url(#pf4d308c26d)" style="fill: none; stroke: #000000"/>
    <path d="M 399.34359 53.917685 
L 385.978436 80.582607 
" clip-path="url(#pf4d308c26d)" style="fill: none; stroke: #000000"/>
    <path d="M 346.495494 67.558162 
L 405.309723 69.798561 
" clip-path="url(#pf4d308c26d)" style="fill: none; stroke: #000000"/>
    <path d="M 346.495494 67.558162 
L 349.31836 51.813975 
" clip-path="url(#pf4d308c26d)" style="fill: none; stroke: #000000"/>
    <path d="M 346.495494 67.558162 
L 358.248959 81.792 
" clip-path="url(#pf4d308c26d)" style="fill: none; stroke: #000000"/>
    <path d="M 346.495494 67.558162 
L 385.978436 80.582607 
" clip-path="url(#pf4d308c26d)" style="fill: none; stroke: #000000"/>
    <path d="M 405.309723 69.798561 
L 349.31836 51.813975 
" clip-path="url(#pf4d308c26d)" style="fill: none; stroke: #000000"/>
    <path d="M 405.309723 69.798561 
L 358.248959 81.792 
" clip-path="url(#pf4d308c26d)" style="fill: none; stroke: #000000"/>
    <path d="M 405.309723 69.798561 
L 385.978436 80.582607 
" clip-path="url(#pf4d308c26d)" style="fill: none; stroke: #000000"/>
    <path d="M 349.31836 51.813975 
L 358.248959 81.792 
" clip-path="url(#pf4d308c26d)" style="fill: none; stroke: #000000"/>
    <path d="M 349.31836 51.813975 
L 385.978436 80.582607 
" clip-path="url(#pf4d308c26d)" style="fill: none; stroke: #000000"/>
    <path d="M 358.248959 81.792 
L 385.978436 80.582607 
" clip-path="url(#pf4d308c26d)" style="fill: none; stroke: #000000"/>
   </g>
   <g id="PathCollection_3">
    <g clip-path="url(#pf4d308c26d)">
     <use xlink:href="#md8bc793623" x="375.823798" y="47.033379" style="fill: #1f78b4; stroke: #1f78b4"/>
     <use xlink:href="#md8bc793623" x="399.34359" y="53.917685" style="fill: #1f78b4; stroke: #1f78b4"/>
     <use xlink:href="#md8bc793623" x="346.495494" y="67.558162" style="fill: #1f78b4; stroke: #1f78b4"/>
     <use xlink:href="#md8bc793623" x="405.309723" y="69.798561" style="fill: #1f78b4; stroke: #1f78b4"/>
     <use xlink:href="#md8bc793623" x="349.31836" y="51.813975" style="fill: #1f78b4; stroke: #1f78b4"/>
     <use xlink:href="#md8bc793623" x="358.248959" y="81.792" style="fill: #1f78b4; stroke: #1f78b4"/>
     <use xlink:href="#md8bc793623" x="385.978436" y="80.582607" style="fill: #1f78b4; stroke: #1f78b4"/>
    </g>
   </g>
  </g>
  <g id="axes_5"/>
  <g id="axes_6"/>
  <g id="axes_7"/>
  <g id="axes_8">
   <g id="LineCollection_4">
    <path d="M 401.163542 106.413059 
L 346.495494 120.73098 
" clip-path="url(#p02d8bb92cc)" style="fill: none; stroke: #000000"/>
    <path d="M 401.163542 106.413059 
L 371.458552 136.849655 
" clip-path="url(#p02d8bb92cc)" style="fill: none; stroke: #000000"/>
    <path d="M 401.163542 106.413059 
L 405.309723 127.877541 
" clip-path="url(#p02d8bb92cc)" style="fill: none; stroke: #000000"/>
    <path d="M 401.163542 106.413059 
L 364.880044 102.091034 
" clip-path="url(#p02d8bb92cc)" style="fill: none; stroke: #000000"/>
    <path d="M 346.495494 120.73098 
L 371.458552 136.849655 
" clip-path="url(#p02d8bb92cc)" style="fill: none; stroke: #000000"/>
    <path d="M 346.495494 120.73098 
L 405.309723 127.877541 
" clip-path="url(#p02d8bb92cc)" style="fill: none; stroke: #000000"/>
    <path d="M 346.495494 120.73098 
L 364.880044 102.091034 
" clip-path="url(#p02d8bb92cc)" style="fill: none; stroke: #000000"/>
    <path d="M 371.458552 136.849655 
L 405.309723 127.877541 
" clip-path="url(#p02d8bb92cc)" style="fill: none; stroke: #000000"/>
    <path d="M 371.458552 136.849655 
L 364.880044 102.091034 
" clip-path="url(#p02d8bb92cc)" style="fill: none; stroke: #000000"/>
    <path d="M 405.309723 127.877541 
L 364.880044 102.091034 
" clip-path="url(#p02d8bb92cc)" style="fill: none; stroke: #000000"/>
   </g>
   <g id="PathCollection_4">
    <g clip-path="url(#p02d8bb92cc)">
     <use xlink:href="#md8bc793623" x="401.163542" y="106.413059" style="fill: #1f78b4; stroke: #1f78b4"/>
     <use xlink:href="#md8bc793623" x="346.495494" y="120.73098" style="fill: #1f78b4; stroke: #1f78b4"/>
     <use xlink:href="#md8bc793623" x="371.458552" y="136.849655" style="fill: #1f78b4; stroke: #1f78b4"/>
     <use xlink:href="#md8bc793623" x="405.309723" y="127.877541" style="fill: #1f78b4; stroke: #1f78b4"/>
     <use xlink:href="#md8bc793623" x="364.880044" y="102.091034" style="fill: #1f78b4; stroke: #1f78b4"/>
    </g>
   </g>
  </g>
  <g id="axes_9">
   <g id="LineCollection_5">
    <path d="M 125.824506 157.14869 
L 100.387974 191.90731 
" clip-path="url(#pa77f341ba3)" style="fill: none; stroke: #000000"/>
    <path d="M 125.824506 157.14869 
L 67.010277 160.142704 
" clip-path="url(#pa77f341ba3)" style="fill: none; stroke: #000000"/>
    <path d="M 100.387974 191.90731 
L 67.010277 160.142704 
" clip-path="url(#pa77f341ba3)" style="fill: none; stroke: #000000"/>
   </g>
   <g id="PathCollection_5">
    <g clip-path="url(#pa77f341ba3)">
     <use xlink:href="#md8bc793623" x="125.824506" y="157.14869" style="fill: #1f78b4; stroke: #1f78b4"/>
     <use xlink:href="#md8bc793623" x="100.387974" y="191.90731" style="fill: #1f78b4; stroke: #1f78b4"/>
     <use xlink:href="#md8bc793623" x="67.010277" y="160.142704" style="fill: #1f78b4; stroke: #1f78b4"/>
    </g>
   </g>
  </g>
  <g id="axes_10"/>
  <g id="axes_11"/>
  <g id="axes_12">
   <g id="LineCollection_6">
    <path d="M 388.111968 157.14869 
L 346.495494 167.318527 
" clip-path="url(#p724be4cce2)" style="fill: none; stroke: #000000"/>
    <path d="M 388.111968 157.14869 
L 363.693249 191.90731 
" clip-path="url(#p724be4cce2)" style="fill: none; stroke: #000000"/>
    <path d="M 388.111968 157.14869 
L 405.309723 181.737473 
" clip-path="url(#p724be4cce2)" style="fill: none; stroke: #000000"/>
    <path d="M 346.495494 167.318527 
L 363.693249 191.90731 
" clip-path="url(#p724be4cce2)" style="fill: none; stroke: #000000"/>
    <path d="M 346.495494 167.318527 
L 405.309723 181.737473 
" clip-path="url(#p724be4cce2)" style="fill: none; stroke: #000000"/>
    <path d="M 363.693249 191.90731 
L 405.309723 181.737473 
" clip-path="url(#p724be4cce2)" style="fill: none; stroke: #000000"/>
   </g>
   <g id="PathCollection_6">
    <g clip-path="url(#p724be4cce2)">
     <use xlink:href="#md8bc793623" x="388.111968" y="157.14869" style="fill: #1f78b4; stroke: #1f78b4"/>
     <use xlink:href="#md8bc793623" x="346.495494" y="167.318527" style="fill: #1f78b4; stroke: #1f78b4"/>
     <use xlink:href="#md8bc793623" x="363.693249" y="191.90731" style="fill: #1f78b4; stroke: #1f78b4"/>
     <use xlink:href="#md8bc793623" x="405.309723" y="181.737473" style="fill: #1f78b4; stroke: #1f78b4"/>
    </g>
   </g>
  </g>
  <g id="axes_13">
   <g id="LineCollection_7">
    <path d="M 98.496246 212.206345 
L 67.010277 236.264851 
" clip-path="url(#pe10655e1e7)" style="fill: none; stroke: #000000"/>
    <path d="M 98.496246 212.206345 
L 99.499347 227.236486 
" clip-path="url(#pe10655e1e7)" style="fill: none; stroke: #000000"/>
    <path d="M 98.496246 212.206345 
L 125.824506 226.368669 
" clip-path="url(#pe10655e1e7)" style="fill: none; stroke: #000000"/>
    <path d="M 98.496246 212.206345 
L 87.243568 246.964966 
" clip-path="url(#pe10655e1e7)" style="fill: none; stroke: #000000"/>
    <path d="M 98.496246 212.206345 
L 70.086559 220.194698 
" clip-path="url(#pe10655e1e7)" style="fill: none; stroke: #000000"/>
    <path d="M 98.496246 212.206345 
L 114.819731 243.244652 
" clip-path="url(#pe10655e1e7)" style="fill: none; stroke: #000000"/>
    <path d="M 67.010277 236.264851 
L 99.499347 227.236486 
" clip-path="url(#pe10655e1e7)" style="fill: none; stroke: #000000"/>
    <path d="M 67.010277 236.264851 
L 125.824506 226.368669 
" clip-path="url(#pe10655e1e7)" style="fill: none; stroke: #000000"/>
    <path d="M 67.010277 236.264851 
L 87.243568 246.964966 
" clip-path="url(#pe10655e1e7)" style="fill: none; stroke: #000000"/>
    <path d="M 67.010277 236.264851 
L 70.086559 220.194698 
" clip-path="url(#pe10655e1e7)" style="fill: none; stroke: #000000"/>
    <path d="M 67.010277 236.264851 
L 114.819731 243.244652 
" clip-path="url(#pe10655e1e7)" style="fill: none; stroke: #000000"/>
    <path d="M 99.499347 227.236486 
L 125.824506 226.368669 
" clip-path="url(#pe10655e1e7)" style="fill: none; stroke: #000000"/>
    <path d="M 99.499347 227.236486 
L 87.243568 246.964966 
" clip-path="url(#pe10655e1e7)" style="fill: none; stroke: #000000"/>
    <path d="M 99.499347 227.236486 
L 70.086559 220.194698 
" clip-path="url(#pe10655e1e7)" style="fill: none; stroke: #000000"/>
    <path d="M 99.499347 227.236486 
L 114.819731 243.244652 
" clip-path="url(#pe10655e1e7)" style="fill: none; stroke: #000000"/>
    <path d="M 125.824506 226.368669 
L 87.243568 246.964966 
" clip-path="url(#pe10655e1e7)" style="fill: none; stroke: #000000"/>
    <path d="M 125.824506 226.368669 
L 70.086559 220.194698 
" clip-path="url(#pe10655e1e7)" style="fill: none; stroke: #000000"/>
    <path d="M 125.824506 226.368669 
L 114.819731 243.244652 
" clip-path="url(#pe10655e1e7)" style="fill: none; stroke: #000000"/>
    <path d="M 87.243568 246.964966 
L 70.086559 220.194698 
" clip-path="url(#pe10655e1e7)" style="fill: none; stroke: #000000"/>
    <path d="M 87.243568 246.964966 
L 114.819731 243.244652 
" clip-path="url(#pe10655e1e7)" style="fill: none; stroke: #000000"/>
    <path d="M 70.086559 220.194698 
L 114.819731 243.244652 
" clip-path="url(#pe10655e1e7)" style="fill: none; stroke: #000000"/>
   </g>
   <g id="PathCollection_7">
    <g clip-path="url(#pe10655e1e7)">
     <use xlink:href="#md8bc793623" x="98.496246" y="212.206345" style="fill: #1f78b4; stroke: #1f78b4"/>
     <use xlink:href="#md8bc793623" x="67.010277" y="236.264851" style="fill: #1f78b4; stroke: #1f78b4"/>
     <use xlink:href="#md8bc793623" x="99.499347" y="227.236486" style="fill: #1f78b4; stroke: #1f78b4"/>
     <use xlink:href="#md8bc793623" x="125.824506" y="226.368669" style="fill: #1f78b4; stroke: #1f78b4"/>
     <use xlink:href="#md8bc793623" x="87.243568" y="246.964966" style="fill: #1f78b4; stroke: #1f78b4"/>
     <use xlink:href="#md8bc793623" x="70.086559" y="220.194698" style="fill: #1f78b4; stroke: #1f78b4"/>
     <use xlink:href="#md8bc793623" x="114.819731" y="243.244652" style="fill: #1f78b4; stroke: #1f78b4"/>
    </g>
   </g>
  </g>
  <g id="axes_14"/>
  <g id="axes_15"/>
  <g id="axes_16"/>
  <g id="axes_17"/>
  <g id="axes_18"/>
  <g id="axes_19"/>
  <g id="axes_20">
   <g id="LineCollection_8">
    <path d="M 370.297147 302.022621 
L 352.432088 273.552479 
" clip-path="url(#p940a71ebe4)" style="fill: none; stroke: #000000"/>
    <path d="M 370.297147 302.022621 
L 399.100687 295.792425 
" clip-path="url(#p940a71ebe4)" style="fill: none; stroke: #000000"/>
    <path d="M 370.297147 302.022621 
L 346.495494 290.535764 
" clip-path="url(#p940a71ebe4)" style="fill: none; stroke: #000000"/>
    <path d="M 370.297147 302.022621 
L 381.398935 267.264 
" clip-path="url(#p940a71ebe4)" style="fill: none; stroke: #000000"/>
    <path d="M 370.297147 302.022621 
L 405.309723 278.69372 
" clip-path="url(#p940a71ebe4)" style="fill: none; stroke: #000000"/>
    <path d="M 352.432088 273.552479 
L 399.100687 295.792425 
" clip-path="url(#p940a71ebe4)" style="fill: none; stroke: #000000"/>
    <path d="M 352.432088 273.552479 
L 346.495494 290.535764 
" clip-path="url(#p940a71ebe4)" style="fill: none; stroke: #000000"/>
    <path d="M 352.432088 273.552479 
L 381.398935 267.264 
" clip-path="url(#p940a71ebe4)" style="fill: none; stroke: #000000"/>
    <path d="M 352.432088 273.552479 
L 405.309723 278.69372 
" clip-path="url(#p940a71ebe4)" style="fill: none; stroke: #000000"/>
    <path d="M 399.100687 295.792425 
L 346.495494 290.535764 
" clip-path="url(#p940a71ebe4)" style="fill: none; stroke: #000000"/>
    <path d="M 399.100687 295.792425 
L 381.398935 267.264 
" clip-path="url(#p940a71ebe4)" style="fill: none; stroke: #000000"/>
    <path d="M 399.100687 295.792425 
L 405.309723 278.69372 
" clip-path="url(#p940a71ebe4)" style="fill: none; stroke: #000000"/>
    <path d="M 346.495494 290.535764 
L 381.398935 267.264 
" clip-path="url(#p940a71ebe4)" style="fill: none; stroke: #000000"/>
    <path d="M 346.495494 290.535764 
L 405.309723 278.69372 
" clip-path="url(#p940a71ebe4)" style="fill: none; stroke: #000000"/>
    <path d="M 381.398935 267.264 
L 405.309723 278.69372 
" clip-path="url(#p940a71ebe4)" style="fill: none; stroke: #000000"/>
   </g>
   <g id="PathCollection_8">
    <g clip-path="url(#p940a71ebe4)">
     <use xlink:href="#md8bc793623" x="370.297147" y="302.022621" style="fill: #1f78b4; stroke: #1f78b4"/>
     <use xlink:href="#md8bc793623" x="352.432088" y="273.552479" style="fill: #1f78b4; stroke: #1f78b4"/>
     <use xlink:href="#md8bc793623" x="399.100687" y="295.792425" style="fill: #1f78b4; stroke: #1f78b4"/>
     <use xlink:href="#md8bc793623" x="346.495494" y="290.535764" style="fill: #1f78b4; stroke: #1f78b4"/>
     <use xlink:href="#md8bc793623" x="381.398935" y="267.264" style="fill: #1f78b4; stroke: #1f78b4"/>
     <use xlink:href="#md8bc793623" x="405.309723" y="278.69372" style="fill: #1f78b4; stroke: #1f78b4"/>
    </g>
   </g>
  </g>
  <g id="text_1">
   <!-- reconstruction data -->
   <g transform="translate(171.643125 16.030125) scale(0.12 -0.12)">
    <defs>
     <path id="DejaVuSans-72" d="M 2631 2963 
Q 2534 3019 2420 3045 
Q 2306 3072 2169 3072 
Q 1681 3072 1420 2755 
Q 1159 2438 1159 1844 
L 1159 0 
L 581 0 
L 581 3500 
L 1159 3500 
L 1159 2956 
Q 1341 3275 1631 3429 
Q 1922 3584 2338 3584 
Q 2397 3584 2469 3576 
Q 2541 3569 2628 3553 
L 2631 2963 
z
" transform="scale(0.015625)"/>
     <path id="DejaVuSans-65" d="M 3597 1894 
L 3597 1613 
L 953 1613 
Q 991 1019 1311 708 
Q 1631 397 2203 397 
Q 2534 397 2845 478 
Q 3156 559 3463 722 
L 3463 178 
Q 3153 47 2828 -22 
Q 2503 -91 2169 -91 
Q 1331 -91 842 396 
Q 353 884 353 1716 
Q 353 2575 817 3079 
Q 1281 3584 2069 3584 
Q 2775 3584 3186 3129 
Q 3597 2675 3597 1894 
z
M 3022 2063 
Q 3016 2534 2758 2815 
Q 2500 3097 2075 3097 
Q 1594 3097 1305 2825 
Q 1016 2553 972 2059 
L 3022 2063 
z
" transform="scale(0.015625)"/>
     <path id="DejaVuSans-63" d="M 3122 3366 
L 3122 2828 
Q 2878 2963 2633 3030 
Q 2388 3097 2138 3097 
Q 1578 3097 1268 2742 
Q 959 2388 959 1747 
Q 959 1106 1268 751 
Q 1578 397 2138 397 
Q 2388 397 2633 464 
Q 2878 531 3122 666 
L 3122 134 
Q 2881 22 2623 -34 
Q 2366 -91 2075 -91 
Q 1284 -91 818 406 
Q 353 903 353 1747 
Q 353 2603 823 3093 
Q 1294 3584 2113 3584 
Q 2378 3584 2631 3529 
Q 2884 3475 3122 3366 
z
" transform="scale(0.015625)"/>
     <path id="DejaVuSans-6f" d="M 1959 3097 
Q 1497 3097 1228 2736 
Q 959 2375 959 1747 
Q 959 1119 1226 758 
Q 1494 397 1959 397 
Q 2419 397 2687 759 
Q 2956 1122 2956 1747 
Q 2956 2369 2687 2733 
Q 2419 3097 1959 3097 
z
M 1959 3584 
Q 2709 3584 3137 3096 
Q 3566 2609 3566 1747 
Q 3566 888 3137 398 
Q 2709 -91 1959 -91 
Q 1206 -91 779 398 
Q 353 888 353 1747 
Q 353 2609 779 3096 
Q 1206 3584 1959 3584 
z
" transform="scale(0.015625)"/>
     <path id="DejaVuSans-6e" d="M 3513 2113 
L 3513 0 
L 2938 0 
L 2938 2094 
Q 2938 2591 2744 2837 
Q 2550 3084 2163 3084 
Q 1697 3084 1428 2787 
Q 1159 2491 1159 1978 
L 1159 0 
L 581 0 
L 581 3500 
L 1159 3500 
L 1159 2956 
Q 1366 3272 1645 3428 
Q 1925 3584 2291 3584 
Q 2894 3584 3203 3211 
Q 3513 2838 3513 2113 
z
" transform="scale(0.015625)"/>
     <path id="DejaVuSans-73" d="M 2834 3397 
L 2834 2853 
Q 2591 2978 2328 3040 
Q 2066 3103 1784 3103 
Q 1356 3103 1142 2972 
Q 928 2841 928 2578 
Q 928 2378 1081 2264 
Q 1234 2150 1697 2047 
L 1894 2003 
Q 2506 1872 2764 1633 
Q 3022 1394 3022 966 
Q 3022 478 2636 193 
Q 2250 -91 1575 -91 
Q 1294 -91 989 -36 
Q 684 19 347 128 
L 347 722 
Q 666 556 975 473 
Q 1284 391 1588 391 
Q 1994 391 2212 530 
Q 2431 669 2431 922 
Q 2431 1156 2273 1281 
Q 2116 1406 1581 1522 
L 1381 1569 
Q 847 1681 609 1914 
Q 372 2147 372 2553 
Q 372 3047 722 3315 
Q 1072 3584 1716 3584 
Q 2034 3584 2315 3537 
Q 2597 3491 2834 3397 
z
" transform="scale(0.015625)"/>
     <path id="DejaVuSans-74" d="M 1172 4494 
L 1172 3500 
L 2356 3500 
L 2356 3053 
L 1172 3053 
L 1172 1153 
Q 1172 725 1289 603 
Q 1406 481 1766 481 
L 2356 481 
L 2356 0 
L 1766 0 
Q 1100 0 847 248 
Q 594 497 594 1153 
L 594 3053 
L 172 3053 
L 172 3500 
L 594 3500 
L 594 4494 
L 1172 4494 
z
" transform="scale(0.015625)"/>
     <path id="DejaVuSans-75" d="M 544 1381 
L 544 3500 
L 1119 3500 
L 1119 1403 
Q 1119 906 1312 657 
Q 1506 409 1894 409 
Q 2359 409 2629 706 
Q 2900 1003 2900 1516 
L 2900 3500 
L 3475 3500 
L 3475 0 
L 2900 0 
L 2900 538 
Q 2691 219 2414 64 
Q 2138 -91 1772 -91 
Q 1169 -91 856 284 
Q 544 659 544 1381 
z
M 1991 3584 
L 1991 3584 
z
" transform="scale(0.015625)"/>
     <path id="DejaVuSans-69" d="M 603 3500 
L 1178 3500 
L 1178 0 
L 603 0 
L 603 3500 
z
M 603 4863 
L 1178 4863 
L 1178 4134 
L 603 4134 
L 603 4863 
z
" transform="scale(0.015625)"/>
     <path id="DejaVuSans-20" transform="scale(0.015625)"/>
     <path id="DejaVuSans-64" d="M 2906 2969 
L 2906 4863 
L 3481 4863 
L 3481 0 
L 2906 0 
L 2906 525 
Q 2725 213 2448 61 
Q 2172 -91 1784 -91 
Q 1150 -91 751 415 
Q 353 922 353 1747 
Q 353 2572 751 3078 
Q 1150 3584 1784 3584 
Q 2172 3584 2448 3432 
Q 2725 3281 2906 2969 
z
M 947 1747 
Q 947 1113 1208 752 
Q 1469 391 1925 391 
Q 2381 391 2643 752 
Q 2906 1113 2906 1747 
Q 2906 2381 2643 2742 
Q 2381 3103 1925 3103 
Q 1469 3103 1208 2742 
Q 947 2381 947 1747 
z
" transform="scale(0.015625)"/>
     <path id="DejaVuSans-61" d="M 2194 1759 
Q 1497 1759 1228 1600 
Q 959 1441 959 1056 
Q 959 750 1161 570 
Q 1363 391 1709 391 
Q 2188 391 2477 730 
Q 2766 1069 2766 1631 
L 2766 1759 
L 2194 1759 
z
M 3341 1997 
L 3341 0 
L 2766 0 
L 2766 531 
Q 2569 213 2275 61 
Q 1981 -91 1556 -91 
Q 1019 -91 701 211 
Q 384 513 384 1019 
Q 384 1609 779 1909 
Q 1175 2209 1959 2209 
L 2766 2209 
L 2766 2266 
Q 2766 2663 2505 2880 
Q 2244 3097 1772 3097 
Q 1472 3097 1187 3025 
Q 903 2953 641 2809 
L 641 3341 
Q 956 3463 1253 3523 
Q 1550 3584 1831 3584 
Q 2591 3584 2966 3190 
Q 3341 2797 3341 1997 
z
" transform="scale(0.015625)"/>
    </defs>
    <use xlink:href="#DejaVuSans-72"/>
    <use xlink:href="#DejaVuSans-65" x="38.863281"/>
    <use xlink:href="#DejaVuSans-63" x="100.386719"/>
    <use xlink:href="#DejaVuSans-6f" x="155.367188"/>
    <use xlink:href="#DejaVuSans-6e" x="216.548828"/>
    <use xlink:href="#DejaVuSans-73" x="279.927734"/>
    <use xlink:href="#DejaVuSans-74" x="332.027344"/>
    <use xlink:href="#DejaVuSans-72" x="371.236328"/>
    <use xlink:href="#DejaVuSans-75" x="412.349609"/>
    <use xlink:href="#DejaVuSans-63" x="475.728516"/>
    <use xlink:href="#DejaVuSans-74" x="530.708984"/>
    <use xlink:href="#DejaVuSans-69" x="569.917969"/>
    <use xlink:href="#DejaVuSans-6f" x="597.701172"/>
    <use xlink:href="#DejaVuSans-6e" x="658.882812"/>
    <use xlink:href="#DejaVuSans-20" x="722.261719"/>
    <use xlink:href="#DejaVuSans-64" x="754.048828"/>
    <use xlink:href="#DejaVuSans-61" x="817.525391"/>
    <use xlink:href="#DejaVuSans-74" x="878.804688"/>
    <use xlink:href="#DejaVuSans-61" x="918.013672"/>
   </g>
  </g>
 </g>
 <defs>
  <clipPath id="p71d8e5e414">
   <rect x="150.761739" y="41.472" width="77.634783" height="45.881379"/>
  </clipPath>
  <clipPath id="p667165d325">
   <rect x="243.923478" y="41.472" width="77.634783" height="45.881379"/>
  </clipPath>
  <clipPath id="pf4d308c26d">
   <rect x="337.085217" y="41.472" width="77.634783" height="45.881379"/>
  </clipPath>
  <clipPath id="p02d8bb92cc">
   <rect x="337.085217" y="96.529655" width="77.634783" height="45.881379"/>
  </clipPath>
  <clipPath id="pa77f341ba3">
   <rect x="57.6" y="151.58731" width="77.634783" height="45.881379"/>
  </clipPath>
  <clipPath id="p724be4cce2">
   <rect x="337.085217" y="151.58731" width="77.634783" height="45.881379"/>
  </clipPath>
  <clipPath id="pe10655e1e7">
   <rect x="57.6" y="206.644966" width="77.634783" height="45.881379"/>
  </clipPath>
  <clipPath id="p940a71ebe4">
   <rect x="337.085217" y="261.702621" width="77.634783" height="45.881379"/>
  </clipPath>
 </defs>
</svg>
