<?xml version="1.0" encoding="utf-8" standalone="no"?>
<!DOCTYPE svg PUBLIC "-//W3C//DTD SVG 1.1//EN"
  "http://www.w3.org/Graphics/SVG/1.1/DTD/svg11.dtd">
<svg xmlns:xlink="http://www.w3.org/1999/xlink" width="460.8pt" height="345.6pt" viewBox="0 0 460.8 345.6" xmlns="http://www.w3.org/2000/svg" version="1.1">
 <metadata>
  <rdf:RDF xmlns:dc="http://purl.org/dc/elements/1.1/" xmlns:cc="http://creativecommons.org/ns#" xmlns:rdf="http://www.w3.org/1999/02/22-rdf-syntax-ns#">
   <cc:Work>
    <dc:type rdf:resource="http://purl.org/dc/dcmitype/StillImage"/>
    <dc:date>2024-12-23T13:42:51.062170</dc:date>
    <dc:format>image/svg+xml</dc:format>
    <dc:creator>
     <cc:Agent>
      <dc:title>Matplotlib v3.7.5, https://matplotlib.org/</dc:title>
     </cc:Agent>
    </dc:creator>
   </cc:Work>
  </rdf:RDF>
 </metadata>
 <defs>
  <style type="text/css">*{stroke-linejoin: round; stroke-linecap: butt}</style>
 </defs>
 <g id="figure_1">
  <g id="patch_1">
   <path d="M 0 345.6 
L 460.8 345.6 
L 460.8 0 
L 0 0 
z
" style="fill: #ffffff"/>
  </g>
  <g id="axes_1">
   <g id="LineCollection_1">
    <path d="M 125.824506 81.792 
L 67.010277 47.033379 
" clip-path="url(#p0aa2ffa07a)" style="fill: none; stroke: #000000"/>
   </g>
   <g id="PathCollection_1">
    <defs>
     <path id="m09f721e06b" d="M 0 1.732051 
C 0.459345 1.732051 0.899939 1.549551 1.224745 1.224745 
C 1.549551 0.899939 1.732051 0.459345 1.732051 0 
C 1.732051 -0.459345 1.549551 -0.899939 1.224745 -1.224745 
C 0.899939 -1.549551 0.459345 -1.732051 0 -1.732051 
C -0.459345 -1.732051 -0.899939 -1.549551 -1.224745 -1.224745 
C -1.549551 -0.899939 -1.732051 -0.459345 -1.732051 0 
C -1.732051 0.459345 -1.549551 0.899939 -1.224745 1.224745 
C -0.899939 1.549551 -0.459345 1.732051 0 1.732051 
z
" style="stroke: #1f78b4"/>
    </defs>
    <g clip-path="url(#p0aa2ffa07a)">
     <use xlink:href="#m09f721e06b" x="125.824506" y="81.792" style="fill: #1f78b4; stroke: #1f78b4"/>
     <use xlink:href="#m09f721e06b" x="67.010277" y="47.033379" style="fill: #1f78b4; stroke: #1f78b4"/>
    </g>
   </g>
  </g>
  <g id="axes_2"/>
  <g id="axes_3"/>
  <g id="axes_4">
   <g id="LineCollection_2">
    <path d="M 346.495494 47.033379 
L 405.309723 81.792 
" clip-path="url(#p91c5697053)" style="fill: none; stroke: #000000"/>
   </g>
   <g id="PathCollection_2">
    <g clip-path="url(#p91c5697053)">
     <use xlink:href="#m09f721e06b" x="346.495494" y="47.033379" style="fill: #1f78b4; stroke: #1f78b4"/>
     <use xlink:href="#m09f721e06b" x="405.309723" y="81.792" style="fill: #1f78b4; stroke: #1f78b4"/>
    </g>
   </g>
  </g>
  <g id="axes_5">
   <g id="LineCollection_3">
    <path d="M 125.824506 102.091034 
L 67.010277 136.849655 
" clip-path="url(#pe0350c6669)" style="fill: none; stroke: #000000"/>
   </g>
   <g id="PathCollection_3">
    <g clip-path="url(#pe0350c6669)">
     <use xlink:href="#m09f721e06b" x="125.824506" y="102.091034" style="fill: #1f78b4; stroke: #1f78b4"/>
     <use xlink:href="#m09f721e06b" x="67.010277" y="136.849655" style="fill: #1f78b4; stroke: #1f78b4"/>
    </g>
   </g>
  </g>
  <g id="axes_6">
   <g id="LineCollection_4">
    <path d="M 160.853556 108.31503 
L 197.159177 102.091034 
" clip-path="url(#p52ec737480)" style="fill: none; stroke: #000000"/>
    <path d="M 160.853556 108.31503 
L 196.158141 136.849655 
" clip-path="url(#p52ec737480)" style="fill: none; stroke: #000000"/>
    <path d="M 160.853556 108.31503 
L 218.986245 119.660344 
" clip-path="url(#p52ec737480)" style="fill: none; stroke: #000000"/>
    <path d="M 160.853556 108.31503 
L 160.172016 129.87009 
" clip-path="url(#p52ec737480)" style="fill: none; stroke: #000000"/>
    <path d="M 197.159177 102.091034 
L 196.158141 136.849655 
" clip-path="url(#p52ec737480)" style="fill: none; stroke: #000000"/>
    <path d="M 197.159177 102.091034 
L 218.986245 119.660344 
" clip-path="url(#p52ec737480)" style="fill: none; stroke: #000000"/>
    <path d="M 197.159177 102.091034 
L 160.172016 129.87009 
" clip-path="url(#p52ec737480)" style="fill: none; stroke: #000000"/>
    <path d="M 196.158141 136.849655 
L 218.986245 119.660344 
" clip-path="url(#p52ec737480)" style="fill: none; stroke: #000000"/>
    <path d="M 196.158141 136.849655 
L 160.172016 129.87009 
" clip-path="url(#p52ec737480)" style="fill: none; stroke: #000000"/>
    <path d="M 218.986245 119.660344 
L 160.172016 129.87009 
" clip-path="url(#p52ec737480)" style="fill: none; stroke: #000000"/>
   </g>
   <g id="PathCollection_4">
    <g clip-path="url(#p52ec737480)">
     <use xlink:href="#m09f721e06b" x="160.853556" y="108.31503" style="fill: #1f78b4; stroke: #1f78b4"/>
     <use xlink:href="#m09f721e06b" x="197.159177" y="102.091034" style="fill: #1f78b4; stroke: #1f78b4"/>
     <use xlink:href="#m09f721e06b" x="196.158141" y="136.849655" style="fill: #1f78b4; stroke: #1f78b4"/>
     <use xlink:href="#m09f721e06b" x="218.986245" y="119.660344" style="fill: #1f78b4; stroke: #1f78b4"/>
     <use xlink:href="#m09f721e06b" x="160.172016" y="129.87009" style="fill: #1f78b4; stroke: #1f78b4"/>
    </g>
   </g>
  </g>
  <g id="axes_7">
   <g id="LineCollection_5">
    <path d="M 312.147984 102.091034 
L 253.333755 136.849655 
" clip-path="url(#p779a29818c)" style="fill: none; stroke: #000000"/>
   </g>
   <g id="PathCollection_5">
    <g clip-path="url(#p779a29818c)">
     <use xlink:href="#m09f721e06b" x="312.147984" y="102.091034" style="fill: #1f78b4; stroke: #1f78b4"/>
     <use xlink:href="#m09f721e06b" x="253.333755" y="136.849655" style="fill: #1f78b4; stroke: #1f78b4"/>
    </g>
   </g>
  </g>
  <g id="axes_8">
   <g id="LineCollection_6">
    <path d="M 346.495494 136.849655 
L 405.309723 102.091034 
" clip-path="url(#p6dd48e718a)" style="fill: none; stroke: #000000"/>
   </g>
   <g id="PathCollection_6">
    <g clip-path="url(#p6dd48e718a)">
     <use xlink:href="#m09f721e06b" x="346.495494" y="136.849655" style="fill: #1f78b4; stroke: #1f78b4"/>
     <use xlink:href="#m09f721e06b" x="405.309723" y="102.091034" style="fill: #1f78b4; stroke: #1f78b4"/>
    </g>
   </g>
  </g>
  <g id="axes_9"/>
  <g id="axes_10">
   <g id="LineCollection_7">
    <path d="M 218.986245 157.14869 
L 160.172016 191.90731 
" clip-path="url(#pe45fc9240f)" style="fill: none; stroke: #000000"/>
   </g>
   <g id="PathCollection_7">
    <g clip-path="url(#pe45fc9240f)">
     <use xlink:href="#m09f721e06b" x="218.986245" y="157.14869" style="fill: #1f78b4; stroke: #1f78b4"/>
     <use xlink:href="#m09f721e06b" x="160.172016" y="191.90731" style="fill: #1f78b4; stroke: #1f78b4"/>
    </g>
   </g>
  </g>
  <g id="axes_11"/>
  <g id="axes_12">
   <g id="LineCollection_8">
    <path d="M 346.495494 165.015013 
L 373.465025 163.715458 
" clip-path="url(#pf5683a7311)" style="fill: none; stroke: #000000"/>
    <path d="M 346.495494 165.015013 
L 353.398337 157.986014 
" clip-path="url(#pf5683a7311)" style="fill: none; stroke: #000000"/>
    <path d="M 346.495494 165.015013 
L 361.809971 168.021373 
" clip-path="url(#pf5683a7311)" style="fill: none; stroke: #000000"/>
    <path d="M 346.495494 165.015013 
L 348.654653 173.551027 
" clip-path="url(#pf5683a7311)" style="fill: none; stroke: #000000"/>
    <path d="M 346.495494 165.015013 
L 359.62344 177.301803 
" clip-path="url(#pf5683a7311)" style="fill: none; stroke: #000000"/>
    <path d="M 346.495494 165.015013 
L 375.260322 175.376102 
" clip-path="url(#pf5683a7311)" style="fill: none; stroke: #000000"/>
    <path d="M 346.495494 165.015013 
L 365.258667 157.14869 
" clip-path="url(#pf5683a7311)" style="fill: none; stroke: #000000"/>
    <path d="M 373.465025 163.715458 
L 353.398337 157.986014 
" clip-path="url(#pf5683a7311)" style="fill: none; stroke: #000000"/>
    <path d="M 373.465025 163.715458 
L 361.809971 168.021373 
" clip-path="url(#pf5683a7311)" style="fill: none; stroke: #000000"/>
    <path d="M 373.465025 163.715458 
L 348.654653 173.551027 
" clip-path="url(#pf5683a7311)" style="fill: none; stroke: #000000"/>
    <path d="M 373.465025 163.715458 
L 359.62344 177.301803 
" clip-path="url(#pf5683a7311)" style="fill: none; stroke: #000000"/>
    <path d="M 373.465025 163.715458 
L 375.260322 175.376102 
" clip-path="url(#pf5683a7311)" style="fill: none; stroke: #000000"/>
    <path d="M 373.465025 163.715458 
L 365.258667 157.14869 
" clip-path="url(#pf5683a7311)" style="fill: none; stroke: #000000"/>
    <path d="M 405.309723 191.90731 
L 375.260322 175.376102 
" clip-path="url(#pf5683a7311)" style="fill: none; stroke: #000000"/>
    <path d="M 353.398337 157.986014 
L 361.809971 168.021373 
" clip-path="url(#pf5683a7311)" style="fill: none; stroke: #000000"/>
    <path d="M 353.398337 157.986014 
L 348.654653 173.551027 
" clip-path="url(#pf5683a7311)" style="fill: none; stroke: #000000"/>
    <path d="M 353.398337 157.986014 
L 359.62344 177.301803 
" clip-path="url(#pf5683a7311)" style="fill: none; stroke: #000000"/>
    <path d="M 353.398337 157.986014 
L 375.260322 175.376102 
" clip-path="url(#pf5683a7311)" style="fill: none; stroke: #000000"/>
    <path d="M 353.398337 157.986014 
L 365.258667 157.14869 
" clip-path="url(#pf5683a7311)" style="fill: none; stroke: #000000"/>
    <path d="M 361.809971 168.021373 
L 348.654653 173.551027 
" clip-path="url(#pf5683a7311)" style="fill: none; stroke: #000000"/>
    <path d="M 361.809971 168.021373 
L 359.62344 177.301803 
" clip-path="url(#pf5683a7311)" style="fill: none; stroke: #000000"/>
    <path d="M 361.809971 168.021373 
L 375.260322 175.376102 
" clip-path="url(#pf5683a7311)" style="fill: none; stroke: #000000"/>
    <path d="M 361.809971 168.021373 
L 365.258667 157.14869 
" clip-path="url(#pf5683a7311)" style="fill: none; stroke: #000000"/>
    <path d="M 348.654653 173.551027 
L 359.62344 177.301803 
" clip-path="url(#pf5683a7311)" style="fill: none; stroke: #000000"/>
    <path d="M 348.654653 173.551027 
L 375.260322 175.376102 
" clip-path="url(#pf5683a7311)" style="fill: none; stroke: #000000"/>
    <path d="M 348.654653 173.551027 
L 365.258667 157.14869 
" clip-path="url(#pf5683a7311)" style="fill: none; stroke: #000000"/>
    <path d="M 359.62344 177.301803 
L 375.260322 175.376102 
" clip-path="url(#pf5683a7311)" style="fill: none; stroke: #000000"/>
    <path d="M 359.62344 177.301803 
L 365.258667 157.14869 
" clip-path="url(#pf5683a7311)" style="fill: none; stroke: #000000"/>
    <path d="M 375.260322 175.376102 
L 365.258667 157.14869 
" clip-path="url(#pf5683a7311)" style="fill: none; stroke: #000000"/>
   </g>
   <g id="PathCollection_8">
    <g clip-path="url(#pf5683a7311)">
     <use xlink:href="#m09f721e06b" x="346.495494" y="165.015013" style="fill: #1f78b4; stroke: #1f78b4"/>
     <use xlink:href="#m09f721e06b" x="373.465025" y="163.715458" style="fill: #1f78b4; stroke: #1f78b4"/>
     <use xlink:href="#m09f721e06b" x="405.309723" y="191.90731" style="fill: #1f78b4; stroke: #1f78b4"/>
     <use xlink:href="#m09f721e06b" x="353.398337" y="157.986014" style="fill: #1f78b4; stroke: #1f78b4"/>
     <use xlink:href="#m09f721e06b" x="361.809971" y="168.021373" style="fill: #1f78b4; stroke: #1f78b4"/>
     <use xlink:href="#m09f721e06b" x="348.654653" y="173.551027" style="fill: #1f78b4; stroke: #1f78b4"/>
     <use xlink:href="#m09f721e06b" x="359.62344" y="177.301803" style="fill: #1f78b4; stroke: #1f78b4"/>
     <use xlink:href="#m09f721e06b" x="375.260322" y="175.376102" style="fill: #1f78b4; stroke: #1f78b4"/>
     <use xlink:href="#m09f721e06b" x="365.258667" y="157.14869" style="fill: #1f78b4; stroke: #1f78b4"/>
    </g>
   </g>
  </g>
  <g id="axes_13"/>
  <g id="axes_14">
   <g id="LineCollection_9">
    <path d="M 218.986245 237.069063 
L 160.172016 222.404301 
" clip-path="url(#pb5ede18dff)" style="fill: none; stroke: #000000"/>
    <path d="M 218.986245 237.069063 
L 216.27136 219.972881 
" clip-path="url(#pb5ede18dff)" style="fill: none; stroke: #000000"/>
    <path d="M 218.986245 237.069063 
L 186.791473 212.206345 
" clip-path="url(#pb5ede18dff)" style="fill: none; stroke: #000000"/>
    <path d="M 218.986245 237.069063 
L 192.250418 246.964966 
" clip-path="url(#pb5ede18dff)" style="fill: none; stroke: #000000"/>
    <path d="M 218.986245 237.069063 
L 162.768083 239.502173 
" clip-path="url(#pb5ede18dff)" style="fill: none; stroke: #000000"/>
    <path d="M 160.172016 222.404301 
L 216.27136 219.972881 
" clip-path="url(#pb5ede18dff)" style="fill: none; stroke: #000000"/>
    <path d="M 160.172016 222.404301 
L 186.791473 212.206345 
" clip-path="url(#pb5ede18dff)" style="fill: none; stroke: #000000"/>
    <path d="M 160.172016 222.404301 
L 192.250418 246.964966 
" clip-path="url(#pb5ede18dff)" style="fill: none; stroke: #000000"/>
    <path d="M 160.172016 222.404301 
L 162.768083 239.502173 
" clip-path="url(#pb5ede18dff)" style="fill: none; stroke: #000000"/>
    <path d="M 216.27136 219.972881 
L 186.791473 212.206345 
" clip-path="url(#pb5ede18dff)" style="fill: none; stroke: #000000"/>
    <path d="M 216.27136 219.972881 
L 192.250418 246.964966 
" clip-path="url(#pb5ede18dff)" style="fill: none; stroke: #000000"/>
    <path d="M 216.27136 219.972881 
L 162.768083 239.502173 
" clip-path="url(#pb5ede18dff)" style="fill: none; stroke: #000000"/>
    <path d="M 186.791473 212.206345 
L 192.250418 246.964966 
" clip-path="url(#pb5ede18dff)" style="fill: none; stroke: #000000"/>
    <path d="M 186.791473 212.206345 
L 162.768083 239.502173 
" clip-path="url(#pb5ede18dff)" style="fill: none; stroke: #000000"/>
    <path d="M 192.250418 246.964966 
L 162.768083 239.502173 
" clip-path="url(#pb5ede18dff)" style="fill: none; stroke: #000000"/>
   </g>
   <g id="PathCollection_9">
    <g clip-path="url(#pb5ede18dff)">
     <use xlink:href="#m09f721e06b" x="218.986245" y="237.069063" style="fill: #1f78b4; stroke: #1f78b4"/>
     <use xlink:href="#m09f721e06b" x="160.172016" y="222.404301" style="fill: #1f78b4; stroke: #1f78b4"/>
     <use xlink:href="#m09f721e06b" x="216.27136" y="219.972881" style="fill: #1f78b4; stroke: #1f78b4"/>
     <use xlink:href="#m09f721e06b" x="186.791473" y="212.206345" style="fill: #1f78b4; stroke: #1f78b4"/>
     <use xlink:href="#m09f721e06b" x="192.250418" y="246.964966" style="fill: #1f78b4; stroke: #1f78b4"/>
     <use xlink:href="#m09f721e06b" x="162.768083" y="239.502173" style="fill: #1f78b4; stroke: #1f78b4"/>
    </g>
   </g>
  </g>
  <g id="axes_15">
   <g id="LineCollection_10">
    <path d="M 275.335688 234.063645 
L 312.147984 223.824351 
" clip-path="url(#pcc47b126a3)" style="fill: none; stroke: #000000"/>
    <path d="M 275.335688 234.063645 
L 270.365508 246.964966 
" clip-path="url(#pcc47b126a3)" style="fill: none; stroke: #000000"/>
    <path d="M 275.335688 234.063645 
L 293.247273 245.863161 
" clip-path="url(#pcc47b126a3)" style="fill: none; stroke: #000000"/>
    <path d="M 275.335688 234.063645 
L 269.99181 213.95271 
" clip-path="url(#pcc47b126a3)" style="fill: none; stroke: #000000"/>
    <path d="M 275.335688 234.063645 
L 255.337278 222.826169 
" clip-path="url(#pcc47b126a3)" style="fill: none; stroke: #000000"/>
    <path d="M 275.335688 234.063645 
L 308.385616 237.361223 
" clip-path="url(#pcc47b126a3)" style="fill: none; stroke: #000000"/>
    <path d="M 275.335688 234.063645 
L 253.333755 236.094475 
" clip-path="url(#pcc47b126a3)" style="fill: none; stroke: #000000"/>
    <path d="M 275.335688 234.063645 
L 292.845855 212.206345 
" clip-path="url(#pcc47b126a3)" style="fill: none; stroke: #000000"/>
    <path d="M 275.335688 234.063645 
L 290.689454 224.911868 
" clip-path="url(#pcc47b126a3)" style="fill: none; stroke: #000000"/>
    <path d="M 312.147984 223.824351 
L 270.365508 246.964966 
" clip-path="url(#pcc47b126a3)" style="fill: none; stroke: #000000"/>
    <path d="M 312.147984 223.824351 
L 293.247273 245.863161 
" clip-path="url(#pcc47b126a3)" style="fill: none; stroke: #000000"/>
    <path d="M 312.147984 223.824351 
L 269.99181 213.95271 
" clip-path="url(#pcc47b126a3)" style="fill: none; stroke: #000000"/>
    <path d="M 312.147984 223.824351 
L 255.337278 222.826169 
" clip-path="url(#pcc47b126a3)" style="fill: none; stroke: #000000"/>
    <path d="M 312.147984 223.824351 
L 308.385616 237.361223 
" clip-path="url(#pcc47b126a3)" style="fill: none; stroke: #000000"/>
    <path d="M 312.147984 223.824351 
L 253.333755 236.094475 
" clip-path="url(#pcc47b126a3)" style="fill: none; stroke: #000000"/>
    <path d="M 312.147984 223.824351 
L 292.845855 212.206345 
" clip-path="url(#pcc47b126a3)" style="fill: none; stroke: #000000"/>
    <path d="M 312.147984 223.824351 
L 290.689454 224.911868 
" clip-path="url(#pcc47b126a3)" style="fill: none; stroke: #000000"/>
    <path d="M 270.365508 246.964966 
L 293.247273 245.863161 
" clip-path="url(#pcc47b126a3)" style="fill: none; stroke: #000000"/>
    <path d="M 270.365508 246.964966 
L 269.99181 213.95271 
" clip-path="url(#pcc47b126a3)" style="fill: none; stroke: #000000"/>
    <path d="M 270.365508 246.964966 
L 255.337278 222.826169 
" clip-path="url(#pcc47b126a3)" style="fill: none; stroke: #000000"/>
    <path d="M 270.365508 246.964966 
L 308.385616 237.361223 
" clip-path="url(#pcc47b126a3)" style="fill: none; stroke: #000000"/>
    <path d="M 270.365508 246.964966 
L 253.333755 236.094475 
" clip-path="url(#pcc47b126a3)" style="fill: none; stroke: #000000"/>
    <path d="M 270.365508 246.964966 
L 292.845855 212.206345 
" clip-path="url(#pcc47b126a3)" style="fill: none; stroke: #000000"/>
    <path d="M 270.365508 246.964966 
L 290.689454 224.911868 
" clip-path="url(#pcc47b126a3)" style="fill: none; stroke: #000000"/>
    <path d="M 293.247273 245.863161 
L 269.99181 213.95271 
" clip-path="url(#pcc47b126a3)" style="fill: none; stroke: #000000"/>
    <path d="M 293.247273 245.863161 
L 255.337278 222.826169 
" clip-path="url(#pcc47b126a3)" style="fill: none; stroke: #000000"/>
    <path d="M 293.247273 245.863161 
L 308.385616 237.361223 
" clip-path="url(#pcc47b126a3)" style="fill: none; stroke: #000000"/>
    <path d="M 293.247273 245.863161 
L 253.333755 236.094475 
" clip-path="url(#pcc47b126a3)" style="fill: none; stroke: #000000"/>
    <path d="M 293.247273 245.863161 
L 292.845855 212.206345 
" clip-path="url(#pcc47b126a3)" style="fill: none; stroke: #000000"/>
    <path d="M 293.247273 245.863161 
L 290.689454 224.911868 
" clip-path="url(#pcc47b126a3)" style="fill: none; stroke: #000000"/>
    <path d="M 269.99181 213.95271 
L 255.337278 222.826169 
" clip-path="url(#pcc47b126a3)" style="fill: none; stroke: #000000"/>
    <path d="M 269.99181 213.95271 
L 308.385616 237.361223 
" clip-path="url(#pcc47b126a3)" style="fill: none; stroke: #000000"/>
    <path d="M 269.99181 213.95271 
L 253.333755 236.094475 
" clip-path="url(#pcc47b126a3)" style="fill: none; stroke: #000000"/>
    <path d="M 269.99181 213.95271 
L 292.845855 212.206345 
" clip-path="url(#pcc47b126a3)" style="fill: none; stroke: #000000"/>
    <path d="M 269.99181 213.95271 
L 290.689454 224.911868 
" clip-path="url(#pcc47b126a3)" style="fill: none; stroke: #000000"/>
    <path d="M 255.337278 222.826169 
L 308.385616 237.361223 
" clip-path="url(#pcc47b126a3)" style="fill: none; stroke: #000000"/>
    <path d="M 255.337278 222.826169 
L 253.333755 236.094475 
" clip-path="url(#pcc47b126a3)" style="fill: none; stroke: #000000"/>
    <path d="M 255.337278 222.826169 
L 292.845855 212.206345 
" clip-path="url(#pcc47b126a3)" style="fill: none; stroke: #000000"/>
    <path d="M 255.337278 222.826169 
L 290.689454 224.911868 
" clip-path="url(#pcc47b126a3)" style="fill: none; stroke: #000000"/>
    <path d="M 308.385616 237.361223 
L 253.333755 236.094475 
" clip-path="url(#pcc47b126a3)" style="fill: none; stroke: #000000"/>
    <path d="M 308.385616 237.361223 
L 292.845855 212.206345 
" clip-path="url(#pcc47b126a3)" style="fill: none; stroke: #000000"/>
    <path d="M 308.385616 237.361223 
L 290.689454 224.911868 
" clip-path="url(#pcc47b126a3)" style="fill: none; stroke: #000000"/>
    <path d="M 253.333755 236.094475 
L 292.845855 212.206345 
" clip-path="url(#pcc47b126a3)" style="fill: none; stroke: #000000"/>
    <path d="M 253.333755 236.094475 
L 290.689454 224.911868 
" clip-path="url(#pcc47b126a3)" style="fill: none; stroke: #000000"/>
    <path d="M 292.845855 212.206345 
L 290.689454 224.911868 
" clip-path="url(#pcc47b126a3)" style="fill: none; stroke: #000000"/>
   </g>
   <g id="PathCollection_10">
    <g clip-path="url(#pcc47b126a3)">
     <use xlink:href="#m09f721e06b" x="275.335688" y="234.063645" style="fill: #1f78b4; stroke: #1f78b4"/>
     <use xlink:href="#m09f721e06b" x="312.147984" y="223.824351" style="fill: #1f78b4; stroke: #1f78b4"/>
     <use xlink:href="#m09f721e06b" x="270.365508" y="246.964966" style="fill: #1f78b4; stroke: #1f78b4"/>
     <use xlink:href="#m09f721e06b" x="293.247273" y="245.863161" style="fill: #1f78b4; stroke: #1f78b4"/>
     <use xlink:href="#m09f721e06b" x="269.99181" y="213.95271" style="fill: #1f78b4; stroke: #1f78b4"/>
     <use xlink:href="#m09f721e06b" x="255.337278" y="222.826169" style="fill: #1f78b4; stroke: #1f78b4"/>
     <use xlink:href="#m09f721e06b" x="308.385616" y="237.361223" style="fill: #1f78b4; stroke: #1f78b4"/>
     <use xlink:href="#m09f721e06b" x="253.333755" y="236.094475" style="fill: #1f78b4; stroke: #1f78b4"/>
     <use xlink:href="#m09f721e06b" x="292.845855" y="212.206345" style="fill: #1f78b4; stroke: #1f78b4"/>
     <use xlink:href="#m09f721e06b" x="290.689454" y="224.911868" style="fill: #1f78b4; stroke: #1f78b4"/>
    </g>
   </g>
  </g>
  <g id="axes_16">
   <g id="LineCollection_11">
    <path d="M 405.309723 231.181969 
L 375.680872 225.766521 
" clip-path="url(#p23144a575e)" style="fill: none; stroke: #000000"/>
    <path d="M 405.309723 231.181969 
L 346.495494 231.497683 
" clip-path="url(#p23144a575e)" style="fill: none; stroke: #000000"/>
    <path d="M 405.309723 231.181969 
L 358.614069 212.206345 
" clip-path="url(#p23144a575e)" style="fill: none; stroke: #000000"/>
    <path d="M 405.309723 231.181969 
L 362.535922 246.953693 
" clip-path="url(#p23144a575e)" style="fill: none; stroke: #000000"/>
    <path d="M 405.309723 231.181969 
L 390.062636 246.964966 
" clip-path="url(#p23144a575e)" style="fill: none; stroke: #000000"/>
    <path d="M 405.309723 231.181969 
L 393.248229 212.28266 
" clip-path="url(#p23144a575e)" style="fill: none; stroke: #000000"/>
    <path d="M 375.680872 225.766521 
L 346.495494 231.497683 
" clip-path="url(#p23144a575e)" style="fill: none; stroke: #000000"/>
    <path d="M 375.680872 225.766521 
L 358.614069 212.206345 
" clip-path="url(#p23144a575e)" style="fill: none; stroke: #000000"/>
    <path d="M 375.680872 225.766521 
L 362.535922 246.953693 
" clip-path="url(#p23144a575e)" style="fill: none; stroke: #000000"/>
    <path d="M 375.680872 225.766521 
L 390.062636 246.964966 
" clip-path="url(#p23144a575e)" style="fill: none; stroke: #000000"/>
    <path d="M 375.680872 225.766521 
L 393.248229 212.28266 
" clip-path="url(#p23144a575e)" style="fill: none; stroke: #000000"/>
    <path d="M 346.495494 231.497683 
L 358.614069 212.206345 
" clip-path="url(#p23144a575e)" style="fill: none; stroke: #000000"/>
    <path d="M 346.495494 231.497683 
L 362.535922 246.953693 
" clip-path="url(#p23144a575e)" style="fill: none; stroke: #000000"/>
    <path d="M 346.495494 231.497683 
L 390.062636 246.964966 
" clip-path="url(#p23144a575e)" style="fill: none; stroke: #000000"/>
    <path d="M 346.495494 231.497683 
L 393.248229 212.28266 
" clip-path="url(#p23144a575e)" style="fill: none; stroke: #000000"/>
    <path d="M 358.614069 212.206345 
L 362.535922 246.953693 
" clip-path="url(#p23144a575e)" style="fill: none; stroke: #000000"/>
    <path d="M 358.614069 212.206345 
L 390.062636 246.964966 
" clip-path="url(#p23144a575e)" style="fill: none; stroke: #000000"/>
    <path d="M 358.614069 212.206345 
L 393.248229 212.28266 
" clip-path="url(#p23144a575e)" style="fill: none; stroke: #000000"/>
    <path d="M 362.535922 246.953693 
L 390.062636 246.964966 
" clip-path="url(#p23144a575e)" style="fill: none; stroke: #000000"/>
    <path d="M 362.535922 246.953693 
L 393.248229 212.28266 
" clip-path="url(#p23144a575e)" style="fill: none; stroke: #000000"/>
    <path d="M 390.062636 246.964966 
L 393.248229 212.28266 
" clip-path="url(#p23144a575e)" style="fill: none; stroke: #000000"/>
   </g>
   <g id="PathCollection_11">
    <g clip-path="url(#p23144a575e)">
     <use xlink:href="#m09f721e06b" x="405.309723" y="231.181969" style="fill: #1f78b4; stroke: #1f78b4"/>
     <use xlink:href="#m09f721e06b" x="375.680872" y="225.766521" style="fill: #1f78b4; stroke: #1f78b4"/>
     <use xlink:href="#m09f721e06b" x="346.495494" y="231.497683" style="fill: #1f78b4; stroke: #1f78b4"/>
     <use xlink:href="#m09f721e06b" x="358.614069" y="212.206345" style="fill: #1f78b4; stroke: #1f78b4"/>
     <use xlink:href="#m09f721e06b" x="362.535922" y="246.953693" style="fill: #1f78b4; stroke: #1f78b4"/>
     <use xlink:href="#m09f721e06b" x="390.062636" y="246.964966" style="fill: #1f78b4; stroke: #1f78b4"/>
     <use xlink:href="#m09f721e06b" x="393.248229" y="212.28266" style="fill: #1f78b4; stroke: #1f78b4"/>
    </g>
   </g>
  </g>
  <g id="axes_17">
   <g id="LineCollection_12">
    <path d="M 67.010277 302.022621 
L 125.824506 267.264 
" clip-path="url(#p0402e8e745)" style="fill: none; stroke: #000000"/>
   </g>
   <g id="PathCollection_12">
    <g clip-path="url(#p0402e8e745)">
     <use xlink:href="#m09f721e06b" x="67.010277" y="302.022621" style="fill: #1f78b4; stroke: #1f78b4"/>
     <use xlink:href="#m09f721e06b" x="125.824506" y="267.264" style="fill: #1f78b4; stroke: #1f78b4"/>
    </g>
   </g>
  </g>
  <g id="axes_18">
   <g id="LineCollection_13">
    <path d="M 188.097243 284.453829 
L 208.159558 297.58556 
" clip-path="url(#pa0a9347f1b)" style="fill: none; stroke: #000000"/>
    <path d="M 188.097243 284.453829 
L 205.922827 269.953507 
" clip-path="url(#pa0a9347f1b)" style="fill: none; stroke: #000000"/>
    <path d="M 188.097243 284.453829 
L 161.21684 292.928446 
" clip-path="url(#pa0a9347f1b)" style="fill: none; stroke: #000000"/>
    <path d="M 188.097243 284.453829 
L 182.883997 302.022621 
" clip-path="url(#pa0a9347f1b)" style="fill: none; stroke: #000000"/>
    <path d="M 188.097243 284.453829 
L 160.172016 277.365268 
" clip-path="url(#pa0a9347f1b)" style="fill: none; stroke: #000000"/>
    <path d="M 188.097243 284.453829 
L 180.068772 267.264 
" clip-path="url(#pa0a9347f1b)" style="fill: none; stroke: #000000"/>
    <path d="M 188.097243 284.453829 
L 218.986245 283.478366 
" clip-path="url(#pa0a9347f1b)" style="fill: none; stroke: #000000"/>
    <path d="M 208.159558 297.58556 
L 205.922827 269.953507 
" clip-path="url(#pa0a9347f1b)" style="fill: none; stroke: #000000"/>
    <path d="M 208.159558 297.58556 
L 161.21684 292.928446 
" clip-path="url(#pa0a9347f1b)" style="fill: none; stroke: #000000"/>
    <path d="M 208.159558 297.58556 
L 182.883997 302.022621 
" clip-path="url(#pa0a9347f1b)" style="fill: none; stroke: #000000"/>
    <path d="M 208.159558 297.58556 
L 160.172016 277.365268 
" clip-path="url(#pa0a9347f1b)" style="fill: none; stroke: #000000"/>
    <path d="M 208.159558 297.58556 
L 180.068772 267.264 
" clip-path="url(#pa0a9347f1b)" style="fill: none; stroke: #000000"/>
    <path d="M 208.159558 297.58556 
L 218.986245 283.478366 
" clip-path="url(#pa0a9347f1b)" style="fill: none; stroke: #000000"/>
    <path d="M 205.922827 269.953507 
L 161.21684 292.928446 
" clip-path="url(#pa0a9347f1b)" style="fill: none; stroke: #000000"/>
    <path d="M 205.922827 269.953507 
L 182.883997 302.022621 
" clip-path="url(#pa0a9347f1b)" style="fill: none; stroke: #000000"/>
    <path d="M 205.922827 269.953507 
L 160.172016 277.365268 
" clip-path="url(#pa0a9347f1b)" style="fill: none; stroke: #000000"/>
    <path d="M 205.922827 269.953507 
L 180.068772 267.264 
" clip-path="url(#pa0a9347f1b)" style="fill: none; stroke: #000000"/>
    <path d="M 205.922827 269.953507 
L 218.986245 283.478366 
" clip-path="url(#pa0a9347f1b)" style="fill: none; stroke: #000000"/>
    <path d="M 161.21684 292.928446 
L 182.883997 302.022621 
" clip-path="url(#pa0a9347f1b)" style="fill: none; stroke: #000000"/>
    <path d="M 161.21684 292.928446 
L 160.172016 277.365268 
" clip-path="url(#pa0a9347f1b)" style="fill: none; stroke: #000000"/>
    <path d="M 161.21684 292.928446 
L 180.068772 267.264 
" clip-path="url(#pa0a9347f1b)" style="fill: none; stroke: #000000"/>
    <path d="M 161.21684 292.928446 
L 218.986245 283.478366 
" clip-path="url(#pa0a9347f1b)" style="fill: none; stroke: #000000"/>
    <path d="M 182.883997 302.022621 
L 160.172016 277.365268 
" clip-path="url(#pa0a9347f1b)" style="fill: none; stroke: #000000"/>
    <path d="M 182.883997 302.022621 
L 180.068772 267.264 
" clip-path="url(#pa0a9347f1b)" style="fill: none; stroke: #000000"/>
    <path d="M 182.883997 302.022621 
L 218.986245 283.478366 
" clip-path="url(#pa0a9347f1b)" style="fill: none; stroke: #000000"/>
    <path d="M 160.172016 277.365268 
L 180.068772 267.264 
" clip-path="url(#pa0a9347f1b)" style="fill: none; stroke: #000000"/>
    <path d="M 160.172016 277.365268 
L 218.986245 283.478366 
" clip-path="url(#pa0a9347f1b)" style="fill: none; stroke: #000000"/>
    <path d="M 180.068772 267.264 
L 218.986245 283.478366 
" clip-path="url(#pa0a9347f1b)" style="fill: none; stroke: #000000"/>
   </g>
   <g id="PathCollection_13">
    <g clip-path="url(#pa0a9347f1b)">
     <use xlink:href="#m09f721e06b" x="188.097243" y="284.453829" style="fill: #1f78b4; stroke: #1f78b4"/>
     <use xlink:href="#m09f721e06b" x="208.159558" y="297.58556" style="fill: #1f78b4; stroke: #1f78b4"/>
     <use xlink:href="#m09f721e06b" x="205.922827" y="269.953507" style="fill: #1f78b4; stroke: #1f78b4"/>
     <use xlink:href="#m09f721e06b" x="161.21684" y="292.928446" style="fill: #1f78b4; stroke: #1f78b4"/>
     <use xlink:href="#m09f721e06b" x="182.883997" y="302.022621" style="fill: #1f78b4; stroke: #1f78b4"/>
     <use xlink:href="#m09f721e06b" x="160.172016" y="277.365268" style="fill: #1f78b4; stroke: #1f78b4"/>
     <use xlink:href="#m09f721e06b" x="180.068772" y="267.264" style="fill: #1f78b4; stroke: #1f78b4"/>
     <use xlink:href="#m09f721e06b" x="218.986245" y="283.478366" style="fill: #1f78b4; stroke: #1f78b4"/>
    </g>
   </g>
  </g>
  <g id="axes_19"/>
  <g id="axes_20">
   <g id="LineCollection_14">
    <path d="M 361.500738 300.839951 
L 353.620159 272.990635 
" clip-path="url(#p732baf5563)" style="fill: none; stroke: #000000"/>
    <path d="M 361.500738 300.839951 
L 376.926416 285.026447 
" clip-path="url(#p732baf5563)" style="fill: none; stroke: #000000"/>
    <path d="M 361.500738 300.839951 
L 405.309723 290.277808 
" clip-path="url(#p732baf5563)" style="fill: none; stroke: #000000"/>
    <path d="M 361.500738 300.839951 
L 387.708235 302.022621 
" clip-path="url(#p732baf5563)" style="fill: none; stroke: #000000"/>
    <path d="M 361.500738 300.839951 
L 346.495494 288.123327 
" clip-path="url(#p732baf5563)" style="fill: none; stroke: #000000"/>
    <path d="M 361.500738 300.839951 
L 401.498104 274.548746 
" clip-path="url(#p732baf5563)" style="fill: none; stroke: #000000"/>
    <path d="M 361.500738 300.839951 
L 377.947337 267.264 
" clip-path="url(#p732baf5563)" style="fill: none; stroke: #000000"/>
    <path d="M 353.620159 272.990635 
L 376.926416 285.026447 
" clip-path="url(#p732baf5563)" style="fill: none; stroke: #000000"/>
    <path d="M 353.620159 272.990635 
L 405.309723 290.277808 
" clip-path="url(#p732baf5563)" style="fill: none; stroke: #000000"/>
    <path d="M 353.620159 272.990635 
L 387.708235 302.022621 
" clip-path="url(#p732baf5563)" style="fill: none; stroke: #000000"/>
    <path d="M 353.620159 272.990635 
L 346.495494 288.123327 
" clip-path="url(#p732baf5563)" style="fill: none; stroke: #000000"/>
    <path d="M 353.620159 272.990635 
L 401.498104 274.548746 
" clip-path="url(#p732baf5563)" style="fill: none; stroke: #000000"/>
    <path d="M 353.620159 272.990635 
L 377.947337 267.264 
" clip-path="url(#p732baf5563)" style="fill: none; stroke: #000000"/>
    <path d="M 376.926416 285.026447 
L 405.309723 290.277808 
" clip-path="url(#p732baf5563)" style="fill: none; stroke: #000000"/>
    <path d="M 376.926416 285.026447 
L 387.708235 302.022621 
" clip-path="url(#p732baf5563)" style="fill: none; stroke: #000000"/>
    <path d="M 376.926416 285.026447 
L 346.495494 288.123327 
" clip-path="url(#p732baf5563)" style="fill: none; stroke: #000000"/>
    <path d="M 376.926416 285.026447 
L 401.498104 274.548746 
" clip-path="url(#p732baf5563)" style="fill: none; stroke: #000000"/>
    <path d="M 376.926416 285.026447 
L 377.947337 267.264 
" clip-path="url(#p732baf5563)" style="fill: none; stroke: #000000"/>
    <path d="M 405.309723 290.277808 
L 387.708235 302.022621 
" clip-path="url(#p732baf5563)" style="fill: none; stroke: #000000"/>
    <path d="M 405.309723 290.277808 
L 346.495494 288.123327 
" clip-path="url(#p732baf5563)" style="fill: none; stroke: #000000"/>
    <path d="M 405.309723 290.277808 
L 401.498104 274.548746 
" clip-path="url(#p732baf5563)" style="fill: none; stroke: #000000"/>
    <path d="M 405.309723 290.277808 
L 377.947337 267.264 
" clip-path="url(#p732baf5563)" style="fill: none; stroke: #000000"/>
    <path d="M 387.708235 302.022621 
L 346.495494 288.123327 
" clip-path="url(#p732baf5563)" style="fill: none; stroke: #000000"/>
    <path d="M 387.708235 302.022621 
L 401.498104 274.548746 
" clip-path="url(#p732baf5563)" style="fill: none; stroke: #000000"/>
    <path d="M 387.708235 302.022621 
L 377.947337 267.264 
" clip-path="url(#p732baf5563)" style="fill: none; stroke: #000000"/>
    <path d="M 346.495494 288.123327 
L 401.498104 274.548746 
" clip-path="url(#p732baf5563)" style="fill: none; stroke: #000000"/>
    <path d="M 346.495494 288.123327 
L 377.947337 267.264 
" clip-path="url(#p732baf5563)" style="fill: none; stroke: #000000"/>
    <path d="M 401.498104 274.548746 
L 377.947337 267.264 
" clip-path="url(#p732baf5563)" style="fill: none; stroke: #000000"/>
   </g>
   <g id="PathCollection_14">
    <g clip-path="url(#p732baf5563)">
     <use xlink:href="#m09f721e06b" x="361.500738" y="300.839951" style="fill: #1f78b4; stroke: #1f78b4"/>
     <use xlink:href="#m09f721e06b" x="353.620159" y="272.990635" style="fill: #1f78b4; stroke: #1f78b4"/>
     <use xlink:href="#m09f721e06b" x="376.926416" y="285.026447" style="fill: #1f78b4; stroke: #1f78b4"/>
     <use xlink:href="#m09f721e06b" x="405.309723" y="290.277808" style="fill: #1f78b4; stroke: #1f78b4"/>
     <use xlink:href="#m09f721e06b" x="387.708235" y="302.022621" style="fill: #1f78b4; stroke: #1f78b4"/>
     <use xlink:href="#m09f721e06b" x="346.495494" y="288.123327" style="fill: #1f78b4; stroke: #1f78b4"/>
     <use xlink:href="#m09f721e06b" x="401.498104" y="274.548746" style="fill: #1f78b4; stroke: #1f78b4"/>
     <use xlink:href="#m09f721e06b" x="377.947337" y="267.264" style="fill: #1f78b4; stroke: #1f78b4"/>
    </g>
   </g>
  </g>
  <g id="text_1">
   <!-- reconstruction data -->
   <g transform="translate(171.643125 16.030125) scale(0.12 -0.12)">
    <defs>
     <path id="DejaVuSans-72" d="M 2631 2963 
Q 2534 3019 2420 3045 
Q 2306 3072 2169 3072 
Q 1681 3072 1420 2755 
Q 1159 2438 1159 1844 
L 1159 0 
L 581 0 
L 581 3500 
L 1159 3500 
L 1159 2956 
Q 1341 3275 1631 3429 
Q 1922 3584 2338 3584 
Q 2397 3584 2469 3576 
Q 2541 3569 2628 3553 
L 2631 2963 
z
" transform="scale(0.015625)"/>
     <path id="DejaVuSans-65" d="M 3597 1894 
L 3597 1613 
L 953 1613 
Q 991 1019 1311 708 
Q 1631 397 2203 397 
Q 2534 397 2845 478 
Q 3156 559 3463 722 
L 3463 178 
Q 3153 47 2828 -22 
Q 2503 -91 2169 -91 
Q 1331 -91 842 396 
Q 353 884 353 1716 
Q 353 2575 817 3079 
Q 1281 3584 2069 3584 
Q 2775 3584 3186 3129 
Q 3597 2675 3597 1894 
z
M 3022 2063 
Q 3016 2534 2758 2815 
Q 2500 3097 2075 3097 
Q 1594 3097 1305 2825 
Q 1016 2553 972 2059 
L 3022 2063 
z
" transform="scale(0.015625)"/>
     <path id="DejaVuSans-63" d="M 3122 3366 
L 3122 2828 
Q 2878 2963 2633 3030 
Q 2388 3097 2138 3097 
Q 1578 3097 1268 2742 
Q 959 2388 959 1747 
Q 959 1106 1268 751 
Q 1578 397 2138 397 
Q 2388 397 2633 464 
Q 2878 531 3122 666 
L 3122 134 
Q 2881 22 2623 -34 
Q 2366 -91 2075 -91 
Q 1284 -91 818 406 
Q 353 903 353 1747 
Q 353 2603 823 3093 
Q 1294 3584 2113 3584 
Q 2378 3584 2631 3529 
Q 2884 3475 3122 3366 
z
" transform="scale(0.015625)"/>
     <path id="DejaVuSans-6f" d="M 1959 3097 
Q 1497 3097 1228 2736 
Q 959 2375 959 1747 
Q 959 1119 1226 758 
Q 1494 397 1959 397 
Q 2419 397 2687 759 
Q 2956 1122 2956 1747 
Q 2956 2369 2687 2733 
Q 2419 3097 1959 3097 
z
M 1959 3584 
Q 2709 3584 3137 3096 
Q 3566 2609 3566 1747 
Q 3566 888 3137 398 
Q 2709 -91 1959 -91 
Q 1206 -91 779 398 
Q 353 888 353 1747 
Q 353 2609 779 3096 
Q 1206 3584 1959 3584 
z
" transform="scale(0.015625)"/>
     <path id="DejaVuSans-6e" d="M 3513 2113 
L 3513 0 
L 2938 0 
L 2938 2094 
Q 2938 2591 2744 2837 
Q 2550 3084 2163 3084 
Q 1697 3084 1428 2787 
Q 1159 2491 1159 1978 
L 1159 0 
L 581 0 
L 581 3500 
L 1159 3500 
L 1159 2956 
Q 1366 3272 1645 3428 
Q 1925 3584 2291 3584 
Q 2894 3584 3203 3211 
Q 3513 2838 3513 2113 
z
" transform="scale(0.015625)"/>
     <path id="DejaVuSans-73" d="M 2834 3397 
L 2834 2853 
Q 2591 2978 2328 3040 
Q 2066 3103 1784 3103 
Q 1356 3103 1142 2972 
Q 928 2841 928 2578 
Q 928 2378 1081 2264 
Q 1234 2150 1697 2047 
L 1894 2003 
Q 2506 1872 2764 1633 
Q 3022 1394 3022 966 
Q 3022 478 2636 193 
Q 2250 -91 1575 -91 
Q 1294 -91 989 -36 
Q 684 19 347 128 
L 347 722 
Q 666 556 975 473 
Q 1284 391 1588 391 
Q 1994 391 2212 530 
Q 2431 669 2431 922 
Q 2431 1156 2273 1281 
Q 2116 1406 1581 1522 
L 1381 1569 
Q 847 1681 609 1914 
Q 372 2147 372 2553 
Q 372 3047 722 3315 
Q 1072 3584 1716 3584 
Q 2034 3584 2315 3537 
Q 2597 3491 2834 3397 
z
" transform="scale(0.015625)"/>
     <path id="DejaVuSans-74" d="M 1172 4494 
L 1172 3500 
L 2356 3500 
L 2356 3053 
L 1172 3053 
L 1172 1153 
Q 1172 725 1289 603 
Q 1406 481 1766 481 
L 2356 481 
L 2356 0 
L 1766 0 
Q 1100 0 847 248 
Q 594 497 594 1153 
L 594 3053 
L 172 3053 
L 172 3500 
L 594 3500 
L 594 4494 
L 1172 4494 
z
" transform="scale(0.015625)"/>
     <path id="DejaVuSans-75" d="M 544 1381 
L 544 3500 
L 1119 3500 
L 1119 1403 
Q 1119 906 1312 657 
Q 1506 409 1894 409 
Q 2359 409 2629 706 
Q 2900 1003 2900 1516 
L 2900 3500 
L 3475 3500 
L 3475 0 
L 2900 0 
L 2900 538 
Q 2691 219 2414 64 
Q 2138 -91 1772 -91 
Q 1169 -91 856 284 
Q 544 659 544 1381 
z
M 1991 3584 
L 1991 3584 
z
" transform="scale(0.015625)"/>
     <path id="DejaVuSans-69" d="M 603 3500 
L 1178 3500 
L 1178 0 
L 603 0 
L 603 3500 
z
M 603 4863 
L 1178 4863 
L 1178 4134 
L 603 4134 
L 603 4863 
z
" transform="scale(0.015625)"/>
     <path id="DejaVuSans-20" transform="scale(0.015625)"/>
     <path id="DejaVuSans-64" d="M 2906 2969 
L 2906 4863 
L 3481 4863 
L 3481 0 
L 2906 0 
L 2906 525 
Q 2725 213 2448 61 
Q 2172 -91 1784 -91 
Q 1150 -91 751 415 
Q 353 922 353 1747 
Q 353 2572 751 3078 
Q 1150 3584 1784 3584 
Q 2172 3584 2448 3432 
Q 2725 3281 2906 2969 
z
M 947 1747 
Q 947 1113 1208 752 
Q 1469 391 1925 391 
Q 2381 391 2643 752 
Q 2906 1113 2906 1747 
Q 2906 2381 2643 2742 
Q 2381 3103 1925 3103 
Q 1469 3103 1208 2742 
Q 947 2381 947 1747 
z
" transform="scale(0.015625)"/>
     <path id="DejaVuSans-61" d="M 2194 1759 
Q 1497 1759 1228 1600 
Q 959 1441 959 1056 
Q 959 750 1161 570 
Q 1363 391 1709 391 
Q 2188 391 2477 730 
Q 2766 1069 2766 1631 
L 2766 1759 
L 2194 1759 
z
M 3341 1997 
L 3341 0 
L 2766 0 
L 2766 531 
Q 2569 213 2275 61 
Q 1981 -91 1556 -91 
Q 1019 -91 701 211 
Q 384 513 384 1019 
Q 384 1609 779 1909 
Q 1175 2209 1959 2209 
L 2766 2209 
L 2766 2266 
Q 2766 2663 2505 2880 
Q 2244 3097 1772 3097 
Q 1472 3097 1187 3025 
Q 903 2953 641 2809 
L 641 3341 
Q 956 3463 1253 3523 
Q 1550 3584 1831 3584 
Q 2591 3584 2966 3190 
Q 3341 2797 3341 1997 
z
" transform="scale(0.015625)"/>
    </defs>
    <use xlink:href="#DejaVuSans-72"/>
    <use xlink:href="#DejaVuSans-65" x="38.863281"/>
    <use xlink:href="#DejaVuSans-63" x="100.386719"/>
    <use xlink:href="#DejaVuSans-6f" x="155.367188"/>
    <use xlink:href="#DejaVuSans-6e" x="216.548828"/>
    <use xlink:href="#DejaVuSans-73" x="279.927734"/>
    <use xlink:href="#DejaVuSans-74" x="332.027344"/>
    <use xlink:href="#DejaVuSans-72" x="371.236328"/>
    <use xlink:href="#DejaVuSans-75" x="412.349609"/>
    <use xlink:href="#DejaVuSans-63" x="475.728516"/>
    <use xlink:href="#DejaVuSans-74" x="530.708984"/>
    <use xlink:href="#DejaVuSans-69" x="569.917969"/>
    <use xlink:href="#DejaVuSans-6f" x="597.701172"/>
    <use xlink:href="#DejaVuSans-6e" x="658.882812"/>
    <use xlink:href="#DejaVuSans-20" x="722.261719"/>
    <use xlink:href="#DejaVuSans-64" x="754.048828"/>
    <use xlink:href="#DejaVuSans-61" x="817.525391"/>
    <use xlink:href="#DejaVuSans-74" x="878.804688"/>
    <use xlink:href="#DejaVuSans-61" x="918.013672"/>
   </g>
  </g>
 </g>
 <defs>
  <clipPath id="p0aa2ffa07a">
   <rect x="57.6" y="41.472" width="77.634783" height="45.881379"/>
  </clipPath>
  <clipPath id="p91c5697053">
   <rect x="337.085217" y="41.472" width="77.634783" height="45.881379"/>
  </clipPath>
  <clipPath id="pe0350c6669">
   <rect x="57.6" y="96.529655" width="77.634783" height="45.881379"/>
  </clipPath>
  <clipPath id="p52ec737480">
   <rect x="150.761739" y="96.529655" width="77.634783" height="45.881379"/>
  </clipPath>
  <clipPath id="p779a29818c">
   <rect x="243.923478" y="96.529655" width="77.634783" height="45.881379"/>
  </clipPath>
  <clipPath id="p6dd48e718a">
   <rect x="337.085217" y="96.529655" width="77.634783" height="45.881379"/>
  </clipPath>
  <clipPath id="pe45fc9240f">
   <rect x="150.761739" y="151.58731" width="77.634783" height="45.881379"/>
  </clipPath>
  <clipPath id="pf5683a7311">
   <rect x="337.085217" y="151.58731" width="77.634783" height="45.881379"/>
  </clipPath>
  <clipPath id="pb5ede18dff">
   <rect x="150.761739" y="206.644966" width="77.634783" height="45.881379"/>
  </clipPath>
  <clipPath id="pcc47b126a3">
   <rect x="243.923478" y="206.644966" width="77.634783" height="45.881379"/>
  </clipPath>
  <clipPath id="p23144a575e">
   <rect x="337.085217" y="206.644966" width="77.634783" height="45.881379"/>
  </clipPath>
  <clipPath id="p0402e8e745">
   <rect x="57.6" y="261.702621" width="77.634783" height="45.881379"/>
  </clipPath>
  <clipPath id="pa0a9347f1b">
   <rect x="150.761739" y="261.702621" width="77.634783" height="45.881379"/>
  </clipPath>
  <clipPath id="p732baf5563">
   <rect x="337.085217" y="261.702621" width="77.634783" height="45.881379"/>
  </clipPath>
 </defs>
</svg>
