<?xml version="1.0" encoding="utf-8" standalone="no"?>
<!DOCTYPE svg PUBLIC "-//W3C//DTD SVG 1.1//EN"
  "http://www.w3.org/Graphics/SVG/1.1/DTD/svg11.dtd">
<svg xmlns:xlink="http://www.w3.org/1999/xlink" width="460.8pt" height="345.6pt" viewBox="0 0 460.8 345.6" xmlns="http://www.w3.org/2000/svg" version="1.1">
 <metadata>
  <rdf:RDF xmlns:dc="http://purl.org/dc/elements/1.1/" xmlns:cc="http://creativecommons.org/ns#" xmlns:rdf="http://www.w3.org/1999/02/22-rdf-syntax-ns#">
   <cc:Work>
    <dc:type rdf:resource="http://purl.org/dc/dcmitype/StillImage"/>
    <dc:date>2024-12-26T13:19:34.043716</dc:date>
    <dc:format>image/svg+xml</dc:format>
    <dc:creator>
     <cc:Agent>
      <dc:title>Matplotlib v3.7.5, https://matplotlib.org/</dc:title>
     </cc:Agent>
    </dc:creator>
   </cc:Work>
  </rdf:RDF>
 </metadata>
 <defs>
  <style type="text/css">*{stroke-linejoin: round; stroke-linecap: butt}</style>
 </defs>
 <g id="figure_1">
  <g id="patch_1">
   <path d="M 0 345.6 
L 460.8 345.6 
L 460.8 0 
L 0 0 
z
" style="fill: #ffffff"/>
  </g>
  <g id="axes_1">
   <g id="LineCollection_1">
    <path d="M 89.215524 55.117362 
L 67.010277 61.495183 
" clip-path="url(#p66a7926e83)" style="fill: none; stroke: #000000"/>
    <path d="M 89.215524 55.117362 
L 118.481948 56.113358 
" clip-path="url(#p66a7926e83)" style="fill: none; stroke: #000000"/>
    <path d="M 89.215524 55.117362 
L 97.773974 47.033379 
" clip-path="url(#p66a7926e83)" style="fill: none; stroke: #000000"/>
    <path d="M 89.215524 55.117362 
L 98.368879 65.577315 
" clip-path="url(#p66a7926e83)" style="fill: none; stroke: #000000"/>
    <path d="M 67.010277 61.495183 
L 98.368879 65.577315 
" clip-path="url(#p66a7926e83)" style="fill: none; stroke: #000000"/>
    <path d="M 125.824506 77.108666 
L 98.368879 65.577315 
" clip-path="url(#p66a7926e83)" style="fill: none; stroke: #000000"/>
    <path d="M 85.207787 81.792 
L 98.368879 65.577315 
" clip-path="url(#p66a7926e83)" style="fill: none; stroke: #000000"/>
    <path d="M 118.481948 56.113358 
L 98.368879 65.577315 
" clip-path="url(#p66a7926e83)" style="fill: none; stroke: #000000"/>
    <path d="M 97.773974 47.033379 
L 98.368879 65.577315 
" clip-path="url(#p66a7926e83)" style="fill: none; stroke: #000000"/>
   </g>
   <g id="PathCollection_1">
    <defs>
     <path id="m6daaa9633a" d="M 0 1.732051 
C 0.459345 1.732051 0.899939 1.549551 1.224745 1.224745 
C 1.549551 0.899939 1.732051 0.459345 1.732051 0 
C 1.732051 -0.459345 1.549551 -0.899939 1.224745 -1.224745 
C 0.899939 -1.549551 0.459345 -1.732051 0 -1.732051 
C -0.459345 -1.732051 -0.899939 -1.549551 -1.224745 -1.224745 
C -1.549551 -0.899939 -1.732051 -0.459345 -1.732051 0 
C -1.732051 0.459345 -1.549551 0.899939 -1.224745 1.224745 
C -0.899939 1.549551 -0.459345 1.732051 0 1.732051 
z
" style="stroke: #1f78b4"/>
    </defs>
    <g clip-path="url(#p66a7926e83)">
     <use xlink:href="#m6daaa9633a" x="89.215524" y="55.117362" style="fill: #1f78b4; stroke: #1f78b4"/>
     <use xlink:href="#m6daaa9633a" x="67.010277" y="61.495183" style="fill: #1f78b4; stroke: #1f78b4"/>
     <use xlink:href="#m6daaa9633a" x="125.824506" y="77.108666" style="fill: #1f78b4; stroke: #1f78b4"/>
     <use xlink:href="#m6daaa9633a" x="85.207787" y="81.792" style="fill: #1f78b4; stroke: #1f78b4"/>
     <use xlink:href="#m6daaa9633a" x="118.481948" y="56.113358" style="fill: #1f78b4; stroke: #1f78b4"/>
     <use xlink:href="#m6daaa9633a" x="97.773974" y="47.033379" style="fill: #1f78b4; stroke: #1f78b4"/>
     <use xlink:href="#m6daaa9633a" x="98.368879" y="65.577315" style="fill: #1f78b4; stroke: #1f78b4"/>
    </g>
   </g>
  </g>
  <g id="axes_2">
   <g id="LineCollection_2">
    <path d="M 192.858992 58.855197 
L 218.986245 81.792 
" clip-path="url(#pe104f87976)" style="fill: none; stroke: #000000"/>
    <path d="M 192.858992 58.855197 
L 160.172016 67.56182 
" clip-path="url(#pe104f87976)" style="fill: none; stroke: #000000"/>
    <path d="M 192.858992 58.855197 
L 215.562309 47.033379 
" clip-path="url(#pe104f87976)" style="fill: none; stroke: #000000"/>
    <path d="M 192.858992 58.855197 
L 194.595002 72.304224 
" clip-path="url(#pe104f87976)" style="fill: none; stroke: #000000"/>
    <path d="M 218.986245 81.792 
L 194.595002 72.304224 
" clip-path="url(#pe104f87976)" style="fill: none; stroke: #000000"/>
    <path d="M 160.172016 67.56182 
L 194.595002 72.304224 
" clip-path="url(#pe104f87976)" style="fill: none; stroke: #000000"/>
    <path d="M 215.562309 47.033379 
L 194.595002 72.304224 
" clip-path="url(#pe104f87976)" style="fill: none; stroke: #000000"/>
   </g>
   <g id="PathCollection_2">
    <g clip-path="url(#pe104f87976)">
     <use xlink:href="#m6daaa9633a" x="192.858992" y="58.855197" style="fill: #1f78b4; stroke: #1f78b4"/>
     <use xlink:href="#m6daaa9633a" x="218.986245" y="81.792" style="fill: #1f78b4; stroke: #1f78b4"/>
     <use xlink:href="#m6daaa9633a" x="160.172016" y="67.56182" style="fill: #1f78b4; stroke: #1f78b4"/>
     <use xlink:href="#m6daaa9633a" x="215.562309" y="47.033379" style="fill: #1f78b4; stroke: #1f78b4"/>
     <use xlink:href="#m6daaa9633a" x="194.595002" y="72.304224" style="fill: #1f78b4; stroke: #1f78b4"/>
    </g>
   </g>
  </g>
  <g id="axes_3">
   <g id="LineCollection_3">
    <path d="M 286.400577 49.594807 
L 311.170678 47.033379 
" clip-path="url(#p42e69e9e3e)" style="fill: none; stroke: #000000"/>
    <path d="M 286.400577 49.594807 
L 269.851372 67.339851 
" clip-path="url(#p42e69e9e3e)" style="fill: none; stroke: #000000"/>
    <path d="M 286.400577 49.594807 
L 290.811034 63.110386 
" clip-path="url(#p42e69e9e3e)" style="fill: none; stroke: #000000"/>
    <path d="M 311.170678 47.033379 
L 290.811034 63.110386 
" clip-path="url(#p42e69e9e3e)" style="fill: none; stroke: #000000"/>
    <path d="M 269.851372 67.339851 
L 290.811034 63.110386 
" clip-path="url(#p42e69e9e3e)" style="fill: none; stroke: #000000"/>
    <path d="M 253.333755 54.425874 
L 290.811034 63.110386 
" clip-path="url(#p42e69e9e3e)" style="fill: none; stroke: #000000"/>
    <path d="M 312.147984 81.792 
L 290.811034 63.110386 
" clip-path="url(#p42e69e9e3e)" style="fill: none; stroke: #000000"/>
   </g>
   <g id="PathCollection_3">
    <g clip-path="url(#p42e69e9e3e)">
     <use xlink:href="#m6daaa9633a" x="286.400577" y="49.594807" style="fill: #1f78b4; stroke: #1f78b4"/>
     <use xlink:href="#m6daaa9633a" x="311.170678" y="47.033379" style="fill: #1f78b4; stroke: #1f78b4"/>
     <use xlink:href="#m6daaa9633a" x="269.851372" y="67.339851" style="fill: #1f78b4; stroke: #1f78b4"/>
     <use xlink:href="#m6daaa9633a" x="253.333755" y="54.425874" style="fill: #1f78b4; stroke: #1f78b4"/>
     <use xlink:href="#m6daaa9633a" x="312.147984" y="81.792" style="fill: #1f78b4; stroke: #1f78b4"/>
     <use xlink:href="#m6daaa9633a" x="290.811034" y="63.110386" style="fill: #1f78b4; stroke: #1f78b4"/>
    </g>
   </g>
  </g>
  <g id="axes_4">
   <g id="LineCollection_4">
    <path d="M 388.204637 81.792 
L 375.954196 64.403162 
" clip-path="url(#p8810e46886)" style="fill: none; stroke: #000000"/>
    <path d="M 363.458779 47.033379 
L 375.954196 64.403162 
" clip-path="url(#p8810e46886)" style="fill: none; stroke: #000000"/>
    <path d="M 346.495494 71.696035 
L 375.954196 64.403162 
" clip-path="url(#p8810e46886)" style="fill: none; stroke: #000000"/>
    <path d="M 405.309723 57.048134 
L 375.954196 64.403162 
" clip-path="url(#p8810e46886)" style="fill: none; stroke: #000000"/>
   </g>
   <g id="PathCollection_4">
    <g clip-path="url(#p8810e46886)">
     <use xlink:href="#m6daaa9633a" x="388.204637" y="81.792" style="fill: #1f78b4; stroke: #1f78b4"/>
     <use xlink:href="#m6daaa9633a" x="363.458779" y="47.033379" style="fill: #1f78b4; stroke: #1f78b4"/>
     <use xlink:href="#m6daaa9633a" x="346.495494" y="71.696035" style="fill: #1f78b4; stroke: #1f78b4"/>
     <use xlink:href="#m6daaa9633a" x="405.309723" y="57.048134" style="fill: #1f78b4; stroke: #1f78b4"/>
     <use xlink:href="#m6daaa9633a" x="375.954196" y="64.403162" style="fill: #1f78b4; stroke: #1f78b4"/>
    </g>
   </g>
  </g>
  <g id="axes_5">
   <g id="LineCollection_5">
    <path d="M 96.345978 119.512559 
L 67.010277 136.849655 
" clip-path="url(#p9b8087d76b)" style="fill: none; stroke: #000000"/>
    <path d="M 96.345978 119.512559 
L 125.824506 102.091034 
" clip-path="url(#p9b8087d76b)" style="fill: none; stroke: #000000"/>
   </g>
   <g id="PathCollection_5">
    <g clip-path="url(#p9b8087d76b)">
     <use xlink:href="#m6daaa9633a" x="96.345978" y="119.512559" style="fill: #1f78b4; stroke: #1f78b4"/>
     <use xlink:href="#m6daaa9633a" x="67.010277" y="136.849655" style="fill: #1f78b4; stroke: #1f78b4"/>
     <use xlink:href="#m6daaa9633a" x="125.824506" y="102.091034" style="fill: #1f78b4; stroke: #1f78b4"/>
    </g>
   </g>
  </g>
  <g id="axes_6">
   <g id="LineCollection_6">
    <path d="M 218.468634 136.849655 
L 199.228402 119.314288 
" clip-path="url(#p88a69f6713)" style="fill: none; stroke: #000000"/>
    <path d="M 160.172016 119.058088 
L 199.228402 119.314288 
" clip-path="url(#p88a69f6713)" style="fill: none; stroke: #000000"/>
    <path d="M 218.986245 102.091034 
L 199.228402 119.314288 
" clip-path="url(#p88a69f6713)" style="fill: none; stroke: #000000"/>
   </g>
   <g id="PathCollection_6">
    <g clip-path="url(#p88a69f6713)">
     <use xlink:href="#m6daaa9633a" x="218.468634" y="136.849655" style="fill: #1f78b4; stroke: #1f78b4"/>
     <use xlink:href="#m6daaa9633a" x="160.172016" y="119.058088" style="fill: #1f78b4; stroke: #1f78b4"/>
     <use xlink:href="#m6daaa9633a" x="218.986245" y="102.091034" style="fill: #1f78b4; stroke: #1f78b4"/>
     <use xlink:href="#m6daaa9633a" x="199.228402" y="119.314288" style="fill: #1f78b4; stroke: #1f78b4"/>
    </g>
   </g>
  </g>
  <g id="axes_7">
   <g id="LineCollection_7">
    <path d="M 253.333755 136.849655 
L 281.576241 124.39282 
" clip-path="url(#pc1b905b584)" style="fill: none; stroke: #000000"/>
    <path d="M 312.147984 134.301301 
L 281.576241 124.39282 
" clip-path="url(#pc1b905b584)" style="fill: none; stroke: #000000"/>
    <path d="M 281.576241 124.39282 
L 279.434816 102.091034 
" clip-path="url(#pc1b905b584)" style="fill: none; stroke: #000000"/>
   </g>
   <g id="PathCollection_7">
    <g clip-path="url(#pc1b905b584)">
     <use xlink:href="#m6daaa9633a" x="253.333755" y="136.849655" style="fill: #1f78b4; stroke: #1f78b4"/>
     <use xlink:href="#m6daaa9633a" x="312.147984" y="134.301301" style="fill: #1f78b4; stroke: #1f78b4"/>
     <use xlink:href="#m6daaa9633a" x="281.576241" y="124.39282" style="fill: #1f78b4; stroke: #1f78b4"/>
     <use xlink:href="#m6daaa9633a" x="279.434816" y="102.091034" style="fill: #1f78b4; stroke: #1f78b4"/>
    </g>
   </g>
  </g>
  <g id="axes_8">
   <g id="LineCollection_8">
    <path d="M 378.830019 107.886343 
L 398.88174 102.091034 
" clip-path="url(#p82855c0808)" style="fill: none; stroke: #000000"/>
    <path d="M 378.830019 107.886343 
L 405.309723 119.327747 
" clip-path="url(#p82855c0808)" style="fill: none; stroke: #000000"/>
    <path d="M 378.830019 107.886343 
L 346.495494 108.414639 
" clip-path="url(#p82855c0808)" style="fill: none; stroke: #000000"/>
    <path d="M 378.830019 107.886343 
L 374.305329 118.721445 
" clip-path="url(#p82855c0808)" style="fill: none; stroke: #000000"/>
    <path d="M 398.88174 102.091034 
L 374.305329 118.721445 
" clip-path="url(#p82855c0808)" style="fill: none; stroke: #000000"/>
    <path d="M 358.950154 136.849655 
L 374.305329 118.721445 
" clip-path="url(#p82855c0808)" style="fill: none; stroke: #000000"/>
    <path d="M 405.309723 119.327747 
L 374.305329 118.721445 
" clip-path="url(#p82855c0808)" style="fill: none; stroke: #000000"/>
    <path d="M 346.495494 108.414639 
L 374.305329 118.721445 
" clip-path="url(#p82855c0808)" style="fill: none; stroke: #000000"/>
   </g>
   <g id="PathCollection_8">
    <g clip-path="url(#p82855c0808)">
     <use xlink:href="#m6daaa9633a" x="378.830019" y="107.886343" style="fill: #1f78b4; stroke: #1f78b4"/>
     <use xlink:href="#m6daaa9633a" x="398.88174" y="102.091034" style="fill: #1f78b4; stroke: #1f78b4"/>
     <use xlink:href="#m6daaa9633a" x="358.950154" y="136.849655" style="fill: #1f78b4; stroke: #1f78b4"/>
     <use xlink:href="#m6daaa9633a" x="405.309723" y="119.327747" style="fill: #1f78b4; stroke: #1f78b4"/>
     <use xlink:href="#m6daaa9633a" x="346.495494" y="108.414639" style="fill: #1f78b4; stroke: #1f78b4"/>
     <use xlink:href="#m6daaa9633a" x="374.305329" y="118.721445" style="fill: #1f78b4; stroke: #1f78b4"/>
    </g>
   </g>
  </g>
  <g id="axes_9">
   <g id="LineCollection_9">
    <path d="M 95.755716 177.018302 
L 69.307926 157.14869 
" clip-path="url(#p0ec62d4b0c)" style="fill: none; stroke: #000000"/>
    <path d="M 95.755716 177.018302 
L 125.824506 168.895221 
" clip-path="url(#p0ec62d4b0c)" style="fill: none; stroke: #000000"/>
    <path d="M 95.755716 177.018302 
L 67.010277 191.90731 
" clip-path="url(#p0ec62d4b0c)" style="fill: none; stroke: #000000"/>
    <path d="M 95.755716 177.018302 
L 73.587338 172.751217 
" clip-path="url(#p0ec62d4b0c)" style="fill: none; stroke: #000000"/>
    <path d="M 69.307926 157.14869 
L 73.587338 172.751217 
" clip-path="url(#p0ec62d4b0c)" style="fill: none; stroke: #000000"/>
    <path d="M 125.824506 168.895221 
L 73.587338 172.751217 
" clip-path="url(#p0ec62d4b0c)" style="fill: none; stroke: #000000"/>
    <path d="M 67.010277 191.90731 
L 73.587338 172.751217 
" clip-path="url(#p0ec62d4b0c)" style="fill: none; stroke: #000000"/>
   </g>
   <g id="PathCollection_9">
    <g clip-path="url(#p0ec62d4b0c)">
     <use xlink:href="#m6daaa9633a" x="95.755716" y="177.018302" style="fill: #1f78b4; stroke: #1f78b4"/>
     <use xlink:href="#m6daaa9633a" x="69.307926" y="157.14869" style="fill: #1f78b4; stroke: #1f78b4"/>
     <use xlink:href="#m6daaa9633a" x="125.824506" y="168.895221" style="fill: #1f78b4; stroke: #1f78b4"/>
     <use xlink:href="#m6daaa9633a" x="67.010277" y="191.90731" style="fill: #1f78b4; stroke: #1f78b4"/>
     <use xlink:href="#m6daaa9633a" x="73.587338" y="172.751217" style="fill: #1f78b4; stroke: #1f78b4"/>
    </g>
   </g>
  </g>
  <g id="axes_10">
   <g id="LineCollection_10">
    <path d="M 197.704806 173.717618 
L 218.986245 157.14869 
" clip-path="url(#pa0c636ceec)" style="fill: none; stroke: #000000"/>
    <path d="M 197.704806 173.717618 
L 213.875885 191.90731 
" clip-path="url(#pa0c636ceec)" style="fill: none; stroke: #000000"/>
    <path d="M 197.704806 173.717618 
L 160.172016 172.151213 
" clip-path="url(#pa0c636ceec)" style="fill: none; stroke: #000000"/>
   </g>
   <g id="PathCollection_10">
    <g clip-path="url(#pa0c636ceec)">
     <use xlink:href="#m6daaa9633a" x="197.704806" y="173.717618" style="fill: #1f78b4; stroke: #1f78b4"/>
     <use xlink:href="#m6daaa9633a" x="218.986245" y="157.14869" style="fill: #1f78b4; stroke: #1f78b4"/>
     <use xlink:href="#m6daaa9633a" x="213.875885" y="191.90731" style="fill: #1f78b4; stroke: #1f78b4"/>
     <use xlink:href="#m6daaa9633a" x="160.172016" y="172.151213" style="fill: #1f78b4; stroke: #1f78b4"/>
    </g>
   </g>
  </g>
  <g id="axes_11">
   <g id="LineCollection_11">
    <path d="M 280.28637 169.717486 
L 258.643263 157.14869 
" clip-path="url(#pacd7528b6e)" style="fill: none; stroke: #000000"/>
    <path d="M 280.28637 169.717486 
L 253.333755 191.90731 
" clip-path="url(#pacd7528b6e)" style="fill: none; stroke: #000000"/>
    <path d="M 280.28637 169.717486 
L 312.147984 178.970783 
" clip-path="url(#pacd7528b6e)" style="fill: none; stroke: #000000"/>
    <path d="M 280.28637 169.717486 
L 277.57297 182.658517 
" clip-path="url(#pacd7528b6e)" style="fill: none; stroke: #000000"/>
    <path d="M 258.643263 157.14869 
L 277.57297 182.658517 
" clip-path="url(#pacd7528b6e)" style="fill: none; stroke: #000000"/>
    <path d="M 253.333755 191.90731 
L 277.57297 182.658517 
" clip-path="url(#pacd7528b6e)" style="fill: none; stroke: #000000"/>
    <path d="M 312.147984 178.970783 
L 277.57297 182.658517 
" clip-path="url(#pacd7528b6e)" style="fill: none; stroke: #000000"/>
   </g>
   <g id="PathCollection_11">
    <g clip-path="url(#pacd7528b6e)">
     <use xlink:href="#m6daaa9633a" x="280.28637" y="169.717486" style="fill: #1f78b4; stroke: #1f78b4"/>
     <use xlink:href="#m6daaa9633a" x="258.643263" y="157.14869" style="fill: #1f78b4; stroke: #1f78b4"/>
     <use xlink:href="#m6daaa9633a" x="253.333755" y="191.90731" style="fill: #1f78b4; stroke: #1f78b4"/>
     <use xlink:href="#m6daaa9633a" x="312.147984" y="178.970783" style="fill: #1f78b4; stroke: #1f78b4"/>
     <use xlink:href="#m6daaa9633a" x="277.57297" y="182.658517" style="fill: #1f78b4; stroke: #1f78b4"/>
    </g>
   </g>
  </g>
  <g id="axes_12">
   <g id="LineCollection_12">
    <path d="M 405.309723 191.90731 
L 404.872562 157.14869 
" clip-path="url(#p71b3424dc6)" style="fill: none; stroke: #000000"/>
    <path d="M 405.309723 191.90731 
L 378.540624 175.199063 
" clip-path="url(#p71b3424dc6)" style="fill: none; stroke: #000000"/>
    <path d="M 404.872562 157.14869 
L 378.540624 175.199063 
" clip-path="url(#p71b3424dc6)" style="fill: none; stroke: #000000"/>
    <path d="M 346.495494 176.008991 
L 378.540624 175.199063 
" clip-path="url(#p71b3424dc6)" style="fill: none; stroke: #000000"/>
   </g>
   <g id="PathCollection_12">
    <g clip-path="url(#p71b3424dc6)">
     <use xlink:href="#m6daaa9633a" x="405.309723" y="191.90731" style="fill: #1f78b4; stroke: #1f78b4"/>
     <use xlink:href="#m6daaa9633a" x="404.872562" y="157.14869" style="fill: #1f78b4; stroke: #1f78b4"/>
     <use xlink:href="#m6daaa9633a" x="346.495494" y="176.008991" style="fill: #1f78b4; stroke: #1f78b4"/>
     <use xlink:href="#m6daaa9633a" x="378.540624" y="175.199063" style="fill: #1f78b4; stroke: #1f78b4"/>
    </g>
   </g>
  </g>
  <g id="axes_13">
   <g id="LineCollection_13">
    <path d="M 106.168359 229.443774 
L 69.167146 246.964966 
" clip-path="url(#pa38b2fb6f7)" style="fill: none; stroke: #000000"/>
    <path d="M 106.168359 229.443774 
L 123.662251 212.206345 
" clip-path="url(#pa38b2fb6f7)" style="fill: none; stroke: #000000"/>
    <path d="M 106.168359 229.443774 
L 125.824506 246.081628 
" clip-path="url(#pa38b2fb6f7)" style="fill: none; stroke: #000000"/>
    <path d="M 106.168359 229.443774 
L 67.010277 213.151146 
" clip-path="url(#pa38b2fb6f7)" style="fill: none; stroke: #000000"/>
    <path d="M 106.168359 229.443774 
L 86.654042 229.758608 
" clip-path="url(#pa38b2fb6f7)" style="fill: none; stroke: #000000"/>
    <path d="M 69.167146 246.964966 
L 86.654042 229.758608 
" clip-path="url(#pa38b2fb6f7)" style="fill: none; stroke: #000000"/>
    <path d="M 123.662251 212.206345 
L 86.654042 229.758608 
" clip-path="url(#pa38b2fb6f7)" style="fill: none; stroke: #000000"/>
    <path d="M 125.824506 246.081628 
L 86.654042 229.758608 
" clip-path="url(#pa38b2fb6f7)" style="fill: none; stroke: #000000"/>
    <path d="M 67.010277 213.151146 
L 86.654042 229.758608 
" clip-path="url(#pa38b2fb6f7)" style="fill: none; stroke: #000000"/>
   </g>
   <g id="PathCollection_13">
    <g clip-path="url(#pa38b2fb6f7)">
     <use xlink:href="#m6daaa9633a" x="106.168359" y="229.443774" style="fill: #1f78b4; stroke: #1f78b4"/>
     <use xlink:href="#m6daaa9633a" x="69.167146" y="246.964966" style="fill: #1f78b4; stroke: #1f78b4"/>
     <use xlink:href="#m6daaa9633a" x="123.662251" y="212.206345" style="fill: #1f78b4; stroke: #1f78b4"/>
     <use xlink:href="#m6daaa9633a" x="125.824506" y="246.081628" style="fill: #1f78b4; stroke: #1f78b4"/>
     <use xlink:href="#m6daaa9633a" x="67.010277" y="213.151146" style="fill: #1f78b4; stroke: #1f78b4"/>
     <use xlink:href="#m6daaa9633a" x="86.654042" y="229.758608" style="fill: #1f78b4; stroke: #1f78b4"/>
    </g>
   </g>
  </g>
  <g id="axes_14">
   <g id="LineCollection_14">
    <path d="M 190.181363 233.703357 
L 171.503188 212.206345 
" clip-path="url(#p27c604957a)" style="fill: none; stroke: #000000"/>
    <path d="M 190.181363 233.703357 
L 160.172016 246.964966 
" clip-path="url(#p27c604957a)" style="fill: none; stroke: #000000"/>
    <path d="M 190.181363 233.703357 
L 218.986245 226.913235 
" clip-path="url(#p27c604957a)" style="fill: none; stroke: #000000"/>
    <path d="M 190.181363 233.703357 
L 171.589532 227.912817 
" clip-path="url(#p27c604957a)" style="fill: none; stroke: #000000"/>
    <path d="M 171.503188 212.206345 
L 171.589532 227.912817 
" clip-path="url(#p27c604957a)" style="fill: none; stroke: #000000"/>
    <path d="M 160.172016 246.964966 
L 171.589532 227.912817 
" clip-path="url(#p27c604957a)" style="fill: none; stroke: #000000"/>
    <path d="M 218.986245 226.913235 
L 171.589532 227.912817 
" clip-path="url(#p27c604957a)" style="fill: none; stroke: #000000"/>
   </g>
   <g id="PathCollection_14">
    <g clip-path="url(#p27c604957a)">
     <use xlink:href="#m6daaa9633a" x="190.181363" y="233.703357" style="fill: #1f78b4; stroke: #1f78b4"/>
     <use xlink:href="#m6daaa9633a" x="171.503188" y="212.206345" style="fill: #1f78b4; stroke: #1f78b4"/>
     <use xlink:href="#m6daaa9633a" x="160.172016" y="246.964966" style="fill: #1f78b4; stroke: #1f78b4"/>
     <use xlink:href="#m6daaa9633a" x="218.986245" y="226.913235" style="fill: #1f78b4; stroke: #1f78b4"/>
     <use xlink:href="#m6daaa9633a" x="171.589532" y="227.912817" style="fill: #1f78b4; stroke: #1f78b4"/>
    </g>
   </g>
  </g>
  <g id="axes_15"/>
  <g id="axes_16">
   <g id="LineCollection_15">
    <path d="M 375.919905 229.655176 
L 346.495494 246.964966 
" clip-path="url(#p3d34622f76)" style="fill: none; stroke: #000000"/>
    <path d="M 375.919905 229.655176 
L 405.309723 212.206345 
" clip-path="url(#p3d34622f76)" style="fill: none; stroke: #000000"/>
   </g>
   <g id="PathCollection_15">
    <g clip-path="url(#p3d34622f76)">
     <use xlink:href="#m6daaa9633a" x="375.919905" y="229.655176" style="fill: #1f78b4; stroke: #1f78b4"/>
     <use xlink:href="#m6daaa9633a" x="346.495494" y="246.964966" style="fill: #1f78b4; stroke: #1f78b4"/>
     <use xlink:href="#m6daaa9633a" x="405.309723" y="212.206345" style="fill: #1f78b4; stroke: #1f78b4"/>
    </g>
   </g>
  </g>
  <g id="axes_17">
   <g id="LineCollection_16">
    <path d="M 89.278073 287.047535 
L 125.824506 267.264 
" clip-path="url(#p7f07976f3f)" style="fill: none; stroke: #000000"/>
    <path d="M 89.278073 287.047535 
L 107.191455 302.022621 
" clip-path="url(#p7f07976f3f)" style="fill: none; stroke: #000000"/>
    <path d="M 89.278073 287.047535 
L 113.609276 284.013334 
" clip-path="url(#p7f07976f3f)" style="fill: none; stroke: #000000"/>
    <path d="M 89.278073 287.047535 
L 67.010277 274.248768 
" clip-path="url(#p7f07976f3f)" style="fill: none; stroke: #000000"/>
    <path d="M 89.278073 287.047535 
L 97.23511 273.497746 
" clip-path="url(#p7f07976f3f)" style="fill: none; stroke: #000000"/>
    <path d="M 125.824506 267.264 
L 113.609276 284.013334 
" clip-path="url(#p7f07976f3f)" style="fill: none; stroke: #000000"/>
    <path d="M 125.824506 267.264 
L 97.23511 273.497746 
" clip-path="url(#p7f07976f3f)" style="fill: none; stroke: #000000"/>
    <path d="M 107.191455 302.022621 
L 113.609276 284.013334 
" clip-path="url(#p7f07976f3f)" style="fill: none; stroke: #000000"/>
    <path d="M 107.191455 302.022621 
L 97.23511 273.497746 
" clip-path="url(#p7f07976f3f)" style="fill: none; stroke: #000000"/>
    <path d="M 113.609276 284.013334 
L 67.010277 274.248768 
" clip-path="url(#p7f07976f3f)" style="fill: none; stroke: #000000"/>
    <path d="M 113.609276 284.013334 
L 97.23511 273.497746 
" clip-path="url(#p7f07976f3f)" style="fill: none; stroke: #000000"/>
    <path d="M 67.010277 274.248768 
L 97.23511 273.497746 
" clip-path="url(#p7f07976f3f)" style="fill: none; stroke: #000000"/>
   </g>
   <g id="PathCollection_16">
    <g clip-path="url(#p7f07976f3f)">
     <use xlink:href="#m6daaa9633a" x="89.278073" y="287.047535" style="fill: #1f78b4; stroke: #1f78b4"/>
     <use xlink:href="#m6daaa9633a" x="125.824506" y="267.264" style="fill: #1f78b4; stroke: #1f78b4"/>
     <use xlink:href="#m6daaa9633a" x="107.191455" y="302.022621" style="fill: #1f78b4; stroke: #1f78b4"/>
     <use xlink:href="#m6daaa9633a" x="113.609276" y="284.013334" style="fill: #1f78b4; stroke: #1f78b4"/>
     <use xlink:href="#m6daaa9633a" x="67.010277" y="274.248768" style="fill: #1f78b4; stroke: #1f78b4"/>
     <use xlink:href="#m6daaa9633a" x="97.23511" y="273.497746" style="fill: #1f78b4; stroke: #1f78b4"/>
    </g>
   </g>
  </g>
  <g id="axes_18">
   <g id="LineCollection_17">
    <path d="M 187.976821 267.264 
L 191.181438 302.022621 
" clip-path="url(#pd72adfae76)" style="fill: none; stroke: #000000"/>
    <path d="M 187.976821 267.264 
L 160.172016 288.931002 
" clip-path="url(#pd72adfae76)" style="fill: none; stroke: #000000"/>
    <path d="M 187.976821 267.264 
L 218.986245 280.355641 
" clip-path="url(#pd72adfae76)" style="fill: none; stroke: #000000"/>
    <path d="M 191.181438 302.022621 
L 160.172016 288.931002 
" clip-path="url(#pd72adfae76)" style="fill: none; stroke: #000000"/>
    <path d="M 191.181438 302.022621 
L 218.986245 280.355641 
" clip-path="url(#pd72adfae76)" style="fill: none; stroke: #000000"/>
   </g>
   <g id="PathCollection_17">
    <g clip-path="url(#pd72adfae76)">
     <use xlink:href="#m6daaa9633a" x="187.976821" y="267.264" style="fill: #1f78b4; stroke: #1f78b4"/>
     <use xlink:href="#m6daaa9633a" x="191.181438" y="302.022621" style="fill: #1f78b4; stroke: #1f78b4"/>
     <use xlink:href="#m6daaa9633a" x="160.172016" y="288.931002" style="fill: #1f78b4; stroke: #1f78b4"/>
     <use xlink:href="#m6daaa9633a" x="218.986245" y="280.355641" style="fill: #1f78b4; stroke: #1f78b4"/>
    </g>
   </g>
  </g>
  <g id="axes_19">
   <g id="LineCollection_18">
    <path d="M 312.147984 282.904914 
L 280.986472 285.419216 
" clip-path="url(#p70e19b5224)" style="fill: none; stroke: #000000"/>
    <path d="M 253.333755 276.641457 
L 280.986472 285.419216 
" clip-path="url(#p70e19b5224)" style="fill: none; stroke: #000000"/>
    <path d="M 258.32852 298.137727 
L 280.986472 285.419216 
" clip-path="url(#p70e19b5224)" style="fill: none; stroke: #000000"/>
    <path d="M 286.591633 267.264 
L 280.986472 285.419216 
" clip-path="url(#p70e19b5224)" style="fill: none; stroke: #000000"/>
    <path d="M 294.669441 302.022621 
L 280.986472 285.419216 
" clip-path="url(#p70e19b5224)" style="fill: none; stroke: #000000"/>
   </g>
   <g id="PathCollection_18">
    <g clip-path="url(#p70e19b5224)">
     <use xlink:href="#m6daaa9633a" x="312.147984" y="282.904914" style="fill: #1f78b4; stroke: #1f78b4"/>
     <use xlink:href="#m6daaa9633a" x="253.333755" y="276.641457" style="fill: #1f78b4; stroke: #1f78b4"/>
     <use xlink:href="#m6daaa9633a" x="258.32852" y="298.137727" style="fill: #1f78b4; stroke: #1f78b4"/>
     <use xlink:href="#m6daaa9633a" x="286.591633" y="267.264" style="fill: #1f78b4; stroke: #1f78b4"/>
     <use xlink:href="#m6daaa9633a" x="294.669441" y="302.022621" style="fill: #1f78b4; stroke: #1f78b4"/>
     <use xlink:href="#m6daaa9633a" x="280.986472" y="285.419216" style="fill: #1f78b4; stroke: #1f78b4"/>
    </g>
   </g>
  </g>
  <g id="axes_20">
   <g id="LineCollection_19">
    <path d="M 346.495494 302.022621 
L 405.309723 267.264 
" clip-path="url(#pea92adeec1)" style="fill: none; stroke: #000000"/>
   </g>
   <g id="PathCollection_19">
    <g clip-path="url(#pea92adeec1)">
     <use xlink:href="#m6daaa9633a" x="346.495494" y="302.022621" style="fill: #1f78b4; stroke: #1f78b4"/>
     <use xlink:href="#m6daaa9633a" x="405.309723" y="267.264" style="fill: #1f78b4; stroke: #1f78b4"/>
    </g>
   </g>
  </g>
  <g id="text_1">
   <!-- generated data -->
   <g transform="translate(183.98625 16.030125) scale(0.12 -0.12)">
    <defs>
     <path id="DejaVuSans-67" d="M 2906 1791 
Q 2906 2416 2648 2759 
Q 2391 3103 1925 3103 
Q 1463 3103 1205 2759 
Q 947 2416 947 1791 
Q 947 1169 1205 825 
Q 1463 481 1925 481 
Q 2391 481 2648 825 
Q 2906 1169 2906 1791 
z
M 3481 434 
Q 3481 -459 3084 -895 
Q 2688 -1331 1869 -1331 
Q 1566 -1331 1297 -1286 
Q 1028 -1241 775 -1147 
L 775 -588 
Q 1028 -725 1275 -790 
Q 1522 -856 1778 -856 
Q 2344 -856 2625 -561 
Q 2906 -266 2906 331 
L 2906 616 
Q 2728 306 2450 153 
Q 2172 0 1784 0 
Q 1141 0 747 490 
Q 353 981 353 1791 
Q 353 2603 747 3093 
Q 1141 3584 1784 3584 
Q 2172 3584 2450 3431 
Q 2728 3278 2906 2969 
L 2906 3500 
L 3481 3500 
L 3481 434 
z
" transform="scale(0.015625)"/>
     <path id="DejaVuSans-65" d="M 3597 1894 
L 3597 1613 
L 953 1613 
Q 991 1019 1311 708 
Q 1631 397 2203 397 
Q 2534 397 2845 478 
Q 3156 559 3463 722 
L 3463 178 
Q 3153 47 2828 -22 
Q 2503 -91 2169 -91 
Q 1331 -91 842 396 
Q 353 884 353 1716 
Q 353 2575 817 3079 
Q 1281 3584 2069 3584 
Q 2775 3584 3186 3129 
Q 3597 2675 3597 1894 
z
M 3022 2063 
Q 3016 2534 2758 2815 
Q 2500 3097 2075 3097 
Q 1594 3097 1305 2825 
Q 1016 2553 972 2059 
L 3022 2063 
z
" transform="scale(0.015625)"/>
     <path id="DejaVuSans-6e" d="M 3513 2113 
L 3513 0 
L 2938 0 
L 2938 2094 
Q 2938 2591 2744 2837 
Q 2550 3084 2163 3084 
Q 1697 3084 1428 2787 
Q 1159 2491 1159 1978 
L 1159 0 
L 581 0 
L 581 3500 
L 1159 3500 
L 1159 2956 
Q 1366 3272 1645 3428 
Q 1925 3584 2291 3584 
Q 2894 3584 3203 3211 
Q 3513 2838 3513 2113 
z
" transform="scale(0.015625)"/>
     <path id="DejaVuSans-72" d="M 2631 2963 
Q 2534 3019 2420 3045 
Q 2306 3072 2169 3072 
Q 1681 3072 1420 2755 
Q 1159 2438 1159 1844 
L 1159 0 
L 581 0 
L 581 3500 
L 1159 3500 
L 1159 2956 
Q 1341 3275 1631 3429 
Q 1922 3584 2338 3584 
Q 2397 3584 2469 3576 
Q 2541 3569 2628 3553 
L 2631 2963 
z
" transform="scale(0.015625)"/>
     <path id="DejaVuSans-61" d="M 2194 1759 
Q 1497 1759 1228 1600 
Q 959 1441 959 1056 
Q 959 750 1161 570 
Q 1363 391 1709 391 
Q 2188 391 2477 730 
Q 2766 1069 2766 1631 
L 2766 1759 
L 2194 1759 
z
M 3341 1997 
L 3341 0 
L 2766 0 
L 2766 531 
Q 2569 213 2275 61 
Q 1981 -91 1556 -91 
Q 1019 -91 701 211 
Q 384 513 384 1019 
Q 384 1609 779 1909 
Q 1175 2209 1959 2209 
L 2766 2209 
L 2766 2266 
Q 2766 2663 2505 2880 
Q 2244 3097 1772 3097 
Q 1472 3097 1187 3025 
Q 903 2953 641 2809 
L 641 3341 
Q 956 3463 1253 3523 
Q 1550 3584 1831 3584 
Q 2591 3584 2966 3190 
Q 3341 2797 3341 1997 
z
" transform="scale(0.015625)"/>
     <path id="DejaVuSans-74" d="M 1172 4494 
L 1172 3500 
L 2356 3500 
L 2356 3053 
L 1172 3053 
L 1172 1153 
Q 1172 725 1289 603 
Q 1406 481 1766 481 
L 2356 481 
L 2356 0 
L 1766 0 
Q 1100 0 847 248 
Q 594 497 594 1153 
L 594 3053 
L 172 3053 
L 172 3500 
L 594 3500 
L 594 4494 
L 1172 4494 
z
" transform="scale(0.015625)"/>
     <path id="DejaVuSans-64" d="M 2906 2969 
L 2906 4863 
L 3481 4863 
L 3481 0 
L 2906 0 
L 2906 525 
Q 2725 213 2448 61 
Q 2172 -91 1784 -91 
Q 1150 -91 751 415 
Q 353 922 353 1747 
Q 353 2572 751 3078 
Q 1150 3584 1784 3584 
Q 2172 3584 2448 3432 
Q 2725 3281 2906 2969 
z
M 947 1747 
Q 947 1113 1208 752 
Q 1469 391 1925 391 
Q 2381 391 2643 752 
Q 2906 1113 2906 1747 
Q 2906 2381 2643 2742 
Q 2381 3103 1925 3103 
Q 1469 3103 1208 2742 
Q 947 2381 947 1747 
z
" transform="scale(0.015625)"/>
     <path id="DejaVuSans-20" transform="scale(0.015625)"/>
    </defs>
    <use xlink:href="#DejaVuSans-67"/>
    <use xlink:href="#DejaVuSans-65" x="63.476562"/>
    <use xlink:href="#DejaVuSans-6e" x="125"/>
    <use xlink:href="#DejaVuSans-65" x="188.378906"/>
    <use xlink:href="#DejaVuSans-72" x="249.902344"/>
    <use xlink:href="#DejaVuSans-61" x="291.015625"/>
    <use xlink:href="#DejaVuSans-74" x="352.294922"/>
    <use xlink:href="#DejaVuSans-65" x="391.503906"/>
    <use xlink:href="#DejaVuSans-64" x="453.027344"/>
    <use xlink:href="#DejaVuSans-20" x="516.503906"/>
    <use xlink:href="#DejaVuSans-64" x="548.291016"/>
    <use xlink:href="#DejaVuSans-61" x="611.767578"/>
    <use xlink:href="#DejaVuSans-74" x="673.046875"/>
    <use xlink:href="#DejaVuSans-61" x="712.255859"/>
   </g>
  </g>
 </g>
 <defs>
  <clipPath id="p66a7926e83">
   <rect x="57.6" y="41.472" width="77.634783" height="45.881379"/>
  </clipPath>
  <clipPath id="pe104f87976">
   <rect x="150.761739" y="41.472" width="77.634783" height="45.881379"/>
  </clipPath>
  <clipPath id="p42e69e9e3e">
   <rect x="243.923478" y="41.472" width="77.634783" height="45.881379"/>
  </clipPath>
  <clipPath id="p8810e46886">
   <rect x="337.085217" y="41.472" width="77.634783" height="45.881379"/>
  </clipPath>
  <clipPath id="p9b8087d76b">
   <rect x="57.6" y="96.529655" width="77.634783" height="45.881379"/>
  </clipPath>
  <clipPath id="p88a69f6713">
   <rect x="150.761739" y="96.529655" width="77.634783" height="45.881379"/>
  </clipPath>
  <clipPath id="pc1b905b584">
   <rect x="243.923478" y="96.529655" width="77.634783" height="45.881379"/>
  </clipPath>
  <clipPath id="p82855c0808">
   <rect x="337.085217" y="96.529655" width="77.634783" height="45.881379"/>
  </clipPath>
  <clipPath id="p0ec62d4b0c">
   <rect x="57.6" y="151.58731" width="77.634783" height="45.881379"/>
  </clipPath>
  <clipPath id="pa0c636ceec">
   <rect x="150.761739" y="151.58731" width="77.634783" height="45.881379"/>
  </clipPath>
  <clipPath id="pacd7528b6e">
   <rect x="243.923478" y="151.58731" width="77.634783" height="45.881379"/>
  </clipPath>
  <clipPath id="p71b3424dc6">
   <rect x="337.085217" y="151.58731" width="77.634783" height="45.881379"/>
  </clipPath>
  <clipPath id="pa38b2fb6f7">
   <rect x="57.6" y="206.644966" width="77.634783" height="45.881379"/>
  </clipPath>
  <clipPath id="p27c604957a">
   <rect x="150.761739" y="206.644966" width="77.634783" height="45.881379"/>
  </clipPath>
  <clipPath id="p3d34622f76">
   <rect x="337.085217" y="206.644966" width="77.634783" height="45.881379"/>
  </clipPath>
  <clipPath id="p7f07976f3f">
   <rect x="57.6" y="261.702621" width="77.634783" height="45.881379"/>
  </clipPath>
  <clipPath id="pd72adfae76">
   <rect x="150.761739" y="261.702621" width="77.634783" height="45.881379"/>
  </clipPath>
  <clipPath id="p70e19b5224">
   <rect x="243.923478" y="261.702621" width="77.634783" height="45.881379"/>
  </clipPath>
  <clipPath id="pea92adeec1">
   <rect x="337.085217" y="261.702621" width="77.634783" height="45.881379"/>
  </clipPath>
 </defs>
</svg>
