<?xml version="1.0" encoding="utf-8" standalone="no"?>
<!DOCTYPE svg PUBLIC "-//W3C//DTD SVG 1.1//EN"
  "http://www.w3.org/Graphics/SVG/1.1/DTD/svg11.dtd">
<svg xmlns:xlink="http://www.w3.org/1999/xlink" width="460.8pt" height="345.6pt" viewBox="0 0 460.8 345.6" xmlns="http://www.w3.org/2000/svg" version="1.1">
 <metadata>
  <rdf:RDF xmlns:dc="http://purl.org/dc/elements/1.1/" xmlns:cc="http://creativecommons.org/ns#" xmlns:rdf="http://www.w3.org/1999/02/22-rdf-syntax-ns#">
   <cc:Work>
    <dc:type rdf:resource="http://purl.org/dc/dcmitype/StillImage"/>
    <dc:date>2024-12-23T13:42:47.028469</dc:date>
    <dc:format>image/svg+xml</dc:format>
    <dc:creator>
     <cc:Agent>
      <dc:title>Matplotlib v3.7.5, https://matplotlib.org/</dc:title>
     </cc:Agent>
    </dc:creator>
   </cc:Work>
  </rdf:RDF>
 </metadata>
 <defs>
  <style type="text/css">*{stroke-linejoin: round; stroke-linecap: butt}</style>
 </defs>
 <g id="figure_1">
  <g id="patch_1">
   <path d="M 0 345.6 
L 460.8 345.6 
L 460.8 0 
L 0 0 
z
" style="fill: #ffffff"/>
  </g>
  <g id="axes_1">
   <g id="LineCollection_1">
    <path d="M 68.213376 56.617302 
L 67.010277 72.260946 
" clip-path="url(#p7e5f02d374)" style="fill: none; stroke: #000000"/>
    <path d="M 68.213376 56.617302 
L 109.715483 51.152779 
" clip-path="url(#p7e5f02d374)" style="fill: none; stroke: #000000"/>
    <path d="M 68.213376 56.617302 
L 91.23191 67.470715 
" clip-path="url(#p7e5f02d374)" style="fill: none; stroke: #000000"/>
    <path d="M 68.213376 56.617302 
L 118.536051 74.564238 
" clip-path="url(#p7e5f02d374)" style="fill: none; stroke: #000000"/>
    <path d="M 68.213376 56.617302 
L 125.824506 60.697307 
" clip-path="url(#p7e5f02d374)" style="fill: none; stroke: #000000"/>
    <path d="M 68.213376 56.617302 
L 87.391833 47.033379 
" clip-path="url(#p7e5f02d374)" style="fill: none; stroke: #000000"/>
    <path d="M 68.213376 56.617302 
L 93.786034 81.792 
" clip-path="url(#p7e5f02d374)" style="fill: none; stroke: #000000"/>
    <path d="M 67.010277 72.260946 
L 109.715483 51.152779 
" clip-path="url(#p7e5f02d374)" style="fill: none; stroke: #000000"/>
    <path d="M 67.010277 72.260946 
L 91.23191 67.470715 
" clip-path="url(#p7e5f02d374)" style="fill: none; stroke: #000000"/>
    <path d="M 67.010277 72.260946 
L 118.536051 74.564238 
" clip-path="url(#p7e5f02d374)" style="fill: none; stroke: #000000"/>
    <path d="M 67.010277 72.260946 
L 125.824506 60.697307 
" clip-path="url(#p7e5f02d374)" style="fill: none; stroke: #000000"/>
    <path d="M 67.010277 72.260946 
L 87.391833 47.033379 
" clip-path="url(#p7e5f02d374)" style="fill: none; stroke: #000000"/>
    <path d="M 67.010277 72.260946 
L 93.786034 81.792 
" clip-path="url(#p7e5f02d374)" style="fill: none; stroke: #000000"/>
    <path d="M 109.715483 51.152779 
L 91.23191 67.470715 
" clip-path="url(#p7e5f02d374)" style="fill: none; stroke: #000000"/>
    <path d="M 109.715483 51.152779 
L 118.536051 74.564238 
" clip-path="url(#p7e5f02d374)" style="fill: none; stroke: #000000"/>
    <path d="M 109.715483 51.152779 
L 125.824506 60.697307 
" clip-path="url(#p7e5f02d374)" style="fill: none; stroke: #000000"/>
    <path d="M 109.715483 51.152779 
L 87.391833 47.033379 
" clip-path="url(#p7e5f02d374)" style="fill: none; stroke: #000000"/>
    <path d="M 109.715483 51.152779 
L 93.786034 81.792 
" clip-path="url(#p7e5f02d374)" style="fill: none; stroke: #000000"/>
    <path d="M 91.23191 67.470715 
L 118.536051 74.564238 
" clip-path="url(#p7e5f02d374)" style="fill: none; stroke: #000000"/>
    <path d="M 91.23191 67.470715 
L 125.824506 60.697307 
" clip-path="url(#p7e5f02d374)" style="fill: none; stroke: #000000"/>
    <path d="M 91.23191 67.470715 
L 87.391833 47.033379 
" clip-path="url(#p7e5f02d374)" style="fill: none; stroke: #000000"/>
    <path d="M 91.23191 67.470715 
L 93.786034 81.792 
" clip-path="url(#p7e5f02d374)" style="fill: none; stroke: #000000"/>
    <path d="M 118.536051 74.564238 
L 125.824506 60.697307 
" clip-path="url(#p7e5f02d374)" style="fill: none; stroke: #000000"/>
    <path d="M 118.536051 74.564238 
L 87.391833 47.033379 
" clip-path="url(#p7e5f02d374)" style="fill: none; stroke: #000000"/>
    <path d="M 118.536051 74.564238 
L 93.786034 81.792 
" clip-path="url(#p7e5f02d374)" style="fill: none; stroke: #000000"/>
    <path d="M 125.824506 60.697307 
L 87.391833 47.033379 
" clip-path="url(#p7e5f02d374)" style="fill: none; stroke: #000000"/>
    <path d="M 125.824506 60.697307 
L 93.786034 81.792 
" clip-path="url(#p7e5f02d374)" style="fill: none; stroke: #000000"/>
    <path d="M 87.391833 47.033379 
L 93.786034 81.792 
" clip-path="url(#p7e5f02d374)" style="fill: none; stroke: #000000"/>
   </g>
   <g id="PathCollection_1">
    <defs>
     <path id="m1433e1cc2e" d="M 0 1.732051 
C 0.459345 1.732051 0.899939 1.549551 1.224745 1.224745 
C 1.549551 0.899939 1.732051 0.459345 1.732051 0 
C 1.732051 -0.459345 1.549551 -0.899939 1.224745 -1.224745 
C 0.899939 -1.549551 0.459345 -1.732051 0 -1.732051 
C -0.459345 -1.732051 -0.899939 -1.549551 -1.224745 -1.224745 
C -1.549551 -0.899939 -1.732051 -0.459345 -1.732051 0 
C -1.732051 0.459345 -1.549551 0.899939 -1.224745 1.224745 
C -0.899939 1.549551 -0.459345 1.732051 0 1.732051 
z
" style="stroke: #1f78b4"/>
    </defs>
    <g clip-path="url(#p7e5f02d374)">
     <use xlink:href="#m1433e1cc2e" x="68.213376" y="56.617302" style="fill: #1f78b4; stroke: #1f78b4"/>
     <use xlink:href="#m1433e1cc2e" x="67.010277" y="72.260946" style="fill: #1f78b4; stroke: #1f78b4"/>
     <use xlink:href="#m1433e1cc2e" x="109.715483" y="51.152779" style="fill: #1f78b4; stroke: #1f78b4"/>
     <use xlink:href="#m1433e1cc2e" x="91.23191" y="67.470715" style="fill: #1f78b4; stroke: #1f78b4"/>
     <use xlink:href="#m1433e1cc2e" x="118.536051" y="74.564238" style="fill: #1f78b4; stroke: #1f78b4"/>
     <use xlink:href="#m1433e1cc2e" x="125.824506" y="60.697307" style="fill: #1f78b4; stroke: #1f78b4"/>
     <use xlink:href="#m1433e1cc2e" x="87.391833" y="47.033379" style="fill: #1f78b4; stroke: #1f78b4"/>
     <use xlink:href="#m1433e1cc2e" x="93.786034" y="81.792" style="fill: #1f78b4; stroke: #1f78b4"/>
    </g>
   </g>
  </g>
  <g id="axes_2"/>
  <g id="axes_3"/>
  <g id="axes_4"/>
  <g id="axes_5"/>
  <g id="axes_6">
   <g id="LineCollection_2">
    <path d="M 191.637265 130.563481 
L 175.559002 136.849655 
" clip-path="url(#pe2d7b3736b)" style="fill: none; stroke: #000000"/>
    <path d="M 191.637265 130.563481 
L 160.172016 113.636971 
" clip-path="url(#pe2d7b3736b)" style="fill: none; stroke: #000000"/>
    <path d="M 191.637265 130.563481 
L 188.620154 116.42914 
" clip-path="url(#pe2d7b3736b)" style="fill: none; stroke: #000000"/>
    <path d="M 191.637265 130.563481 
L 195.493053 102.091034 
" clip-path="url(#pe2d7b3736b)" style="fill: none; stroke: #000000"/>
    <path d="M 191.637265 130.563481 
L 161.968804 125.95212 
" clip-path="url(#pe2d7b3736b)" style="fill: none; stroke: #000000"/>
    <path d="M 191.637265 130.563481 
L 210.273835 133.099351 
" clip-path="url(#pe2d7b3736b)" style="fill: none; stroke: #000000"/>
    <path d="M 191.637265 130.563481 
L 214.197541 108.363206 
" clip-path="url(#pe2d7b3736b)" style="fill: none; stroke: #000000"/>
    <path d="M 191.637265 130.563481 
L 218.986245 120.87286 
" clip-path="url(#pe2d7b3736b)" style="fill: none; stroke: #000000"/>
    <path d="M 191.637265 130.563481 
L 173.119064 103.162313 
" clip-path="url(#pe2d7b3736b)" style="fill: none; stroke: #000000"/>
    <path d="M 175.559002 136.849655 
L 160.172016 113.636971 
" clip-path="url(#pe2d7b3736b)" style="fill: none; stroke: #000000"/>
    <path d="M 175.559002 136.849655 
L 188.620154 116.42914 
" clip-path="url(#pe2d7b3736b)" style="fill: none; stroke: #000000"/>
    <path d="M 175.559002 136.849655 
L 195.493053 102.091034 
" clip-path="url(#pe2d7b3736b)" style="fill: none; stroke: #000000"/>
    <path d="M 175.559002 136.849655 
L 161.968804 125.95212 
" clip-path="url(#pe2d7b3736b)" style="fill: none; stroke: #000000"/>
    <path d="M 175.559002 136.849655 
L 210.273835 133.099351 
" clip-path="url(#pe2d7b3736b)" style="fill: none; stroke: #000000"/>
    <path d="M 175.559002 136.849655 
L 214.197541 108.363206 
" clip-path="url(#pe2d7b3736b)" style="fill: none; stroke: #000000"/>
    <path d="M 175.559002 136.849655 
L 218.986245 120.87286 
" clip-path="url(#pe2d7b3736b)" style="fill: none; stroke: #000000"/>
    <path d="M 175.559002 136.849655 
L 173.119064 103.162313 
" clip-path="url(#pe2d7b3736b)" style="fill: none; stroke: #000000"/>
    <path d="M 160.172016 113.636971 
L 188.620154 116.42914 
" clip-path="url(#pe2d7b3736b)" style="fill: none; stroke: #000000"/>
    <path d="M 160.172016 113.636971 
L 195.493053 102.091034 
" clip-path="url(#pe2d7b3736b)" style="fill: none; stroke: #000000"/>
    <path d="M 160.172016 113.636971 
L 161.968804 125.95212 
" clip-path="url(#pe2d7b3736b)" style="fill: none; stroke: #000000"/>
    <path d="M 160.172016 113.636971 
L 210.273835 133.099351 
" clip-path="url(#pe2d7b3736b)" style="fill: none; stroke: #000000"/>
    <path d="M 160.172016 113.636971 
L 214.197541 108.363206 
" clip-path="url(#pe2d7b3736b)" style="fill: none; stroke: #000000"/>
    <path d="M 160.172016 113.636971 
L 218.986245 120.87286 
" clip-path="url(#pe2d7b3736b)" style="fill: none; stroke: #000000"/>
    <path d="M 160.172016 113.636971 
L 173.119064 103.162313 
" clip-path="url(#pe2d7b3736b)" style="fill: none; stroke: #000000"/>
    <path d="M 188.620154 116.42914 
L 195.493053 102.091034 
" clip-path="url(#pe2d7b3736b)" style="fill: none; stroke: #000000"/>
    <path d="M 188.620154 116.42914 
L 161.968804 125.95212 
" clip-path="url(#pe2d7b3736b)" style="fill: none; stroke: #000000"/>
    <path d="M 188.620154 116.42914 
L 210.273835 133.099351 
" clip-path="url(#pe2d7b3736b)" style="fill: none; stroke: #000000"/>
    <path d="M 188.620154 116.42914 
L 214.197541 108.363206 
" clip-path="url(#pe2d7b3736b)" style="fill: none; stroke: #000000"/>
    <path d="M 188.620154 116.42914 
L 218.986245 120.87286 
" clip-path="url(#pe2d7b3736b)" style="fill: none; stroke: #000000"/>
    <path d="M 188.620154 116.42914 
L 173.119064 103.162313 
" clip-path="url(#pe2d7b3736b)" style="fill: none; stroke: #000000"/>
    <path d="M 195.493053 102.091034 
L 161.968804 125.95212 
" clip-path="url(#pe2d7b3736b)" style="fill: none; stroke: #000000"/>
    <path d="M 195.493053 102.091034 
L 210.273835 133.099351 
" clip-path="url(#pe2d7b3736b)" style="fill: none; stroke: #000000"/>
    <path d="M 195.493053 102.091034 
L 214.197541 108.363206 
" clip-path="url(#pe2d7b3736b)" style="fill: none; stroke: #000000"/>
    <path d="M 195.493053 102.091034 
L 218.986245 120.87286 
" clip-path="url(#pe2d7b3736b)" style="fill: none; stroke: #000000"/>
    <path d="M 195.493053 102.091034 
L 173.119064 103.162313 
" clip-path="url(#pe2d7b3736b)" style="fill: none; stroke: #000000"/>
    <path d="M 161.968804 125.95212 
L 210.273835 133.099351 
" clip-path="url(#pe2d7b3736b)" style="fill: none; stroke: #000000"/>
    <path d="M 161.968804 125.95212 
L 214.197541 108.363206 
" clip-path="url(#pe2d7b3736b)" style="fill: none; stroke: #000000"/>
    <path d="M 161.968804 125.95212 
L 218.986245 120.87286 
" clip-path="url(#pe2d7b3736b)" style="fill: none; stroke: #000000"/>
    <path d="M 161.968804 125.95212 
L 173.119064 103.162313 
" clip-path="url(#pe2d7b3736b)" style="fill: none; stroke: #000000"/>
    <path d="M 210.273835 133.099351 
L 214.197541 108.363206 
" clip-path="url(#pe2d7b3736b)" style="fill: none; stroke: #000000"/>
    <path d="M 210.273835 133.099351 
L 218.986245 120.87286 
" clip-path="url(#pe2d7b3736b)" style="fill: none; stroke: #000000"/>
    <path d="M 210.273835 133.099351 
L 173.119064 103.162313 
" clip-path="url(#pe2d7b3736b)" style="fill: none; stroke: #000000"/>
    <path d="M 214.197541 108.363206 
L 218.986245 120.87286 
" clip-path="url(#pe2d7b3736b)" style="fill: none; stroke: #000000"/>
    <path d="M 214.197541 108.363206 
L 173.119064 103.162313 
" clip-path="url(#pe2d7b3736b)" style="fill: none; stroke: #000000"/>
    <path d="M 218.986245 120.87286 
L 173.119064 103.162313 
" clip-path="url(#pe2d7b3736b)" style="fill: none; stroke: #000000"/>
   </g>
   <g id="PathCollection_2">
    <g clip-path="url(#pe2d7b3736b)">
     <use xlink:href="#m1433e1cc2e" x="191.637265" y="130.563481" style="fill: #1f78b4; stroke: #1f78b4"/>
     <use xlink:href="#m1433e1cc2e" x="175.559002" y="136.849655" style="fill: #1f78b4; stroke: #1f78b4"/>
     <use xlink:href="#m1433e1cc2e" x="160.172016" y="113.636971" style="fill: #1f78b4; stroke: #1f78b4"/>
     <use xlink:href="#m1433e1cc2e" x="188.620154" y="116.42914" style="fill: #1f78b4; stroke: #1f78b4"/>
     <use xlink:href="#m1433e1cc2e" x="195.493053" y="102.091034" style="fill: #1f78b4; stroke: #1f78b4"/>
     <use xlink:href="#m1433e1cc2e" x="161.968804" y="125.95212" style="fill: #1f78b4; stroke: #1f78b4"/>
     <use xlink:href="#m1433e1cc2e" x="210.273835" y="133.099351" style="fill: #1f78b4; stroke: #1f78b4"/>
     <use xlink:href="#m1433e1cc2e" x="214.197541" y="108.363206" style="fill: #1f78b4; stroke: #1f78b4"/>
     <use xlink:href="#m1433e1cc2e" x="218.986245" y="120.87286" style="fill: #1f78b4; stroke: #1f78b4"/>
     <use xlink:href="#m1433e1cc2e" x="173.119064" y="103.162313" style="fill: #1f78b4; stroke: #1f78b4"/>
    </g>
   </g>
  </g>
  <g id="axes_7"/>
  <g id="axes_8">
   <g id="LineCollection_3">
    <path d="M 394.878719 112.085579 
L 387.849524 102.091034 
" clip-path="url(#p38faf56947)" style="fill: none; stroke: #000000"/>
    <path d="M 394.878719 112.085579 
L 364.926799 102.26482 
" clip-path="url(#p38faf56947)" style="fill: none; stroke: #000000"/>
    <path d="M 394.878719 112.085579 
L 346.495494 115.171499 
" clip-path="url(#p38faf56947)" style="fill: none; stroke: #000000"/>
    <path d="M 394.878719 112.085579 
L 378.208031 124.745889 
" clip-path="url(#p38faf56947)" style="fill: none; stroke: #000000"/>
    <path d="M 394.878719 112.085579 
L 405.309723 121.266749 
" clip-path="url(#p38faf56947)" style="fill: none; stroke: #000000"/>
    <path d="M 394.878719 112.085579 
L 370.72571 136.849655 
" clip-path="url(#p38faf56947)" style="fill: none; stroke: #000000"/>
    <path d="M 394.878719 112.085579 
L 352.631288 128.846035 
" clip-path="url(#p38faf56947)" style="fill: none; stroke: #000000"/>
    <path d="M 394.878719 112.085579 
L 394.058219 133.220085 
" clip-path="url(#p38faf56947)" style="fill: none; stroke: #000000"/>
    <path d="M 394.878719 112.085579 
L 365.610797 114.077086 
" clip-path="url(#p38faf56947)" style="fill: none; stroke: #000000"/>
    <path d="M 387.849524 102.091034 
L 364.926799 102.26482 
" clip-path="url(#p38faf56947)" style="fill: none; stroke: #000000"/>
    <path d="M 387.849524 102.091034 
L 346.495494 115.171499 
" clip-path="url(#p38faf56947)" style="fill: none; stroke: #000000"/>
    <path d="M 387.849524 102.091034 
L 378.208031 124.745889 
" clip-path="url(#p38faf56947)" style="fill: none; stroke: #000000"/>
    <path d="M 387.849524 102.091034 
L 405.309723 121.266749 
" clip-path="url(#p38faf56947)" style="fill: none; stroke: #000000"/>
    <path d="M 387.849524 102.091034 
L 370.72571 136.849655 
" clip-path="url(#p38faf56947)" style="fill: none; stroke: #000000"/>
    <path d="M 387.849524 102.091034 
L 352.631288 128.846035 
" clip-path="url(#p38faf56947)" style="fill: none; stroke: #000000"/>
    <path d="M 387.849524 102.091034 
L 394.058219 133.220085 
" clip-path="url(#p38faf56947)" style="fill: none; stroke: #000000"/>
    <path d="M 387.849524 102.091034 
L 365.610797 114.077086 
" clip-path="url(#p38faf56947)" style="fill: none; stroke: #000000"/>
    <path d="M 364.926799 102.26482 
L 346.495494 115.171499 
" clip-path="url(#p38faf56947)" style="fill: none; stroke: #000000"/>
    <path d="M 364.926799 102.26482 
L 378.208031 124.745889 
" clip-path="url(#p38faf56947)" style="fill: none; stroke: #000000"/>
    <path d="M 364.926799 102.26482 
L 405.309723 121.266749 
" clip-path="url(#p38faf56947)" style="fill: none; stroke: #000000"/>
    <path d="M 364.926799 102.26482 
L 370.72571 136.849655 
" clip-path="url(#p38faf56947)" style="fill: none; stroke: #000000"/>
    <path d="M 364.926799 102.26482 
L 352.631288 128.846035 
" clip-path="url(#p38faf56947)" style="fill: none; stroke: #000000"/>
    <path d="M 364.926799 102.26482 
L 394.058219 133.220085 
" clip-path="url(#p38faf56947)" style="fill: none; stroke: #000000"/>
    <path d="M 364.926799 102.26482 
L 365.610797 114.077086 
" clip-path="url(#p38faf56947)" style="fill: none; stroke: #000000"/>
    <path d="M 346.495494 115.171499 
L 378.208031 124.745889 
" clip-path="url(#p38faf56947)" style="fill: none; stroke: #000000"/>
    <path d="M 346.495494 115.171499 
L 405.309723 121.266749 
" clip-path="url(#p38faf56947)" style="fill: none; stroke: #000000"/>
    <path d="M 346.495494 115.171499 
L 370.72571 136.849655 
" clip-path="url(#p38faf56947)" style="fill: none; stroke: #000000"/>
    <path d="M 346.495494 115.171499 
L 352.631288 128.846035 
" clip-path="url(#p38faf56947)" style="fill: none; stroke: #000000"/>
    <path d="M 346.495494 115.171499 
L 394.058219 133.220085 
" clip-path="url(#p38faf56947)" style="fill: none; stroke: #000000"/>
    <path d="M 346.495494 115.171499 
L 365.610797 114.077086 
" clip-path="url(#p38faf56947)" style="fill: none; stroke: #000000"/>
    <path d="M 378.208031 124.745889 
L 405.309723 121.266749 
" clip-path="url(#p38faf56947)" style="fill: none; stroke: #000000"/>
    <path d="M 378.208031 124.745889 
L 370.72571 136.849655 
" clip-path="url(#p38faf56947)" style="fill: none; stroke: #000000"/>
    <path d="M 378.208031 124.745889 
L 352.631288 128.846035 
" clip-path="url(#p38faf56947)" style="fill: none; stroke: #000000"/>
    <path d="M 378.208031 124.745889 
L 394.058219 133.220085 
" clip-path="url(#p38faf56947)" style="fill: none; stroke: #000000"/>
    <path d="M 378.208031 124.745889 
L 365.610797 114.077086 
" clip-path="url(#p38faf56947)" style="fill: none; stroke: #000000"/>
    <path d="M 405.309723 121.266749 
L 370.72571 136.849655 
" clip-path="url(#p38faf56947)" style="fill: none; stroke: #000000"/>
    <path d="M 405.309723 121.266749 
L 352.631288 128.846035 
" clip-path="url(#p38faf56947)" style="fill: none; stroke: #000000"/>
    <path d="M 405.309723 121.266749 
L 394.058219 133.220085 
" clip-path="url(#p38faf56947)" style="fill: none; stroke: #000000"/>
    <path d="M 405.309723 121.266749 
L 365.610797 114.077086 
" clip-path="url(#p38faf56947)" style="fill: none; stroke: #000000"/>
    <path d="M 370.72571 136.849655 
L 352.631288 128.846035 
" clip-path="url(#p38faf56947)" style="fill: none; stroke: #000000"/>
    <path d="M 370.72571 136.849655 
L 394.058219 133.220085 
" clip-path="url(#p38faf56947)" style="fill: none; stroke: #000000"/>
    <path d="M 370.72571 136.849655 
L 365.610797 114.077086 
" clip-path="url(#p38faf56947)" style="fill: none; stroke: #000000"/>
    <path d="M 352.631288 128.846035 
L 394.058219 133.220085 
" clip-path="url(#p38faf56947)" style="fill: none; stroke: #000000"/>
    <path d="M 352.631288 128.846035 
L 365.610797 114.077086 
" clip-path="url(#p38faf56947)" style="fill: none; stroke: #000000"/>
    <path d="M 394.058219 133.220085 
L 365.610797 114.077086 
" clip-path="url(#p38faf56947)" style="fill: none; stroke: #000000"/>
   </g>
   <g id="PathCollection_3">
    <g clip-path="url(#p38faf56947)">
     <use xlink:href="#m1433e1cc2e" x="394.878719" y="112.085579" style="fill: #1f78b4; stroke: #1f78b4"/>
     <use xlink:href="#m1433e1cc2e" x="387.849524" y="102.091034" style="fill: #1f78b4; stroke: #1f78b4"/>
     <use xlink:href="#m1433e1cc2e" x="364.926799" y="102.26482" style="fill: #1f78b4; stroke: #1f78b4"/>
     <use xlink:href="#m1433e1cc2e" x="346.495494" y="115.171499" style="fill: #1f78b4; stroke: #1f78b4"/>
     <use xlink:href="#m1433e1cc2e" x="378.208031" y="124.745889" style="fill: #1f78b4; stroke: #1f78b4"/>
     <use xlink:href="#m1433e1cc2e" x="405.309723" y="121.266749" style="fill: #1f78b4; stroke: #1f78b4"/>
     <use xlink:href="#m1433e1cc2e" x="370.72571" y="136.849655" style="fill: #1f78b4; stroke: #1f78b4"/>
     <use xlink:href="#m1433e1cc2e" x="352.631288" y="128.846035" style="fill: #1f78b4; stroke: #1f78b4"/>
     <use xlink:href="#m1433e1cc2e" x="394.058219" y="133.220085" style="fill: #1f78b4; stroke: #1f78b4"/>
     <use xlink:href="#m1433e1cc2e" x="365.610797" y="114.077086" style="fill: #1f78b4; stroke: #1f78b4"/>
    </g>
   </g>
  </g>
  <g id="axes_9">
   <g id="LineCollection_4">
    <path d="M 105.118066 191.90731 
L 72.983416 190.791072 
" clip-path="url(#p19f623c04d)" style="fill: none; stroke: #000000"/>
    <path d="M 105.118066 191.90731 
L 125.824506 180.689503 
" clip-path="url(#p19f623c04d)" style="fill: none; stroke: #000000"/>
    <path d="M 105.118066 191.90731 
L 72.876133 176.176423 
" clip-path="url(#p19f623c04d)" style="fill: none; stroke: #000000"/>
    <path d="M 105.118066 191.90731 
L 67.010277 161.928707 
" clip-path="url(#p19f623c04d)" style="fill: none; stroke: #000000"/>
    <path d="M 105.118066 191.90731 
L 97.495261 157.14869 
" clip-path="url(#p19f623c04d)" style="fill: none; stroke: #000000"/>
    <path d="M 105.118066 191.90731 
L 123.84021 164.585792 
" clip-path="url(#p19f623c04d)" style="fill: none; stroke: #000000"/>
    <path d="M 72.983416 190.791072 
L 125.824506 180.689503 
" clip-path="url(#p19f623c04d)" style="fill: none; stroke: #000000"/>
    <path d="M 72.983416 190.791072 
L 72.876133 176.176423 
" clip-path="url(#p19f623c04d)" style="fill: none; stroke: #000000"/>
    <path d="M 72.983416 190.791072 
L 67.010277 161.928707 
" clip-path="url(#p19f623c04d)" style="fill: none; stroke: #000000"/>
    <path d="M 72.983416 190.791072 
L 97.495261 157.14869 
" clip-path="url(#p19f623c04d)" style="fill: none; stroke: #000000"/>
    <path d="M 72.983416 190.791072 
L 123.84021 164.585792 
" clip-path="url(#p19f623c04d)" style="fill: none; stroke: #000000"/>
    <path d="M 125.824506 180.689503 
L 72.876133 176.176423 
" clip-path="url(#p19f623c04d)" style="fill: none; stroke: #000000"/>
    <path d="M 125.824506 180.689503 
L 67.010277 161.928707 
" clip-path="url(#p19f623c04d)" style="fill: none; stroke: #000000"/>
    <path d="M 125.824506 180.689503 
L 97.495261 157.14869 
" clip-path="url(#p19f623c04d)" style="fill: none; stroke: #000000"/>
    <path d="M 125.824506 180.689503 
L 123.84021 164.585792 
" clip-path="url(#p19f623c04d)" style="fill: none; stroke: #000000"/>
    <path d="M 72.876133 176.176423 
L 67.010277 161.928707 
" clip-path="url(#p19f623c04d)" style="fill: none; stroke: #000000"/>
    <path d="M 72.876133 176.176423 
L 97.495261 157.14869 
" clip-path="url(#p19f623c04d)" style="fill: none; stroke: #000000"/>
    <path d="M 72.876133 176.176423 
L 123.84021 164.585792 
" clip-path="url(#p19f623c04d)" style="fill: none; stroke: #000000"/>
    <path d="M 67.010277 161.928707 
L 97.495261 157.14869 
" clip-path="url(#p19f623c04d)" style="fill: none; stroke: #000000"/>
    <path d="M 67.010277 161.928707 
L 123.84021 164.585792 
" clip-path="url(#p19f623c04d)" style="fill: none; stroke: #000000"/>
    <path d="M 97.495261 157.14869 
L 123.84021 164.585792 
" clip-path="url(#p19f623c04d)" style="fill: none; stroke: #000000"/>
   </g>
   <g id="PathCollection_4">
    <g clip-path="url(#p19f623c04d)">
     <use xlink:href="#m1433e1cc2e" x="105.118066" y="191.90731" style="fill: #1f78b4; stroke: #1f78b4"/>
     <use xlink:href="#m1433e1cc2e" x="72.983416" y="190.791072" style="fill: #1f78b4; stroke: #1f78b4"/>
     <use xlink:href="#m1433e1cc2e" x="125.824506" y="180.689503" style="fill: #1f78b4; stroke: #1f78b4"/>
     <use xlink:href="#m1433e1cc2e" x="72.876133" y="176.176423" style="fill: #1f78b4; stroke: #1f78b4"/>
     <use xlink:href="#m1433e1cc2e" x="67.010277" y="161.928707" style="fill: #1f78b4; stroke: #1f78b4"/>
     <use xlink:href="#m1433e1cc2e" x="97.495261" y="157.14869" style="fill: #1f78b4; stroke: #1f78b4"/>
     <use xlink:href="#m1433e1cc2e" x="123.84021" y="164.585792" style="fill: #1f78b4; stroke: #1f78b4"/>
    </g>
   </g>
  </g>
  <g id="axes_10"/>
  <g id="axes_11"/>
  <g id="axes_12"/>
  <g id="axes_13"/>
  <g id="axes_14"/>
  <g id="axes_15"/>
  <g id="axes_16"/>
  <g id="axes_17">
   <g id="LineCollection_5">
    <path d="M 70.320943 275.068456 
L 125.824506 275.547651 
" clip-path="url(#p6353fd5e86)" style="fill: none; stroke: #000000"/>
    <path d="M 70.320943 275.068456 
L 88.144934 268.544003 
" clip-path="url(#p6353fd5e86)" style="fill: none; stroke: #000000"/>
    <path d="M 70.320943 275.068456 
L 92.968043 285.11898 
" clip-path="url(#p6353fd5e86)" style="fill: none; stroke: #000000"/>
    <path d="M 70.320943 275.068456 
L 117.956415 285.715956 
" clip-path="url(#p6353fd5e86)" style="fill: none; stroke: #000000"/>
    <path d="M 70.320943 275.068456 
L 101.003553 302.022621 
" clip-path="url(#p6353fd5e86)" style="fill: none; stroke: #000000"/>
    <path d="M 70.320943 275.068456 
L 79.695966 299.47631 
" clip-path="url(#p6353fd5e86)" style="fill: none; stroke: #000000"/>
    <path d="M 70.320943 275.068456 
L 108.240229 267.264 
" clip-path="url(#p6353fd5e86)" style="fill: none; stroke: #000000"/>
    <path d="M 70.320943 275.068456 
L 121.943926 296.888603 
" clip-path="url(#p6353fd5e86)" style="fill: none; stroke: #000000"/>
    <path d="M 70.320943 275.068456 
L 67.010277 288.43266 
" clip-path="url(#p6353fd5e86)" style="fill: none; stroke: #000000"/>
    <path d="M 125.824506 275.547651 
L 88.144934 268.544003 
" clip-path="url(#p6353fd5e86)" style="fill: none; stroke: #000000"/>
    <path d="M 125.824506 275.547651 
L 92.968043 285.11898 
" clip-path="url(#p6353fd5e86)" style="fill: none; stroke: #000000"/>
    <path d="M 125.824506 275.547651 
L 117.956415 285.715956 
" clip-path="url(#p6353fd5e86)" style="fill: none; stroke: #000000"/>
    <path d="M 125.824506 275.547651 
L 101.003553 302.022621 
" clip-path="url(#p6353fd5e86)" style="fill: none; stroke: #000000"/>
    <path d="M 125.824506 275.547651 
L 79.695966 299.47631 
" clip-path="url(#p6353fd5e86)" style="fill: none; stroke: #000000"/>
    <path d="M 125.824506 275.547651 
L 108.240229 267.264 
" clip-path="url(#p6353fd5e86)" style="fill: none; stroke: #000000"/>
    <path d="M 125.824506 275.547651 
L 121.943926 296.888603 
" clip-path="url(#p6353fd5e86)" style="fill: none; stroke: #000000"/>
    <path d="M 125.824506 275.547651 
L 67.010277 288.43266 
" clip-path="url(#p6353fd5e86)" style="fill: none; stroke: #000000"/>
    <path d="M 88.144934 268.544003 
L 92.968043 285.11898 
" clip-path="url(#p6353fd5e86)" style="fill: none; stroke: #000000"/>
    <path d="M 88.144934 268.544003 
L 117.956415 285.715956 
" clip-path="url(#p6353fd5e86)" style="fill: none; stroke: #000000"/>
    <path d="M 88.144934 268.544003 
L 101.003553 302.022621 
" clip-path="url(#p6353fd5e86)" style="fill: none; stroke: #000000"/>
    <path d="M 88.144934 268.544003 
L 79.695966 299.47631 
" clip-path="url(#p6353fd5e86)" style="fill: none; stroke: #000000"/>
    <path d="M 88.144934 268.544003 
L 108.240229 267.264 
" clip-path="url(#p6353fd5e86)" style="fill: none; stroke: #000000"/>
    <path d="M 88.144934 268.544003 
L 121.943926 296.888603 
" clip-path="url(#p6353fd5e86)" style="fill: none; stroke: #000000"/>
    <path d="M 88.144934 268.544003 
L 67.010277 288.43266 
" clip-path="url(#p6353fd5e86)" style="fill: none; stroke: #000000"/>
    <path d="M 92.968043 285.11898 
L 117.956415 285.715956 
" clip-path="url(#p6353fd5e86)" style="fill: none; stroke: #000000"/>
    <path d="M 92.968043 285.11898 
L 101.003553 302.022621 
" clip-path="url(#p6353fd5e86)" style="fill: none; stroke: #000000"/>
    <path d="M 92.968043 285.11898 
L 79.695966 299.47631 
" clip-path="url(#p6353fd5e86)" style="fill: none; stroke: #000000"/>
    <path d="M 92.968043 285.11898 
L 108.240229 267.264 
" clip-path="url(#p6353fd5e86)" style="fill: none; stroke: #000000"/>
    <path d="M 92.968043 285.11898 
L 121.943926 296.888603 
" clip-path="url(#p6353fd5e86)" style="fill: none; stroke: #000000"/>
    <path d="M 92.968043 285.11898 
L 67.010277 288.43266 
" clip-path="url(#p6353fd5e86)" style="fill: none; stroke: #000000"/>
    <path d="M 117.956415 285.715956 
L 101.003553 302.022621 
" clip-path="url(#p6353fd5e86)" style="fill: none; stroke: #000000"/>
    <path d="M 117.956415 285.715956 
L 79.695966 299.47631 
" clip-path="url(#p6353fd5e86)" style="fill: none; stroke: #000000"/>
    <path d="M 117.956415 285.715956 
L 108.240229 267.264 
" clip-path="url(#p6353fd5e86)" style="fill: none; stroke: #000000"/>
    <path d="M 117.956415 285.715956 
L 121.943926 296.888603 
" clip-path="url(#p6353fd5e86)" style="fill: none; stroke: #000000"/>
    <path d="M 117.956415 285.715956 
L 67.010277 288.43266 
" clip-path="url(#p6353fd5e86)" style="fill: none; stroke: #000000"/>
    <path d="M 101.003553 302.022621 
L 79.695966 299.47631 
" clip-path="url(#p6353fd5e86)" style="fill: none; stroke: #000000"/>
    <path d="M 101.003553 302.022621 
L 108.240229 267.264 
" clip-path="url(#p6353fd5e86)" style="fill: none; stroke: #000000"/>
    <path d="M 101.003553 302.022621 
L 121.943926 296.888603 
" clip-path="url(#p6353fd5e86)" style="fill: none; stroke: #000000"/>
    <path d="M 101.003553 302.022621 
L 67.010277 288.43266 
" clip-path="url(#p6353fd5e86)" style="fill: none; stroke: #000000"/>
    <path d="M 79.695966 299.47631 
L 108.240229 267.264 
" clip-path="url(#p6353fd5e86)" style="fill: none; stroke: #000000"/>
    <path d="M 79.695966 299.47631 
L 121.943926 296.888603 
" clip-path="url(#p6353fd5e86)" style="fill: none; stroke: #000000"/>
    <path d="M 79.695966 299.47631 
L 67.010277 288.43266 
" clip-path="url(#p6353fd5e86)" style="fill: none; stroke: #000000"/>
    <path d="M 108.240229 267.264 
L 121.943926 296.888603 
" clip-path="url(#p6353fd5e86)" style="fill: none; stroke: #000000"/>
    <path d="M 108.240229 267.264 
L 67.010277 288.43266 
" clip-path="url(#p6353fd5e86)" style="fill: none; stroke: #000000"/>
    <path d="M 121.943926 296.888603 
L 67.010277 288.43266 
" clip-path="url(#p6353fd5e86)" style="fill: none; stroke: #000000"/>
   </g>
   <g id="PathCollection_5">
    <g clip-path="url(#p6353fd5e86)">
     <use xlink:href="#m1433e1cc2e" x="70.320943" y="275.068456" style="fill: #1f78b4; stroke: #1f78b4"/>
     <use xlink:href="#m1433e1cc2e" x="125.824506" y="275.547651" style="fill: #1f78b4; stroke: #1f78b4"/>
     <use xlink:href="#m1433e1cc2e" x="88.144934" y="268.544003" style="fill: #1f78b4; stroke: #1f78b4"/>
     <use xlink:href="#m1433e1cc2e" x="92.968043" y="285.11898" style="fill: #1f78b4; stroke: #1f78b4"/>
     <use xlink:href="#m1433e1cc2e" x="117.956415" y="285.715956" style="fill: #1f78b4; stroke: #1f78b4"/>
     <use xlink:href="#m1433e1cc2e" x="101.003553" y="302.022621" style="fill: #1f78b4; stroke: #1f78b4"/>
     <use xlink:href="#m1433e1cc2e" x="79.695966" y="299.47631" style="fill: #1f78b4; stroke: #1f78b4"/>
     <use xlink:href="#m1433e1cc2e" x="108.240229" y="267.264" style="fill: #1f78b4; stroke: #1f78b4"/>
     <use xlink:href="#m1433e1cc2e" x="121.943926" y="296.888603" style="fill: #1f78b4; stroke: #1f78b4"/>
     <use xlink:href="#m1433e1cc2e" x="67.010277" y="288.43266" style="fill: #1f78b4; stroke: #1f78b4"/>
    </g>
   </g>
  </g>
  <g id="axes_18"/>
  <g id="axes_19"/>
  <g id="axes_20"/>
  <g id="text_1">
   <!-- reconstruction data -->
   <g transform="translate(171.643125 16.030125) scale(0.12 -0.12)">
    <defs>
     <path id="DejaVuSans-72" d="M 2631 2963 
Q 2534 3019 2420 3045 
Q 2306 3072 2169 3072 
Q 1681 3072 1420 2755 
Q 1159 2438 1159 1844 
L 1159 0 
L 581 0 
L 581 3500 
L 1159 3500 
L 1159 2956 
Q 1341 3275 1631 3429 
Q 1922 3584 2338 3584 
Q 2397 3584 2469 3576 
Q 2541 3569 2628 3553 
L 2631 2963 
z
" transform="scale(0.015625)"/>
     <path id="DejaVuSans-65" d="M 3597 1894 
L 3597 1613 
L 953 1613 
Q 991 1019 1311 708 
Q 1631 397 2203 397 
Q 2534 397 2845 478 
Q 3156 559 3463 722 
L 3463 178 
Q 3153 47 2828 -22 
Q 2503 -91 2169 -91 
Q 1331 -91 842 396 
Q 353 884 353 1716 
Q 353 2575 817 3079 
Q 1281 3584 2069 3584 
Q 2775 3584 3186 3129 
Q 3597 2675 3597 1894 
z
M 3022 2063 
Q 3016 2534 2758 2815 
Q 2500 3097 2075 3097 
Q 1594 3097 1305 2825 
Q 1016 2553 972 2059 
L 3022 2063 
z
" transform="scale(0.015625)"/>
     <path id="DejaVuSans-63" d="M 3122 3366 
L 3122 2828 
Q 2878 2963 2633 3030 
Q 2388 3097 2138 3097 
Q 1578 3097 1268 2742 
Q 959 2388 959 1747 
Q 959 1106 1268 751 
Q 1578 397 2138 397 
Q 2388 397 2633 464 
Q 2878 531 3122 666 
L 3122 134 
Q 2881 22 2623 -34 
Q 2366 -91 2075 -91 
Q 1284 -91 818 406 
Q 353 903 353 1747 
Q 353 2603 823 3093 
Q 1294 3584 2113 3584 
Q 2378 3584 2631 3529 
Q 2884 3475 3122 3366 
z
" transform="scale(0.015625)"/>
     <path id="DejaVuSans-6f" d="M 1959 3097 
Q 1497 3097 1228 2736 
Q 959 2375 959 1747 
Q 959 1119 1226 758 
Q 1494 397 1959 397 
Q 2419 397 2687 759 
Q 2956 1122 2956 1747 
Q 2956 2369 2687 2733 
Q 2419 3097 1959 3097 
z
M 1959 3584 
Q 2709 3584 3137 3096 
Q 3566 2609 3566 1747 
Q 3566 888 3137 398 
Q 2709 -91 1959 -91 
Q 1206 -91 779 398 
Q 353 888 353 1747 
Q 353 2609 779 3096 
Q 1206 3584 1959 3584 
z
" transform="scale(0.015625)"/>
     <path id="DejaVuSans-6e" d="M 3513 2113 
L 3513 0 
L 2938 0 
L 2938 2094 
Q 2938 2591 2744 2837 
Q 2550 3084 2163 3084 
Q 1697 3084 1428 2787 
Q 1159 2491 1159 1978 
L 1159 0 
L 581 0 
L 581 3500 
L 1159 3500 
L 1159 2956 
Q 1366 3272 1645 3428 
Q 1925 3584 2291 3584 
Q 2894 3584 3203 3211 
Q 3513 2838 3513 2113 
z
" transform="scale(0.015625)"/>
     <path id="DejaVuSans-73" d="M 2834 3397 
L 2834 2853 
Q 2591 2978 2328 3040 
Q 2066 3103 1784 3103 
Q 1356 3103 1142 2972 
Q 928 2841 928 2578 
Q 928 2378 1081 2264 
Q 1234 2150 1697 2047 
L 1894 2003 
Q 2506 1872 2764 1633 
Q 3022 1394 3022 966 
Q 3022 478 2636 193 
Q 2250 -91 1575 -91 
Q 1294 -91 989 -36 
Q 684 19 347 128 
L 347 722 
Q 666 556 975 473 
Q 1284 391 1588 391 
Q 1994 391 2212 530 
Q 2431 669 2431 922 
Q 2431 1156 2273 1281 
Q 2116 1406 1581 1522 
L 1381 1569 
Q 847 1681 609 1914 
Q 372 2147 372 2553 
Q 372 3047 722 3315 
Q 1072 3584 1716 3584 
Q 2034 3584 2315 3537 
Q 2597 3491 2834 3397 
z
" transform="scale(0.015625)"/>
     <path id="DejaVuSans-74" d="M 1172 4494 
L 1172 3500 
L 2356 3500 
L 2356 3053 
L 1172 3053 
L 1172 1153 
Q 1172 725 1289 603 
Q 1406 481 1766 481 
L 2356 481 
L 2356 0 
L 1766 0 
Q 1100 0 847 248 
Q 594 497 594 1153 
L 594 3053 
L 172 3053 
L 172 3500 
L 594 3500 
L 594 4494 
L 1172 4494 
z
" transform="scale(0.015625)"/>
     <path id="DejaVuSans-75" d="M 544 1381 
L 544 3500 
L 1119 3500 
L 1119 1403 
Q 1119 906 1312 657 
Q 1506 409 1894 409 
Q 2359 409 2629 706 
Q 2900 1003 2900 1516 
L 2900 3500 
L 3475 3500 
L 3475 0 
L 2900 0 
L 2900 538 
Q 2691 219 2414 64 
Q 2138 -91 1772 -91 
Q 1169 -91 856 284 
Q 544 659 544 1381 
z
M 1991 3584 
L 1991 3584 
z
" transform="scale(0.015625)"/>
     <path id="DejaVuSans-69" d="M 603 3500 
L 1178 3500 
L 1178 0 
L 603 0 
L 603 3500 
z
M 603 4863 
L 1178 4863 
L 1178 4134 
L 603 4134 
L 603 4863 
z
" transform="scale(0.015625)"/>
     <path id="DejaVuSans-20" transform="scale(0.015625)"/>
     <path id="DejaVuSans-64" d="M 2906 2969 
L 2906 4863 
L 3481 4863 
L 3481 0 
L 2906 0 
L 2906 525 
Q 2725 213 2448 61 
Q 2172 -91 1784 -91 
Q 1150 -91 751 415 
Q 353 922 353 1747 
Q 353 2572 751 3078 
Q 1150 3584 1784 3584 
Q 2172 3584 2448 3432 
Q 2725 3281 2906 2969 
z
M 947 1747 
Q 947 1113 1208 752 
Q 1469 391 1925 391 
Q 2381 391 2643 752 
Q 2906 1113 2906 1747 
Q 2906 2381 2643 2742 
Q 2381 3103 1925 3103 
Q 1469 3103 1208 2742 
Q 947 2381 947 1747 
z
" transform="scale(0.015625)"/>
     <path id="DejaVuSans-61" d="M 2194 1759 
Q 1497 1759 1228 1600 
Q 959 1441 959 1056 
Q 959 750 1161 570 
Q 1363 391 1709 391 
Q 2188 391 2477 730 
Q 2766 1069 2766 1631 
L 2766 1759 
L 2194 1759 
z
M 3341 1997 
L 3341 0 
L 2766 0 
L 2766 531 
Q 2569 213 2275 61 
Q 1981 -91 1556 -91 
Q 1019 -91 701 211 
Q 384 513 384 1019 
Q 384 1609 779 1909 
Q 1175 2209 1959 2209 
L 2766 2209 
L 2766 2266 
Q 2766 2663 2505 2880 
Q 2244 3097 1772 3097 
Q 1472 3097 1187 3025 
Q 903 2953 641 2809 
L 641 3341 
Q 956 3463 1253 3523 
Q 1550 3584 1831 3584 
Q 2591 3584 2966 3190 
Q 3341 2797 3341 1997 
z
" transform="scale(0.015625)"/>
    </defs>
    <use xlink:href="#DejaVuSans-72"/>
    <use xlink:href="#DejaVuSans-65" x="38.863281"/>
    <use xlink:href="#DejaVuSans-63" x="100.386719"/>
    <use xlink:href="#DejaVuSans-6f" x="155.367188"/>
    <use xlink:href="#DejaVuSans-6e" x="216.548828"/>
    <use xlink:href="#DejaVuSans-73" x="279.927734"/>
    <use xlink:href="#DejaVuSans-74" x="332.027344"/>
    <use xlink:href="#DejaVuSans-72" x="371.236328"/>
    <use xlink:href="#DejaVuSans-75" x="412.349609"/>
    <use xlink:href="#DejaVuSans-63" x="475.728516"/>
    <use xlink:href="#DejaVuSans-74" x="530.708984"/>
    <use xlink:href="#DejaVuSans-69" x="569.917969"/>
    <use xlink:href="#DejaVuSans-6f" x="597.701172"/>
    <use xlink:href="#DejaVuSans-6e" x="658.882812"/>
    <use xlink:href="#DejaVuSans-20" x="722.261719"/>
    <use xlink:href="#DejaVuSans-64" x="754.048828"/>
    <use xlink:href="#DejaVuSans-61" x="817.525391"/>
    <use xlink:href="#DejaVuSans-74" x="878.804688"/>
    <use xlink:href="#DejaVuSans-61" x="918.013672"/>
   </g>
  </g>
 </g>
 <defs>
  <clipPath id="p7e5f02d374">
   <rect x="57.6" y="41.472" width="77.634783" height="45.881379"/>
  </clipPath>
  <clipPath id="pe2d7b3736b">
   <rect x="150.761739" y="96.529655" width="77.634783" height="45.881379"/>
  </clipPath>
  <clipPath id="p38faf56947">
   <rect x="337.085217" y="96.529655" width="77.634783" height="45.881379"/>
  </clipPath>
  <clipPath id="p19f623c04d">
   <rect x="57.6" y="151.58731" width="77.634783" height="45.881379"/>
  </clipPath>
  <clipPath id="p6353fd5e86">
   <rect x="57.6" y="261.702621" width="77.634783" height="45.881379"/>
  </clipPath>
 </defs>
</svg>
