<?xml version="1.0" encoding="utf-8" standalone="no"?>
<!DOCTYPE svg PUBLIC "-//W3C//DTD SVG 1.1//EN"
  "http://www.w3.org/Graphics/SVG/1.1/DTD/svg11.dtd">
<svg xmlns:xlink="http://www.w3.org/1999/xlink" width="460.8pt" height="345.6pt" viewBox="0 0 460.8 345.6" xmlns="http://www.w3.org/2000/svg" version="1.1">
 <metadata>
  <rdf:RDF xmlns:dc="http://purl.org/dc/elements/1.1/" xmlns:cc="http://creativecommons.org/ns#" xmlns:rdf="http://www.w3.org/1999/02/22-rdf-syntax-ns#">
   <cc:Work>
    <dc:type rdf:resource="http://purl.org/dc/dcmitype/StillImage"/>
    <dc:date>2024-12-23T13:42:52.911441</dc:date>
    <dc:format>image/svg+xml</dc:format>
    <dc:creator>
     <cc:Agent>
      <dc:title>Matplotlib v3.7.5, https://matplotlib.org/</dc:title>
     </cc:Agent>
    </dc:creator>
   </cc:Work>
  </rdf:RDF>
 </metadata>
 <defs>
  <style type="text/css">*{stroke-linejoin: round; stroke-linecap: butt}</style>
 </defs>
 <g id="figure_1">
  <g id="patch_1">
   <path d="M 0 345.6 
L 460.8 345.6 
L 460.8 0 
L 0 0 
z
" style="fill: #ffffff"/>
  </g>
  <g id="axes_1"/>
  <g id="axes_2"/>
  <g id="axes_3"/>
  <g id="axes_4"/>
  <g id="axes_5"/>
  <g id="axes_6"/>
  <g id="axes_7"/>
  <g id="axes_8">
   <g id="LineCollection_1">
    <path d="M 373.774892 102.091034 
L 380.033948 123.019794 
" clip-path="url(#p33d4990aa2)" style="fill: none; stroke: #000000"/>
    <path d="M 373.774892 102.091034 
L 366.819214 112.747048 
" clip-path="url(#p33d4990aa2)" style="fill: none; stroke: #000000"/>
    <path d="M 373.774892 102.091034 
L 393.851736 107.821579 
" clip-path="url(#p33d4990aa2)" style="fill: none; stroke: #000000"/>
    <path d="M 373.774892 102.091034 
L 399.519882 130.228034 
" clip-path="url(#p33d4990aa2)" style="fill: none; stroke: #000000"/>
    <path d="M 373.774892 102.091034 
L 358.681373 133.337719 
" clip-path="url(#p33d4990aa2)" style="fill: none; stroke: #000000"/>
    <path d="M 373.774892 102.091034 
L 405.309723 117.772371 
" clip-path="url(#p33d4990aa2)" style="fill: none; stroke: #000000"/>
    <path d="M 373.774892 102.091034 
L 346.495494 124.079379 
" clip-path="url(#p33d4990aa2)" style="fill: none; stroke: #000000"/>
    <path d="M 373.774892 102.091034 
L 379.254998 136.849655 
" clip-path="url(#p33d4990aa2)" style="fill: none; stroke: #000000"/>
    <path d="M 373.774892 102.091034 
L 347.181062 111.167814 
" clip-path="url(#p33d4990aa2)" style="fill: none; stroke: #000000"/>
    <path d="M 380.033948 123.019794 
L 366.819214 112.747048 
" clip-path="url(#p33d4990aa2)" style="fill: none; stroke: #000000"/>
    <path d="M 380.033948 123.019794 
L 393.851736 107.821579 
" clip-path="url(#p33d4990aa2)" style="fill: none; stroke: #000000"/>
    <path d="M 380.033948 123.019794 
L 399.519882 130.228034 
" clip-path="url(#p33d4990aa2)" style="fill: none; stroke: #000000"/>
    <path d="M 380.033948 123.019794 
L 358.681373 133.337719 
" clip-path="url(#p33d4990aa2)" style="fill: none; stroke: #000000"/>
    <path d="M 380.033948 123.019794 
L 405.309723 117.772371 
" clip-path="url(#p33d4990aa2)" style="fill: none; stroke: #000000"/>
    <path d="M 380.033948 123.019794 
L 346.495494 124.079379 
" clip-path="url(#p33d4990aa2)" style="fill: none; stroke: #000000"/>
    <path d="M 380.033948 123.019794 
L 379.254998 136.849655 
" clip-path="url(#p33d4990aa2)" style="fill: none; stroke: #000000"/>
    <path d="M 380.033948 123.019794 
L 347.181062 111.167814 
" clip-path="url(#p33d4990aa2)" style="fill: none; stroke: #000000"/>
    <path d="M 366.819214 112.747048 
L 393.851736 107.821579 
" clip-path="url(#p33d4990aa2)" style="fill: none; stroke: #000000"/>
    <path d="M 366.819214 112.747048 
L 399.519882 130.228034 
" clip-path="url(#p33d4990aa2)" style="fill: none; stroke: #000000"/>
    <path d="M 366.819214 112.747048 
L 358.681373 133.337719 
" clip-path="url(#p33d4990aa2)" style="fill: none; stroke: #000000"/>
    <path d="M 366.819214 112.747048 
L 405.309723 117.772371 
" clip-path="url(#p33d4990aa2)" style="fill: none; stroke: #000000"/>
    <path d="M 366.819214 112.747048 
L 346.495494 124.079379 
" clip-path="url(#p33d4990aa2)" style="fill: none; stroke: #000000"/>
    <path d="M 366.819214 112.747048 
L 379.254998 136.849655 
" clip-path="url(#p33d4990aa2)" style="fill: none; stroke: #000000"/>
    <path d="M 366.819214 112.747048 
L 347.181062 111.167814 
" clip-path="url(#p33d4990aa2)" style="fill: none; stroke: #000000"/>
    <path d="M 393.851736 107.821579 
L 399.519882 130.228034 
" clip-path="url(#p33d4990aa2)" style="fill: none; stroke: #000000"/>
    <path d="M 393.851736 107.821579 
L 358.681373 133.337719 
" clip-path="url(#p33d4990aa2)" style="fill: none; stroke: #000000"/>
    <path d="M 393.851736 107.821579 
L 405.309723 117.772371 
" clip-path="url(#p33d4990aa2)" style="fill: none; stroke: #000000"/>
    <path d="M 393.851736 107.821579 
L 346.495494 124.079379 
" clip-path="url(#p33d4990aa2)" style="fill: none; stroke: #000000"/>
    <path d="M 393.851736 107.821579 
L 379.254998 136.849655 
" clip-path="url(#p33d4990aa2)" style="fill: none; stroke: #000000"/>
    <path d="M 393.851736 107.821579 
L 347.181062 111.167814 
" clip-path="url(#p33d4990aa2)" style="fill: none; stroke: #000000"/>
    <path d="M 399.519882 130.228034 
L 358.681373 133.337719 
" clip-path="url(#p33d4990aa2)" style="fill: none; stroke: #000000"/>
    <path d="M 399.519882 130.228034 
L 405.309723 117.772371 
" clip-path="url(#p33d4990aa2)" style="fill: none; stroke: #000000"/>
    <path d="M 399.519882 130.228034 
L 346.495494 124.079379 
" clip-path="url(#p33d4990aa2)" style="fill: none; stroke: #000000"/>
    <path d="M 399.519882 130.228034 
L 379.254998 136.849655 
" clip-path="url(#p33d4990aa2)" style="fill: none; stroke: #000000"/>
    <path d="M 399.519882 130.228034 
L 347.181062 111.167814 
" clip-path="url(#p33d4990aa2)" style="fill: none; stroke: #000000"/>
    <path d="M 358.681373 133.337719 
L 405.309723 117.772371 
" clip-path="url(#p33d4990aa2)" style="fill: none; stroke: #000000"/>
    <path d="M 358.681373 133.337719 
L 346.495494 124.079379 
" clip-path="url(#p33d4990aa2)" style="fill: none; stroke: #000000"/>
    <path d="M 358.681373 133.337719 
L 379.254998 136.849655 
" clip-path="url(#p33d4990aa2)" style="fill: none; stroke: #000000"/>
    <path d="M 358.681373 133.337719 
L 347.181062 111.167814 
" clip-path="url(#p33d4990aa2)" style="fill: none; stroke: #000000"/>
    <path d="M 405.309723 117.772371 
L 346.495494 124.079379 
" clip-path="url(#p33d4990aa2)" style="fill: none; stroke: #000000"/>
    <path d="M 405.309723 117.772371 
L 379.254998 136.849655 
" clip-path="url(#p33d4990aa2)" style="fill: none; stroke: #000000"/>
    <path d="M 405.309723 117.772371 
L 347.181062 111.167814 
" clip-path="url(#p33d4990aa2)" style="fill: none; stroke: #000000"/>
    <path d="M 346.495494 124.079379 
L 379.254998 136.849655 
" clip-path="url(#p33d4990aa2)" style="fill: none; stroke: #000000"/>
    <path d="M 346.495494 124.079379 
L 347.181062 111.167814 
" clip-path="url(#p33d4990aa2)" style="fill: none; stroke: #000000"/>
    <path d="M 379.254998 136.849655 
L 347.181062 111.167814 
" clip-path="url(#p33d4990aa2)" style="fill: none; stroke: #000000"/>
   </g>
   <g id="PathCollection_1">
    <defs>
     <path id="m59154dbf13" d="M 0 1.732051 
C 0.459345 1.732051 0.899939 1.549551 1.224745 1.224745 
C 1.549551 0.899939 1.732051 0.459345 1.732051 0 
C 1.732051 -0.459345 1.549551 -0.899939 1.224745 -1.224745 
C 0.899939 -1.549551 0.459345 -1.732051 0 -1.732051 
C -0.459345 -1.732051 -0.899939 -1.549551 -1.224745 -1.224745 
C -1.549551 -0.899939 -1.732051 -0.459345 -1.732051 0 
C -1.732051 0.459345 -1.549551 0.899939 -1.224745 1.224745 
C -0.899939 1.549551 -0.459345 1.732051 0 1.732051 
z
" style="stroke: #1f78b4"/>
    </defs>
    <g clip-path="url(#p33d4990aa2)">
     <use xlink:href="#m59154dbf13" x="373.774892" y="102.091034" style="fill: #1f78b4; stroke: #1f78b4"/>
     <use xlink:href="#m59154dbf13" x="380.033948" y="123.019794" style="fill: #1f78b4; stroke: #1f78b4"/>
     <use xlink:href="#m59154dbf13" x="366.819214" y="112.747048" style="fill: #1f78b4; stroke: #1f78b4"/>
     <use xlink:href="#m59154dbf13" x="393.851736" y="107.821579" style="fill: #1f78b4; stroke: #1f78b4"/>
     <use xlink:href="#m59154dbf13" x="399.519882" y="130.228034" style="fill: #1f78b4; stroke: #1f78b4"/>
     <use xlink:href="#m59154dbf13" x="358.681373" y="133.337719" style="fill: #1f78b4; stroke: #1f78b4"/>
     <use xlink:href="#m59154dbf13" x="405.309723" y="117.772371" style="fill: #1f78b4; stroke: #1f78b4"/>
     <use xlink:href="#m59154dbf13" x="346.495494" y="124.079379" style="fill: #1f78b4; stroke: #1f78b4"/>
     <use xlink:href="#m59154dbf13" x="379.254998" y="136.849655" style="fill: #1f78b4; stroke: #1f78b4"/>
     <use xlink:href="#m59154dbf13" x="347.181062" y="111.167814" style="fill: #1f78b4; stroke: #1f78b4"/>
    </g>
   </g>
  </g>
  <g id="axes_9">
   <g id="LineCollection_2">
    <path d="M 125.824506 168.376044 
L 95.830079 180.154712 
" clip-path="url(#p31619ab918)" style="fill: none; stroke: #000000"/>
    <path d="M 125.824506 168.376044 
L 74.871981 186.809571 
" clip-path="url(#p31619ab918)" style="fill: none; stroke: #000000"/>
    <path d="M 125.824506 168.376044 
L 123.756422 181.765686 
" clip-path="url(#p31619ab918)" style="fill: none; stroke: #000000"/>
    <path d="M 125.824506 168.376044 
L 67.010277 172.767038 
" clip-path="url(#p31619ab918)" style="fill: none; stroke: #000000"/>
    <path d="M 125.824506 168.376044 
L 104.025085 191.90731 
" clip-path="url(#p31619ab918)" style="fill: none; stroke: #000000"/>
    <path d="M 125.824506 168.376044 
L 95.43248 166.805294 
" clip-path="url(#p31619ab918)" style="fill: none; stroke: #000000"/>
    <path d="M 125.824506 168.376044 
L 109.665191 157.14869 
" clip-path="url(#p31619ab918)" style="fill: none; stroke: #000000"/>
    <path d="M 125.824506 168.376044 
L 78.018133 158.718064 
" clip-path="url(#p31619ab918)" style="fill: none; stroke: #000000"/>
    <path d="M 95.830079 180.154712 
L 74.871981 186.809571 
" clip-path="url(#p31619ab918)" style="fill: none; stroke: #000000"/>
    <path d="M 95.830079 180.154712 
L 123.756422 181.765686 
" clip-path="url(#p31619ab918)" style="fill: none; stroke: #000000"/>
    <path d="M 95.830079 180.154712 
L 67.010277 172.767038 
" clip-path="url(#p31619ab918)" style="fill: none; stroke: #000000"/>
    <path d="M 95.830079 180.154712 
L 104.025085 191.90731 
" clip-path="url(#p31619ab918)" style="fill: none; stroke: #000000"/>
    <path d="M 95.830079 180.154712 
L 95.43248 166.805294 
" clip-path="url(#p31619ab918)" style="fill: none; stroke: #000000"/>
    <path d="M 95.830079 180.154712 
L 109.665191 157.14869 
" clip-path="url(#p31619ab918)" style="fill: none; stroke: #000000"/>
    <path d="M 95.830079 180.154712 
L 78.018133 158.718064 
" clip-path="url(#p31619ab918)" style="fill: none; stroke: #000000"/>
    <path d="M 74.871981 186.809571 
L 123.756422 181.765686 
" clip-path="url(#p31619ab918)" style="fill: none; stroke: #000000"/>
    <path d="M 74.871981 186.809571 
L 67.010277 172.767038 
" clip-path="url(#p31619ab918)" style="fill: none; stroke: #000000"/>
    <path d="M 74.871981 186.809571 
L 104.025085 191.90731 
" clip-path="url(#p31619ab918)" style="fill: none; stroke: #000000"/>
    <path d="M 74.871981 186.809571 
L 95.43248 166.805294 
" clip-path="url(#p31619ab918)" style="fill: none; stroke: #000000"/>
    <path d="M 74.871981 186.809571 
L 109.665191 157.14869 
" clip-path="url(#p31619ab918)" style="fill: none; stroke: #000000"/>
    <path d="M 74.871981 186.809571 
L 78.018133 158.718064 
" clip-path="url(#p31619ab918)" style="fill: none; stroke: #000000"/>
    <path d="M 123.756422 181.765686 
L 67.010277 172.767038 
" clip-path="url(#p31619ab918)" style="fill: none; stroke: #000000"/>
    <path d="M 123.756422 181.765686 
L 104.025085 191.90731 
" clip-path="url(#p31619ab918)" style="fill: none; stroke: #000000"/>
    <path d="M 123.756422 181.765686 
L 95.43248 166.805294 
" clip-path="url(#p31619ab918)" style="fill: none; stroke: #000000"/>
    <path d="M 123.756422 181.765686 
L 109.665191 157.14869 
" clip-path="url(#p31619ab918)" style="fill: none; stroke: #000000"/>
    <path d="M 123.756422 181.765686 
L 78.018133 158.718064 
" clip-path="url(#p31619ab918)" style="fill: none; stroke: #000000"/>
    <path d="M 67.010277 172.767038 
L 104.025085 191.90731 
" clip-path="url(#p31619ab918)" style="fill: none; stroke: #000000"/>
    <path d="M 67.010277 172.767038 
L 95.43248 166.805294 
" clip-path="url(#p31619ab918)" style="fill: none; stroke: #000000"/>
    <path d="M 67.010277 172.767038 
L 109.665191 157.14869 
" clip-path="url(#p31619ab918)" style="fill: none; stroke: #000000"/>
    <path d="M 67.010277 172.767038 
L 78.018133 158.718064 
" clip-path="url(#p31619ab918)" style="fill: none; stroke: #000000"/>
    <path d="M 104.025085 191.90731 
L 95.43248 166.805294 
" clip-path="url(#p31619ab918)" style="fill: none; stroke: #000000"/>
    <path d="M 104.025085 191.90731 
L 109.665191 157.14869 
" clip-path="url(#p31619ab918)" style="fill: none; stroke: #000000"/>
    <path d="M 104.025085 191.90731 
L 78.018133 158.718064 
" clip-path="url(#p31619ab918)" style="fill: none; stroke: #000000"/>
    <path d="M 95.43248 166.805294 
L 109.665191 157.14869 
" clip-path="url(#p31619ab918)" style="fill: none; stroke: #000000"/>
    <path d="M 95.43248 166.805294 
L 78.018133 158.718064 
" clip-path="url(#p31619ab918)" style="fill: none; stroke: #000000"/>
    <path d="M 109.665191 157.14869 
L 78.018133 158.718064 
" clip-path="url(#p31619ab918)" style="fill: none; stroke: #000000"/>
   </g>
   <g id="PathCollection_2">
    <g clip-path="url(#p31619ab918)">
     <use xlink:href="#m59154dbf13" x="125.824506" y="168.376044" style="fill: #1f78b4; stroke: #1f78b4"/>
     <use xlink:href="#m59154dbf13" x="95.830079" y="180.154712" style="fill: #1f78b4; stroke: #1f78b4"/>
     <use xlink:href="#m59154dbf13" x="74.871981" y="186.809571" style="fill: #1f78b4; stroke: #1f78b4"/>
     <use xlink:href="#m59154dbf13" x="123.756422" y="181.765686" style="fill: #1f78b4; stroke: #1f78b4"/>
     <use xlink:href="#m59154dbf13" x="67.010277" y="172.767038" style="fill: #1f78b4; stroke: #1f78b4"/>
     <use xlink:href="#m59154dbf13" x="104.025085" y="191.90731" style="fill: #1f78b4; stroke: #1f78b4"/>
     <use xlink:href="#m59154dbf13" x="95.43248" y="166.805294" style="fill: #1f78b4; stroke: #1f78b4"/>
     <use xlink:href="#m59154dbf13" x="109.665191" y="157.14869" style="fill: #1f78b4; stroke: #1f78b4"/>
     <use xlink:href="#m59154dbf13" x="78.018133" y="158.718064" style="fill: #1f78b4; stroke: #1f78b4"/>
    </g>
   </g>
  </g>
  <g id="axes_10"/>
  <g id="axes_11"/>
  <g id="axes_12">
   <g id="LineCollection_3">
    <path d="M 346.495494 184.414711 
L 405.309723 191.90731 
" clip-path="url(#pef6a7d5e36)" style="fill: none; stroke: #000000"/>
    <path d="M 346.495494 184.414711 
L 386.559966 157.14869 
" clip-path="url(#pef6a7d5e36)" style="fill: none; stroke: #000000"/>
    <path d="M 405.309723 191.90731 
L 386.559966 157.14869 
" clip-path="url(#pef6a7d5e36)" style="fill: none; stroke: #000000"/>
   </g>
   <g id="PathCollection_3">
    <g clip-path="url(#pef6a7d5e36)">
     <use xlink:href="#m59154dbf13" x="346.495494" y="184.414711" style="fill: #1f78b4; stroke: #1f78b4"/>
     <use xlink:href="#m59154dbf13" x="405.309723" y="191.90731" style="fill: #1f78b4; stroke: #1f78b4"/>
     <use xlink:href="#m59154dbf13" x="386.559966" y="157.14869" style="fill: #1f78b4; stroke: #1f78b4"/>
    </g>
   </g>
  </g>
  <g id="axes_13">
   <g id="LineCollection_4">
    <path d="M 78.130469 215.63803 
L 125.824506 237.074711 
" clip-path="url(#p3301a06600)" style="fill: none; stroke: #000000"/>
    <path d="M 78.130469 215.63803 
L 67.010277 229.538588 
" clip-path="url(#p3301a06600)" style="fill: none; stroke: #000000"/>
    <path d="M 78.130469 215.63803 
L 78.156785 243.641545 
" clip-path="url(#p3301a06600)" style="fill: none; stroke: #000000"/>
    <path d="M 78.130469 215.63803 
L 97.71298 230.029414 
" clip-path="url(#p3301a06600)" style="fill: none; stroke: #000000"/>
    <path d="M 78.130469 215.63803 
L 103.74002 212.206345 
" clip-path="url(#p3301a06600)" style="fill: none; stroke: #000000"/>
    <path d="M 78.130469 215.63803 
L 124.716779 221.39922 
" clip-path="url(#p3301a06600)" style="fill: none; stroke: #000000"/>
    <path d="M 78.130469 215.63803 
L 104.578943 246.964966 
" clip-path="url(#p3301a06600)" style="fill: none; stroke: #000000"/>
    <path d="M 125.824506 237.074711 
L 67.010277 229.538588 
" clip-path="url(#p3301a06600)" style="fill: none; stroke: #000000"/>
    <path d="M 125.824506 237.074711 
L 78.156785 243.641545 
" clip-path="url(#p3301a06600)" style="fill: none; stroke: #000000"/>
    <path d="M 125.824506 237.074711 
L 97.71298 230.029414 
" clip-path="url(#p3301a06600)" style="fill: none; stroke: #000000"/>
    <path d="M 125.824506 237.074711 
L 103.74002 212.206345 
" clip-path="url(#p3301a06600)" style="fill: none; stroke: #000000"/>
    <path d="M 125.824506 237.074711 
L 124.716779 221.39922 
" clip-path="url(#p3301a06600)" style="fill: none; stroke: #000000"/>
    <path d="M 125.824506 237.074711 
L 104.578943 246.964966 
" clip-path="url(#p3301a06600)" style="fill: none; stroke: #000000"/>
    <path d="M 67.010277 229.538588 
L 78.156785 243.641545 
" clip-path="url(#p3301a06600)" style="fill: none; stroke: #000000"/>
    <path d="M 67.010277 229.538588 
L 97.71298 230.029414 
" clip-path="url(#p3301a06600)" style="fill: none; stroke: #000000"/>
    <path d="M 67.010277 229.538588 
L 103.74002 212.206345 
" clip-path="url(#p3301a06600)" style="fill: none; stroke: #000000"/>
    <path d="M 67.010277 229.538588 
L 124.716779 221.39922 
" clip-path="url(#p3301a06600)" style="fill: none; stroke: #000000"/>
    <path d="M 67.010277 229.538588 
L 104.578943 246.964966 
" clip-path="url(#p3301a06600)" style="fill: none; stroke: #000000"/>
    <path d="M 78.156785 243.641545 
L 97.71298 230.029414 
" clip-path="url(#p3301a06600)" style="fill: none; stroke: #000000"/>
    <path d="M 78.156785 243.641545 
L 103.74002 212.206345 
" clip-path="url(#p3301a06600)" style="fill: none; stroke: #000000"/>
    <path d="M 78.156785 243.641545 
L 124.716779 221.39922 
" clip-path="url(#p3301a06600)" style="fill: none; stroke: #000000"/>
    <path d="M 78.156785 243.641545 
L 104.578943 246.964966 
" clip-path="url(#p3301a06600)" style="fill: none; stroke: #000000"/>
    <path d="M 97.71298 230.029414 
L 103.74002 212.206345 
" clip-path="url(#p3301a06600)" style="fill: none; stroke: #000000"/>
    <path d="M 97.71298 230.029414 
L 124.716779 221.39922 
" clip-path="url(#p3301a06600)" style="fill: none; stroke: #000000"/>
    <path d="M 97.71298 230.029414 
L 104.578943 246.964966 
" clip-path="url(#p3301a06600)" style="fill: none; stroke: #000000"/>
    <path d="M 103.74002 212.206345 
L 124.716779 221.39922 
" clip-path="url(#p3301a06600)" style="fill: none; stroke: #000000"/>
    <path d="M 103.74002 212.206345 
L 104.578943 246.964966 
" clip-path="url(#p3301a06600)" style="fill: none; stroke: #000000"/>
    <path d="M 124.716779 221.39922 
L 104.578943 246.964966 
" clip-path="url(#p3301a06600)" style="fill: none; stroke: #000000"/>
   </g>
   <g id="PathCollection_4">
    <g clip-path="url(#p3301a06600)">
     <use xlink:href="#m59154dbf13" x="78.130469" y="215.63803" style="fill: #1f78b4; stroke: #1f78b4"/>
     <use xlink:href="#m59154dbf13" x="125.824506" y="237.074711" style="fill: #1f78b4; stroke: #1f78b4"/>
     <use xlink:href="#m59154dbf13" x="67.010277" y="229.538588" style="fill: #1f78b4; stroke: #1f78b4"/>
     <use xlink:href="#m59154dbf13" x="78.156785" y="243.641545" style="fill: #1f78b4; stroke: #1f78b4"/>
     <use xlink:href="#m59154dbf13" x="97.71298" y="230.029414" style="fill: #1f78b4; stroke: #1f78b4"/>
     <use xlink:href="#m59154dbf13" x="103.74002" y="212.206345" style="fill: #1f78b4; stroke: #1f78b4"/>
     <use xlink:href="#m59154dbf13" x="124.716779" y="221.39922" style="fill: #1f78b4; stroke: #1f78b4"/>
     <use xlink:href="#m59154dbf13" x="104.578943" y="246.964966" style="fill: #1f78b4; stroke: #1f78b4"/>
    </g>
   </g>
  </g>
  <g id="axes_14">
   <g id="LineCollection_5">
    <path d="M 203.236722 243.657212 
L 218.058287 222.869015 
" clip-path="url(#p03e7fe29f4)" style="fill: none; stroke: #000000"/>
    <path d="M 203.236722 243.657212 
L 181.793144 235.165722 
" clip-path="url(#p03e7fe29f4)" style="fill: none; stroke: #000000"/>
    <path d="M 203.236722 243.657212 
L 179.653002 212.370981 
" clip-path="url(#p03e7fe29f4)" style="fill: none; stroke: #000000"/>
    <path d="M 203.236722 243.657212 
L 162.554946 220.673381 
" clip-path="url(#p03e7fe29f4)" style="fill: none; stroke: #000000"/>
    <path d="M 203.236722 243.657212 
L 160.172016 234.107927 
" clip-path="url(#p03e7fe29f4)" style="fill: none; stroke: #000000"/>
    <path d="M 203.236722 243.657212 
L 218.986245 235.277149 
" clip-path="url(#p03e7fe29f4)" style="fill: none; stroke: #000000"/>
    <path d="M 203.236722 243.657212 
L 180.193556 246.964966 
" clip-path="url(#p03e7fe29f4)" style="fill: none; stroke: #000000"/>
    <path d="M 203.236722 243.657212 
L 203.475813 212.206345 
" clip-path="url(#p03e7fe29f4)" style="fill: none; stroke: #000000"/>
    <path d="M 203.236722 243.657212 
L 193.239589 224.358502 
" clip-path="url(#p03e7fe29f4)" style="fill: none; stroke: #000000"/>
    <path d="M 218.058287 222.869015 
L 181.793144 235.165722 
" clip-path="url(#p03e7fe29f4)" style="fill: none; stroke: #000000"/>
    <path d="M 218.058287 222.869015 
L 179.653002 212.370981 
" clip-path="url(#p03e7fe29f4)" style="fill: none; stroke: #000000"/>
    <path d="M 218.058287 222.869015 
L 162.554946 220.673381 
" clip-path="url(#p03e7fe29f4)" style="fill: none; stroke: #000000"/>
    <path d="M 218.058287 222.869015 
L 160.172016 234.107927 
" clip-path="url(#p03e7fe29f4)" style="fill: none; stroke: #000000"/>
    <path d="M 218.058287 222.869015 
L 218.986245 235.277149 
" clip-path="url(#p03e7fe29f4)" style="fill: none; stroke: #000000"/>
    <path d="M 218.058287 222.869015 
L 180.193556 246.964966 
" clip-path="url(#p03e7fe29f4)" style="fill: none; stroke: #000000"/>
    <path d="M 218.058287 222.869015 
L 203.475813 212.206345 
" clip-path="url(#p03e7fe29f4)" style="fill: none; stroke: #000000"/>
    <path d="M 218.058287 222.869015 
L 193.239589 224.358502 
" clip-path="url(#p03e7fe29f4)" style="fill: none; stroke: #000000"/>
    <path d="M 181.793144 235.165722 
L 179.653002 212.370981 
" clip-path="url(#p03e7fe29f4)" style="fill: none; stroke: #000000"/>
    <path d="M 181.793144 235.165722 
L 162.554946 220.673381 
" clip-path="url(#p03e7fe29f4)" style="fill: none; stroke: #000000"/>
    <path d="M 181.793144 235.165722 
L 160.172016 234.107927 
" clip-path="url(#p03e7fe29f4)" style="fill: none; stroke: #000000"/>
    <path d="M 181.793144 235.165722 
L 218.986245 235.277149 
" clip-path="url(#p03e7fe29f4)" style="fill: none; stroke: #000000"/>
    <path d="M 181.793144 235.165722 
L 180.193556 246.964966 
" clip-path="url(#p03e7fe29f4)" style="fill: none; stroke: #000000"/>
    <path d="M 181.793144 235.165722 
L 203.475813 212.206345 
" clip-path="url(#p03e7fe29f4)" style="fill: none; stroke: #000000"/>
    <path d="M 181.793144 235.165722 
L 193.239589 224.358502 
" clip-path="url(#p03e7fe29f4)" style="fill: none; stroke: #000000"/>
    <path d="M 179.653002 212.370981 
L 162.554946 220.673381 
" clip-path="url(#p03e7fe29f4)" style="fill: none; stroke: #000000"/>
    <path d="M 179.653002 212.370981 
L 160.172016 234.107927 
" clip-path="url(#p03e7fe29f4)" style="fill: none; stroke: #000000"/>
    <path d="M 179.653002 212.370981 
L 218.986245 235.277149 
" clip-path="url(#p03e7fe29f4)" style="fill: none; stroke: #000000"/>
    <path d="M 179.653002 212.370981 
L 180.193556 246.964966 
" clip-path="url(#p03e7fe29f4)" style="fill: none; stroke: #000000"/>
    <path d="M 179.653002 212.370981 
L 203.475813 212.206345 
" clip-path="url(#p03e7fe29f4)" style="fill: none; stroke: #000000"/>
    <path d="M 179.653002 212.370981 
L 193.239589 224.358502 
" clip-path="url(#p03e7fe29f4)" style="fill: none; stroke: #000000"/>
    <path d="M 162.554946 220.673381 
L 160.172016 234.107927 
" clip-path="url(#p03e7fe29f4)" style="fill: none; stroke: #000000"/>
    <path d="M 162.554946 220.673381 
L 218.986245 235.277149 
" clip-path="url(#p03e7fe29f4)" style="fill: none; stroke: #000000"/>
    <path d="M 162.554946 220.673381 
L 180.193556 246.964966 
" clip-path="url(#p03e7fe29f4)" style="fill: none; stroke: #000000"/>
    <path d="M 162.554946 220.673381 
L 203.475813 212.206345 
" clip-path="url(#p03e7fe29f4)" style="fill: none; stroke: #000000"/>
    <path d="M 162.554946 220.673381 
L 193.239589 224.358502 
" clip-path="url(#p03e7fe29f4)" style="fill: none; stroke: #000000"/>
    <path d="M 160.172016 234.107927 
L 218.986245 235.277149 
" clip-path="url(#p03e7fe29f4)" style="fill: none; stroke: #000000"/>
    <path d="M 160.172016 234.107927 
L 180.193556 246.964966 
" clip-path="url(#p03e7fe29f4)" style="fill: none; stroke: #000000"/>
    <path d="M 160.172016 234.107927 
L 203.475813 212.206345 
" clip-path="url(#p03e7fe29f4)" style="fill: none; stroke: #000000"/>
    <path d="M 160.172016 234.107927 
L 193.239589 224.358502 
" clip-path="url(#p03e7fe29f4)" style="fill: none; stroke: #000000"/>
    <path d="M 218.986245 235.277149 
L 180.193556 246.964966 
" clip-path="url(#p03e7fe29f4)" style="fill: none; stroke: #000000"/>
    <path d="M 218.986245 235.277149 
L 203.475813 212.206345 
" clip-path="url(#p03e7fe29f4)" style="fill: none; stroke: #000000"/>
    <path d="M 218.986245 235.277149 
L 193.239589 224.358502 
" clip-path="url(#p03e7fe29f4)" style="fill: none; stroke: #000000"/>
    <path d="M 180.193556 246.964966 
L 203.475813 212.206345 
" clip-path="url(#p03e7fe29f4)" style="fill: none; stroke: #000000"/>
    <path d="M 180.193556 246.964966 
L 193.239589 224.358502 
" clip-path="url(#p03e7fe29f4)" style="fill: none; stroke: #000000"/>
    <path d="M 203.475813 212.206345 
L 193.239589 224.358502 
" clip-path="url(#p03e7fe29f4)" style="fill: none; stroke: #000000"/>
   </g>
   <g id="PathCollection_5">
    <g clip-path="url(#p03e7fe29f4)">
     <use xlink:href="#m59154dbf13" x="203.236722" y="243.657212" style="fill: #1f78b4; stroke: #1f78b4"/>
     <use xlink:href="#m59154dbf13" x="218.058287" y="222.869015" style="fill: #1f78b4; stroke: #1f78b4"/>
     <use xlink:href="#m59154dbf13" x="181.793144" y="235.165722" style="fill: #1f78b4; stroke: #1f78b4"/>
     <use xlink:href="#m59154dbf13" x="179.653002" y="212.370981" style="fill: #1f78b4; stroke: #1f78b4"/>
     <use xlink:href="#m59154dbf13" x="162.554946" y="220.673381" style="fill: #1f78b4; stroke: #1f78b4"/>
     <use xlink:href="#m59154dbf13" x="160.172016" y="234.107927" style="fill: #1f78b4; stroke: #1f78b4"/>
     <use xlink:href="#m59154dbf13" x="218.986245" y="235.277149" style="fill: #1f78b4; stroke: #1f78b4"/>
     <use xlink:href="#m59154dbf13" x="180.193556" y="246.964966" style="fill: #1f78b4; stroke: #1f78b4"/>
     <use xlink:href="#m59154dbf13" x="203.475813" y="212.206345" style="fill: #1f78b4; stroke: #1f78b4"/>
     <use xlink:href="#m59154dbf13" x="193.239589" y="224.358502" style="fill: #1f78b4; stroke: #1f78b4"/>
    </g>
   </g>
  </g>
  <g id="axes_15">
   <g id="LineCollection_6">
    <path d="M 311.501332 224.577324 
L 264.041546 227.993043 
" clip-path="url(#pd6786239f5)" style="fill: none; stroke: #000000"/>
    <path d="M 311.501332 224.577324 
L 253.333755 212.206345 
" clip-path="url(#pd6786239f5)" style="fill: none; stroke: #000000"/>
    <path d="M 311.501332 224.577324 
L 312.147984 246.964966 
" clip-path="url(#pd6786239f5)" style="fill: none; stroke: #000000"/>
    <path d="M 311.501332 224.577324 
L 281.620439 220.973159 
" clip-path="url(#pd6786239f5)" style="fill: none; stroke: #000000"/>
    <path d="M 311.501332 224.577324 
L 260.325594 239.062343 
" clip-path="url(#pd6786239f5)" style="fill: none; stroke: #000000"/>
    <path d="M 311.501332 224.577324 
L 280.91091 242.911047 
" clip-path="url(#pd6786239f5)" style="fill: none; stroke: #000000"/>
    <path d="M 311.501332 224.577324 
L 299.191609 214.586762 
" clip-path="url(#pd6786239f5)" style="fill: none; stroke: #000000"/>
    <path d="M 311.501332 224.577324 
L 307.940162 237.028588 
" clip-path="url(#pd6786239f5)" style="fill: none; stroke: #000000"/>
    <path d="M 264.041546 227.993043 
L 253.333755 212.206345 
" clip-path="url(#pd6786239f5)" style="fill: none; stroke: #000000"/>
    <path d="M 264.041546 227.993043 
L 312.147984 246.964966 
" clip-path="url(#pd6786239f5)" style="fill: none; stroke: #000000"/>
    <path d="M 264.041546 227.993043 
L 281.620439 220.973159 
" clip-path="url(#pd6786239f5)" style="fill: none; stroke: #000000"/>
    <path d="M 264.041546 227.993043 
L 260.325594 239.062343 
" clip-path="url(#pd6786239f5)" style="fill: none; stroke: #000000"/>
    <path d="M 264.041546 227.993043 
L 280.91091 242.911047 
" clip-path="url(#pd6786239f5)" style="fill: none; stroke: #000000"/>
    <path d="M 264.041546 227.993043 
L 299.191609 214.586762 
" clip-path="url(#pd6786239f5)" style="fill: none; stroke: #000000"/>
    <path d="M 264.041546 227.993043 
L 307.940162 237.028588 
" clip-path="url(#pd6786239f5)" style="fill: none; stroke: #000000"/>
    <path d="M 253.333755 212.206345 
L 281.620439 220.973159 
" clip-path="url(#pd6786239f5)" style="fill: none; stroke: #000000"/>
    <path d="M 253.333755 212.206345 
L 260.325594 239.062343 
" clip-path="url(#pd6786239f5)" style="fill: none; stroke: #000000"/>
    <path d="M 253.333755 212.206345 
L 280.91091 242.911047 
" clip-path="url(#pd6786239f5)" style="fill: none; stroke: #000000"/>
    <path d="M 253.333755 212.206345 
L 299.191609 214.586762 
" clip-path="url(#pd6786239f5)" style="fill: none; stroke: #000000"/>
    <path d="M 312.147984 246.964966 
L 281.620439 220.973159 
" clip-path="url(#pd6786239f5)" style="fill: none; stroke: #000000"/>
    <path d="M 312.147984 246.964966 
L 260.325594 239.062343 
" clip-path="url(#pd6786239f5)" style="fill: none; stroke: #000000"/>
    <path d="M 312.147984 246.964966 
L 280.91091 242.911047 
" clip-path="url(#pd6786239f5)" style="fill: none; stroke: #000000"/>
    <path d="M 312.147984 246.964966 
L 299.191609 214.586762 
" clip-path="url(#pd6786239f5)" style="fill: none; stroke: #000000"/>
    <path d="M 312.147984 246.964966 
L 307.940162 237.028588 
" clip-path="url(#pd6786239f5)" style="fill: none; stroke: #000000"/>
    <path d="M 281.620439 220.973159 
L 260.325594 239.062343 
" clip-path="url(#pd6786239f5)" style="fill: none; stroke: #000000"/>
    <path d="M 281.620439 220.973159 
L 280.91091 242.911047 
" clip-path="url(#pd6786239f5)" style="fill: none; stroke: #000000"/>
    <path d="M 281.620439 220.973159 
L 299.191609 214.586762 
" clip-path="url(#pd6786239f5)" style="fill: none; stroke: #000000"/>
    <path d="M 281.620439 220.973159 
L 307.940162 237.028588 
" clip-path="url(#pd6786239f5)" style="fill: none; stroke: #000000"/>
    <path d="M 260.325594 239.062343 
L 280.91091 242.911047 
" clip-path="url(#pd6786239f5)" style="fill: none; stroke: #000000"/>
    <path d="M 260.325594 239.062343 
L 299.191609 214.586762 
" clip-path="url(#pd6786239f5)" style="fill: none; stroke: #000000"/>
    <path d="M 260.325594 239.062343 
L 307.940162 237.028588 
" clip-path="url(#pd6786239f5)" style="fill: none; stroke: #000000"/>
    <path d="M 280.91091 242.911047 
L 299.191609 214.586762 
" clip-path="url(#pd6786239f5)" style="fill: none; stroke: #000000"/>
    <path d="M 280.91091 242.911047 
L 307.940162 237.028588 
" clip-path="url(#pd6786239f5)" style="fill: none; stroke: #000000"/>
    <path d="M 299.191609 214.586762 
L 307.940162 237.028588 
" clip-path="url(#pd6786239f5)" style="fill: none; stroke: #000000"/>
   </g>
   <g id="PathCollection_6">
    <g clip-path="url(#pd6786239f5)">
     <use xlink:href="#m59154dbf13" x="311.501332" y="224.577324" style="fill: #1f78b4; stroke: #1f78b4"/>
     <use xlink:href="#m59154dbf13" x="264.041546" y="227.993043" style="fill: #1f78b4; stroke: #1f78b4"/>
     <use xlink:href="#m59154dbf13" x="253.333755" y="212.206345" style="fill: #1f78b4; stroke: #1f78b4"/>
     <use xlink:href="#m59154dbf13" x="312.147984" y="246.964966" style="fill: #1f78b4; stroke: #1f78b4"/>
     <use xlink:href="#m59154dbf13" x="281.620439" y="220.973159" style="fill: #1f78b4; stroke: #1f78b4"/>
     <use xlink:href="#m59154dbf13" x="260.325594" y="239.062343" style="fill: #1f78b4; stroke: #1f78b4"/>
     <use xlink:href="#m59154dbf13" x="280.91091" y="242.911047" style="fill: #1f78b4; stroke: #1f78b4"/>
     <use xlink:href="#m59154dbf13" x="299.191609" y="214.586762" style="fill: #1f78b4; stroke: #1f78b4"/>
     <use xlink:href="#m59154dbf13" x="307.940162" y="237.028588" style="fill: #1f78b4; stroke: #1f78b4"/>
    </g>
   </g>
  </g>
  <g id="axes_16"/>
  <g id="axes_17"/>
  <g id="axes_18"/>
  <g id="axes_19">
   <g id="LineCollection_7">
    <path d="M 297.825002 290.850264 
L 304.585904 281.388668 
" clip-path="url(#pbe960b6cf8)" style="fill: none; stroke: #000000"/>
    <path d="M 297.825002 290.850264 
L 307.832126 300.60128 
" clip-path="url(#pbe960b6cf8)" style="fill: none; stroke: #000000"/>
    <path d="M 297.825002 290.850264 
L 312.147984 289.897861 
" clip-path="url(#pbe960b6cf8)" style="fill: none; stroke: #000000"/>
    <path d="M 297.825002 290.850264 
L 295.973081 302.022621 
" clip-path="url(#pbe960b6cf8)" style="fill: none; stroke: #000000"/>
    <path d="M 297.825002 290.850264 
L 283.023474 285.006916 
" clip-path="url(#pbe960b6cf8)" style="fill: none; stroke: #000000"/>
    <path d="M 304.585904 281.388668 
L 307.832126 300.60128 
" clip-path="url(#pbe960b6cf8)" style="fill: none; stroke: #000000"/>
    <path d="M 304.585904 281.388668 
L 312.147984 289.897861 
" clip-path="url(#pbe960b6cf8)" style="fill: none; stroke: #000000"/>
    <path d="M 304.585904 281.388668 
L 295.973081 302.022621 
" clip-path="url(#pbe960b6cf8)" style="fill: none; stroke: #000000"/>
    <path d="M 304.585904 281.388668 
L 283.023474 285.006916 
" clip-path="url(#pbe960b6cf8)" style="fill: none; stroke: #000000"/>
    <path d="M 264.779057 267.264 
L 253.333755 273.585782 
" clip-path="url(#pbe960b6cf8)" style="fill: none; stroke: #000000"/>
    <path d="M 264.779057 267.264 
L 283.023474 285.006916 
" clip-path="url(#pbe960b6cf8)" style="fill: none; stroke: #000000"/>
    <path d="M 264.779057 267.264 
L 256.991724 285.639388 
" clip-path="url(#pbe960b6cf8)" style="fill: none; stroke: #000000"/>
    <path d="M 307.832126 300.60128 
L 312.147984 289.897861 
" clip-path="url(#pbe960b6cf8)" style="fill: none; stroke: #000000"/>
    <path d="M 307.832126 300.60128 
L 295.973081 302.022621 
" clip-path="url(#pbe960b6cf8)" style="fill: none; stroke: #000000"/>
    <path d="M 307.832126 300.60128 
L 283.023474 285.006916 
" clip-path="url(#pbe960b6cf8)" style="fill: none; stroke: #000000"/>
    <path d="M 253.333755 273.585782 
L 283.023474 285.006916 
" clip-path="url(#pbe960b6cf8)" style="fill: none; stroke: #000000"/>
    <path d="M 253.333755 273.585782 
L 256.991724 285.639388 
" clip-path="url(#pbe960b6cf8)" style="fill: none; stroke: #000000"/>
    <path d="M 312.147984 289.897861 
L 295.973081 302.022621 
" clip-path="url(#pbe960b6cf8)" style="fill: none; stroke: #000000"/>
    <path d="M 312.147984 289.897861 
L 283.023474 285.006916 
" clip-path="url(#pbe960b6cf8)" style="fill: none; stroke: #000000"/>
    <path d="M 295.973081 302.022621 
L 283.023474 285.006916 
" clip-path="url(#pbe960b6cf8)" style="fill: none; stroke: #000000"/>
    <path d="M 283.023474 285.006916 
L 256.991724 285.639388 
" clip-path="url(#pbe960b6cf8)" style="fill: none; stroke: #000000"/>
   </g>
   <g id="PathCollection_7">
    <g clip-path="url(#pbe960b6cf8)">
     <use xlink:href="#m59154dbf13" x="297.825002" y="290.850264" style="fill: #1f78b4; stroke: #1f78b4"/>
     <use xlink:href="#m59154dbf13" x="304.585904" y="281.388668" style="fill: #1f78b4; stroke: #1f78b4"/>
     <use xlink:href="#m59154dbf13" x="264.779057" y="267.264" style="fill: #1f78b4; stroke: #1f78b4"/>
     <use xlink:href="#m59154dbf13" x="307.832126" y="300.60128" style="fill: #1f78b4; stroke: #1f78b4"/>
     <use xlink:href="#m59154dbf13" x="253.333755" y="273.585782" style="fill: #1f78b4; stroke: #1f78b4"/>
     <use xlink:href="#m59154dbf13" x="312.147984" y="289.897861" style="fill: #1f78b4; stroke: #1f78b4"/>
     <use xlink:href="#m59154dbf13" x="295.973081" y="302.022621" style="fill: #1f78b4; stroke: #1f78b4"/>
     <use xlink:href="#m59154dbf13" x="283.023474" y="285.006916" style="fill: #1f78b4; stroke: #1f78b4"/>
     <use xlink:href="#m59154dbf13" x="256.991724" y="285.639388" style="fill: #1f78b4; stroke: #1f78b4"/>
    </g>
   </g>
  </g>
  <g id="axes_20"/>
  <g id="text_1">
   <!-- reconstruction data -->
   <g transform="translate(171.643125 16.030125) scale(0.12 -0.12)">
    <defs>
     <path id="DejaVuSans-72" d="M 2631 2963 
Q 2534 3019 2420 3045 
Q 2306 3072 2169 3072 
Q 1681 3072 1420 2755 
Q 1159 2438 1159 1844 
L 1159 0 
L 581 0 
L 581 3500 
L 1159 3500 
L 1159 2956 
Q 1341 3275 1631 3429 
Q 1922 3584 2338 3584 
Q 2397 3584 2469 3576 
Q 2541 3569 2628 3553 
L 2631 2963 
z
" transform="scale(0.015625)"/>
     <path id="DejaVuSans-65" d="M 3597 1894 
L 3597 1613 
L 953 1613 
Q 991 1019 1311 708 
Q 1631 397 2203 397 
Q 2534 397 2845 478 
Q 3156 559 3463 722 
L 3463 178 
Q 3153 47 2828 -22 
Q 2503 -91 2169 -91 
Q 1331 -91 842 396 
Q 353 884 353 1716 
Q 353 2575 817 3079 
Q 1281 3584 2069 3584 
Q 2775 3584 3186 3129 
Q 3597 2675 3597 1894 
z
M 3022 2063 
Q 3016 2534 2758 2815 
Q 2500 3097 2075 3097 
Q 1594 3097 1305 2825 
Q 1016 2553 972 2059 
L 3022 2063 
z
" transform="scale(0.015625)"/>
     <path id="DejaVuSans-63" d="M 3122 3366 
L 3122 2828 
Q 2878 2963 2633 3030 
Q 2388 3097 2138 3097 
Q 1578 3097 1268 2742 
Q 959 2388 959 1747 
Q 959 1106 1268 751 
Q 1578 397 2138 397 
Q 2388 397 2633 464 
Q 2878 531 3122 666 
L 3122 134 
Q 2881 22 2623 -34 
Q 2366 -91 2075 -91 
Q 1284 -91 818 406 
Q 353 903 353 1747 
Q 353 2603 823 3093 
Q 1294 3584 2113 3584 
Q 2378 3584 2631 3529 
Q 2884 3475 3122 3366 
z
" transform="scale(0.015625)"/>
     <path id="DejaVuSans-6f" d="M 1959 3097 
Q 1497 3097 1228 2736 
Q 959 2375 959 1747 
Q 959 1119 1226 758 
Q 1494 397 1959 397 
Q 2419 397 2687 759 
Q 2956 1122 2956 1747 
Q 2956 2369 2687 2733 
Q 2419 3097 1959 3097 
z
M 1959 3584 
Q 2709 3584 3137 3096 
Q 3566 2609 3566 1747 
Q 3566 888 3137 398 
Q 2709 -91 1959 -91 
Q 1206 -91 779 398 
Q 353 888 353 1747 
Q 353 2609 779 3096 
Q 1206 3584 1959 3584 
z
" transform="scale(0.015625)"/>
     <path id="DejaVuSans-6e" d="M 3513 2113 
L 3513 0 
L 2938 0 
L 2938 2094 
Q 2938 2591 2744 2837 
Q 2550 3084 2163 3084 
Q 1697 3084 1428 2787 
Q 1159 2491 1159 1978 
L 1159 0 
L 581 0 
L 581 3500 
L 1159 3500 
L 1159 2956 
Q 1366 3272 1645 3428 
Q 1925 3584 2291 3584 
Q 2894 3584 3203 3211 
Q 3513 2838 3513 2113 
z
" transform="scale(0.015625)"/>
     <path id="DejaVuSans-73" d="M 2834 3397 
L 2834 2853 
Q 2591 2978 2328 3040 
Q 2066 3103 1784 3103 
Q 1356 3103 1142 2972 
Q 928 2841 928 2578 
Q 928 2378 1081 2264 
Q 1234 2150 1697 2047 
L 1894 2003 
Q 2506 1872 2764 1633 
Q 3022 1394 3022 966 
Q 3022 478 2636 193 
Q 2250 -91 1575 -91 
Q 1294 -91 989 -36 
Q 684 19 347 128 
L 347 722 
Q 666 556 975 473 
Q 1284 391 1588 391 
Q 1994 391 2212 530 
Q 2431 669 2431 922 
Q 2431 1156 2273 1281 
Q 2116 1406 1581 1522 
L 1381 1569 
Q 847 1681 609 1914 
Q 372 2147 372 2553 
Q 372 3047 722 3315 
Q 1072 3584 1716 3584 
Q 2034 3584 2315 3537 
Q 2597 3491 2834 3397 
z
" transform="scale(0.015625)"/>
     <path id="DejaVuSans-74" d="M 1172 4494 
L 1172 3500 
L 2356 3500 
L 2356 3053 
L 1172 3053 
L 1172 1153 
Q 1172 725 1289 603 
Q 1406 481 1766 481 
L 2356 481 
L 2356 0 
L 1766 0 
Q 1100 0 847 248 
Q 594 497 594 1153 
L 594 3053 
L 172 3053 
L 172 3500 
L 594 3500 
L 594 4494 
L 1172 4494 
z
" transform="scale(0.015625)"/>
     <path id="DejaVuSans-75" d="M 544 1381 
L 544 3500 
L 1119 3500 
L 1119 1403 
Q 1119 906 1312 657 
Q 1506 409 1894 409 
Q 2359 409 2629 706 
Q 2900 1003 2900 1516 
L 2900 3500 
L 3475 3500 
L 3475 0 
L 2900 0 
L 2900 538 
Q 2691 219 2414 64 
Q 2138 -91 1772 -91 
Q 1169 -91 856 284 
Q 544 659 544 1381 
z
M 1991 3584 
L 1991 3584 
z
" transform="scale(0.015625)"/>
     <path id="DejaVuSans-69" d="M 603 3500 
L 1178 3500 
L 1178 0 
L 603 0 
L 603 3500 
z
M 603 4863 
L 1178 4863 
L 1178 4134 
L 603 4134 
L 603 4863 
z
" transform="scale(0.015625)"/>
     <path id="DejaVuSans-20" transform="scale(0.015625)"/>
     <path id="DejaVuSans-64" d="M 2906 2969 
L 2906 4863 
L 3481 4863 
L 3481 0 
L 2906 0 
L 2906 525 
Q 2725 213 2448 61 
Q 2172 -91 1784 -91 
Q 1150 -91 751 415 
Q 353 922 353 1747 
Q 353 2572 751 3078 
Q 1150 3584 1784 3584 
Q 2172 3584 2448 3432 
Q 2725 3281 2906 2969 
z
M 947 1747 
Q 947 1113 1208 752 
Q 1469 391 1925 391 
Q 2381 391 2643 752 
Q 2906 1113 2906 1747 
Q 2906 2381 2643 2742 
Q 2381 3103 1925 3103 
Q 1469 3103 1208 2742 
Q 947 2381 947 1747 
z
" transform="scale(0.015625)"/>
     <path id="DejaVuSans-61" d="M 2194 1759 
Q 1497 1759 1228 1600 
Q 959 1441 959 1056 
Q 959 750 1161 570 
Q 1363 391 1709 391 
Q 2188 391 2477 730 
Q 2766 1069 2766 1631 
L 2766 1759 
L 2194 1759 
z
M 3341 1997 
L 3341 0 
L 2766 0 
L 2766 531 
Q 2569 213 2275 61 
Q 1981 -91 1556 -91 
Q 1019 -91 701 211 
Q 384 513 384 1019 
Q 384 1609 779 1909 
Q 1175 2209 1959 2209 
L 2766 2209 
L 2766 2266 
Q 2766 2663 2505 2880 
Q 2244 3097 1772 3097 
Q 1472 3097 1187 3025 
Q 903 2953 641 2809 
L 641 3341 
Q 956 3463 1253 3523 
Q 1550 3584 1831 3584 
Q 2591 3584 2966 3190 
Q 3341 2797 3341 1997 
z
" transform="scale(0.015625)"/>
    </defs>
    <use xlink:href="#DejaVuSans-72"/>
    <use xlink:href="#DejaVuSans-65" x="38.863281"/>
    <use xlink:href="#DejaVuSans-63" x="100.386719"/>
    <use xlink:href="#DejaVuSans-6f" x="155.367188"/>
    <use xlink:href="#DejaVuSans-6e" x="216.548828"/>
    <use xlink:href="#DejaVuSans-73" x="279.927734"/>
    <use xlink:href="#DejaVuSans-74" x="332.027344"/>
    <use xlink:href="#DejaVuSans-72" x="371.236328"/>
    <use xlink:href="#DejaVuSans-75" x="412.349609"/>
    <use xlink:href="#DejaVuSans-63" x="475.728516"/>
    <use xlink:href="#DejaVuSans-74" x="530.708984"/>
    <use xlink:href="#DejaVuSans-69" x="569.917969"/>
    <use xlink:href="#DejaVuSans-6f" x="597.701172"/>
    <use xlink:href="#DejaVuSans-6e" x="658.882812"/>
    <use xlink:href="#DejaVuSans-20" x="722.261719"/>
    <use xlink:href="#DejaVuSans-64" x="754.048828"/>
    <use xlink:href="#DejaVuSans-61" x="817.525391"/>
    <use xlink:href="#DejaVuSans-74" x="878.804688"/>
    <use xlink:href="#DejaVuSans-61" x="918.013672"/>
   </g>
  </g>
 </g>
 <defs>
  <clipPath id="p33d4990aa2">
   <rect x="337.085217" y="96.529655" width="77.634783" height="45.881379"/>
  </clipPath>
  <clipPath id="p31619ab918">
   <rect x="57.6" y="151.58731" width="77.634783" height="45.881379"/>
  </clipPath>
  <clipPath id="pef6a7d5e36">
   <rect x="337.085217" y="151.58731" width="77.634783" height="45.881379"/>
  </clipPath>
  <clipPath id="p3301a06600">
   <rect x="57.6" y="206.644966" width="77.634783" height="45.881379"/>
  </clipPath>
  <clipPath id="p03e7fe29f4">
   <rect x="150.761739" y="206.644966" width="77.634783" height="45.881379"/>
  </clipPath>
  <clipPath id="pd6786239f5">
   <rect x="243.923478" y="206.644966" width="77.634783" height="45.881379"/>
  </clipPath>
  <clipPath id="pbe960b6cf8">
   <rect x="243.923478" y="261.702621" width="77.634783" height="45.881379"/>
  </clipPath>
 </defs>
</svg>
