<?xml version="1.0" encoding="utf-8" standalone="no"?>
<!DOCTYPE svg PUBLIC "-//W3C//DTD SVG 1.1//EN"
  "http://www.w3.org/Graphics/SVG/1.1/DTD/svg11.dtd">
<svg xmlns:xlink="http://www.w3.org/1999/xlink" width="460.8pt" height="345.6pt" viewBox="0 0 460.8 345.6" xmlns="http://www.w3.org/2000/svg" version="1.1">
 <metadata>
  <rdf:RDF xmlns:dc="http://purl.org/dc/elements/1.1/" xmlns:cc="http://creativecommons.org/ns#" xmlns:rdf="http://www.w3.org/1999/02/22-rdf-syntax-ns#">
   <cc:Work>
    <dc:type rdf:resource="http://purl.org/dc/dcmitype/StillImage"/>
    <dc:date>2024-12-23T13:42:29.850416</dc:date>
    <dc:format>image/svg+xml</dc:format>
    <dc:creator>
     <cc:Agent>
      <dc:title>Matplotlib v3.7.5, https://matplotlib.org/</dc:title>
     </cc:Agent>
    </dc:creator>
   </cc:Work>
  </rdf:RDF>
 </metadata>
 <defs>
  <style type="text/css">*{stroke-linejoin: round; stroke-linecap: butt}</style>
 </defs>
 <g id="figure_1">
  <g id="patch_1">
   <path d="M 0 345.6 
L 460.8 345.6 
L 460.8 0 
L 0 0 
z
" style="fill: #ffffff"/>
  </g>
  <g id="axes_1">
   <g id="LineCollection_1">
    <path d="M 101.36444 64.025144 
L 71.616548 53.467196 
" clip-path="url(#p1eaadcf6e5)" style="fill: none; stroke: #000000"/>
    <path d="M 101.36444 64.025144 
L 92.823406 81.792 
" clip-path="url(#p1eaadcf6e5)" style="fill: none; stroke: #000000"/>
    <path d="M 101.36444 64.025144 
L 67.010277 71.420401 
" clip-path="url(#p1eaadcf6e5)" style="fill: none; stroke: #000000"/>
    <path d="M 101.36444 64.025144 
L 91.579122 64.776596 
" clip-path="url(#p1eaadcf6e5)" style="fill: none; stroke: #000000"/>
    <path d="M 101.36444 64.025144 
L 121.412189 75.363389 
" clip-path="url(#p1eaadcf6e5)" style="fill: none; stroke: #000000"/>
    <path d="M 101.36444 64.025144 
L 100.302681 47.033379 
" clip-path="url(#p1eaadcf6e5)" style="fill: none; stroke: #000000"/>
    <path d="M 101.36444 64.025144 
L 125.824506 57.543909 
" clip-path="url(#p1eaadcf6e5)" style="fill: none; stroke: #000000"/>
    <path d="M 71.616548 53.467196 
L 91.579122 64.776596 
" clip-path="url(#p1eaadcf6e5)" style="fill: none; stroke: #000000"/>
    <path d="M 92.823406 81.792 
L 91.579122 64.776596 
" clip-path="url(#p1eaadcf6e5)" style="fill: none; stroke: #000000"/>
    <path d="M 67.010277 71.420401 
L 91.579122 64.776596 
" clip-path="url(#p1eaadcf6e5)" style="fill: none; stroke: #000000"/>
    <path d="M 91.579122 64.776596 
L 121.412189 75.363389 
" clip-path="url(#p1eaadcf6e5)" style="fill: none; stroke: #000000"/>
    <path d="M 91.579122 64.776596 
L 100.302681 47.033379 
" clip-path="url(#p1eaadcf6e5)" style="fill: none; stroke: #000000"/>
    <path d="M 91.579122 64.776596 
L 125.824506 57.543909 
" clip-path="url(#p1eaadcf6e5)" style="fill: none; stroke: #000000"/>
   </g>
   <g id="PathCollection_1">
    <defs>
     <path id="m20b0a13ff5" d="M 0 1.732051 
C 0.459345 1.732051 0.899939 1.549551 1.224745 1.224745 
C 1.549551 0.899939 1.732051 0.459345 1.732051 0 
C 1.732051 -0.459345 1.549551 -0.899939 1.224745 -1.224745 
C 0.899939 -1.549551 0.459345 -1.732051 0 -1.732051 
C -0.459345 -1.732051 -0.899939 -1.549551 -1.224745 -1.224745 
C -1.549551 -0.899939 -1.732051 -0.459345 -1.732051 0 
C -1.732051 0.459345 -1.549551 0.899939 -1.224745 1.224745 
C -0.899939 1.549551 -0.459345 1.732051 0 1.732051 
z
" style="stroke: #1f78b4"/>
    </defs>
    <g clip-path="url(#p1eaadcf6e5)">
     <use xlink:href="#m20b0a13ff5" x="101.36444" y="64.025144" style="fill: #1f78b4; stroke: #1f78b4"/>
     <use xlink:href="#m20b0a13ff5" x="71.616548" y="53.467196" style="fill: #1f78b4; stroke: #1f78b4"/>
     <use xlink:href="#m20b0a13ff5" x="92.823406" y="81.792" style="fill: #1f78b4; stroke: #1f78b4"/>
     <use xlink:href="#m20b0a13ff5" x="67.010277" y="71.420401" style="fill: #1f78b4; stroke: #1f78b4"/>
     <use xlink:href="#m20b0a13ff5" x="91.579122" y="64.776596" style="fill: #1f78b4; stroke: #1f78b4"/>
     <use xlink:href="#m20b0a13ff5" x="121.412189" y="75.363389" style="fill: #1f78b4; stroke: #1f78b4"/>
     <use xlink:href="#m20b0a13ff5" x="100.302681" y="47.033379" style="fill: #1f78b4; stroke: #1f78b4"/>
     <use xlink:href="#m20b0a13ff5" x="125.824506" y="57.543909" style="fill: #1f78b4; stroke: #1f78b4"/>
    </g>
   </g>
  </g>
  <g id="axes_2">
   <g id="LineCollection_2">
    <path d="M 160.172016 72.709697 
L 161.985783 58.579123 
" clip-path="url(#p96d4609c5c)" style="fill: none; stroke: #000000"/>
    <path d="M 160.172016 72.709697 
L 197.194994 59.977104 
" clip-path="url(#p96d4609c5c)" style="fill: none; stroke: #000000"/>
    <path d="M 160.172016 72.709697 
L 218.986245 56.891073 
" clip-path="url(#p96d4609c5c)" style="fill: none; stroke: #000000"/>
    <path d="M 160.172016 72.709697 
L 216.61802 70.787097 
" clip-path="url(#p96d4609c5c)" style="fill: none; stroke: #000000"/>
    <path d="M 160.172016 72.709697 
L 203.580607 81.059392 
" clip-path="url(#p96d4609c5c)" style="fill: none; stroke: #000000"/>
    <path d="M 160.172016 72.709697 
L 180.683496 81.792 
" clip-path="url(#p96d4609c5c)" style="fill: none; stroke: #000000"/>
    <path d="M 160.172016 72.709697 
L 198.132976 47.033379 
" clip-path="url(#p96d4609c5c)" style="fill: none; stroke: #000000"/>
    <path d="M 160.172016 72.709697 
L 181.582341 68.629965 
" clip-path="url(#p96d4609c5c)" style="fill: none; stroke: #000000"/>
    <path d="M 160.172016 72.709697 
L 174.910436 48.233647 
" clip-path="url(#p96d4609c5c)" style="fill: none; stroke: #000000"/>
    <path d="M 161.985783 58.579123 
L 197.194994 59.977104 
" clip-path="url(#p96d4609c5c)" style="fill: none; stroke: #000000"/>
    <path d="M 161.985783 58.579123 
L 218.986245 56.891073 
" clip-path="url(#p96d4609c5c)" style="fill: none; stroke: #000000"/>
    <path d="M 161.985783 58.579123 
L 216.61802 70.787097 
" clip-path="url(#p96d4609c5c)" style="fill: none; stroke: #000000"/>
    <path d="M 161.985783 58.579123 
L 203.580607 81.059392 
" clip-path="url(#p96d4609c5c)" style="fill: none; stroke: #000000"/>
    <path d="M 161.985783 58.579123 
L 180.683496 81.792 
" clip-path="url(#p96d4609c5c)" style="fill: none; stroke: #000000"/>
    <path d="M 161.985783 58.579123 
L 198.132976 47.033379 
" clip-path="url(#p96d4609c5c)" style="fill: none; stroke: #000000"/>
    <path d="M 161.985783 58.579123 
L 181.582341 68.629965 
" clip-path="url(#p96d4609c5c)" style="fill: none; stroke: #000000"/>
    <path d="M 161.985783 58.579123 
L 174.910436 48.233647 
" clip-path="url(#p96d4609c5c)" style="fill: none; stroke: #000000"/>
    <path d="M 197.194994 59.977104 
L 218.986245 56.891073 
" clip-path="url(#p96d4609c5c)" style="fill: none; stroke: #000000"/>
    <path d="M 197.194994 59.977104 
L 216.61802 70.787097 
" clip-path="url(#p96d4609c5c)" style="fill: none; stroke: #000000"/>
    <path d="M 197.194994 59.977104 
L 203.580607 81.059392 
" clip-path="url(#p96d4609c5c)" style="fill: none; stroke: #000000"/>
    <path d="M 197.194994 59.977104 
L 180.683496 81.792 
" clip-path="url(#p96d4609c5c)" style="fill: none; stroke: #000000"/>
    <path d="M 197.194994 59.977104 
L 198.132976 47.033379 
" clip-path="url(#p96d4609c5c)" style="fill: none; stroke: #000000"/>
    <path d="M 197.194994 59.977104 
L 181.582341 68.629965 
" clip-path="url(#p96d4609c5c)" style="fill: none; stroke: #000000"/>
    <path d="M 197.194994 59.977104 
L 174.910436 48.233647 
" clip-path="url(#p96d4609c5c)" style="fill: none; stroke: #000000"/>
    <path d="M 218.986245 56.891073 
L 216.61802 70.787097 
" clip-path="url(#p96d4609c5c)" style="fill: none; stroke: #000000"/>
    <path d="M 218.986245 56.891073 
L 203.580607 81.059392 
" clip-path="url(#p96d4609c5c)" style="fill: none; stroke: #000000"/>
    <path d="M 218.986245 56.891073 
L 180.683496 81.792 
" clip-path="url(#p96d4609c5c)" style="fill: none; stroke: #000000"/>
    <path d="M 218.986245 56.891073 
L 198.132976 47.033379 
" clip-path="url(#p96d4609c5c)" style="fill: none; stroke: #000000"/>
    <path d="M 218.986245 56.891073 
L 181.582341 68.629965 
" clip-path="url(#p96d4609c5c)" style="fill: none; stroke: #000000"/>
    <path d="M 218.986245 56.891073 
L 174.910436 48.233647 
" clip-path="url(#p96d4609c5c)" style="fill: none; stroke: #000000"/>
    <path d="M 216.61802 70.787097 
L 203.580607 81.059392 
" clip-path="url(#p96d4609c5c)" style="fill: none; stroke: #000000"/>
    <path d="M 216.61802 70.787097 
L 180.683496 81.792 
" clip-path="url(#p96d4609c5c)" style="fill: none; stroke: #000000"/>
    <path d="M 216.61802 70.787097 
L 198.132976 47.033379 
" clip-path="url(#p96d4609c5c)" style="fill: none; stroke: #000000"/>
    <path d="M 216.61802 70.787097 
L 181.582341 68.629965 
" clip-path="url(#p96d4609c5c)" style="fill: none; stroke: #000000"/>
    <path d="M 216.61802 70.787097 
L 174.910436 48.233647 
" clip-path="url(#p96d4609c5c)" style="fill: none; stroke: #000000"/>
    <path d="M 203.580607 81.059392 
L 180.683496 81.792 
" clip-path="url(#p96d4609c5c)" style="fill: none; stroke: #000000"/>
    <path d="M 203.580607 81.059392 
L 198.132976 47.033379 
" clip-path="url(#p96d4609c5c)" style="fill: none; stroke: #000000"/>
    <path d="M 203.580607 81.059392 
L 181.582341 68.629965 
" clip-path="url(#p96d4609c5c)" style="fill: none; stroke: #000000"/>
    <path d="M 203.580607 81.059392 
L 174.910436 48.233647 
" clip-path="url(#p96d4609c5c)" style="fill: none; stroke: #000000"/>
    <path d="M 180.683496 81.792 
L 198.132976 47.033379 
" clip-path="url(#p96d4609c5c)" style="fill: none; stroke: #000000"/>
    <path d="M 180.683496 81.792 
L 181.582341 68.629965 
" clip-path="url(#p96d4609c5c)" style="fill: none; stroke: #000000"/>
    <path d="M 180.683496 81.792 
L 174.910436 48.233647 
" clip-path="url(#p96d4609c5c)" style="fill: none; stroke: #000000"/>
    <path d="M 198.132976 47.033379 
L 181.582341 68.629965 
" clip-path="url(#p96d4609c5c)" style="fill: none; stroke: #000000"/>
    <path d="M 198.132976 47.033379 
L 174.910436 48.233647 
" clip-path="url(#p96d4609c5c)" style="fill: none; stroke: #000000"/>
    <path d="M 181.582341 68.629965 
L 174.910436 48.233647 
" clip-path="url(#p96d4609c5c)" style="fill: none; stroke: #000000"/>
   </g>
   <g id="PathCollection_2">
    <g clip-path="url(#p96d4609c5c)">
     <use xlink:href="#m20b0a13ff5" x="160.172016" y="72.709697" style="fill: #1f78b4; stroke: #1f78b4"/>
     <use xlink:href="#m20b0a13ff5" x="161.985783" y="58.579123" style="fill: #1f78b4; stroke: #1f78b4"/>
     <use xlink:href="#m20b0a13ff5" x="197.194994" y="59.977104" style="fill: #1f78b4; stroke: #1f78b4"/>
     <use xlink:href="#m20b0a13ff5" x="218.986245" y="56.891073" style="fill: #1f78b4; stroke: #1f78b4"/>
     <use xlink:href="#m20b0a13ff5" x="216.61802" y="70.787097" style="fill: #1f78b4; stroke: #1f78b4"/>
     <use xlink:href="#m20b0a13ff5" x="203.580607" y="81.059392" style="fill: #1f78b4; stroke: #1f78b4"/>
     <use xlink:href="#m20b0a13ff5" x="180.683496" y="81.792" style="fill: #1f78b4; stroke: #1f78b4"/>
     <use xlink:href="#m20b0a13ff5" x="198.132976" y="47.033379" style="fill: #1f78b4; stroke: #1f78b4"/>
     <use xlink:href="#m20b0a13ff5" x="181.582341" y="68.629965" style="fill: #1f78b4; stroke: #1f78b4"/>
     <use xlink:href="#m20b0a13ff5" x="174.910436" y="48.233647" style="fill: #1f78b4; stroke: #1f78b4"/>
    </g>
   </g>
  </g>
  <g id="axes_3">
   <g id="LineCollection_3">
    <path d="M 278.299894 65.240808 
L 262.185747 77.753642 
" clip-path="url(#p7c1dde495d)" style="fill: none; stroke: #000000"/>
    <path d="M 278.299894 65.240808 
L 291.333915 81.792 
" clip-path="url(#p7c1dde495d)" style="fill: none; stroke: #000000"/>
    <path d="M 278.299894 65.240808 
L 253.333755 59.677901 
" clip-path="url(#p7c1dde495d)" style="fill: none; stroke: #000000"/>
    <path d="M 278.299894 65.240808 
L 287.063356 63.325769 
" clip-path="url(#p7c1dde495d)" style="fill: none; stroke: #000000"/>
    <path d="M 278.299894 65.240808 
L 273.967943 47.033379 
" clip-path="url(#p7c1dde495d)" style="fill: none; stroke: #000000"/>
    <path d="M 278.299894 65.240808 
L 303.184362 50.922765 
" clip-path="url(#p7c1dde495d)" style="fill: none; stroke: #000000"/>
    <path d="M 278.299894 65.240808 
L 312.147984 69.096002 
" clip-path="url(#p7c1dde495d)" style="fill: none; stroke: #000000"/>
    <path d="M 262.185747 77.753642 
L 287.063356 63.325769 
" clip-path="url(#p7c1dde495d)" style="fill: none; stroke: #000000"/>
    <path d="M 291.333915 81.792 
L 287.063356 63.325769 
" clip-path="url(#p7c1dde495d)" style="fill: none; stroke: #000000"/>
    <path d="M 253.333755 59.677901 
L 287.063356 63.325769 
" clip-path="url(#p7c1dde495d)" style="fill: none; stroke: #000000"/>
    <path d="M 287.063356 63.325769 
L 273.967943 47.033379 
" clip-path="url(#p7c1dde495d)" style="fill: none; stroke: #000000"/>
    <path d="M 287.063356 63.325769 
L 303.184362 50.922765 
" clip-path="url(#p7c1dde495d)" style="fill: none; stroke: #000000"/>
    <path d="M 287.063356 63.325769 
L 312.147984 69.096002 
" clip-path="url(#p7c1dde495d)" style="fill: none; stroke: #000000"/>
   </g>
   <g id="PathCollection_3">
    <g clip-path="url(#p7c1dde495d)">
     <use xlink:href="#m20b0a13ff5" x="278.299894" y="65.240808" style="fill: #1f78b4; stroke: #1f78b4"/>
     <use xlink:href="#m20b0a13ff5" x="262.185747" y="77.753642" style="fill: #1f78b4; stroke: #1f78b4"/>
     <use xlink:href="#m20b0a13ff5" x="291.333915" y="81.792" style="fill: #1f78b4; stroke: #1f78b4"/>
     <use xlink:href="#m20b0a13ff5" x="253.333755" y="59.677901" style="fill: #1f78b4; stroke: #1f78b4"/>
     <use xlink:href="#m20b0a13ff5" x="287.063356" y="63.325769" style="fill: #1f78b4; stroke: #1f78b4"/>
     <use xlink:href="#m20b0a13ff5" x="273.967943" y="47.033379" style="fill: #1f78b4; stroke: #1f78b4"/>
     <use xlink:href="#m20b0a13ff5" x="303.184362" y="50.922765" style="fill: #1f78b4; stroke: #1f78b4"/>
     <use xlink:href="#m20b0a13ff5" x="312.147984" y="69.096002" style="fill: #1f78b4; stroke: #1f78b4"/>
    </g>
   </g>
  </g>
  <g id="axes_4">
   <g id="LineCollection_4">
    <path d="M 372.710498 58.848085 
L 402.075629 54.042274 
" clip-path="url(#p8730585267)" style="fill: none; stroke: #000000"/>
    <path d="M 372.710498 58.848085 
L 405.309723 72.080944 
" clip-path="url(#p8730585267)" style="fill: none; stroke: #000000"/>
    <path d="M 372.710498 58.848085 
L 393.214016 64.097189 
" clip-path="url(#p8730585267)" style="fill: none; stroke: #000000"/>
    <path d="M 372.710498 58.848085 
L 355.789616 52.148248 
" clip-path="url(#p8730585267)" style="fill: none; stroke: #000000"/>
    <path d="M 372.710498 58.848085 
L 387.618343 79.871623 
" clip-path="url(#p8730585267)" style="fill: none; stroke: #000000"/>
    <path d="M 372.710498 58.848085 
L 361.890531 71.569157 
" clip-path="url(#p8730585267)" style="fill: none; stroke: #000000"/>
    <path d="M 372.710498 58.848085 
L 366.233145 81.792 
" clip-path="url(#p8730585267)" style="fill: none; stroke: #000000"/>
    <path d="M 372.710498 58.848085 
L 346.495494 65.248992 
" clip-path="url(#p8730585267)" style="fill: none; stroke: #000000"/>
    <path d="M 372.710498 58.848085 
L 380.383867 47.033379 
" clip-path="url(#p8730585267)" style="fill: none; stroke: #000000"/>
    <path d="M 402.075629 54.042274 
L 405.309723 72.080944 
" clip-path="url(#p8730585267)" style="fill: none; stroke: #000000"/>
    <path d="M 402.075629 54.042274 
L 393.214016 64.097189 
" clip-path="url(#p8730585267)" style="fill: none; stroke: #000000"/>
    <path d="M 402.075629 54.042274 
L 355.789616 52.148248 
" clip-path="url(#p8730585267)" style="fill: none; stroke: #000000"/>
    <path d="M 402.075629 54.042274 
L 387.618343 79.871623 
" clip-path="url(#p8730585267)" style="fill: none; stroke: #000000"/>
    <path d="M 402.075629 54.042274 
L 361.890531 71.569157 
" clip-path="url(#p8730585267)" style="fill: none; stroke: #000000"/>
    <path d="M 402.075629 54.042274 
L 366.233145 81.792 
" clip-path="url(#p8730585267)" style="fill: none; stroke: #000000"/>
    <path d="M 402.075629 54.042274 
L 346.495494 65.248992 
" clip-path="url(#p8730585267)" style="fill: none; stroke: #000000"/>
    <path d="M 402.075629 54.042274 
L 380.383867 47.033379 
" clip-path="url(#p8730585267)" style="fill: none; stroke: #000000"/>
    <path d="M 405.309723 72.080944 
L 393.214016 64.097189 
" clip-path="url(#p8730585267)" style="fill: none; stroke: #000000"/>
    <path d="M 405.309723 72.080944 
L 355.789616 52.148248 
" clip-path="url(#p8730585267)" style="fill: none; stroke: #000000"/>
    <path d="M 405.309723 72.080944 
L 387.618343 79.871623 
" clip-path="url(#p8730585267)" style="fill: none; stroke: #000000"/>
    <path d="M 405.309723 72.080944 
L 361.890531 71.569157 
" clip-path="url(#p8730585267)" style="fill: none; stroke: #000000"/>
    <path d="M 405.309723 72.080944 
L 366.233145 81.792 
" clip-path="url(#p8730585267)" style="fill: none; stroke: #000000"/>
    <path d="M 405.309723 72.080944 
L 346.495494 65.248992 
" clip-path="url(#p8730585267)" style="fill: none; stroke: #000000"/>
    <path d="M 405.309723 72.080944 
L 380.383867 47.033379 
" clip-path="url(#p8730585267)" style="fill: none; stroke: #000000"/>
    <path d="M 393.214016 64.097189 
L 355.789616 52.148248 
" clip-path="url(#p8730585267)" style="fill: none; stroke: #000000"/>
    <path d="M 393.214016 64.097189 
L 387.618343 79.871623 
" clip-path="url(#p8730585267)" style="fill: none; stroke: #000000"/>
    <path d="M 393.214016 64.097189 
L 361.890531 71.569157 
" clip-path="url(#p8730585267)" style="fill: none; stroke: #000000"/>
    <path d="M 393.214016 64.097189 
L 366.233145 81.792 
" clip-path="url(#p8730585267)" style="fill: none; stroke: #000000"/>
    <path d="M 393.214016 64.097189 
L 346.495494 65.248992 
" clip-path="url(#p8730585267)" style="fill: none; stroke: #000000"/>
    <path d="M 393.214016 64.097189 
L 380.383867 47.033379 
" clip-path="url(#p8730585267)" style="fill: none; stroke: #000000"/>
    <path d="M 355.789616 52.148248 
L 387.618343 79.871623 
" clip-path="url(#p8730585267)" style="fill: none; stroke: #000000"/>
    <path d="M 355.789616 52.148248 
L 361.890531 71.569157 
" clip-path="url(#p8730585267)" style="fill: none; stroke: #000000"/>
    <path d="M 355.789616 52.148248 
L 366.233145 81.792 
" clip-path="url(#p8730585267)" style="fill: none; stroke: #000000"/>
    <path d="M 355.789616 52.148248 
L 346.495494 65.248992 
" clip-path="url(#p8730585267)" style="fill: none; stroke: #000000"/>
    <path d="M 355.789616 52.148248 
L 380.383867 47.033379 
" clip-path="url(#p8730585267)" style="fill: none; stroke: #000000"/>
    <path d="M 387.618343 79.871623 
L 361.890531 71.569157 
" clip-path="url(#p8730585267)" style="fill: none; stroke: #000000"/>
    <path d="M 387.618343 79.871623 
L 366.233145 81.792 
" clip-path="url(#p8730585267)" style="fill: none; stroke: #000000"/>
    <path d="M 387.618343 79.871623 
L 346.495494 65.248992 
" clip-path="url(#p8730585267)" style="fill: none; stroke: #000000"/>
    <path d="M 387.618343 79.871623 
L 380.383867 47.033379 
" clip-path="url(#p8730585267)" style="fill: none; stroke: #000000"/>
    <path d="M 361.890531 71.569157 
L 366.233145 81.792 
" clip-path="url(#p8730585267)" style="fill: none; stroke: #000000"/>
    <path d="M 361.890531 71.569157 
L 346.495494 65.248992 
" clip-path="url(#p8730585267)" style="fill: none; stroke: #000000"/>
    <path d="M 361.890531 71.569157 
L 380.383867 47.033379 
" clip-path="url(#p8730585267)" style="fill: none; stroke: #000000"/>
    <path d="M 366.233145 81.792 
L 346.495494 65.248992 
" clip-path="url(#p8730585267)" style="fill: none; stroke: #000000"/>
    <path d="M 366.233145 81.792 
L 380.383867 47.033379 
" clip-path="url(#p8730585267)" style="fill: none; stroke: #000000"/>
    <path d="M 346.495494 65.248992 
L 380.383867 47.033379 
" clip-path="url(#p8730585267)" style="fill: none; stroke: #000000"/>
   </g>
   <g id="PathCollection_4">
    <g clip-path="url(#p8730585267)">
     <use xlink:href="#m20b0a13ff5" x="372.710498" y="58.848085" style="fill: #1f78b4; stroke: #1f78b4"/>
     <use xlink:href="#m20b0a13ff5" x="402.075629" y="54.042274" style="fill: #1f78b4; stroke: #1f78b4"/>
     <use xlink:href="#m20b0a13ff5" x="405.309723" y="72.080944" style="fill: #1f78b4; stroke: #1f78b4"/>
     <use xlink:href="#m20b0a13ff5" x="393.214016" y="64.097189" style="fill: #1f78b4; stroke: #1f78b4"/>
     <use xlink:href="#m20b0a13ff5" x="355.789616" y="52.148248" style="fill: #1f78b4; stroke: #1f78b4"/>
     <use xlink:href="#m20b0a13ff5" x="387.618343" y="79.871623" style="fill: #1f78b4; stroke: #1f78b4"/>
     <use xlink:href="#m20b0a13ff5" x="361.890531" y="71.569157" style="fill: #1f78b4; stroke: #1f78b4"/>
     <use xlink:href="#m20b0a13ff5" x="366.233145" y="81.792" style="fill: #1f78b4; stroke: #1f78b4"/>
     <use xlink:href="#m20b0a13ff5" x="346.495494" y="65.248992" style="fill: #1f78b4; stroke: #1f78b4"/>
     <use xlink:href="#m20b0a13ff5" x="380.383867" y="47.033379" style="fill: #1f78b4; stroke: #1f78b4"/>
    </g>
   </g>
  </g>
  <g id="axes_5">
   <g id="LineCollection_5">
    <path d="M 68.802046 110.07424 
L 100.392602 117.708335 
" clip-path="url(#p21bf3a7c42)" style="fill: none; stroke: #000000"/>
    <path d="M 68.802046 110.07424 
L 92.988151 121.383828 
" clip-path="url(#p21bf3a7c42)" style="fill: none; stroke: #000000"/>
    <path d="M 125.824506 111.597656 
L 100.392602 117.708335 
" clip-path="url(#p21bf3a7c42)" style="fill: none; stroke: #000000"/>
    <path d="M 125.824506 111.597656 
L 92.988151 121.383828 
" clip-path="url(#p21bf3a7c42)" style="fill: none; stroke: #000000"/>
    <path d="M 100.392602 117.708335 
L 96.928549 102.091034 
" clip-path="url(#p21bf3a7c42)" style="fill: none; stroke: #000000"/>
    <path d="M 100.392602 117.708335 
L 92.988151 121.383828 
" clip-path="url(#p21bf3a7c42)" style="fill: none; stroke: #000000"/>
    <path d="M 100.392602 117.708335 
L 124.312005 128.991418 
" clip-path="url(#p21bf3a7c42)" style="fill: none; stroke: #000000"/>
    <path d="M 100.392602 117.708335 
L 67.010277 127.453825 
" clip-path="url(#p21bf3a7c42)" style="fill: none; stroke: #000000"/>
    <path d="M 100.392602 117.708335 
L 96.047547 136.849655 
" clip-path="url(#p21bf3a7c42)" style="fill: none; stroke: #000000"/>
    <path d="M 96.928549 102.091034 
L 92.988151 121.383828 
" clip-path="url(#p21bf3a7c42)" style="fill: none; stroke: #000000"/>
    <path d="M 92.988151 121.383828 
L 124.312005 128.991418 
" clip-path="url(#p21bf3a7c42)" style="fill: none; stroke: #000000"/>
    <path d="M 92.988151 121.383828 
L 67.010277 127.453825 
" clip-path="url(#p21bf3a7c42)" style="fill: none; stroke: #000000"/>
    <path d="M 92.988151 121.383828 
L 96.047547 136.849655 
" clip-path="url(#p21bf3a7c42)" style="fill: none; stroke: #000000"/>
   </g>
   <g id="PathCollection_5">
    <g clip-path="url(#p21bf3a7c42)">
     <use xlink:href="#m20b0a13ff5" x="68.802046" y="110.07424" style="fill: #1f78b4; stroke: #1f78b4"/>
     <use xlink:href="#m20b0a13ff5" x="125.824506" y="111.597656" style="fill: #1f78b4; stroke: #1f78b4"/>
     <use xlink:href="#m20b0a13ff5" x="100.392602" y="117.708335" style="fill: #1f78b4; stroke: #1f78b4"/>
     <use xlink:href="#m20b0a13ff5" x="96.928549" y="102.091034" style="fill: #1f78b4; stroke: #1f78b4"/>
     <use xlink:href="#m20b0a13ff5" x="92.988151" y="121.383828" style="fill: #1f78b4; stroke: #1f78b4"/>
     <use xlink:href="#m20b0a13ff5" x="124.312005" y="128.991418" style="fill: #1f78b4; stroke: #1f78b4"/>
     <use xlink:href="#m20b0a13ff5" x="67.010277" y="127.453825" style="fill: #1f78b4; stroke: #1f78b4"/>
     <use xlink:href="#m20b0a13ff5" x="96.047547" y="136.849655" style="fill: #1f78b4; stroke: #1f78b4"/>
    </g>
   </g>
  </g>
  <g id="axes_6"/>
  <g id="axes_7">
   <g id="LineCollection_6">
    <path d="M 281.087763 136.849655 
L 269.019084 127.812174 
" clip-path="url(#p2ae232bc2b)" style="fill: none; stroke: #000000"/>
    <path d="M 281.087763 136.849655 
L 283.416583 116.105449 
" clip-path="url(#p2ae232bc2b)" style="fill: none; stroke: #000000"/>
    <path d="M 281.087763 136.849655 
L 269.295408 105.842301 
" clip-path="url(#p2ae232bc2b)" style="fill: none; stroke: #000000"/>
    <path d="M 281.087763 136.849655 
L 303.578156 121.711982 
" clip-path="url(#p2ae232bc2b)" style="fill: none; stroke: #000000"/>
    <path d="M 281.087763 136.849655 
L 298.548369 133.92863 
" clip-path="url(#p2ae232bc2b)" style="fill: none; stroke: #000000"/>
    <path d="M 281.087763 136.849655 
L 253.333755 121.074328 
" clip-path="url(#p2ae232bc2b)" style="fill: none; stroke: #000000"/>
    <path d="M 281.087763 136.849655 
L 312.147984 109.471246 
" clip-path="url(#p2ae232bc2b)" style="fill: none; stroke: #000000"/>
    <path d="M 281.087763 136.849655 
L 288.770114 102.091034 
" clip-path="url(#p2ae232bc2b)" style="fill: none; stroke: #000000"/>
    <path d="M 269.019084 127.812174 
L 283.416583 116.105449 
" clip-path="url(#p2ae232bc2b)" style="fill: none; stroke: #000000"/>
    <path d="M 269.019084 127.812174 
L 269.295408 105.842301 
" clip-path="url(#p2ae232bc2b)" style="fill: none; stroke: #000000"/>
    <path d="M 269.019084 127.812174 
L 303.578156 121.711982 
" clip-path="url(#p2ae232bc2b)" style="fill: none; stroke: #000000"/>
    <path d="M 269.019084 127.812174 
L 298.548369 133.92863 
" clip-path="url(#p2ae232bc2b)" style="fill: none; stroke: #000000"/>
    <path d="M 269.019084 127.812174 
L 253.333755 121.074328 
" clip-path="url(#p2ae232bc2b)" style="fill: none; stroke: #000000"/>
    <path d="M 269.019084 127.812174 
L 312.147984 109.471246 
" clip-path="url(#p2ae232bc2b)" style="fill: none; stroke: #000000"/>
    <path d="M 269.019084 127.812174 
L 288.770114 102.091034 
" clip-path="url(#p2ae232bc2b)" style="fill: none; stroke: #000000"/>
    <path d="M 283.416583 116.105449 
L 269.295408 105.842301 
" clip-path="url(#p2ae232bc2b)" style="fill: none; stroke: #000000"/>
    <path d="M 283.416583 116.105449 
L 303.578156 121.711982 
" clip-path="url(#p2ae232bc2b)" style="fill: none; stroke: #000000"/>
    <path d="M 283.416583 116.105449 
L 298.548369 133.92863 
" clip-path="url(#p2ae232bc2b)" style="fill: none; stroke: #000000"/>
    <path d="M 283.416583 116.105449 
L 253.333755 121.074328 
" clip-path="url(#p2ae232bc2b)" style="fill: none; stroke: #000000"/>
    <path d="M 283.416583 116.105449 
L 312.147984 109.471246 
" clip-path="url(#p2ae232bc2b)" style="fill: none; stroke: #000000"/>
    <path d="M 283.416583 116.105449 
L 288.770114 102.091034 
" clip-path="url(#p2ae232bc2b)" style="fill: none; stroke: #000000"/>
    <path d="M 269.295408 105.842301 
L 303.578156 121.711982 
" clip-path="url(#p2ae232bc2b)" style="fill: none; stroke: #000000"/>
    <path d="M 269.295408 105.842301 
L 298.548369 133.92863 
" clip-path="url(#p2ae232bc2b)" style="fill: none; stroke: #000000"/>
    <path d="M 269.295408 105.842301 
L 253.333755 121.074328 
" clip-path="url(#p2ae232bc2b)" style="fill: none; stroke: #000000"/>
    <path d="M 269.295408 105.842301 
L 312.147984 109.471246 
" clip-path="url(#p2ae232bc2b)" style="fill: none; stroke: #000000"/>
    <path d="M 269.295408 105.842301 
L 288.770114 102.091034 
" clip-path="url(#p2ae232bc2b)" style="fill: none; stroke: #000000"/>
    <path d="M 303.578156 121.711982 
L 298.548369 133.92863 
" clip-path="url(#p2ae232bc2b)" style="fill: none; stroke: #000000"/>
    <path d="M 303.578156 121.711982 
L 253.333755 121.074328 
" clip-path="url(#p2ae232bc2b)" style="fill: none; stroke: #000000"/>
    <path d="M 303.578156 121.711982 
L 312.147984 109.471246 
" clip-path="url(#p2ae232bc2b)" style="fill: none; stroke: #000000"/>
    <path d="M 303.578156 121.711982 
L 288.770114 102.091034 
" clip-path="url(#p2ae232bc2b)" style="fill: none; stroke: #000000"/>
    <path d="M 298.548369 133.92863 
L 253.333755 121.074328 
" clip-path="url(#p2ae232bc2b)" style="fill: none; stroke: #000000"/>
    <path d="M 298.548369 133.92863 
L 312.147984 109.471246 
" clip-path="url(#p2ae232bc2b)" style="fill: none; stroke: #000000"/>
    <path d="M 298.548369 133.92863 
L 288.770114 102.091034 
" clip-path="url(#p2ae232bc2b)" style="fill: none; stroke: #000000"/>
    <path d="M 253.333755 121.074328 
L 288.770114 102.091034 
" clip-path="url(#p2ae232bc2b)" style="fill: none; stroke: #000000"/>
    <path d="M 312.147984 109.471246 
L 288.770114 102.091034 
" clip-path="url(#p2ae232bc2b)" style="fill: none; stroke: #000000"/>
   </g>
   <g id="PathCollection_6">
    <g clip-path="url(#p2ae232bc2b)">
     <use xlink:href="#m20b0a13ff5" x="281.087763" y="136.849655" style="fill: #1f78b4; stroke: #1f78b4"/>
     <use xlink:href="#m20b0a13ff5" x="269.019084" y="127.812174" style="fill: #1f78b4; stroke: #1f78b4"/>
     <use xlink:href="#m20b0a13ff5" x="283.416583" y="116.105449" style="fill: #1f78b4; stroke: #1f78b4"/>
     <use xlink:href="#m20b0a13ff5" x="269.295408" y="105.842301" style="fill: #1f78b4; stroke: #1f78b4"/>
     <use xlink:href="#m20b0a13ff5" x="303.578156" y="121.711982" style="fill: #1f78b4; stroke: #1f78b4"/>
     <use xlink:href="#m20b0a13ff5" x="298.548369" y="133.92863" style="fill: #1f78b4; stroke: #1f78b4"/>
     <use xlink:href="#m20b0a13ff5" x="253.333755" y="121.074328" style="fill: #1f78b4; stroke: #1f78b4"/>
     <use xlink:href="#m20b0a13ff5" x="312.147984" y="109.471246" style="fill: #1f78b4; stroke: #1f78b4"/>
     <use xlink:href="#m20b0a13ff5" x="288.770114" y="102.091034" style="fill: #1f78b4; stroke: #1f78b4"/>
    </g>
   </g>
  </g>
  <g id="axes_8"/>
  <g id="axes_9">
   <g id="LineCollection_7">
    <path d="M 125.824506 157.84444 
L 67.675837 157.14869 
" clip-path="url(#pd02cde98da)" style="fill: none; stroke: #000000"/>
    <path d="M 125.824506 157.84444 
L 125.158945 191.90731 
" clip-path="url(#pd02cde98da)" style="fill: none; stroke: #000000"/>
    <path d="M 125.824506 157.84444 
L 67.010277 191.21156 
" clip-path="url(#pd02cde98da)" style="fill: none; stroke: #000000"/>
    <path d="M 67.675837 157.14869 
L 125.158945 191.90731 
" clip-path="url(#pd02cde98da)" style="fill: none; stroke: #000000"/>
    <path d="M 67.675837 157.14869 
L 67.010277 191.21156 
" clip-path="url(#pd02cde98da)" style="fill: none; stroke: #000000"/>
    <path d="M 125.158945 191.90731 
L 67.010277 191.21156 
" clip-path="url(#pd02cde98da)" style="fill: none; stroke: #000000"/>
   </g>
   <g id="PathCollection_7">
    <g clip-path="url(#pd02cde98da)">
     <use xlink:href="#m20b0a13ff5" x="125.824506" y="157.84444" style="fill: #1f78b4; stroke: #1f78b4"/>
     <use xlink:href="#m20b0a13ff5" x="67.675837" y="157.14869" style="fill: #1f78b4; stroke: #1f78b4"/>
     <use xlink:href="#m20b0a13ff5" x="125.158945" y="191.90731" style="fill: #1f78b4; stroke: #1f78b4"/>
     <use xlink:href="#m20b0a13ff5" x="67.010277" y="191.21156" style="fill: #1f78b4; stroke: #1f78b4"/>
    </g>
   </g>
  </g>
  <g id="axes_10"/>
  <g id="axes_11"/>
  <g id="axes_12">
   <g id="LineCollection_8">
    <path d="M 380.757767 157.14869 
L 346.495494 188.281076 
" clip-path="url(#pb2900048a5)" style="fill: none; stroke: #000000"/>
    <path d="M 380.757767 157.14869 
L 405.309723 191.90731 
" clip-path="url(#pb2900048a5)" style="fill: none; stroke: #000000"/>
    <path d="M 346.495494 188.281076 
L 405.309723 191.90731 
" clip-path="url(#pb2900048a5)" style="fill: none; stroke: #000000"/>
   </g>
   <g id="PathCollection_8">
    <g clip-path="url(#pb2900048a5)">
     <use xlink:href="#m20b0a13ff5" x="380.757767" y="157.14869" style="fill: #1f78b4; stroke: #1f78b4"/>
     <use xlink:href="#m20b0a13ff5" x="346.495494" y="188.281076" style="fill: #1f78b4; stroke: #1f78b4"/>
     <use xlink:href="#m20b0a13ff5" x="405.309723" y="191.90731" style="fill: #1f78b4; stroke: #1f78b4"/>
    </g>
   </g>
  </g>
  <g id="axes_13"/>
  <g id="axes_14"/>
  <g id="axes_15">
   <g id="LineCollection_9">
    <path d="M 279.402275 227.641887 
L 253.333755 225.260586 
" clip-path="url(#pa07341d126)" style="fill: none; stroke: #000000"/>
    <path d="M 279.402275 227.641887 
L 312.147984 233.952085 
" clip-path="url(#pa07341d126)" style="fill: none; stroke: #000000"/>
    <path d="M 279.402275 227.641887 
L 304.213772 217.106582 
" clip-path="url(#pa07341d126)" style="fill: none; stroke: #000000"/>
    <path d="M 279.402275 227.641887 
L 285.945643 231.574422 
" clip-path="url(#pa07341d126)" style="fill: none; stroke: #000000"/>
    <path d="M 279.402275 227.641887 
L 289.674328 246.964966 
" clip-path="url(#pa07341d126)" style="fill: none; stroke: #000000"/>
    <path d="M 279.402275 227.641887 
L 261.151358 242.100532 
" clip-path="url(#pa07341d126)" style="fill: none; stroke: #000000"/>
    <path d="M 279.402275 227.641887 
L 275.669764 212.206345 
" clip-path="url(#pa07341d126)" style="fill: none; stroke: #000000"/>
    <path d="M 253.333755 225.260586 
L 285.945643 231.574422 
" clip-path="url(#pa07341d126)" style="fill: none; stroke: #000000"/>
    <path d="M 312.147984 233.952085 
L 285.945643 231.574422 
" clip-path="url(#pa07341d126)" style="fill: none; stroke: #000000"/>
    <path d="M 304.213772 217.106582 
L 285.945643 231.574422 
" clip-path="url(#pa07341d126)" style="fill: none; stroke: #000000"/>
    <path d="M 285.945643 231.574422 
L 289.674328 246.964966 
" clip-path="url(#pa07341d126)" style="fill: none; stroke: #000000"/>
    <path d="M 285.945643 231.574422 
L 261.151358 242.100532 
" clip-path="url(#pa07341d126)" style="fill: none; stroke: #000000"/>
    <path d="M 285.945643 231.574422 
L 275.669764 212.206345 
" clip-path="url(#pa07341d126)" style="fill: none; stroke: #000000"/>
   </g>
   <g id="PathCollection_9">
    <g clip-path="url(#pa07341d126)">
     <use xlink:href="#m20b0a13ff5" x="279.402275" y="227.641887" style="fill: #1f78b4; stroke: #1f78b4"/>
     <use xlink:href="#m20b0a13ff5" x="253.333755" y="225.260586" style="fill: #1f78b4; stroke: #1f78b4"/>
     <use xlink:href="#m20b0a13ff5" x="312.147984" y="233.952085" style="fill: #1f78b4; stroke: #1f78b4"/>
     <use xlink:href="#m20b0a13ff5" x="304.213772" y="217.106582" style="fill: #1f78b4; stroke: #1f78b4"/>
     <use xlink:href="#m20b0a13ff5" x="285.945643" y="231.574422" style="fill: #1f78b4; stroke: #1f78b4"/>
     <use xlink:href="#m20b0a13ff5" x="289.674328" y="246.964966" style="fill: #1f78b4; stroke: #1f78b4"/>
     <use xlink:href="#m20b0a13ff5" x="261.151358" y="242.100532" style="fill: #1f78b4; stroke: #1f78b4"/>
     <use xlink:href="#m20b0a13ff5" x="275.669764" y="212.206345" style="fill: #1f78b4; stroke: #1f78b4"/>
    </g>
   </g>
  </g>
  <g id="axes_16"/>
  <g id="axes_17">
   <g id="LineCollection_10">
    <path d="M 67.010277 302.022621 
L 125.824506 267.264 
" clip-path="url(#p16c05e610d)" style="fill: none; stroke: #000000"/>
   </g>
   <g id="PathCollection_10">
    <g clip-path="url(#p16c05e610d)">
     <use xlink:href="#m20b0a13ff5" x="67.010277" y="302.022621" style="fill: #1f78b4; stroke: #1f78b4"/>
     <use xlink:href="#m20b0a13ff5" x="125.824506" y="267.264" style="fill: #1f78b4; stroke: #1f78b4"/>
    </g>
   </g>
  </g>
  <g id="axes_18">
   <g id="LineCollection_11">
    <path d="M 165.914057 273.664822 
L 204.5713 267.740623 
" clip-path="url(#p9de4d17c56)" style="fill: none; stroke: #000000"/>
    <path d="M 165.914057 273.664822 
L 160.172016 287.041365 
" clip-path="url(#p9de4d17c56)" style="fill: none; stroke: #000000"/>
    <path d="M 165.914057 273.664822 
L 183.119779 267.264 
" clip-path="url(#p9de4d17c56)" style="fill: none; stroke: #000000"/>
    <path d="M 165.914057 273.664822 
L 174.280337 300.517951 
" clip-path="url(#p9de4d17c56)" style="fill: none; stroke: #000000"/>
    <path d="M 165.914057 273.664822 
L 218.986245 280.300794 
" clip-path="url(#p9de4d17c56)" style="fill: none; stroke: #000000"/>
    <path d="M 165.914057 273.664822 
L 196.96146 302.022621 
" clip-path="url(#p9de4d17c56)" style="fill: none; stroke: #000000"/>
    <path d="M 165.914057 273.664822 
L 197.473311 280.649958 
" clip-path="url(#p9de4d17c56)" style="fill: none; stroke: #000000"/>
    <path d="M 165.914057 273.664822 
L 212.628529 293.599034 
" clip-path="url(#p9de4d17c56)" style="fill: none; stroke: #000000"/>
    <path d="M 165.914057 273.664822 
L 180.9637 288.78264 
" clip-path="url(#p9de4d17c56)" style="fill: none; stroke: #000000"/>
    <path d="M 204.5713 267.740623 
L 160.172016 287.041365 
" clip-path="url(#p9de4d17c56)" style="fill: none; stroke: #000000"/>
    <path d="M 204.5713 267.740623 
L 183.119779 267.264 
" clip-path="url(#p9de4d17c56)" style="fill: none; stroke: #000000"/>
    <path d="M 204.5713 267.740623 
L 174.280337 300.517951 
" clip-path="url(#p9de4d17c56)" style="fill: none; stroke: #000000"/>
    <path d="M 204.5713 267.740623 
L 218.986245 280.300794 
" clip-path="url(#p9de4d17c56)" style="fill: none; stroke: #000000"/>
    <path d="M 204.5713 267.740623 
L 196.96146 302.022621 
" clip-path="url(#p9de4d17c56)" style="fill: none; stroke: #000000"/>
    <path d="M 204.5713 267.740623 
L 197.473311 280.649958 
" clip-path="url(#p9de4d17c56)" style="fill: none; stroke: #000000"/>
    <path d="M 204.5713 267.740623 
L 212.628529 293.599034 
" clip-path="url(#p9de4d17c56)" style="fill: none; stroke: #000000"/>
    <path d="M 204.5713 267.740623 
L 180.9637 288.78264 
" clip-path="url(#p9de4d17c56)" style="fill: none; stroke: #000000"/>
    <path d="M 160.172016 287.041365 
L 183.119779 267.264 
" clip-path="url(#p9de4d17c56)" style="fill: none; stroke: #000000"/>
    <path d="M 160.172016 287.041365 
L 174.280337 300.517951 
" clip-path="url(#p9de4d17c56)" style="fill: none; stroke: #000000"/>
    <path d="M 160.172016 287.041365 
L 218.986245 280.300794 
" clip-path="url(#p9de4d17c56)" style="fill: none; stroke: #000000"/>
    <path d="M 160.172016 287.041365 
L 196.96146 302.022621 
" clip-path="url(#p9de4d17c56)" style="fill: none; stroke: #000000"/>
    <path d="M 160.172016 287.041365 
L 197.473311 280.649958 
" clip-path="url(#p9de4d17c56)" style="fill: none; stroke: #000000"/>
    <path d="M 160.172016 287.041365 
L 212.628529 293.599034 
" clip-path="url(#p9de4d17c56)" style="fill: none; stroke: #000000"/>
    <path d="M 160.172016 287.041365 
L 180.9637 288.78264 
" clip-path="url(#p9de4d17c56)" style="fill: none; stroke: #000000"/>
    <path d="M 183.119779 267.264 
L 174.280337 300.517951 
" clip-path="url(#p9de4d17c56)" style="fill: none; stroke: #000000"/>
    <path d="M 183.119779 267.264 
L 218.986245 280.300794 
" clip-path="url(#p9de4d17c56)" style="fill: none; stroke: #000000"/>
    <path d="M 183.119779 267.264 
L 196.96146 302.022621 
" clip-path="url(#p9de4d17c56)" style="fill: none; stroke: #000000"/>
    <path d="M 183.119779 267.264 
L 197.473311 280.649958 
" clip-path="url(#p9de4d17c56)" style="fill: none; stroke: #000000"/>
    <path d="M 183.119779 267.264 
L 212.628529 293.599034 
" clip-path="url(#p9de4d17c56)" style="fill: none; stroke: #000000"/>
    <path d="M 183.119779 267.264 
L 180.9637 288.78264 
" clip-path="url(#p9de4d17c56)" style="fill: none; stroke: #000000"/>
    <path d="M 174.280337 300.517951 
L 218.986245 280.300794 
" clip-path="url(#p9de4d17c56)" style="fill: none; stroke: #000000"/>
    <path d="M 174.280337 300.517951 
L 196.96146 302.022621 
" clip-path="url(#p9de4d17c56)" style="fill: none; stroke: #000000"/>
    <path d="M 174.280337 300.517951 
L 197.473311 280.649958 
" clip-path="url(#p9de4d17c56)" style="fill: none; stroke: #000000"/>
    <path d="M 174.280337 300.517951 
L 212.628529 293.599034 
" clip-path="url(#p9de4d17c56)" style="fill: none; stroke: #000000"/>
    <path d="M 174.280337 300.517951 
L 180.9637 288.78264 
" clip-path="url(#p9de4d17c56)" style="fill: none; stroke: #000000"/>
    <path d="M 218.986245 280.300794 
L 196.96146 302.022621 
" clip-path="url(#p9de4d17c56)" style="fill: none; stroke: #000000"/>
    <path d="M 218.986245 280.300794 
L 197.473311 280.649958 
" clip-path="url(#p9de4d17c56)" style="fill: none; stroke: #000000"/>
    <path d="M 218.986245 280.300794 
L 212.628529 293.599034 
" clip-path="url(#p9de4d17c56)" style="fill: none; stroke: #000000"/>
    <path d="M 218.986245 280.300794 
L 180.9637 288.78264 
" clip-path="url(#p9de4d17c56)" style="fill: none; stroke: #000000"/>
    <path d="M 196.96146 302.022621 
L 197.473311 280.649958 
" clip-path="url(#p9de4d17c56)" style="fill: none; stroke: #000000"/>
    <path d="M 196.96146 302.022621 
L 212.628529 293.599034 
" clip-path="url(#p9de4d17c56)" style="fill: none; stroke: #000000"/>
    <path d="M 196.96146 302.022621 
L 180.9637 288.78264 
" clip-path="url(#p9de4d17c56)" style="fill: none; stroke: #000000"/>
    <path d="M 197.473311 280.649958 
L 212.628529 293.599034 
" clip-path="url(#p9de4d17c56)" style="fill: none; stroke: #000000"/>
    <path d="M 197.473311 280.649958 
L 180.9637 288.78264 
" clip-path="url(#p9de4d17c56)" style="fill: none; stroke: #000000"/>
    <path d="M 212.628529 293.599034 
L 180.9637 288.78264 
" clip-path="url(#p9de4d17c56)" style="fill: none; stroke: #000000"/>
   </g>
   <g id="PathCollection_11">
    <g clip-path="url(#p9de4d17c56)">
     <use xlink:href="#m20b0a13ff5" x="165.914057" y="273.664822" style="fill: #1f78b4; stroke: #1f78b4"/>
     <use xlink:href="#m20b0a13ff5" x="204.5713" y="267.740623" style="fill: #1f78b4; stroke: #1f78b4"/>
     <use xlink:href="#m20b0a13ff5" x="160.172016" y="287.041365" style="fill: #1f78b4; stroke: #1f78b4"/>
     <use xlink:href="#m20b0a13ff5" x="183.119779" y="267.264" style="fill: #1f78b4; stroke: #1f78b4"/>
     <use xlink:href="#m20b0a13ff5" x="174.280337" y="300.517951" style="fill: #1f78b4; stroke: #1f78b4"/>
     <use xlink:href="#m20b0a13ff5" x="218.986245" y="280.300794" style="fill: #1f78b4; stroke: #1f78b4"/>
     <use xlink:href="#m20b0a13ff5" x="196.96146" y="302.022621" style="fill: #1f78b4; stroke: #1f78b4"/>
     <use xlink:href="#m20b0a13ff5" x="197.473311" y="280.649958" style="fill: #1f78b4; stroke: #1f78b4"/>
     <use xlink:href="#m20b0a13ff5" x="212.628529" y="293.599034" style="fill: #1f78b4; stroke: #1f78b4"/>
     <use xlink:href="#m20b0a13ff5" x="180.9637" y="288.78264" style="fill: #1f78b4; stroke: #1f78b4"/>
    </g>
   </g>
  </g>
  <g id="axes_19"/>
  <g id="axes_20"/>
  <g id="text_1">
   <!-- reconstruction data -->
   <g transform="translate(171.643125 16.030125) scale(0.12 -0.12)">
    <defs>
     <path id="DejaVuSans-72" d="M 2631 2963 
Q 2534 3019 2420 3045 
Q 2306 3072 2169 3072 
Q 1681 3072 1420 2755 
Q 1159 2438 1159 1844 
L 1159 0 
L 581 0 
L 581 3500 
L 1159 3500 
L 1159 2956 
Q 1341 3275 1631 3429 
Q 1922 3584 2338 3584 
Q 2397 3584 2469 3576 
Q 2541 3569 2628 3553 
L 2631 2963 
z
" transform="scale(0.015625)"/>
     <path id="DejaVuSans-65" d="M 3597 1894 
L 3597 1613 
L 953 1613 
Q 991 1019 1311 708 
Q 1631 397 2203 397 
Q 2534 397 2845 478 
Q 3156 559 3463 722 
L 3463 178 
Q 3153 47 2828 -22 
Q 2503 -91 2169 -91 
Q 1331 -91 842 396 
Q 353 884 353 1716 
Q 353 2575 817 3079 
Q 1281 3584 2069 3584 
Q 2775 3584 3186 3129 
Q 3597 2675 3597 1894 
z
M 3022 2063 
Q 3016 2534 2758 2815 
Q 2500 3097 2075 3097 
Q 1594 3097 1305 2825 
Q 1016 2553 972 2059 
L 3022 2063 
z
" transform="scale(0.015625)"/>
     <path id="DejaVuSans-63" d="M 3122 3366 
L 3122 2828 
Q 2878 2963 2633 3030 
Q 2388 3097 2138 3097 
Q 1578 3097 1268 2742 
Q 959 2388 959 1747 
Q 959 1106 1268 751 
Q 1578 397 2138 397 
Q 2388 397 2633 464 
Q 2878 531 3122 666 
L 3122 134 
Q 2881 22 2623 -34 
Q 2366 -91 2075 -91 
Q 1284 -91 818 406 
Q 353 903 353 1747 
Q 353 2603 823 3093 
Q 1294 3584 2113 3584 
Q 2378 3584 2631 3529 
Q 2884 3475 3122 3366 
z
" transform="scale(0.015625)"/>
     <path id="DejaVuSans-6f" d="M 1959 3097 
Q 1497 3097 1228 2736 
Q 959 2375 959 1747 
Q 959 1119 1226 758 
Q 1494 397 1959 397 
Q 2419 397 2687 759 
Q 2956 1122 2956 1747 
Q 2956 2369 2687 2733 
Q 2419 3097 1959 3097 
z
M 1959 3584 
Q 2709 3584 3137 3096 
Q 3566 2609 3566 1747 
Q 3566 888 3137 398 
Q 2709 -91 1959 -91 
Q 1206 -91 779 398 
Q 353 888 353 1747 
Q 353 2609 779 3096 
Q 1206 3584 1959 3584 
z
" transform="scale(0.015625)"/>
     <path id="DejaVuSans-6e" d="M 3513 2113 
L 3513 0 
L 2938 0 
L 2938 2094 
Q 2938 2591 2744 2837 
Q 2550 3084 2163 3084 
Q 1697 3084 1428 2787 
Q 1159 2491 1159 1978 
L 1159 0 
L 581 0 
L 581 3500 
L 1159 3500 
L 1159 2956 
Q 1366 3272 1645 3428 
Q 1925 3584 2291 3584 
Q 2894 3584 3203 3211 
Q 3513 2838 3513 2113 
z
" transform="scale(0.015625)"/>
     <path id="DejaVuSans-73" d="M 2834 3397 
L 2834 2853 
Q 2591 2978 2328 3040 
Q 2066 3103 1784 3103 
Q 1356 3103 1142 2972 
Q 928 2841 928 2578 
Q 928 2378 1081 2264 
Q 1234 2150 1697 2047 
L 1894 2003 
Q 2506 1872 2764 1633 
Q 3022 1394 3022 966 
Q 3022 478 2636 193 
Q 2250 -91 1575 -91 
Q 1294 -91 989 -36 
Q 684 19 347 128 
L 347 722 
Q 666 556 975 473 
Q 1284 391 1588 391 
Q 1994 391 2212 530 
Q 2431 669 2431 922 
Q 2431 1156 2273 1281 
Q 2116 1406 1581 1522 
L 1381 1569 
Q 847 1681 609 1914 
Q 372 2147 372 2553 
Q 372 3047 722 3315 
Q 1072 3584 1716 3584 
Q 2034 3584 2315 3537 
Q 2597 3491 2834 3397 
z
" transform="scale(0.015625)"/>
     <path id="DejaVuSans-74" d="M 1172 4494 
L 1172 3500 
L 2356 3500 
L 2356 3053 
L 1172 3053 
L 1172 1153 
Q 1172 725 1289 603 
Q 1406 481 1766 481 
L 2356 481 
L 2356 0 
L 1766 0 
Q 1100 0 847 248 
Q 594 497 594 1153 
L 594 3053 
L 172 3053 
L 172 3500 
L 594 3500 
L 594 4494 
L 1172 4494 
z
" transform="scale(0.015625)"/>
     <path id="DejaVuSans-75" d="M 544 1381 
L 544 3500 
L 1119 3500 
L 1119 1403 
Q 1119 906 1312 657 
Q 1506 409 1894 409 
Q 2359 409 2629 706 
Q 2900 1003 2900 1516 
L 2900 3500 
L 3475 3500 
L 3475 0 
L 2900 0 
L 2900 538 
Q 2691 219 2414 64 
Q 2138 -91 1772 -91 
Q 1169 -91 856 284 
Q 544 659 544 1381 
z
M 1991 3584 
L 1991 3584 
z
" transform="scale(0.015625)"/>
     <path id="DejaVuSans-69" d="M 603 3500 
L 1178 3500 
L 1178 0 
L 603 0 
L 603 3500 
z
M 603 4863 
L 1178 4863 
L 1178 4134 
L 603 4134 
L 603 4863 
z
" transform="scale(0.015625)"/>
     <path id="DejaVuSans-20" transform="scale(0.015625)"/>
     <path id="DejaVuSans-64" d="M 2906 2969 
L 2906 4863 
L 3481 4863 
L 3481 0 
L 2906 0 
L 2906 525 
Q 2725 213 2448 61 
Q 2172 -91 1784 -91 
Q 1150 -91 751 415 
Q 353 922 353 1747 
Q 353 2572 751 3078 
Q 1150 3584 1784 3584 
Q 2172 3584 2448 3432 
Q 2725 3281 2906 2969 
z
M 947 1747 
Q 947 1113 1208 752 
Q 1469 391 1925 391 
Q 2381 391 2643 752 
Q 2906 1113 2906 1747 
Q 2906 2381 2643 2742 
Q 2381 3103 1925 3103 
Q 1469 3103 1208 2742 
Q 947 2381 947 1747 
z
" transform="scale(0.015625)"/>
     <path id="DejaVuSans-61" d="M 2194 1759 
Q 1497 1759 1228 1600 
Q 959 1441 959 1056 
Q 959 750 1161 570 
Q 1363 391 1709 391 
Q 2188 391 2477 730 
Q 2766 1069 2766 1631 
L 2766 1759 
L 2194 1759 
z
M 3341 1997 
L 3341 0 
L 2766 0 
L 2766 531 
Q 2569 213 2275 61 
Q 1981 -91 1556 -91 
Q 1019 -91 701 211 
Q 384 513 384 1019 
Q 384 1609 779 1909 
Q 1175 2209 1959 2209 
L 2766 2209 
L 2766 2266 
Q 2766 2663 2505 2880 
Q 2244 3097 1772 3097 
Q 1472 3097 1187 3025 
Q 903 2953 641 2809 
L 641 3341 
Q 956 3463 1253 3523 
Q 1550 3584 1831 3584 
Q 2591 3584 2966 3190 
Q 3341 2797 3341 1997 
z
" transform="scale(0.015625)"/>
    </defs>
    <use xlink:href="#DejaVuSans-72"/>
    <use xlink:href="#DejaVuSans-65" x="38.863281"/>
    <use xlink:href="#DejaVuSans-63" x="100.386719"/>
    <use xlink:href="#DejaVuSans-6f" x="155.367188"/>
    <use xlink:href="#DejaVuSans-6e" x="216.548828"/>
    <use xlink:href="#DejaVuSans-73" x="279.927734"/>
    <use xlink:href="#DejaVuSans-74" x="332.027344"/>
    <use xlink:href="#DejaVuSans-72" x="371.236328"/>
    <use xlink:href="#DejaVuSans-75" x="412.349609"/>
    <use xlink:href="#DejaVuSans-63" x="475.728516"/>
    <use xlink:href="#DejaVuSans-74" x="530.708984"/>
    <use xlink:href="#DejaVuSans-69" x="569.917969"/>
    <use xlink:href="#DejaVuSans-6f" x="597.701172"/>
    <use xlink:href="#DejaVuSans-6e" x="658.882812"/>
    <use xlink:href="#DejaVuSans-20" x="722.261719"/>
    <use xlink:href="#DejaVuSans-64" x="754.048828"/>
    <use xlink:href="#DejaVuSans-61" x="817.525391"/>
    <use xlink:href="#DejaVuSans-74" x="878.804688"/>
    <use xlink:href="#DejaVuSans-61" x="918.013672"/>
   </g>
  </g>
 </g>
 <defs>
  <clipPath id="p1eaadcf6e5">
   <rect x="57.6" y="41.472" width="77.634783" height="45.881379"/>
  </clipPath>
  <clipPath id="p96d4609c5c">
   <rect x="150.761739" y="41.472" width="77.634783" height="45.881379"/>
  </clipPath>
  <clipPath id="p7c1dde495d">
   <rect x="243.923478" y="41.472" width="77.634783" height="45.881379"/>
  </clipPath>
  <clipPath id="p8730585267">
   <rect x="337.085217" y="41.472" width="77.634783" height="45.881379"/>
  </clipPath>
  <clipPath id="p21bf3a7c42">
   <rect x="57.6" y="96.529655" width="77.634783" height="45.881379"/>
  </clipPath>
  <clipPath id="p2ae232bc2b">
   <rect x="243.923478" y="96.529655" width="77.634783" height="45.881379"/>
  </clipPath>
  <clipPath id="pd02cde98da">
   <rect x="57.6" y="151.58731" width="77.634783" height="45.881379"/>
  </clipPath>
  <clipPath id="pb2900048a5">
   <rect x="337.085217" y="151.58731" width="77.634783" height="45.881379"/>
  </clipPath>
  <clipPath id="pa07341d126">
   <rect x="243.923478" y="206.644966" width="77.634783" height="45.881379"/>
  </clipPath>
  <clipPath id="p16c05e610d">
   <rect x="57.6" y="261.702621" width="77.634783" height="45.881379"/>
  </clipPath>
  <clipPath id="p9de4d17c56">
   <rect x="150.761739" y="261.702621" width="77.634783" height="45.881379"/>
  </clipPath>
 </defs>
</svg>
