<?xml version="1.0" encoding="utf-8" standalone="no"?>
<!DOCTYPE svg PUBLIC "-//W3C//DTD SVG 1.1//EN"
  "http://www.w3.org/Graphics/SVG/1.1/DTD/svg11.dtd">
<svg xmlns:xlink="http://www.w3.org/1999/xlink" width="460.8pt" height="345.6pt" viewBox="0 0 460.8 345.6" xmlns="http://www.w3.org/2000/svg" version="1.1">
 <metadata>
  <rdf:RDF xmlns:dc="http://purl.org/dc/elements/1.1/" xmlns:cc="http://creativecommons.org/ns#" xmlns:rdf="http://www.w3.org/1999/02/22-rdf-syntax-ns#">
   <cc:Work>
    <dc:type rdf:resource="http://purl.org/dc/dcmitype/StillImage"/>
    <dc:date>2025-01-14T23:00:16.582068</dc:date>
    <dc:format>image/svg+xml</dc:format>
    <dc:creator>
     <cc:Agent>
      <dc:title>Matplotlib v3.7.5, https://matplotlib.org/</dc:title>
     </cc:Agent>
    </dc:creator>
   </cc:Work>
  </rdf:RDF>
 </metadata>
 <defs>
  <style type="text/css">*{stroke-linejoin: round; stroke-linecap: butt}</style>
 </defs>
 <g id="figure_1">
  <g id="patch_1">
   <path d="M 0 345.6 
L 460.8 345.6 
L 460.8 0 
L 0 0 
z
" style="fill: #ffffff"/>
  </g>
  <g id="axes_1"/>
  <g id="axes_2">
   <g id="LineCollection_1">
    <path d="M 169.966713 47.033379 
L 218.986245 69.148454 
" clip-path="url(#pfba8a2020e)" style="fill: none; stroke: #000000"/>
    <path d="M 169.966713 47.033379 
L 160.172016 81.792 
" clip-path="url(#pfba8a2020e)" style="fill: none; stroke: #000000"/>
    <path d="M 218.986245 69.148454 
L 160.172016 81.792 
" clip-path="url(#pfba8a2020e)" style="fill: none; stroke: #000000"/>
   </g>
   <g id="PathCollection_1">
    <defs>
     <path id="m3369602999" d="M 0 1.732051 
C 0.459345 1.732051 0.899939 1.549551 1.224745 1.224745 
C 1.549551 0.899939 1.732051 0.459345 1.732051 0 
C 1.732051 -0.459345 1.549551 -0.899939 1.224745 -1.224745 
C 0.899939 -1.549551 0.459345 -1.732051 0 -1.732051 
C -0.459345 -1.732051 -0.899939 -1.549551 -1.224745 -1.224745 
C -1.549551 -0.899939 -1.732051 -0.459345 -1.732051 0 
C -1.732051 0.459345 -1.549551 0.899939 -1.224745 1.224745 
C -0.899939 1.549551 -0.459345 1.732051 0 1.732051 
z
" style="stroke: #1f78b4"/>
    </defs>
    <g clip-path="url(#pfba8a2020e)">
     <use xlink:href="#m3369602999" x="169.966713" y="47.033379" style="fill: #1f78b4; stroke: #1f78b4"/>
     <use xlink:href="#m3369602999" x="218.986245" y="69.148454" style="fill: #1f78b4; stroke: #1f78b4"/>
     <use xlink:href="#m3369602999" x="160.172016" y="81.792" style="fill: #1f78b4; stroke: #1f78b4"/>
    </g>
   </g>
  </g>
  <g id="axes_3">
   <g id="LineCollection_2">
    <path d="M 294.831664 63.551554 
L 308.072491 47.033379 
" clip-path="url(#pd68ef4c01e)" style="fill: none; stroke: #000000"/>
    <path d="M 294.831664 63.551554 
L 253.333755 50.304622 
" clip-path="url(#pd68ef4c01e)" style="fill: none; stroke: #000000"/>
    <path d="M 294.831664 63.551554 
L 312.147984 81.792 
" clip-path="url(#pd68ef4c01e)" style="fill: none; stroke: #000000"/>
    <path d="M 308.072491 47.033379 
L 253.333755 50.304622 
" clip-path="url(#pd68ef4c01e)" style="fill: none; stroke: #000000"/>
   </g>
   <g id="PathCollection_2">
    <g clip-path="url(#pd68ef4c01e)">
     <use xlink:href="#m3369602999" x="294.831664" y="63.551554" style="fill: #1f78b4; stroke: #1f78b4"/>
     <use xlink:href="#m3369602999" x="308.072491" y="47.033379" style="fill: #1f78b4; stroke: #1f78b4"/>
     <use xlink:href="#m3369602999" x="253.333755" y="50.304622" style="fill: #1f78b4; stroke: #1f78b4"/>
     <use xlink:href="#m3369602999" x="312.147984" y="81.792" style="fill: #1f78b4; stroke: #1f78b4"/>
    </g>
   </g>
  </g>
  <g id="axes_4">
   <g id="LineCollection_3">
    <path d="M 375.805621 64.44493 
L 346.495494 47.033379 
" clip-path="url(#p34f92fa36d)" style="fill: none; stroke: #000000"/>
    <path d="M 375.805621 64.44493 
L 405.309723 81.792 
" clip-path="url(#p34f92fa36d)" style="fill: none; stroke: #000000"/>
   </g>
   <g id="PathCollection_3">
    <g clip-path="url(#p34f92fa36d)">
     <use xlink:href="#m3369602999" x="375.805621" y="64.44493" style="fill: #1f78b4; stroke: #1f78b4"/>
     <use xlink:href="#m3369602999" x="346.495494" y="47.033379" style="fill: #1f78b4; stroke: #1f78b4"/>
     <use xlink:href="#m3369602999" x="405.309723" y="81.792" style="fill: #1f78b4; stroke: #1f78b4"/>
    </g>
   </g>
  </g>
  <g id="axes_5">
   <g id="LineCollection_4">
    <path d="M 125.506156 136.849655 
L 99.255097 118.978892 
" clip-path="url(#pb8536ed10f)" style="fill: none; stroke: #000000"/>
    <path d="M 125.506156 136.849655 
L 125.824506 102.091034 
" clip-path="url(#pb8536ed10f)" style="fill: none; stroke: #000000"/>
    <path d="M 99.255097 118.978892 
L 125.824506 102.091034 
" clip-path="url(#pb8536ed10f)" style="fill: none; stroke: #000000"/>
    <path d="M 99.255097 118.978892 
L 67.010277 118.378849 
" clip-path="url(#pb8536ed10f)" style="fill: none; stroke: #000000"/>
   </g>
   <g id="PathCollection_4">
    <g clip-path="url(#pb8536ed10f)">
     <use xlink:href="#m3369602999" x="125.506156" y="136.849655" style="fill: #1f78b4; stroke: #1f78b4"/>
     <use xlink:href="#m3369602999" x="99.255097" y="118.978892" style="fill: #1f78b4; stroke: #1f78b4"/>
     <use xlink:href="#m3369602999" x="125.824506" y="102.091034" style="fill: #1f78b4; stroke: #1f78b4"/>
     <use xlink:href="#m3369602999" x="67.010277" y="118.378849" style="fill: #1f78b4; stroke: #1f78b4"/>
    </g>
   </g>
  </g>
  <g id="axes_6">
   <g id="LineCollection_5">
    <path d="M 218.986245 136.849655 
L 199.972538 125.612713 
" clip-path="url(#p6e889e2fdb)" style="fill: none; stroke: #000000"/>
    <path d="M 179.20688 113.340418 
L 160.172016 102.091034 
" clip-path="url(#p6e889e2fdb)" style="fill: none; stroke: #000000"/>
    <path d="M 179.20688 113.340418 
L 199.972538 125.612713 
" clip-path="url(#p6e889e2fdb)" style="fill: none; stroke: #000000"/>
   </g>
   <g id="PathCollection_5">
    <g clip-path="url(#p6e889e2fdb)">
     <use xlink:href="#m3369602999" x="218.986245" y="136.849655" style="fill: #1f78b4; stroke: #1f78b4"/>
     <use xlink:href="#m3369602999" x="179.20688" y="113.340418" style="fill: #1f78b4; stroke: #1f78b4"/>
     <use xlink:href="#m3369602999" x="160.172016" y="102.091034" style="fill: #1f78b4; stroke: #1f78b4"/>
     <use xlink:href="#m3369602999" x="199.972538" y="125.612713" style="fill: #1f78b4; stroke: #1f78b4"/>
    </g>
   </g>
  </g>
  <g id="axes_7">
   <g id="LineCollection_6">
    <path d="M 286.518335 136.849655 
L 312.147984 117.244232 
" clip-path="url(#pc66272c758)" style="fill: none; stroke: #000000"/>
    <path d="M 286.518335 136.849655 
L 253.333755 121.696457 
" clip-path="url(#pc66272c758)" style="fill: none; stroke: #000000"/>
    <path d="M 286.518335 136.849655 
L 278.963405 102.091034 
" clip-path="url(#pc66272c758)" style="fill: none; stroke: #000000"/>
    <path d="M 312.147984 117.244232 
L 253.333755 121.696457 
" clip-path="url(#pc66272c758)" style="fill: none; stroke: #000000"/>
    <path d="M 312.147984 117.244232 
L 278.963405 102.091034 
" clip-path="url(#pc66272c758)" style="fill: none; stroke: #000000"/>
    <path d="M 253.333755 121.696457 
L 278.963405 102.091034 
" clip-path="url(#pc66272c758)" style="fill: none; stroke: #000000"/>
   </g>
   <g id="PathCollection_6">
    <g clip-path="url(#pc66272c758)">
     <use xlink:href="#m3369602999" x="286.518335" y="136.849655" style="fill: #1f78b4; stroke: #1f78b4"/>
     <use xlink:href="#m3369602999" x="312.147984" y="117.244232" style="fill: #1f78b4; stroke: #1f78b4"/>
     <use xlink:href="#m3369602999" x="253.333755" y="121.696457" style="fill: #1f78b4; stroke: #1f78b4"/>
     <use xlink:href="#m3369602999" x="278.963405" y="102.091034" style="fill: #1f78b4; stroke: #1f78b4"/>
    </g>
   </g>
  </g>
  <g id="axes_8">
   <g id="LineCollection_7">
    <path d="M 356.252141 102.091034 
L 346.495494 131.035298 
" clip-path="url(#pa938844f89)" style="fill: none; stroke: #000000"/>
    <path d="M 356.252141 102.091034 
L 395.553076 136.849655 
" clip-path="url(#pa938844f89)" style="fill: none; stroke: #000000"/>
    <path d="M 356.252141 102.091034 
L 405.309723 107.905392 
" clip-path="url(#pa938844f89)" style="fill: none; stroke: #000000"/>
    <path d="M 346.495494 131.035298 
L 395.553076 136.849655 
" clip-path="url(#pa938844f89)" style="fill: none; stroke: #000000"/>
    <path d="M 346.495494 131.035298 
L 405.309723 107.905392 
" clip-path="url(#pa938844f89)" style="fill: none; stroke: #000000"/>
    <path d="M 395.553076 136.849655 
L 405.309723 107.905392 
" clip-path="url(#pa938844f89)" style="fill: none; stroke: #000000"/>
   </g>
   <g id="PathCollection_7">
    <g clip-path="url(#pa938844f89)">
     <use xlink:href="#m3369602999" x="356.252141" y="102.091034" style="fill: #1f78b4; stroke: #1f78b4"/>
     <use xlink:href="#m3369602999" x="346.495494" y="131.035298" style="fill: #1f78b4; stroke: #1f78b4"/>
     <use xlink:href="#m3369602999" x="395.553076" y="136.849655" style="fill: #1f78b4; stroke: #1f78b4"/>
     <use xlink:href="#m3369602999" x="405.309723" y="107.905392" style="fill: #1f78b4; stroke: #1f78b4"/>
    </g>
   </g>
  </g>
  <g id="axes_9">
   <g id="LineCollection_8">
    <path d="M 98.067862 157.14869 
L 125.824506 159.812782 
" clip-path="url(#p624c820d4d)" style="fill: none; stroke: #000000"/>
    <path d="M 98.067862 157.14869 
L 67.010277 158.037838 
" clip-path="url(#p624c820d4d)" style="fill: none; stroke: #000000"/>
    <path d="M 98.067862 157.14869 
L 92.007135 164.30518 
" clip-path="url(#p624c820d4d)" style="fill: none; stroke: #000000"/>
    <path d="M 125.824506 159.812782 
L 92.007135 164.30518 
" clip-path="url(#p624c820d4d)" style="fill: none; stroke: #000000"/>
    <path d="M 70.366616 191.90731 
L 76.376357 184.043935 
" clip-path="url(#p624c820d4d)" style="fill: none; stroke: #000000"/>
    <path d="M 67.010277 158.037838 
L 92.007135 164.30518 
" clip-path="url(#p624c820d4d)" style="fill: none; stroke: #000000"/>
    <path d="M 92.007135 164.30518 
L 83.748804 174.672335 
" clip-path="url(#p624c820d4d)" style="fill: none; stroke: #000000"/>
    <path d="M 76.376357 184.043935 
L 83.748804 174.672335 
" clip-path="url(#p624c820d4d)" style="fill: none; stroke: #000000"/>
   </g>
   <g id="PathCollection_8">
    <g clip-path="url(#p624c820d4d)">
     <use xlink:href="#m3369602999" x="98.067862" y="157.14869" style="fill: #1f78b4; stroke: #1f78b4"/>
     <use xlink:href="#m3369602999" x="125.824506" y="159.812782" style="fill: #1f78b4; stroke: #1f78b4"/>
     <use xlink:href="#m3369602999" x="70.366616" y="191.90731" style="fill: #1f78b4; stroke: #1f78b4"/>
     <use xlink:href="#m3369602999" x="67.010277" y="158.037838" style="fill: #1f78b4; stroke: #1f78b4"/>
     <use xlink:href="#m3369602999" x="92.007135" y="164.30518" style="fill: #1f78b4; stroke: #1f78b4"/>
     <use xlink:href="#m3369602999" x="76.376357" y="184.043935" style="fill: #1f78b4; stroke: #1f78b4"/>
     <use xlink:href="#m3369602999" x="83.748804" y="174.672335" style="fill: #1f78b4; stroke: #1f78b4"/>
    </g>
   </g>
  </g>
  <g id="axes_10">
   <g id="LineCollection_9">
    <path d="M 199.998744 180.686455 
L 218.986245 191.90731 
" clip-path="url(#pc9dd23f6e5)" style="fill: none; stroke: #000000"/>
    <path d="M 199.998744 180.686455 
L 179.145609 168.362467 
" clip-path="url(#pc9dd23f6e5)" style="fill: none; stroke: #000000"/>
    <path d="M 160.172016 157.14869 
L 179.145609 168.362467 
" clip-path="url(#pc9dd23f6e5)" style="fill: none; stroke: #000000"/>
   </g>
   <g id="PathCollection_9">
    <g clip-path="url(#pc9dd23f6e5)">
     <use xlink:href="#m3369602999" x="199.998744" y="180.686455" style="fill: #1f78b4; stroke: #1f78b4"/>
     <use xlink:href="#m3369602999" x="160.172016" y="157.14869" style="fill: #1f78b4; stroke: #1f78b4"/>
     <use xlink:href="#m3369602999" x="218.986245" y="191.90731" style="fill: #1f78b4; stroke: #1f78b4"/>
     <use xlink:href="#m3369602999" x="179.145609" y="168.362467" style="fill: #1f78b4; stroke: #1f78b4"/>
    </g>
   </g>
  </g>
  <g id="axes_11">
   <g id="LineCollection_10">
    <path d="M 294.057587 164.371441 
L 311.510225 157.14869 
" clip-path="url(#p0827f98824)" style="fill: none; stroke: #000000"/>
    <path d="M 294.057587 164.371441 
L 312.147984 169.891571 
" clip-path="url(#p0827f98824)" style="fill: none; stroke: #000000"/>
    <path d="M 294.057587 164.371441 
L 275.269449 177.608591 
" clip-path="url(#p0827f98824)" style="fill: none; stroke: #000000"/>
    <path d="M 294.057587 164.371441 
L 270.455168 165.280826 
" clip-path="url(#p0827f98824)" style="fill: none; stroke: #000000"/>
    <path d="M 311.510225 157.14869 
L 312.147984 169.891571 
" clip-path="url(#p0827f98824)" style="fill: none; stroke: #000000"/>
    <path d="M 311.510225 157.14869 
L 270.455168 165.280826 
" clip-path="url(#p0827f98824)" style="fill: none; stroke: #000000"/>
    <path d="M 312.147984 169.891571 
L 275.269449 177.608591 
" clip-path="url(#p0827f98824)" style="fill: none; stroke: #000000"/>
    <path d="M 312.147984 169.891571 
L 270.455168 165.280826 
" clip-path="url(#p0827f98824)" style="fill: none; stroke: #000000"/>
    <path d="M 275.269449 177.608591 
L 253.333755 191.90731 
" clip-path="url(#p0827f98824)" style="fill: none; stroke: #000000"/>
    <path d="M 275.269449 177.608591 
L 270.455168 165.280826 
" clip-path="url(#p0827f98824)" style="fill: none; stroke: #000000"/>
   </g>
   <g id="PathCollection_10">
    <g clip-path="url(#p0827f98824)">
     <use xlink:href="#m3369602999" x="294.057587" y="164.371441" style="fill: #1f78b4; stroke: #1f78b4"/>
     <use xlink:href="#m3369602999" x="311.510225" y="157.14869" style="fill: #1f78b4; stroke: #1f78b4"/>
     <use xlink:href="#m3369602999" x="312.147984" y="169.891571" style="fill: #1f78b4; stroke: #1f78b4"/>
     <use xlink:href="#m3369602999" x="275.269449" y="177.608591" style="fill: #1f78b4; stroke: #1f78b4"/>
     <use xlink:href="#m3369602999" x="253.333755" y="191.90731" style="fill: #1f78b4; stroke: #1f78b4"/>
     <use xlink:href="#m3369602999" x="270.455168" y="165.280826" style="fill: #1f78b4; stroke: #1f78b4"/>
    </g>
   </g>
  </g>
  <g id="axes_12">
   <g id="LineCollection_11">
    <path d="M 382.00368 157.14869 
L 405.309723 178.105533 
" clip-path="url(#pfadff43a18)" style="fill: none; stroke: #000000"/>
    <path d="M 382.00368 157.14869 
L 346.495494 170.950467 
" clip-path="url(#pfadff43a18)" style="fill: none; stroke: #000000"/>
    <path d="M 382.00368 157.14869 
L 369.801537 191.90731 
" clip-path="url(#pfadff43a18)" style="fill: none; stroke: #000000"/>
    <path d="M 405.309723 178.105533 
L 346.495494 170.950467 
" clip-path="url(#pfadff43a18)" style="fill: none; stroke: #000000"/>
    <path d="M 405.309723 178.105533 
L 369.801537 191.90731 
" clip-path="url(#pfadff43a18)" style="fill: none; stroke: #000000"/>
    <path d="M 346.495494 170.950467 
L 369.801537 191.90731 
" clip-path="url(#pfadff43a18)" style="fill: none; stroke: #000000"/>
   </g>
   <g id="PathCollection_11">
    <g clip-path="url(#pfadff43a18)">
     <use xlink:href="#m3369602999" x="382.00368" y="157.14869" style="fill: #1f78b4; stroke: #1f78b4"/>
     <use xlink:href="#m3369602999" x="405.309723" y="178.105533" style="fill: #1f78b4; stroke: #1f78b4"/>
     <use xlink:href="#m3369602999" x="346.495494" y="170.950467" style="fill: #1f78b4; stroke: #1f78b4"/>
     <use xlink:href="#m3369602999" x="369.801537" y="191.90731" style="fill: #1f78b4; stroke: #1f78b4"/>
    </g>
   </g>
  </g>
  <g id="axes_13">
   <g id="LineCollection_12">
    <path d="M 96.401377 229.595197 
L 125.824506 212.206345 
" clip-path="url(#pfa36a604bc)" style="fill: none; stroke: #000000"/>
    <path d="M 96.401377 229.595197 
L 67.010277 246.964966 
" clip-path="url(#pfa36a604bc)" style="fill: none; stroke: #000000"/>
   </g>
   <g id="PathCollection_12">
    <g clip-path="url(#pfa36a604bc)">
     <use xlink:href="#m3369602999" x="96.401377" y="229.595197" style="fill: #1f78b4; stroke: #1f78b4"/>
     <use xlink:href="#m3369602999" x="125.824506" y="212.206345" style="fill: #1f78b4; stroke: #1f78b4"/>
     <use xlink:href="#m3369602999" x="67.010277" y="246.964966" style="fill: #1f78b4; stroke: #1f78b4"/>
    </g>
   </g>
  </g>
  <g id="axes_14">
   <g id="LineCollection_13">
    <path d="M 160.172016 233.519207 
L 176.442526 236.491422 
" clip-path="url(#p55c0394e9f)" style="fill: none; stroke: #000000"/>
    <path d="M 176.442526 236.491422 
L 192.732981 228.788277 
" clip-path="url(#p55c0394e9f)" style="fill: none; stroke: #000000"/>
    <path d="M 176.442526 236.491422 
L 168.64363 246.964966 
" clip-path="url(#p55c0394e9f)" style="fill: none; stroke: #000000"/>
    <path d="M 176.442526 236.491422 
L 189.977379 237.527305 
" clip-path="url(#p55c0394e9f)" style="fill: none; stroke: #000000"/>
    <path d="M 192.732981 228.788277 
L 207.147416 219.616374 
" clip-path="url(#p55c0394e9f)" style="fill: none; stroke: #000000"/>
    <path d="M 192.732981 228.788277 
L 189.977379 237.527305 
" clip-path="url(#p55c0394e9f)" style="fill: none; stroke: #000000"/>
    <path d="M 207.147416 219.616374 
L 218.986245 212.206345 
" clip-path="url(#p55c0394e9f)" style="fill: none; stroke: #000000"/>
   </g>
   <g id="PathCollection_13">
    <g clip-path="url(#p55c0394e9f)">
     <use xlink:href="#m3369602999" x="160.172016" y="233.519207" style="fill: #1f78b4; stroke: #1f78b4"/>
     <use xlink:href="#m3369602999" x="176.442526" y="236.491422" style="fill: #1f78b4; stroke: #1f78b4"/>
     <use xlink:href="#m3369602999" x="192.732981" y="228.788277" style="fill: #1f78b4; stroke: #1f78b4"/>
     <use xlink:href="#m3369602999" x="207.147416" y="219.616374" style="fill: #1f78b4; stroke: #1f78b4"/>
     <use xlink:href="#m3369602999" x="168.64363" y="246.964966" style="fill: #1f78b4; stroke: #1f78b4"/>
     <use xlink:href="#m3369602999" x="189.977379" y="237.527305" style="fill: #1f78b4; stroke: #1f78b4"/>
     <use xlink:href="#m3369602999" x="218.986245" y="212.206345" style="fill: #1f78b4; stroke: #1f78b4"/>
    </g>
   </g>
  </g>
  <g id="axes_15">
   <g id="LineCollection_14">
    <path d="M 253.333755 212.206345 
L 278.436065 246.964966 
" clip-path="url(#p79cd738d45)" style="fill: none; stroke: #000000"/>
    <path d="M 253.333755 212.206345 
L 296.761132 215.028333 
" clip-path="url(#p79cd738d45)" style="fill: none; stroke: #000000"/>
    <path d="M 253.333755 212.206345 
L 263.241961 236.532432 
" clip-path="url(#p79cd738d45)" style="fill: none; stroke: #000000"/>
    <path d="M 253.333755 212.206345 
L 279.039429 219.310506 
" clip-path="url(#p79cd738d45)" style="fill: none; stroke: #000000"/>
    <path d="M 278.436065 246.964966 
L 296.761132 215.028333 
" clip-path="url(#p79cd738d45)" style="fill: none; stroke: #000000"/>
    <path d="M 278.436065 246.964966 
L 263.241961 236.532432 
" clip-path="url(#p79cd738d45)" style="fill: none; stroke: #000000"/>
    <path d="M 278.436065 246.964966 
L 279.039429 219.310506 
" clip-path="url(#p79cd738d45)" style="fill: none; stroke: #000000"/>
    <path d="M 312.147984 238.716547 
L 296.761132 215.028333 
" clip-path="url(#p79cd738d45)" style="fill: none; stroke: #000000"/>
    <path d="M 312.147984 238.716547 
L 263.241961 236.532432 
" clip-path="url(#p79cd738d45)" style="fill: none; stroke: #000000"/>
    <path d="M 312.147984 238.716547 
L 279.039429 219.310506 
" clip-path="url(#p79cd738d45)" style="fill: none; stroke: #000000"/>
    <path d="M 296.761132 215.028333 
L 263.241961 236.532432 
" clip-path="url(#p79cd738d45)" style="fill: none; stroke: #000000"/>
    <path d="M 296.761132 215.028333 
L 279.039429 219.310506 
" clip-path="url(#p79cd738d45)" style="fill: none; stroke: #000000"/>
    <path d="M 263.241961 236.532432 
L 279.039429 219.310506 
" clip-path="url(#p79cd738d45)" style="fill: none; stroke: #000000"/>
   </g>
   <g id="PathCollection_14">
    <g clip-path="url(#p79cd738d45)">
     <use xlink:href="#m3369602999" x="253.333755" y="212.206345" style="fill: #1f78b4; stroke: #1f78b4"/>
     <use xlink:href="#m3369602999" x="278.436065" y="246.964966" style="fill: #1f78b4; stroke: #1f78b4"/>
     <use xlink:href="#m3369602999" x="312.147984" y="238.716547" style="fill: #1f78b4; stroke: #1f78b4"/>
     <use xlink:href="#m3369602999" x="296.761132" y="215.028333" style="fill: #1f78b4; stroke: #1f78b4"/>
     <use xlink:href="#m3369602999" x="263.241961" y="236.532432" style="fill: #1f78b4; stroke: #1f78b4"/>
     <use xlink:href="#m3369602999" x="279.039429" y="219.310506" style="fill: #1f78b4; stroke: #1f78b4"/>
    </g>
   </g>
  </g>
  <g id="axes_16">
   <g id="LineCollection_15">
    <path d="M 374.578841 226.398046 
L 346.495494 212.206345 
" clip-path="url(#p2ee01d8e7c)" style="fill: none; stroke: #000000"/>
    <path d="M 374.578841 226.398046 
L 374.126115 246.964966 
" clip-path="url(#p2ee01d8e7c)" style="fill: none; stroke: #000000"/>
    <path d="M 374.578841 226.398046 
L 396.843838 237.649202 
" clip-path="url(#p2ee01d8e7c)" style="fill: none; stroke: #000000"/>
    <path d="M 374.578841 226.398046 
L 405.309723 221.131585 
" clip-path="url(#p2ee01d8e7c)" style="fill: none; stroke: #000000"/>
    <path d="M 374.126115 246.964966 
L 396.843838 237.649202 
" clip-path="url(#p2ee01d8e7c)" style="fill: none; stroke: #000000"/>
    <path d="M 396.843838 237.649202 
L 405.309723 221.131585 
" clip-path="url(#p2ee01d8e7c)" style="fill: none; stroke: #000000"/>
   </g>
   <g id="PathCollection_15">
    <g clip-path="url(#p2ee01d8e7c)">
     <use xlink:href="#m3369602999" x="374.578841" y="226.398046" style="fill: #1f78b4; stroke: #1f78b4"/>
     <use xlink:href="#m3369602999" x="346.495494" y="212.206345" style="fill: #1f78b4; stroke: #1f78b4"/>
     <use xlink:href="#m3369602999" x="374.126115" y="246.964966" style="fill: #1f78b4; stroke: #1f78b4"/>
     <use xlink:href="#m3369602999" x="396.843838" y="237.649202" style="fill: #1f78b4; stroke: #1f78b4"/>
     <use xlink:href="#m3369602999" x="405.309723" y="221.131585" style="fill: #1f78b4; stroke: #1f78b4"/>
    </g>
   </g>
  </g>
  <g id="axes_17">
   <g id="LineCollection_16">
    <path d="M 67.010277 302.022621 
L 92.731282 267.264 
" clip-path="url(#pdbc6bcacf2)" style="fill: none; stroke: #000000"/>
    <path d="M 67.010277 302.022621 
L 125.824506 299.234503 
" clip-path="url(#pdbc6bcacf2)" style="fill: none; stroke: #000000"/>
    <path d="M 92.731282 267.264 
L 125.824506 299.234503 
" clip-path="url(#pdbc6bcacf2)" style="fill: none; stroke: #000000"/>
   </g>
   <g id="PathCollection_16">
    <g clip-path="url(#pdbc6bcacf2)">
     <use xlink:href="#m3369602999" x="67.010277" y="302.022621" style="fill: #1f78b4; stroke: #1f78b4"/>
     <use xlink:href="#m3369602999" x="92.731282" y="267.264" style="fill: #1f78b4; stroke: #1f78b4"/>
     <use xlink:href="#m3369602999" x="125.824506" y="299.234503" style="fill: #1f78b4; stroke: #1f78b4"/>
    </g>
   </g>
  </g>
  <g id="axes_18">
   <g id="LineCollection_17">
    <path d="M 218.986245 267.264 
L 189.622344 284.617537 
" clip-path="url(#p27db34458e)" style="fill: none; stroke: #000000"/>
    <path d="M 160.172016 302.022621 
L 189.622344 284.617537 
" clip-path="url(#p27db34458e)" style="fill: none; stroke: #000000"/>
   </g>
   <g id="PathCollection_17">
    <g clip-path="url(#p27db34458e)">
     <use xlink:href="#m3369602999" x="218.986245" y="267.264" style="fill: #1f78b4; stroke: #1f78b4"/>
     <use xlink:href="#m3369602999" x="160.172016" y="302.022621" style="fill: #1f78b4; stroke: #1f78b4"/>
     <use xlink:href="#m3369602999" x="189.622344" y="284.617537" style="fill: #1f78b4; stroke: #1f78b4"/>
    </g>
   </g>
  </g>
  <g id="axes_19">
   <g id="LineCollection_18">
    <path d="M 253.333755 293.669716 
L 298.032222 302.022621 
" clip-path="url(#p5fc70d04ab)" style="fill: none; stroke: #000000"/>
    <path d="M 253.333755 293.669716 
L 267.449517 267.264 
" clip-path="url(#p5fc70d04ab)" style="fill: none; stroke: #000000"/>
    <path d="M 253.333755 293.669716 
L 312.147984 275.616905 
" clip-path="url(#p5fc70d04ab)" style="fill: none; stroke: #000000"/>
    <path d="M 298.032222 302.022621 
L 267.449517 267.264 
" clip-path="url(#p5fc70d04ab)" style="fill: none; stroke: #000000"/>
    <path d="M 298.032222 302.022621 
L 312.147984 275.616905 
" clip-path="url(#p5fc70d04ab)" style="fill: none; stroke: #000000"/>
    <path d="M 267.449517 267.264 
L 312.147984 275.616905 
" clip-path="url(#p5fc70d04ab)" style="fill: none; stroke: #000000"/>
   </g>
   <g id="PathCollection_18">
    <g clip-path="url(#p5fc70d04ab)">
     <use xlink:href="#m3369602999" x="253.333755" y="293.669716" style="fill: #1f78b4; stroke: #1f78b4"/>
     <use xlink:href="#m3369602999" x="298.032222" y="302.022621" style="fill: #1f78b4; stroke: #1f78b4"/>
     <use xlink:href="#m3369602999" x="267.449517" y="267.264" style="fill: #1f78b4; stroke: #1f78b4"/>
     <use xlink:href="#m3369602999" x="312.147984" y="275.616905" style="fill: #1f78b4; stroke: #1f78b4"/>
    </g>
   </g>
  </g>
  <g id="axes_20">
   <g id="LineCollection_19">
    <path d="M 399.364423 267.264 
L 346.495494 270.817449 
" clip-path="url(#p8fda44800c)" style="fill: none; stroke: #000000"/>
    <path d="M 399.364423 267.264 
L 352.440794 302.022621 
" clip-path="url(#p8fda44800c)" style="fill: none; stroke: #000000"/>
    <path d="M 399.364423 267.264 
L 405.309723 298.469172 
" clip-path="url(#p8fda44800c)" style="fill: none; stroke: #000000"/>
    <path d="M 346.495494 270.817449 
L 352.440794 302.022621 
" clip-path="url(#p8fda44800c)" style="fill: none; stroke: #000000"/>
    <path d="M 346.495494 270.817449 
L 405.309723 298.469172 
" clip-path="url(#p8fda44800c)" style="fill: none; stroke: #000000"/>
    <path d="M 352.440794 302.022621 
L 405.309723 298.469172 
" clip-path="url(#p8fda44800c)" style="fill: none; stroke: #000000"/>
   </g>
   <g id="PathCollection_19">
    <g clip-path="url(#p8fda44800c)">
     <use xlink:href="#m3369602999" x="399.364423" y="267.264" style="fill: #1f78b4; stroke: #1f78b4"/>
     <use xlink:href="#m3369602999" x="346.495494" y="270.817449" style="fill: #1f78b4; stroke: #1f78b4"/>
     <use xlink:href="#m3369602999" x="352.440794" y="302.022621" style="fill: #1f78b4; stroke: #1f78b4"/>
     <use xlink:href="#m3369602999" x="405.309723" y="298.469172" style="fill: #1f78b4; stroke: #1f78b4"/>
    </g>
   </g>
  </g>
  <g id="text_1">
   <!-- generated data -->
   <g transform="translate(183.98625 16.030125) scale(0.12 -0.12)">
    <defs>
     <path id="DejaVuSans-67" d="M 2906 1791 
Q 2906 2416 2648 2759 
Q 2391 3103 1925 3103 
Q 1463 3103 1205 2759 
Q 947 2416 947 1791 
Q 947 1169 1205 825 
Q 1463 481 1925 481 
Q 2391 481 2648 825 
Q 2906 1169 2906 1791 
z
M 3481 434 
Q 3481 -459 3084 -895 
Q 2688 -1331 1869 -1331 
Q 1566 -1331 1297 -1286 
Q 1028 -1241 775 -1147 
L 775 -588 
Q 1028 -725 1275 -790 
Q 1522 -856 1778 -856 
Q 2344 -856 2625 -561 
Q 2906 -266 2906 331 
L 2906 616 
Q 2728 306 2450 153 
Q 2172 0 1784 0 
Q 1141 0 747 490 
Q 353 981 353 1791 
Q 353 2603 747 3093 
Q 1141 3584 1784 3584 
Q 2172 3584 2450 3431 
Q 2728 3278 2906 2969 
L 2906 3500 
L 3481 3500 
L 3481 434 
z
" transform="scale(0.015625)"/>
     <path id="DejaVuSans-65" d="M 3597 1894 
L 3597 1613 
L 953 1613 
Q 991 1019 1311 708 
Q 1631 397 2203 397 
Q 2534 397 2845 478 
Q 3156 559 3463 722 
L 3463 178 
Q 3153 47 2828 -22 
Q 2503 -91 2169 -91 
Q 1331 -91 842 396 
Q 353 884 353 1716 
Q 353 2575 817 3079 
Q 1281 3584 2069 3584 
Q 2775 3584 3186 3129 
Q 3597 2675 3597 1894 
z
M 3022 2063 
Q 3016 2534 2758 2815 
Q 2500 3097 2075 3097 
Q 1594 3097 1305 2825 
Q 1016 2553 972 2059 
L 3022 2063 
z
" transform="scale(0.015625)"/>
     <path id="DejaVuSans-6e" d="M 3513 2113 
L 3513 0 
L 2938 0 
L 2938 2094 
Q 2938 2591 2744 2837 
Q 2550 3084 2163 3084 
Q 1697 3084 1428 2787 
Q 1159 2491 1159 1978 
L 1159 0 
L 581 0 
L 581 3500 
L 1159 3500 
L 1159 2956 
Q 1366 3272 1645 3428 
Q 1925 3584 2291 3584 
Q 2894 3584 3203 3211 
Q 3513 2838 3513 2113 
z
" transform="scale(0.015625)"/>
     <path id="DejaVuSans-72" d="M 2631 2963 
Q 2534 3019 2420 3045 
Q 2306 3072 2169 3072 
Q 1681 3072 1420 2755 
Q 1159 2438 1159 1844 
L 1159 0 
L 581 0 
L 581 3500 
L 1159 3500 
L 1159 2956 
Q 1341 3275 1631 3429 
Q 1922 3584 2338 3584 
Q 2397 3584 2469 3576 
Q 2541 3569 2628 3553 
L 2631 2963 
z
" transform="scale(0.015625)"/>
     <path id="DejaVuSans-61" d="M 2194 1759 
Q 1497 1759 1228 1600 
Q 959 1441 959 1056 
Q 959 750 1161 570 
Q 1363 391 1709 391 
Q 2188 391 2477 730 
Q 2766 1069 2766 1631 
L 2766 1759 
L 2194 1759 
z
M 3341 1997 
L 3341 0 
L 2766 0 
L 2766 531 
Q 2569 213 2275 61 
Q 1981 -91 1556 -91 
Q 1019 -91 701 211 
Q 384 513 384 1019 
Q 384 1609 779 1909 
Q 1175 2209 1959 2209 
L 2766 2209 
L 2766 2266 
Q 2766 2663 2505 2880 
Q 2244 3097 1772 3097 
Q 1472 3097 1187 3025 
Q 903 2953 641 2809 
L 641 3341 
Q 956 3463 1253 3523 
Q 1550 3584 1831 3584 
Q 2591 3584 2966 3190 
Q 3341 2797 3341 1997 
z
" transform="scale(0.015625)"/>
     <path id="DejaVuSans-74" d="M 1172 4494 
L 1172 3500 
L 2356 3500 
L 2356 3053 
L 1172 3053 
L 1172 1153 
Q 1172 725 1289 603 
Q 1406 481 1766 481 
L 2356 481 
L 2356 0 
L 1766 0 
Q 1100 0 847 248 
Q 594 497 594 1153 
L 594 3053 
L 172 3053 
L 172 3500 
L 594 3500 
L 594 4494 
L 1172 4494 
z
" transform="scale(0.015625)"/>
     <path id="DejaVuSans-64" d="M 2906 2969 
L 2906 4863 
L 3481 4863 
L 3481 0 
L 2906 0 
L 2906 525 
Q 2725 213 2448 61 
Q 2172 -91 1784 -91 
Q 1150 -91 751 415 
Q 353 922 353 1747 
Q 353 2572 751 3078 
Q 1150 3584 1784 3584 
Q 2172 3584 2448 3432 
Q 2725 3281 2906 2969 
z
M 947 1747 
Q 947 1113 1208 752 
Q 1469 391 1925 391 
Q 2381 391 2643 752 
Q 2906 1113 2906 1747 
Q 2906 2381 2643 2742 
Q 2381 3103 1925 3103 
Q 1469 3103 1208 2742 
Q 947 2381 947 1747 
z
" transform="scale(0.015625)"/>
     <path id="DejaVuSans-20" transform="scale(0.015625)"/>
    </defs>
    <use xlink:href="#DejaVuSans-67"/>
    <use xlink:href="#DejaVuSans-65" x="63.476562"/>
    <use xlink:href="#DejaVuSans-6e" x="125"/>
    <use xlink:href="#DejaVuSans-65" x="188.378906"/>
    <use xlink:href="#DejaVuSans-72" x="249.902344"/>
    <use xlink:href="#DejaVuSans-61" x="291.015625"/>
    <use xlink:href="#DejaVuSans-74" x="352.294922"/>
    <use xlink:href="#DejaVuSans-65" x="391.503906"/>
    <use xlink:href="#DejaVuSans-64" x="453.027344"/>
    <use xlink:href="#DejaVuSans-20" x="516.503906"/>
    <use xlink:href="#DejaVuSans-64" x="548.291016"/>
    <use xlink:href="#DejaVuSans-61" x="611.767578"/>
    <use xlink:href="#DejaVuSans-74" x="673.046875"/>
    <use xlink:href="#DejaVuSans-61" x="712.255859"/>
   </g>
  </g>
 </g>
 <defs>
  <clipPath id="pfba8a2020e">
   <rect x="150.761739" y="41.472" width="77.634783" height="45.881379"/>
  </clipPath>
  <clipPath id="pd68ef4c01e">
   <rect x="243.923478" y="41.472" width="77.634783" height="45.881379"/>
  </clipPath>
  <clipPath id="p34f92fa36d">
   <rect x="337.085217" y="41.472" width="77.634783" height="45.881379"/>
  </clipPath>
  <clipPath id="pb8536ed10f">
   <rect x="57.6" y="96.529655" width="77.634783" height="45.881379"/>
  </clipPath>
  <clipPath id="p6e889e2fdb">
   <rect x="150.761739" y="96.529655" width="77.634783" height="45.881379"/>
  </clipPath>
  <clipPath id="pc66272c758">
   <rect x="243.923478" y="96.529655" width="77.634783" height="45.881379"/>
  </clipPath>
  <clipPath id="pa938844f89">
   <rect x="337.085217" y="96.529655" width="77.634783" height="45.881379"/>
  </clipPath>
  <clipPath id="p624c820d4d">
   <rect x="57.6" y="151.58731" width="77.634783" height="45.881379"/>
  </clipPath>
  <clipPath id="pc9dd23f6e5">
   <rect x="150.761739" y="151.58731" width="77.634783" height="45.881379"/>
  </clipPath>
  <clipPath id="p0827f98824">
   <rect x="243.923478" y="151.58731" width="77.634783" height="45.881379"/>
  </clipPath>
  <clipPath id="pfadff43a18">
   <rect x="337.085217" y="151.58731" width="77.634783" height="45.881379"/>
  </clipPath>
  <clipPath id="pfa36a604bc">
   <rect x="57.6" y="206.644966" width="77.634783" height="45.881379"/>
  </clipPath>
  <clipPath id="p55c0394e9f">
   <rect x="150.761739" y="206.644966" width="77.634783" height="45.881379"/>
  </clipPath>
  <clipPath id="p79cd738d45">
   <rect x="243.923478" y="206.644966" width="77.634783" height="45.881379"/>
  </clipPath>
  <clipPath id="p2ee01d8e7c">
   <rect x="337.085217" y="206.644966" width="77.634783" height="45.881379"/>
  </clipPath>
  <clipPath id="pdbc6bcacf2">
   <rect x="57.6" y="261.702621" width="77.634783" height="45.881379"/>
  </clipPath>
  <clipPath id="p27db34458e">
   <rect x="150.761739" y="261.702621" width="77.634783" height="45.881379"/>
  </clipPath>
  <clipPath id="p5fc70d04ab">
   <rect x="243.923478" y="261.702621" width="77.634783" height="45.881379"/>
  </clipPath>
  <clipPath id="p8fda44800c">
   <rect x="337.085217" y="261.702621" width="77.634783" height="45.881379"/>
  </clipPath>
 </defs>
</svg>
